<?xml version="1.0" encoding="UTF-8" standalone="no"?>
<svg width="33px" height="34px" viewBox="0 0 33 34" version="1.1" xmlns="http://www.w3.org/2000/svg" xmlns:xlink="http://www.w3.org/1999/xlink">
    <!-- Generator: Sketch 3.6.1 (26313) - http://www.bohemiancoding.com/sketch -->
    <title>help_desk</title>
    <desc>Created with Sketch.</desc>
    <defs></defs>
    <g id="Page-1" stroke="none" stroke-width="1" fill="none" fill-rule="evenodd">
        <g id="home" transform="translate(-345.000000, -632.000000)" fill="#ED8800">
            <g id="help_desk" transform="translate(345.000000, 632.000000)">
                <path d="M5.5,33.4970414 L1.375,33.4970414 C0.55,33.4970414 0,32.94714 0,32.122288 L0,1.87771203 C0,1.05285996 0.55,0.50295858 1.375,0.50295858 L5.5,0.50295858 C6.325,0.50295858 6.875,1.05285996 6.875,1.87771203 L6.875,32.122288 C6.875,32.94714 6.325,33.4970414 5.5,33.4970414 L5.5,33.4970414 Z M2.75,30.7475345 L4.125,30.7475345 L4.125,3.25246548 L2.75,3.25246548 L2.75,30.7475345 L2.75,30.7475345 Z" id="Shape"></path>
                <path d="M13.75,21.1242604 C10.8625,21.1242604 5.3625,19.7495069 5.225,19.7495069 C4.5375,19.6120316 3.9875,18.7871795 4.2625,18.0998028 C4.4,17.412426 5.225,16.8625247 5.9125,17.1374753 C5.9125,17.1374753 11.275,18.5122288 13.8875,18.5122288 C15.125,18.5122288 17.1875,18.2372781 19.1125,17.8248521 C21.3125,17.412426 23.375,17.1374753 24.8875,17.1374753 C26.675,17.1374753 28.875,17.6873767 30.3875,18.0998028 L30.3875,4.2147929 C28.875,3.93984221 26.5375,3.25246548 24.75,3.25246548 C23.5125,3.25246548 21.45,3.52741617 19.525,3.93984221 C17.325,4.35226824 15.2625,4.62721893 13.75,4.62721893 C10.8625,4.62721893 5.3625,3.25246548 5.225,3.25246548 C4.4,2.97751479 3.9875,2.29013807 4.125,1.60276134 C4.4,0.77790927 5.0875,0.365483235 5.775,0.50295858 C5.775,0.50295858 11.1375,1.87771203 13.75,1.87771203 C14.9875,1.87771203 17.05,1.60276134 18.975,1.19033531 C21.175,0.77790927 23.2375,0.50295858 24.75,0.50295858 C27.6375,0.50295858 31.9,1.87771203 32.0375,2.01518738 C32.5875,2.15266272 33,2.7025641 33,3.25246548 L33,19.7495069 C33,20.1619329 32.725,20.574359 32.45,20.8493097 C32.0375,21.1242604 31.625,21.1242604 31.2125,20.986785 C31.2125,20.986785 27.225,19.7495069 24.75,19.7495069 C23.5125,19.7495069 21.45,20.0244576 19.525,20.4368836 C17.325,20.8493097 15.2625,21.1242604 13.75,21.1242604 L13.75,21.1242604 Z" id="Shape"></path>
            </g>
        </g>
    </g>
</svg>