<?xml version="1.0" encoding="UTF-8" standalone="no"?>
<svg width="38px" height="38px" viewBox="0 0 38 38" version="1.1" xmlns="http://www.w3.org/2000/svg" xmlns:xlink="http://www.w3.org/1999/xlink">
    <!-- Generator: Sketch 3.6.1 (26313) - http://www.bohemiancoding.com/sketch -->
    <title>outofoffice</title>
    <desc>Created with Sketch.</desc>
    <defs></defs>
    <g id="Page-1" stroke="none" stroke-width="1" fill="none" fill-rule="evenodd">
        <g id="home" transform="translate(-1218.000000, -644.000000)" fill="#00B5E2">
            <g id="outofoffice" transform="translate(1237.000000, 663.000000) scale(-1, 1) translate(-1237.000000, -663.000000) translate(1218.000000, 644.000000)">
                <g id="Layer_1">
                    <g id="Group">
                        <path d="M23.4,38 C22.932,38 22.62,37.844 22.308,37.532 L0.468,15.692 C0.156,15.38 0,14.756 0,14.288 C0.156,13.82 0.468,13.352 0.936,13.196 L35.256,0.716 C35.88,0.56 36.504,0.716 36.816,1.028 C37.284,1.496 37.44,2.12 37.128,2.588 L24.648,36.908 C24.492,37.376 24.024,37.844 23.556,37.844 C23.556,38 23.556,38 23.4,38 L23.4,38 Z M4.368,15.224 L22.776,33.632 L33.228,4.772 L4.368,15.224 L4.368,15.224 Z" id="Shape"></path>
                        <path d="M8.112,23.336 C7.644,22.712 7.644,21.62 8.424,21.152 L34.3237298,1.31506348 C34.9477298,0.84706348 35.4494798,0.845244182 35.9174798,1.62524418 C36.3854798,2.24924418 37.1037298,3.22206354 36.3237298,3.69006354 L10.296,23.648 C9.984,23.804 9.672,23.96 9.36,23.96 C8.892,23.96 8.424,23.804 8.112,23.336 Z" id="Shape"></path>
                        <path d="M9.36,36.44 C8.424,36.44 7.8,35.816 7.8,34.88 L7.8,22.4 C7.8,21.464 8.424,20.84 9.36,20.84 C10.296,20.84 10.92,21.464 10.92,22.4 L10.92,34.88 C10.92,35.816 10.296,36.44 9.36,36.44 L9.36,36.44 Z" id="Shape"></path>
                        <path d="M9.36,36.44 C9.048,36.44 8.736,36.284 8.424,36.128 C7.8,35.66 7.644,34.568 8.268,33.944 L13.728,27.08 C14.196,26.456 15.288,26.3 15.912,26.924 C16.536,27.392 16.692,28.484 16.068,29.108 L10.452,35.972 C10.296,36.284 9.828,36.44 9.36,36.44 L9.36,36.44 Z" id="Shape"></path>
                    </g>
                </g>
            </g>
        </g>
    </g>
</svg>