<?xml version="1.0" encoding="UTF-8" standalone="no"?>
<svg width="43px" height="42px" viewBox="0 0 43 42" version="1.1" xmlns="http://www.w3.org/2000/svg" xmlns:xlink="http://www.w3.org/1999/xlink">
    <!-- Generator: Sketch 3.6.1 (26313) - http://www.bohemiancoding.com/sketch -->
    <title>remote</title>
    <desc>Created with Sketch.</desc>
    <defs></defs>
    <g id="Page-1" stroke="none" stroke-width="1" fill="none" fill-rule="evenodd">
        <g id="home" transform="translate(-627.000000, -644.000000)" fill="#008EAA">
            <g id="remote" transform="translate(627.000000, 644.000000)">
                <g id="Layer_1">
                    <g id="Group">
                        <path d="M33.3415385,42 L8.79846154,42 C7.74661538,42 7.04538462,41.3 7.04538462,40.25 L7.04538462,24.5 L1.78615385,24.5 C1.08492308,24.5 0.383692308,24.15 0.208384615,23.45 C-0.142230769,22.75 0.0330769231,22.05 0.559,21.525 L19.8428462,0.525 C20.5440769,-0.175 21.7712308,-0.175 22.4724615,0.525 L41.7563077,21.525 C42.2822308,22.05 42.2822308,22.75 42.1069231,23.45 C41.7563077,24.15 41.0550769,24.5 40.3538462,24.5 L35.0946154,24.5 L35.0946154,40.25 C35.0946154,41.3 34.3933846,42 33.3415385,42 L33.3415385,42 Z M10.5515385,38.5 L31.5884615,38.5 L31.5884615,22.75 C31.5884615,21.7 32.2896923,21 33.3415385,21 L36.3217692,21 L21.07,4.375 L5.81823077,21 L8.79846154,21 C9.85030769,21 10.5515385,21.7 10.5515385,22.75 L10.5515385,38.5 L10.5515385,38.5 Z" id="Shape"></path>
                        <path d="M24.5761538,42 L17.5638462,42 C16.512,42 15.8107692,41.3 15.8107692,40.25 L15.8107692,29.75 C15.8107692,28.7 16.512,28 17.5638462,28 L24.5761538,28 C25.628,28 26.3292308,28.7 26.3292308,29.75 L26.3292308,40.25 C26.3292308,41.3 25.628,42 24.5761538,42 L24.5761538,42 Z M19.3169231,38.5 L22.8230769,38.5 L22.8230769,31.5 L19.3169231,31.5 L19.3169231,38.5 L19.3169231,38.5 Z" id="Shape"></path>
                        <path d="M21.07,22.75 C18.0897692,22.75 15.8107692,20.475 15.8107692,17.5 C15.8107692,14.525 18.0897692,12.25 21.07,12.25 C24.0502308,12.25 26.3292308,14.525 26.3292308,17.5 C26.3292308,20.475 24.0502308,22.75 21.07,22.75 L21.07,22.75 Z M21.07,15.75 C20.0181538,15.75 19.3169231,16.45 19.3169231,17.5 C19.3169231,18.55 20.0181538,19.25 21.07,19.25 C22.1218462,19.25 22.8230769,18.55 22.8230769,17.5 C22.8230769,16.45 22.1218462,15.75 21.07,15.75 L21.07,15.75 Z" id="Shape"></path>
                    </g>
                </g>
            </g>
        </g>
    </g>
</svg>