<?xml version="1.0" encoding="UTF-8" standalone="no"?>
<svg width="84px" height="222px" viewBox="0 0 84 222" version="1.1" xmlns="http://www.w3.org/2000/svg" xmlns:xlink="http://www.w3.org/1999/xlink">
    <!-- Generator: Sketch 3.6.1 (26313) - http://www.bohemiancoding.com/sketch -->
    <title>Cal</title>
    <desc>Created with Sketch.</desc>
    <defs></defs>
    <g id="Page-1" stroke="none" stroke-width="1" fill="none" fill-rule="evenodd">
        <g id="Team" transform="translate(-383.000000, -309.000000)">
            <g id="Cal" transform="translate(383.000000, 309.000000)">
                <path d="M42,36 L48,36 L48,30 L42,30 L42,36 Z" id="Fill-1" fill="#D9A484"></path>
                <path d="M42,60 L48,60 L48,54 L42,54 L42,60 Z" id="Fill-2" fill="#151F45"></path>
                <path d="M48,138 L54,138 L54,132 L48,132 L48,138 Z" id="Fill-3" fill="#1E201D"></path>
                <path d="M54,138 L60,138 L60,132 L54,132 L54,138 Z" id="Fill-4" fill="#1E201D"></path>
                <path d="M48,144 L54,144 L54,138 L48,138 L48,144 Z" id="Fill-5" fill="#1E201D"></path>
                <path d="M54,144 L60,144 L60,138 L54,138 L54,144 Z" id="Fill-6" fill="#1E201D"></path>
                <path d="M54,150 L60,150 L60,144 L54,144 L54,150 Z" id="Fill-7" fill="#1E201D"></path>
                <path d="M54,156 L60,156 L60,150 L54,150 L54,156 Z" id="Fill-8" fill="#1E201D"></path>
                <path d="M54,162 L60,162 L60,156 L54,156 L54,162 Z" id="Fill-9" fill="#1E201D"></path>
                <path d="M54,168 L60,168 L60,162 L54,162 L54,168 Z" id="Fill-10" fill="#1E201D"></path>
                <path d="M54,174 L60,174 L60,168 L54,168 L54,174 Z" id="Fill-11" fill="#35202A"></path>
                <path d="M48,180 L54,180 L54,174 L48,174 L48,180 Z" id="Fill-12" fill="#1E201D"></path>
                <path d="M48,186 L54,186 L54,180 L48,180 L48,186 Z" id="Fill-13" fill="#1E201D"></path>
                <path d="M48,192 L54,192 L54,186 L48,186 L48,192 Z" id="Fill-14" fill="#1E201D"></path>
                <path d="M48,198 L54,198 L54,192 L48,192 L48,198 Z" id="Fill-15" fill="#1E201D"></path>
                <path d="M48,204 L54,204 L54,198 L48,198 L48,204 Z" id="Fill-16" fill="#1E201D"></path>
                <path d="M48,210 L54,210 L54,204 L48,204 L48,210 Z" id="Fill-17" fill="#1E201D"></path>
                <path d="M48,216 L54,216 L54,210 L48,210 L48,216 Z" id="Fill-18" fill="#25130C"></path>
                <path d="M48,222 L54,222 L54,216 L48,216 L48,222 Z" id="Fill-19" fill="#25130C"></path>
                <path d="M54,222 L60,222 L60,216 L54,216 L54,222 Z" id="Fill-20" fill="#25130C"></path>
                <path d="M60,222 L66,222 L66,216 L60,216 L60,222 Z" id="Fill-21" fill="#25130C"></path>
                <path d="M54,216 L60,216 L60,210 L54,210 L54,216 Z" id="Fill-22" fill="#32322E"></path>
                <path d="M54,210 L60,210 L60,204 L54,204 L54,210 Z" id="Fill-23" fill="#32322E"></path>
                <path d="M54,204 L60,204 L60,198 L54,198 L54,204 Z" id="Fill-24" fill="#32322E"></path>
                <path d="M54,198 L60,198 L60,192 L54,192 L54,198 Z" id="Fill-25" fill="#32322E"></path>
                <path d="M54,192 L60,192 L60,186 L54,186 L54,192 Z" id="Fill-26" fill="#32322E"></path>
                <path d="M54,186 L60,186 L60,180 L54,180 L54,186 Z" id="Fill-27" fill="#32322E"></path>
                <path d="M54,180 L60,180 L60,174 L54,174 L54,180 Z" id="Fill-28" fill="#724551"></path>
                <path d="M54,174 L60,174 L60,168 L54,168 L54,174 Z" id="Fill-29" fill="#32322E"></path>
                <path d="M60,174 L66,174 L66,168 L60,168 L60,174 Z" id="Fill-30" fill="#32322E"></path>
                <path d="M60,168 L66,168 L66,162 L60,162 L60,168 Z" id="Fill-31" fill="#32322E"></path>
                <path d="M60,162 L66,162 L66,156 L60,156 L60,162 Z" id="Fill-32" fill="#32322E"></path>
                <path d="M60,156 L66,156 L66,150 L60,150 L60,156 Z" id="Fill-33" fill="#32322E"></path>
                <path d="M60,150 L66,150 L66,144 L60,144 L60,150 Z" id="Fill-34" fill="#32322E"></path>
                <path d="M60,144 L66,144 L66,138 L60,138 L60,144 Z" id="Fill-35" fill="#32322E"></path>
                <path d="M60,138 L66,138 L66,132 L60,132 L60,138 Z" id="Fill-36" fill="#32322E"></path>
                <path d="M48,174 L54,174 L54,168 L48,168 L48,174 Z" id="Fill-37" fill="#1E201D"></path>
                <path d="M48,168 L54,168 L54,162 L48,162 L48,168 Z" id="Fill-38" fill="#1E201D"></path>
                <path d="M48,162 L54,162 L54,156 L48,156 L48,162 Z" id="Fill-39" fill="#1E201D"></path>
                <path d="M48,156 L54,156 L54,150 L48,150 L48,156 Z" id="Fill-40" fill="#1E201D"></path>
                <path d="M48,150 L54,150 L54,144 L48,144 L48,150 Z" id="Fill-41" fill="#1E201D"></path>
                <path d="M54,180 L60,180 L60,174 L54,174 L54,180 Z" id="Fill-42" fill="#1E201D"></path>
                <path d="M18,138 L24,138 L24,132 L18,132 L18,138 Z" id="Fill-43" fill="#1E201D"></path>
                <path d="M24,138 L30,138 L30,132 L24,132 L24,138 Z" id="Fill-44" fill="#1E201D"></path>
                <path d="M18,144 L24,144 L24,138 L18,138 L18,144 Z" id="Fill-45" fill="#1E201D"></path>
                <path d="M24,144 L30,144 L30,138 L24,138 L24,144 Z" id="Fill-46" fill="#1E201D"></path>
                <path d="M24,150 L30,150 L30,144 L24,144 L24,150 Z" id="Fill-47" fill="#1E201D"></path>
                <path d="M24,156 L30,156 L30,150 L24,150 L24,156 Z" id="Fill-48" fill="#1E201D"></path>
                <path d="M24,162 L30,162 L30,156 L24,156 L24,162 Z" id="Fill-49" fill="#1E201D"></path>
                <path d="M24,168 L30,168 L30,162 L24,162 L24,168 Z" id="Fill-50" fill="#1E201D"></path>
                <path d="M24,174 L30,174 L30,168 L24,168 L24,174 Z" id="Fill-51" fill="#35202A"></path>
                <path d="M18,180 L24,180 L24,174 L18,174 L18,180 Z" id="Fill-52" fill="#1E201D"></path>
                <path d="M18,186 L24,186 L24,180 L18,180 L18,186 Z" id="Fill-53" fill="#1E201D"></path>
                <path d="M18,192 L24,192 L24,186 L18,186 L18,192 Z" id="Fill-54" fill="#1E201D"></path>
                <path d="M18,198 L24,198 L24,192 L18,192 L18,198 Z" id="Fill-55" fill="#1E201D"></path>
                <path d="M18,204 L24,204 L24,198 L18,198 L18,204 Z" id="Fill-56" fill="#1E201D"></path>
                <path d="M18,210 L24,210 L24,204 L18,204 L18,210 Z" id="Fill-57" fill="#1E201D"></path>
                <path d="M18,216 L24,216 L24,210 L18,210 L18,216 Z" id="Fill-58" fill="#25130C"></path>
                <path d="M18,222 L24,222 L24,216 L18,216 L18,222 Z" id="Fill-59" fill="#25130C"></path>
                <path d="M24,222 L30,222 L30,216 L24,216 L24,222 Z" id="Fill-60" fill="#25130C"></path>
                <path d="M30,222 L36,222 L36,216 L30,216 L30,222 Z" id="Fill-61" fill="#25130C"></path>
                <path d="M24,216 L30,216 L30,210 L24,210 L24,216 Z" id="Fill-62" fill="#32322E"></path>
                <path d="M24,210 L30,210 L30,204 L24,204 L24,210 Z" id="Fill-63" fill="#32322E"></path>
                <path d="M24,204 L30,204 L30,198 L24,198 L24,204 Z" id="Fill-64" fill="#32322E"></path>
                <path d="M24,198 L30,198 L30,192 L24,192 L24,198 Z" id="Fill-65" fill="#32322E"></path>
                <path d="M24,192 L30,192 L30,186 L24,186 L24,192 Z" id="Fill-66" fill="#32322E"></path>
                <path d="M24,186 L30,186 L30,180 L24,180 L24,186 Z" id="Fill-67" fill="#32322E"></path>
                <path d="M24,180 L30,180 L30,174 L24,174 L24,180 Z" id="Fill-68" fill="#724551"></path>
                <path d="M24,174 L30,174 L30,168 L24,168 L24,174 Z" id="Fill-69" fill="#32322E"></path>
                <path d="M30,174 L36,174 L36,168 L30,168 L30,174 Z" id="Fill-70" fill="#32322E"></path>
                <path d="M30,168 L36,168 L36,162 L30,162 L30,168 Z" id="Fill-71" fill="#32322E"></path>
                <path d="M30,162 L36,162 L36,156 L30,156 L30,162 Z" id="Fill-72" fill="#32322E"></path>
                <path d="M30,156 L36,156 L36,150 L30,150 L30,156 Z" id="Fill-73" fill="#32322E"></path>
                <path d="M30,150 L36,150 L36,144 L30,144 L30,150 Z" id="Fill-74" fill="#32322E"></path>
                <path d="M30,144 L36,144 L36,138 L30,138 L30,144 Z" id="Fill-75" fill="#32322E"></path>
                <path d="M30,138 L36,138 L36,132 L30,132 L30,138 Z" id="Fill-76" fill="#32322E"></path>
                <path d="M24,132 L30,132 L30,126 L24,126 L24,132 Z" id="Fill-77" fill="#32322E"></path>
                <path d="M18,126 L24,126 L24,120 L18,120 L18,126 Z" id="Fill-78" fill="#32322E"></path>
                <path d="M24,126 L30,126 L30,120 L24,120 L24,126 Z" id="Fill-79" fill="#B97C2A"></path>
                <path d="M30,126 L36,126 L36,120 L30,120 L30,126 Z" id="Fill-80" fill="#B97C2A"></path>
                <path d="M36,126 L42,126 L42,120 L36,120 L36,126 Z" id="Fill-81" fill="#B97C2A"></path>
                <path d="M42,126 L48,126 L48,120 L42,120 L42,126 Z" id="Fill-82" fill="#B97C2A"></path>
                <path d="M48,126 L54,126 L54,120 L48,120 L48,126 Z" id="Fill-83" fill="#B97C2A"></path>
                <path d="M54,126 L60,126 L60,120 L54,120 L54,126 Z" id="Fill-84" fill="#B97C2A"></path>
                <path d="M24,120 L30,120 L30,114 L24,114 L24,120 Z" id="Fill-85" fill="#E17626"></path>
                <path d="M30,120 L36,120 L36,114 L30,114 L30,120 Z" id="Fill-86" fill="#E17626"></path>
                <path d="M36,120 L42,120 L42,114 L36,114 L36,120 Z" id="Fill-87" fill="#DC9C26"></path>
                <path d="M42,120 L48,120 L48,114 L42,114 L42,120 Z" id="Fill-88" fill="#B86027"></path>
                <path d="M48,120 L54,120 L54,114 L48,114 L48,120 Z" id="Fill-89" fill="#E17626"></path>
                <path d="M54,120 L60,120 L60,114 L54,114 L54,120 Z" id="Fill-90" fill="#E17626"></path>
                <path d="M60,120 L66,120 L66,114 L60,114 L60,120 Z" id="Fill-91" fill="#C35D27"></path>
                <path d="M60,114 L66,114 L66,108 L60,108 L60,114 Z" id="Fill-92" fill="#C35D27"></path>
                <path d="M60,108 L66,108 L66,102 L60,102 L60,108 Z" id="Fill-93" fill="#C35D27"></path>
                <path d="M24,114 L30,114 L30,108 L24,108 L24,114 Z" id="Fill-94" fill="#E17626"></path>
                <path d="M30,114 L36,114 L36,108 L30,108 L30,114 Z" id="Fill-95" fill="#E17626"></path>
                <path d="M36,114 L42,114 L42,108 L36,108 L36,114 Z" id="Fill-96" fill="#DC9C26"></path>
                <path d="M42,114 L48,114 L48,108 L42,108 L42,114 Z" id="Fill-97" fill="#B86027"></path>
                <path d="M48,114 L54,114 L54,108 L48,108 L48,114 Z" id="Fill-98" fill="#E17626"></path>
                <path d="M54,114 L60,114 L60,108 L54,108 L54,114 Z" id="Fill-99" fill="#E17626"></path>
                <path d="M24,108 L30,108 L30,102 L24,102 L24,108 Z" id="Fill-100" fill="#E17626"></path>
                <path d="M30,108 L36,108 L36,102 L30,102 L30,108 Z" id="Fill-101" fill="#E17626"></path>
                <path d="M36,108 L42,108 L42,102 L36,102 L36,108 Z" id="Fill-102" fill="#DC9C26"></path>
                <path d="M42,108 L48,108 L48,102 L42,102 L42,108 Z" id="Fill-103" fill="#B86027"></path>
                <path d="M48,108 L54,108 L54,102 L48,102 L48,108 Z" id="Fill-104" fill="#E17626"></path>
                <path d="M54,108 L60,108 L60,102 L54,102 L54,108 Z" id="Fill-105" fill="#E17626"></path>
                <path d="M24,102 L30,102 L30,96 L24,96 L24,102 Z" id="Fill-106" fill="#E17626"></path>
                <path d="M30,102 L36,102 L36,96 L30,96 L30,102 Z" id="Fill-107" fill="#E17626"></path>
                <path d="M36,102 L42,102 L42,96 L36,96 L36,102 Z" id="Fill-108" fill="#DC9C26"></path>
                <path d="M42,102 L48,102 L48,96 L42,96 L42,102 Z" id="Fill-109" fill="#B86027"></path>
                <path d="M48,102 L54,102 L54,96 L48,96 L48,102 Z" id="Fill-110" fill="#E17626"></path>
                <path d="M54,102 L60,102 L60,96 L54,96 L54,102 Z" id="Fill-111" fill="#E17626"></path>
                <path d="M60,102 L66,102 L66,96 L60,96 L60,102 Z" id="Fill-112" fill="#E17626"></path>
                <path d="M60,96 L66,96 L66,90 L60,90 L60,96 Z" id="Fill-113" fill="#E17626"></path>
                <path d="M60,90 L66,90 L66,84 L60,84 L60,90 Z" id="Fill-114" fill="#E17626"></path>
                <path d="M60,84 L66,84 L66,78 L60,78 L60,84 Z" id="Fill-115" fill="#E17626"></path>
                <path d="M60,78 L66,78 L66,72 L60,72 L60,78 Z" id="Fill-116" fill="#E17626"></path>
                <path d="M60,72 L66,72 L66,66 L60,66 L60,72 Z" id="Fill-117" fill="#E17626"></path>
                <path d="M60,66 L66,66 L66,60 L60,60 L60,66 Z" id="Fill-118" fill="#E17626"></path>
                <path d="M24,96 L30,96 L30,90 L24,90 L24,96 Z" id="Fill-119" fill="#E17626"></path>
                <path d="M30,96 L36,96 L36,90 L30,90 L30,96 Z" id="Fill-120" fill="#E17626"></path>
                <path d="M36,96 L42,96 L42,90 L36,90 L36,96 Z" id="Fill-121" fill="#DC9C26"></path>
                <path d="M42,96 L48,96 L48,90 L42,90 L42,96 Z" id="Fill-122" fill="#B86027"></path>
                <path d="M48,96 L54,96 L54,90 L48,90 L48,96 Z" id="Fill-123" fill="#E17626"></path>
                <path d="M54,96 L60,96 L60,90 L54,90 L54,96 Z" id="Fill-124" fill="#E17626"></path>
                <path d="M24,90 L30,90 L30,84 L24,84 L24,90 Z" id="Fill-125" fill="#E17626"></path>
                <path d="M30,90 L36,90 L36,84 L30,84 L30,90 Z" id="Fill-126" fill="#E17626"></path>
                <path d="M36,90 L42,90 L42,84 L36,84 L36,90 Z" id="Fill-127" fill="#DC9C26"></path>
                <path d="M42,90 L48,90 L48,84 L42,84 L42,90 Z" id="Fill-128" fill="#B86027"></path>
                <path d="M48,90 L54,90 L54,84 L48,84 L48,90 Z" id="Fill-129" fill="#E17626"></path>
                <path d="M54,90 L60,90 L60,84 L54,84 L54,90 Z" id="Fill-130" fill="#E17626"></path>
                <path d="M24,84 L30,84 L30,78 L24,78 L24,84 Z" id="Fill-131" fill="#E17626"></path>
                <path d="M30,84 L36,84 L36,78 L30,78 L30,84 Z" id="Fill-132" fill="#E17626"></path>
                <path d="M36,84 L42,84 L42,78 L36,78 L36,84 Z" id="Fill-133" fill="#DC9C26"></path>
                <path d="M42,84 L48,84 L48,78 L42,78 L42,84 Z" id="Fill-134" fill="#B86027"></path>
                <path d="M48,84 L54,84 L54,78 L48,78 L48,84 Z" id="Fill-135" fill="#E17626"></path>
                <path d="M54,84 L60,84 L60,78 L54,78 L54,84 Z" id="Fill-136" fill="#E17626"></path>
                <path d="M24,78 L30,78 L30,72 L24,72 L24,78 Z" id="Fill-137" fill="#E17626"></path>
                <path d="M30,78 L36,78 L36,72 L30,72 L30,78 Z" id="Fill-138" fill="#E17626"></path>
                <path d="M36,78 L42,78 L42,72 L36,72 L36,78 Z" id="Fill-139" fill="#DC9C26"></path>
                <path d="M42,78 L48,78 L48,72 L42,72 L42,78 Z" id="Fill-140" fill="#B86027"></path>
                <path d="M48,78 L54,78 L54,72 L48,72 L48,78 Z" id="Fill-141" fill="#E17626"></path>
                <path d="M54,78 L60,78 L60,72 L54,72 L54,78 Z" id="Fill-142" fill="#E17626"></path>
                <path d="M24,72 L30,72 L30,66 L24,66 L24,72 Z" id="Fill-143" fill="#E17626"></path>
                <path d="M30,72 L36,72 L36,66 L30,66 L30,72 Z" id="Fill-144" fill="#E17626"></path>
                <path d="M36,72 L42,72 L42,66 L36,66 L36,72 Z" id="Fill-145" fill="#DC9C26"></path>
                <path d="M42,72 L48,72 L48,66 L42,66 L42,72 Z" id="Fill-146" fill="#B86027"></path>
                <path d="M48,72 L54,72 L54,66 L48,66 L48,72 Z" id="Fill-147" fill="#E17626"></path>
                <path d="M54,72 L60,72 L60,66 L54,66 L54,72 Z" id="Fill-148" fill="#E17626"></path>
                <path d="M24,66 L30,66 L30,60 L24,60 L24,66 Z" id="Fill-149" fill="#E17626"></path>
                <path d="M30,66 L36,66 L36,60 L30,60 L30,66 Z" id="Fill-150" fill="#E17626"></path>
                <path d="M24,60 L30,60 L30,54 L24,54 L24,60 Z" id="Fill-151" fill="#B86027"></path>
                <path d="M18,120 L24,120 L24,114 L18,114 L18,120 Z" id="Fill-152" fill="#C35D27"></path>
                <path d="M18,114 L24,114 L24,108 L18,108 L18,114 Z" id="Fill-153" fill="#C35D27"></path>
                <path d="M18,108 L24,108 L24,102 L18,102 L18,108 Z" id="Fill-154" fill="#C35D27"></path>
                <path d="M18,102 L24,102 L24,96 L18,96 L18,102 Z" id="Fill-155" fill="#C35D27"></path>
                <path d="M18,96 L24,96 L24,90 L18,90 L18,96 Z" id="Fill-156" fill="#C35D27"></path>
                <path d="M18,90 L24,90 L24,84 L18,84 L18,90 Z" id="Fill-157" fill="#C35D27"></path>
                <path d="M18,84 L24,84 L24,78 L18,78 L18,84 Z" id="Fill-158" fill="#C35D27"></path>
                <path d="M18,78 L24,78 L24,72 L18,72 L18,78 Z" id="Fill-159" fill="#C35D27"></path>
                <path d="M18,72 L24,72 L24,66 L18,66 L18,72 Z" id="Fill-160" fill="#C35D27"></path>
                <path d="M18,66 L24,66 L24,60 L18,60 L18,66 Z" id="Fill-161" fill="#C35D27"></path>
                <path d="M18,60 L24,60 L24,54 L18,54 L18,60 Z" id="Fill-162" fill="#C35D27"></path>
                <path d="M60,60 L66,60 L66,54 L60,54 L60,60 Z" id="Fill-163" fill="#E17626"></path>
                <path d="M66,60 L72,60 L72,54 L66,54 L66,60 Z" id="Fill-164" fill="#E17626"></path>
                <path d="M66,66 L72,66 L72,60 L66,60 L66,66 Z" id="Fill-165" fill="#E17626"></path>
                <path d="M66,72 L72,72 L72,66 L66,66 L66,72 Z" id="Fill-166" fill="#E17626"></path>
                <path d="M66,108 L72,108 L72,102 L66,102 L66,108 Z" id="Fill-167" fill="#E17626"></path>
                <path d="M66,114 L72,114 L72,108 L66,108 L66,114 Z" id="Fill-168" fill="#E17626"></path>
                <path d="M66,120 L72,120 L72,114 L66,114 L66,120 Z" id="Fill-169" fill="#E17626"></path>
                <path d="M72,96 L78,96 L78,90 L72,90 L72,96 Z" id="Fill-170" fill="#C35D27"></path>
                <path d="M72,102 L78,102 L78,96 L72,96 L72,102 Z" id="Fill-171" fill="#C35D27"></path>
                <path d="M72,108 L78,108 L78,102 L72,102 L72,108 Z" id="Fill-172" fill="#C35D27"></path>
                <path d="M78,84 L84,84 L84,78 L78,78 L78,84 Z" id="Fill-173" fill="#E17626"></path>
                <path d="M78,90 L84,90 L84,84 L78,84 L78,90 Z" id="Fill-174" fill="#E17626"></path>
                <path d="M78,96 L84,96 L84,90 L78,90 L78,96 Z" id="Fill-175" fill="#E17626"></path>
                <path d="M72,78 L78,78 L78,72 L72,72 L72,78 Z" id="Fill-176" fill="#E17626"></path>
                <path d="M72,72 L78,72 L78,66 L72,66 L72,72 Z" id="Fill-177" fill="#E17626"></path>
                <path d="M78,78 L84,78 L84,71.997 L78,71.997 L78,78 Z" id="Fill-178" fill="#E17626"></path>
                <path d="M72,66 L78,66 L78,60 L72,60 L72,66 Z" id="Fill-179" fill="#E17626"></path>
                <path d="M72,84 L78,84 L78,78 L72,78 L72,84 Z" id="Fill-180" fill="#C35D27"></path>
                <path d="M72,90 L78,90 L78,84 L72,84 L72,90 Z" id="Fill-181" fill="#C35D27"></path>
                <path d="M12,60 L18,60 L18,54 L12,54 L12,60 Z" id="Fill-182" fill="#B74E26"></path>
                <path d="M12,66 L18,66 L18,60 L12,60 L12,66 Z" id="Fill-183" fill="#B74E26"></path>
                <path d="M12,72 L18,72 L18,66 L12,66 L12,72 Z" id="Fill-184" fill="#C35D27"></path>
                <path d="M12,78 L18,78 L18,72 L12,72 L12,78 Z" id="Fill-185" fill="#C35D27"></path>
                <path d="M6,66 L12,66 L12,60 L6,60 L6,66 Z" id="Fill-186" fill="#B74E26"></path>
                <path d="M6,72 L12,72 L12,66 L6,66 L6,72 Z" id="Fill-187" fill="#B74E26"></path>
                <path d="M6,78 L12,78 L12,72 L6,72 L6,78 Z" id="Fill-188" fill="#B74E26"></path>
                <path d="M6,84 L12,84 L12,78 L6,78 L6,84 Z" id="Fill-189" fill="#B74E26"></path>
                <path d="M6,90 L12,90 L12,84 L6,84 L6,90 Z" id="Fill-190" fill="#B74E26"></path>
                <path d="M6,96 L12,96 L12,90 L6,90 L6,96 Z" id="Fill-191" fill="#B74E26"></path>
                <path d="M0,72 L6,72 L6,66 L0,66 L0,72 Z" id="Fill-192" fill="#B74E26"></path>
                <path d="M0,78 L6,78 L6,71.997 L0,71.997 L0,78 Z" id="Fill-193" fill="#B74E26"></path>
                <path d="M0,84 L6,84 L6,78 L0,78 L0,84 Z" id="Fill-194" fill="#B74E26"></path>
                <path d="M0,90 L6,90 L6,84 L0,84 L0,90 Z" id="Fill-195" fill="#B74E26"></path>
                <path d="M0,96 L6,96 L6,90 L0,90 L0,96 Z" id="Fill-196" fill="#B74E26"></path>
                <path d="M0,102 L6,102 L6,95.997 L0,95.997 L0,102 Z" id="Fill-197" fill="#B74E26"></path>
                <path d="M6,102 L12,102 L12,96 L6,96 L6,102 Z" id="Fill-198" fill="#B74E26"></path>
                <path d="M6,102 L12,102 L12,96 L6,96 L6,102 Z" id="Fill-199" fill="#B74E26"></path>
                <path d="M12,102 L18,102 L18,96 L12,96 L12,102 Z" id="Fill-200" fill="#B74E26"></path>
                <path d="M6,108 L12,108 L12,102 L6,102 L6,108 Z" id="Fill-201" fill="#B74E26"></path>
                <path d="M12,108 L18,108 L18,102 L12,102 L12,108 Z" id="Fill-202" fill="#B74E26"></path>
                <path d="M12,114 L18,114 L18,108 L12,108 L12,114 Z" id="Fill-203" fill="#B74E26"></path>
                <path d="M12,120 L18,120 L18,114 L12,114 L12,120 Z" id="Fill-204" fill="#B74E26"></path>
                <path d="M30,60 L36,60 L36,54 L30,54 L30,60 Z" id="Fill-205" fill="#B86027"></path>
                <path d="M24,54 L30,54 L30,48 L24,48 L24,54 Z" id="Fill-206" fill="#B86027"></path>
                <path d="M30,48 L36,48 L36,42 L30,42 L30,48 Z" id="Fill-207" fill="#2B2B25"></path>
                <path d="M48,48 L54,48 L54,42 L48,42 L48,48 Z" id="Fill-208" fill="#2B2B25"></path>
                <path d="M54,54 L60,54 L60,48 L54,48 L54,54 Z" id="Fill-209" fill="#B86027"></path>
                <path d="M36,66 L42,66 L42,60 L36,60 L36,66 Z" id="Fill-210" fill="#DC9C26"></path>
                <path d="M42,66 L48,66 L48,60 L42,60 L42,66 Z" id="Fill-211" fill="#B86027"></path>
                <path d="M36,60 L42,60 L42,54 L36,54 L36,60 Z" id="Fill-212" fill="#151F45"></path>
                <path d="M30,54 L36,54 L36,48 L30,48 L30,54 Z" id="Fill-213" fill="#151F45"></path>
                <path d="M36,54 L42,54 L42,48 L36,48 L36,54 Z" id="Fill-214" fill="#D9A484"></path>
                <path d="M36,48 L42,48 L42,42 L36,42 L36,48 Z" id="Fill-215" fill="#D9A484"></path>
                <path d="M36,42 L42,42 L42,36 L36,36 L36,42 Z" id="Fill-216" fill="#D9A484"></path>
                <path d="M42,36 L48,36 L48,30 L42,30 L42,36 Z" id="Fill-217" fill="#D9A484"></path>
                <path d="M42,42 L48,42 L48,36 L42,36 L42,42 Z" id="Fill-218" fill="#E9C4AE"></path>
                <path d="M48,42 L54,42 L54,36 L48,36 L48,42 Z" id="Fill-219" fill="#E9C4AE"></path>
                <path d="M48,36 L54,36 L54,30 L48,30 L48,36 Z" id="Fill-220" fill="#D9A484"></path>
                <path d="M48,30 L54,30 L54,24 L48,24 L48,30 Z" id="Fill-221" fill="#D9A484"></path>
                <path d="M48,24 L54,24 L54,18 L48,18 L48,24 Z" id="Fill-222" fill="#D9A484"></path>
                <path d="M48,18 L54,18 L54,12 L48,12 L48,18 Z" id="Fill-223" fill="#D9A484"></path>
                <path d="M54,30 L60,30 L60,24 L54,24 L54,30 Z" id="Fill-224" fill="#E9C4AE"></path>
                <path d="M54,24 L60,24 L60,18 L54,18 L54,24 Z" id="Fill-225" fill="#15100F"></path>
                <path d="M54,18 L60,18 L60,12 L54,12 L54,18 Z" id="Fill-226" fill="#E9C4AE"></path>
                <path d="M42,18 L48,18 L48,12 L42,12 L42,18 Z" id="Fill-227" fill="#D9A484"></path>
                <path d="M36,18 L42,18 L42,12 L36,12 L36,18 Z" id="Fill-228" fill="#D9A484"></path>
                <path d="M30,18 L36,18 L36,12 L30,12 L30,18 Z" id="Fill-229" fill="#3B2213"></path>
                <path d="M30,12 L36,12 L36,6 L30,6 L30,12 Z" id="Fill-230" fill="#3B2213"></path>
                <path d="M36,12 L42,12 L42,6 L36,6 L36,12 Z" id="Fill-231" fill="#3B2213"></path>
                <path d="M42,12 L48,12 L48,6 L42,6 L42,12 Z" id="Fill-232" fill="#482A18"></path>
                <path d="M48,12 L54,12 L54,6 L48,6 L48,12 Z" id="Fill-233" fill="#482A18"></path>
                <path d="M48,6 L54,6 L54,0 L48,0 L48,6 Z" id="Fill-234" fill="#482A18"></path>
                <path d="M54,6 L60,6 L60,0 L54,0 L54,6 Z" id="Fill-235" fill="#482A18"></path>
                <path d="M42,6 L48,6 L48,0 L42,0 L42,6 Z" id="Fill-236" fill="#3B2213"></path>
                <path d="M36,6 L42.003,6 L42.003,0 L36,0 L36,6 Z" id="Fill-237" fill="#3B2213"></path>
                <path d="M54,12 L60,12 L60,6 L54,6 L54,12 Z" id="Fill-238" fill="#482A18"></path>
                <path d="M30,24 L36,24 L36,18 L30,18 L30,24 Z" id="Fill-239" fill="#3B2213"></path>
                <path d="M30,30 L36,30 L36,24 L30,24 L30,30 Z" id="Fill-240" fill="#3B2213"></path>
                <path d="M48,36 L54,36 L54,30 L48,30 L48,36 Z" id="Fill-241" fill="#3B2213"></path>
                <path d="M54,36 L60,36 L60,30 L54,30 L54,36 Z" id="Fill-242" fill="#3B2213"></path>
                <path d="M36,24 L42,24 L42,18 L36,18 L36,24 Z" id="Fill-243" fill="#15100F"></path>
                <path d="M36,30 L42,30 L42,24 L36,24 L36,30 Z" id="Fill-244" fill="#E9C4AE"></path>
                <path d="M36,36 L42,36 L42,30 L36,30 L36,36 Z" id="Fill-245" fill="#E9C4AE"></path>
                <path d="M42,24 L48,24 L48,18 L42,18 L42,24 Z" id="Fill-246" fill="#E9C4AE"></path>
                <path d="M42,30 L48,30 L48,24 L42,24 L42,30 Z" id="Fill-247" fill="#E9C4AE"></path>
                <path d="M42,48 L48,48 L48,42 L42,42 L42,48 Z" id="Fill-248" fill="#D9A484"></path>
                <path d="M42,54 L48,54 L48,48 L42,48 L42,54 Z" id="Fill-249" fill="#E9C4AE"></path>
                <path d="M42,60 L48,60 L48,54 L42,54 L42,60 Z" id="Fill-250" fill="#E9C4AE"></path>
                <path d="M48,54 L54,54 L54,48 L48,48 L48,54 Z" id="Fill-251" fill="#151F45"></path>
                <path d="M42,60 L48,60 L48,54 L42,54 L42,60 Z" id="Fill-252" fill="#151F45"></path>
                <path d="M48,66 L54,66 L54,60 L48,60 L48,66 Z" id="Fill-253" fill="#E17626"></path>
                <path d="M54,66 L60,66 L60,60 L54,60 L54,66 Z" id="Fill-254" fill="#E17626"></path>
                <path d="M48,60 L54,60 L54,54 L48,54 L48,60 Z" id="Fill-255" fill="#B86027"></path>
                <path d="M54,60 L60,60 L60,54 L54,54 L54,60 Z" id="Fill-256" fill="#B86027"></path>
                <path d="M60,126 L66,126 L66,120 L60,120 L60,126 Z" id="Fill-257" fill="#32322E"></path>
                <path d="M18,132 L24,132 L24,126 L18,126 L18,132 Z" id="Fill-258" fill="#1E201D"></path>
                <path d="M30,132 L36,132 L36,126 L30,126 L30,132 Z" id="Fill-259" fill="#32322E"></path>
                <path d="M36,132 L42,132 L42,126 L36,126 L36,132 Z" id="Fill-260" fill="#32322E"></path>
                <path d="M42,132 L48,132 L48,126 L42,126 L42,132 Z" id="Fill-261" fill="#32322E"></path>
                <path d="M48,132 L54,132 L54,126 L48,126 L48,132 Z" id="Fill-262" fill="#32322E"></path>
                <path d="M54,132 L60,132 L60,126 L54,126 L54,132 Z" id="Fill-263" fill="#32322E"></path>
                <path d="M60,132 L66,132 L66,126 L60,126 L60,132 Z" id="Fill-264" fill="#32322E"></path>
                <path d="M18,174 L24,174 L24,168 L18,168 L18,174 Z" id="Fill-265" fill="#1E201D"></path>
                <path d="M18,168 L24,168 L24,162 L18,162 L18,168 Z" id="Fill-266" fill="#1E201D"></path>
                <path d="M18,162 L24,162 L24,156 L18,156 L18,162 Z" id="Fill-267" fill="#1E201D"></path>
                <path d="M18,156 L24,156 L24,150 L18,150 L18,156 Z" id="Fill-268" fill="#1E201D"></path>
                <path d="M18,150 L24,150 L24,144 L18,144 L18,150 Z" id="Fill-269" fill="#1E201D"></path>
                <path d="M24,180 L30,180 L30,174 L24,174 L24,180 Z" id="Fill-270" fill="#1E201D"></path>
            </g>
        </g>
    </g>
</svg>