<?xml version="1.0" encoding="UTF-8" standalone="no"?>
<svg width="46px" height="46px" viewBox="0 0 46 46" version="1.1" xmlns="http://www.w3.org/2000/svg" xmlns:xlink="http://www.w3.org/1999/xlink">
    <!-- Generator: Sketch 3.6.1 (26313) - http://www.bohemiancoding.com/sketch -->
    <title>cal_pic</title>
    <desc>Created with Sketch.</desc>
    <defs>
        <path id="path-1" d="M23,46 C35.7025492,46 46,35.7025492 46,23 C46,10.2974508 35.7025492,0 23,0 C10.2974508,0 0,10.2974508 0,23 C0,35.7025492 10.2974508,46 23,46 Z"></path>
    </defs>
    <g id="Page-1" stroke="none" stroke-width="1" fill="none" fill-rule="evenodd">
        <g id="Team" transform="translate(-1103.000000, -427.000000)">
            <g id="Adam-Getcheel" transform="translate(649.000000, 427.000000)">
                <g id="cal_pic" transform="translate(454.000000, 0.000000)">
                    <mask id="mask-2" fill="white">
                        <use xlink:href="#path-1"></use>
                    </mask>
                    <use id="Mask" fill="#F0F0F0" xlink:href="#path-1"></use>
                    <g id="cal" mask="url(#mask-2)">
                        <g transform="translate(-5.000000, 8.000000)">
                            <path d="M24,24 L28,24 L28,20 L24,20 L24,24 Z" id="Fill-1" fill="#E9C4AE"></path>
                            <path d="M24,40 L28,40 L28,36 L24,36 L24,40 Z" id="Fill-2" fill="#151F45"></path>
                            <path d="M36,40 L40,40 L40,36 L36,36 L36,40 Z" id="Fill-153" fill="#B86027"></path>
                            <path d="M40,40 L44,40 L44,36 L40,36 L40,40 Z" id="Fill-164" fill="#C35D27"></path>
                            <path d="M12,40 L16,40 L16,36 L12,36 L12,40 Z" id="Fill-165" fill="#E17626"></path>
                            <path d="M8,40 L12,40 L12,36 L8,36 L8,40 Z" id="Fill-166" fill="#E17626"></path>
                            <path d="M44,40 L48,40 L48,36 L44,36 L44,40 Z" id="Fill-185" fill="#B74E26"></path>
                            <path d="M32,40 L36,40 L36,36 L32,36 L32,40 Z" id="Fill-208" fill="#B86027"></path>
                            <path d="M36,36 L40,36 L40,32 L36,32 L36,36 Z" id="Fill-209" fill="#B86027"></path>
                            <path d="M32,32 L36,32 L36,28 L32,28 L32,32 Z" id="Fill-210" fill="#2B2B25"></path>
                            <path d="M20,32 L24,32 L24,28 L20,28 L20,32 Z" id="Fill-211" fill="#2B2B25"></path>
                            <path d="M16,36 L20,36 L20,32 L16,32 L16,36 Z" id="Fill-212" fill="#B86027"></path>
                            <path d="M28,40 L32,40 L32,36 L28,36 L28,40 Z" id="Fill-215" fill="#151F45"></path>
                            <path d="M32,36 L36,36 L36,32 L32,32 L32,36 Z" id="Fill-216" fill="#151F45"></path>
                            <path d="M28,36 L32,36 L32,32 L28,32 L28,36 Z" id="Fill-217" fill="#E9C4AE"></path>
                            <path d="M28,32 L32,32 L32,28 L28,28 L28,32 Z" id="Fill-218" fill="#E9C4AE"></path>
                            <path d="M28,28 L32,28 L32,24 L28,24 L28,28 Z" id="Fill-219" fill="#E9C4AE"></path>
                            <path d="M24,28 L28,28 L28,24 L24,24 L24,28 Z" id="Fill-220" fill="#D3A897"></path>
                            <path d="M20,28 L24,28 L24,24 L20,24 L20,28 Z" id="Fill-221" fill="#D3A897"></path>
                            <path d="M20,24 L24,24 L24,20 L20,20 L20,24 Z" id="Fill-222" fill="#E9C4AE"></path>
                            <path d="M16,24 L20,24 L20,20 L16,20 L16,24 Z" id="Fill-223" fill="#E9C4AE"></path>
                            <path d="M20,20 L24,20 L24,16 L20,16 L20,20 Z" id="Fill-224" fill="#E9C4AE"></path>
                            <path d="M20,16 L24,16 L24,12 L20,12 L20,16 Z" id="Fill-225" fill="#E9C4AE"></path>
                            <path d="M20,12 L24,12 L24,8 L20,8 L20,12 Z" id="Fill-226" fill="#E9C4AE"></path>
                            <path d="M16,20 L20,20 L20,16 L16,16 L16,20 Z" id="Fill-227" fill="#E9C4AE"></path>
                            <path d="M16,16 L20,16 L20,12 L16,12 L16,16 Z" id="Fill-228" fill="#392A2A"></path>
                            <path d="M16,12 L20,12 L20,8 L16,8 L16,12 Z" id="Fill-229" fill="#E9C4AE"></path>
                            <path d="M24,12 L28,12 L28,8 L24,8 L24,12 Z" id="Fill-230" fill="#E9C4AE"></path>
                            <path d="M28,12 L32,12 L32,8 L28,8 L28,12 Z" id="Fill-231" fill="#E9C4AE"></path>
                            <path d="M32,12 L36,12 L36,8 L32,8 L32,12 Z" id="Fill-232" fill="#3B2213"></path>
                            <path d="M32,8 L36,8 L36,4 L32,4 L32,8 Z" id="Fill-233" fill="#3B2213"></path>
                            <path d="M28,8 L32,8 L32,4 L28,4 L28,8 Z" id="Fill-234" fill="#3B2213"></path>
                            <path d="M24,8 L28,8 L28,4 L24,4 L24,8 Z" id="Fill-235" fill="#482A18"></path>
                            <path d="M20,8 L24,8 L24,4 L20,4 L20,8 Z" id="Fill-236" fill="#482A18"></path>
                            <path d="M20,4 L24,4 L24,0 L20,0 L20,4 Z" id="Fill-237" fill="#482A18"></path>
                            <path d="M16,4 L20,4 L20,0 L16,0 L16,4 Z" id="Fill-238" fill="#482A18"></path>
                            <path d="M24,4 L28.002,4 L28.002,0 L24,0 L24,4 Z" id="Fill-239" fill="#3B2213"></path>
                            <path d="M28,4 L32,4 L32,0 L28,0 L28,4 Z" id="Fill-240" fill="#3B2213"></path>
                            <path d="M16,8 L20,8 L20,4 L16,4 L16,8 Z" id="Fill-241" fill="#482A18"></path>
                            <path d="M32,16 L36,16 L36,12 L32,12 L32,16 Z" id="Fill-242" fill="#3B2213"></path>
                            <path d="M32,20 L36,20 L36,16 L32,16 L32,20 Z" id="Fill-243" fill="#D3A897"></path>
                            <path d="M20,24 L24,24 L24,20 L20,20 L20,24 Z" id="Fill-244" fill="#3B2213"></path>
                            <path d="M16,24 L20,24 L20,20 L16,20 L16,24 Z" id="Fill-245" fill="#3B2213"></path>
                            <path d="M28,20 L32,20 L32,16 L28,16 L28,20 Z" id="Fill-246" fill="#E9C4AE"></path>
                            <path d="M28,24 L32,24 L32,20 L28,20 L28,24 Z" id="Fill-247" fill="#E9C4AE"></path>
                            <path d="M24,16 L28,16 L28,12 L24,12 L24,16 Z" id="Fill-248" fill="#E9C4AE"></path>
                            <path d="M24,20 L28,20 L28,16 L24,16 L24,20 Z" id="Fill-249" fill="#E9C4AE"></path>
                            <path d="M28,16 L32,16 L32,12 L28,12 L28,16 Z" id="Fill-250" fill="#E9C4AE"></path>
                            <path d="M24,32 L28,32 L28,28 L24,28 L24,32 Z" id="Fill-251" fill="#D3A897"></path>
                            <path d="M24,36 L28,36 L28,32 L24,32 L24,36 Z" id="Fill-252" fill="#D3A897"></path>
                            <path d="M24,40 L28,40 L28,36 L24,36 L24,40 Z" id="Fill-253" fill="#E9C4AE"></path>
                            <path d="M20,36 L24,36 L24,32 L20,32 L20,36 Z" id="Fill-254" fill="#151F45"></path>
                            <path d="M24,40 L28,40 L28,36 L24,36 L24,40 Z" id="Fill-255" fill="#151F45"></path>
                            <path d="M20,40 L24,40 L24,36 L20,36 L20,40 Z" id="Fill-258" fill="#B86027"></path>
                            <path d="M16,40 L20,40 L20,36 L16,36 L16,40 Z" id="Fill-259" fill="#B86027"></path>
                            <path d="M24,16 L28,16 L28,12 L24,12 L24,16 Z" id="Fill-274" fill="#392A2A"></path>
                        </g>
                    </g>
                </g>
            </g>
        </g>
    </g>
</svg>