<?xml version="1.0" encoding="UTF-8" standalone="no"?>
<svg width="46px" height="46px" viewBox="0 0 46 46" version="1.1" xmlns="http://www.w3.org/2000/svg" xmlns:xlink="http://www.w3.org/1999/xlink">
    <!-- Generator: Sketch 3.7.2 (28276) - http://www.bohemiancoding.com/sketch -->
    <title>dj_pic</title>
    <desc>Created with Sketch.</desc>
    <defs>
        <path d="M23,46 C35.7025492,46 46,35.7025492 46,23 C46,10.2974508 35.7025492,0 23,0 C10.2974508,0 0,10.2974508 0,23 C0,35.7025492 10.2974508,46 23,46 Z" id="path-1"></path>
    </defs>
    <g id="Page-1" stroke="none" stroke-width="1" fill="none" fill-rule="evenodd">
        <g id="Team" transform="translate(-920.000000, -527.000000)">
            <g id="Adam-Getcheel" transform="translate(580.000000, 527.000000)">
                <g id="dj_pic" transform="translate(340.000000, 0.000000)">
                    <mask id="mask-2" fill="white">
                        <use xlink:href="#path-1"></use>
                    </mask>
                    <use id="Mask" fill="#F0F0F0" xlink:href="#path-1"></use>
                    <g id="darrel" mask="url(#mask-2)">
                        <g transform="translate(1.000000, 5.000000)">
                            <polygon id="Fill-1" fill="#DEE6CC" points="24 17 28 17 28 13 24 13"></polygon>
                            <polygon id="Fill-3" fill="#EACAB9" points="24 25 28 25 28 21 24 21"></polygon>
                            <polygon id="Fill-4" fill="#29773B" points="24 37 28 37 28 33 24 33"></polygon>
                            <polygon id="Fill-50" fill="#4F4F4F" points="36 41 40 41 40 37 36 37"></polygon>
                            <polygon id="Fill-89" fill="#414241" points="40 41 44 41 44 37 40 37"></polygon>
                            <polygon id="Fill-100" fill="#4F4F4F" points="12 41 16 41 16 37 12 37"></polygon>
                            <polygon id="Fill-101" fill="#4F4F4F" points="16 41 20 41 20 37 16 37"></polygon>
                            <polygon id="Fill-102" fill="#6A6B6B" points="12 37 16 37 16 33 12 33"></polygon>
                            <polygon id="Fill-118" fill="#4F4F4F" points="8 41 12 41 12 37 8 37"></polygon>
                            <polygon id="Fill-119" fill="#6A6B6B" points="8 37 12 37 12 33 8 33"></polygon>
                            <polygon id="Fill-120" fill="#4F4F4F" points="8 33 12 33 12 29 8 29"></polygon>
                            <polygon id="Fill-121" fill="#4F4F4F" points="4 37 8 37 8 33 4 33"></polygon>
                            <polygon id="Fill-122" fill="#6A6B6B" points="36 37 40 37 40 33 36 33"></polygon>
                            <polygon id="Fill-142" fill="#414241" points="4 41 8 41 8 37 4 37"></polygon>
                            <polygon id="Fill-165" fill="#6A6B6B" points="16 37 20 37 20 33 16 33"></polygon>
                            <polygon id="Fill-166" fill="#4F4F4F" points="12 33 16 33 16 29 12 29"></polygon>
                            <polygon id="Fill-167" fill="#4F4F4F" points="32 33 36 33 36 29 32 29"></polygon>
                            <polygon id="Fill-168" fill="#4F4F4F" points="20 41 24 41 24 37 20 37"></polygon>
                            <polygon id="Fill-169" fill="#4F4F4F" points="24 41 28 41 28 37 24 37"></polygon>
                            <polygon id="Fill-171" fill="#6A6B6B" points="20 37 24 37 24 33 20 33"></polygon>
                            <polygon id="Fill-172" fill="#E0C0B2" points="16 33 20 33 20 29 16 29"></polygon>
                            <polygon id="Fill-173" fill="#E0C0B2" points="20 33 24 33 24 29 20 29"></polygon>
                            <polygon id="Fill-175" fill="#E0C0B2" points="20 29 24 29 24 25 20 25"></polygon>
                            <polygon id="Fill-176" fill="#E0C0B2" points="16 29 20 29 20 25 16 25"></polygon>
                            <polygon id="Fill-177" fill="#2A2523" points="16 25 20 25 20 21 16 21"></polygon>
                            <polygon id="Fill-178" fill="#EACCBE" points="16 21 20 21 20 17 16 17"></polygon>
                            <polygon id="Fill-179" fill="#DEE6CC" points="12 17 16 17 16 13 12 13"></polygon>
                            <polygon id="Fill-180" fill="#EACCBE" points="16 13 20 13 20 9 16 9"></polygon>
                            <polygon id="Fill-181" fill="#2A2523" points="12 25 16 25 16 21 12 21"></polygon>
                            <polygon id="Fill-182" fill="#2A2524" points="12 17 16 17 16 13 12 13"></polygon>
                            <polygon id="Fill-183" fill="#EACAB9" points="24 17 28 17 28 13 24 13"></polygon>
                            <polygon id="Fill-184" fill="#EACCBE" points="12 13 16 13 16 9 12 9"></polygon>
                            <polygon id="Fill-185" fill="#EACCBE" points="12 21 16 21 16 17 12 17"></polygon>
                            <polygon id="Fill-186" fill="#EACCBE" points="24 21 28 21 28 17 24 17"></polygon>
                            <polygon id="Fill-187" fill="#EACCBE" points="24 25 28 25 28 21 24 21"></polygon>
                            <polygon id="Fill-188" fill="#EACCBE" points="24 29 28 29 28 25 24 25"></polygon>
                            <polygon id="Fill-189" fill="#EACCBE" points="24 13 28 13 28 9 24 9"></polygon>
                            <polygon id="Fill-190" fill="#181818" points="28 13 32 13 32 9 28 9"></polygon>
                            <polygon id="Fill-191" fill="#181818" points="28 17 32 17 32 13 28 13"></polygon>
                            <polygon id="Fill-192" fill="#E0C0B2" points="28 21 32 21 32 17 28 17"></polygon>
                            <polygon id="Fill-193" fill="#181818" points="24 9 28 9 28 5 24 5"></polygon>
                            <polygon id="Fill-194" fill="#181818" points="20 9 24 9 24 5 20 5"></polygon>
                            <polygon id="Fill-195" fill="#181818" points="16 9 20 9 20 5 16 5"></polygon>
                            <polygon id="Fill-196" fill="#181818" points="12 9 16 9 16 5 12 5"></polygon>
                            <polygon id="Fill-197" fill="#181818" points="28 9 32 9 32 5 28 5"></polygon>
                            <polygon id="Fill-198" fill="#181818" points="28 13 32 13 32 9 28 9"></polygon>
                            <polygon id="Fill-199" fill="#181818" points="28 17 32 17 32 13 28 13"></polygon>
                            <polygon id="Fill-200" fill="#1B1B1A" points="16 5 20 5 20 0.998 16 0.998"></polygon>
                            <polygon id="Fill-201" fill="#1B1B1A" points="12 5 16 5 16 0.998 12 0.998"></polygon>
                            <polygon id="Fill-202" fill="#1B1B1A" points="20 5 24 5 24 0.998 20 0.998"></polygon>
                            <polygon id="Fill-203" fill="#EACCBE" points="20 13 24 13 24 9 20 9"></polygon>
                            <polygon id="Fill-204" fill="#414655" points="20 17 24 17 24 13 20 13"></polygon>
                            <polygon id="Fill-205" fill="#EACAB9" points="16 17 20 17 20 13 16 13"></polygon>
                            <polygon id="Fill-206" fill="#EACCBE" points="20 21 24 21 24 17 20 17"></polygon>
                            <polygon id="Fill-207" fill="#EACCBE" points="20 25 24 25 24 21 20 21"></polygon>
                            <polygon id="Fill-208" fill="#EACCBE" points="24 33 28 33 28 29 24 29"></polygon>
                            <polygon id="Fill-209" fill="#29773B" points="24 37 28 37 28 33 24 33"></polygon>
                            <polygon id="Fill-210" fill="#4F4F4F" points="28 33 32 33 32 29 28 29"></polygon>
                            <polygon id="Fill-211" fill="#6A6B6B" points="24 37 28 37 28 33 24 33"></polygon>
                            <polygon id="Fill-212" fill="#4F4F4F" points="28 41 32 41 32 37 28 37"></polygon>
                            <polygon id="Fill-213" fill="#4F4F4F" points="32 41 36 41 36 37 32 37"></polygon>
                            <polygon id="Fill-214" fill="#6A6B6B" points="28 37 32 37 32 33 28 33"></polygon>
                            <polygon id="Fill-215" fill="#6A6B6B" points="32 37 36 37 36 33 32 33"></polygon>
                            <polygon id="Fill-342" fill="#DEE6CC" points="20 17 24 17 24 13 20 13"></polygon>
                            <polygon id="Fill-343" fill="#DEE6CC" points="8 17 12 17 12 13 8 13"></polygon>
                            <polygon id="Fill-344" fill="#A9C5C5" points="12 17 16 17 16 13 12 13"></polygon>
                            <polygon id="Fill-345" fill="#A9C5C5" points="24 17 28 17 28 13 24 13"></polygon>
                            <polygon id="Fill-346" fill="#414655" points="16 17 20 17 20 13 16 13"></polygon>
                        </g>
                    </g>
                </g>
            </g>
        </g>
    </g>
</svg>