<?xml version="1.0" encoding="UTF-8" standalone="no"?>
<svg width="46px" height="46px" viewBox="0 0 46 46" version="1.1" xmlns="http://www.w3.org/2000/svg" xmlns:xlink="http://www.w3.org/1999/xlink">
    <!-- Generator: Sketch 3.7.2 (28276) - http://www.bohemiancoding.com/sketch -->
    <title>jackie_pic</title>
    <desc>Created with Sketch.</desc>
    <defs>
        <path d="M23,46 C35.7025492,46 46,35.7025492 46,23 C46,10.2974508 35.7025492,0 23,0 C10.2974508,0 0,10.2974508 0,23 C0,35.7025492 10.2974508,46 23,46 Z" id="path-1"></path>
    </defs>
    <g id="Page-1" stroke="none" stroke-width="1" fill="none" fill-rule="evenodd">
        <g id="Team" transform="translate(-787.000000, -643.000000)">
            <g id="Adam-Getcheel" transform="translate(580.000000, 643.000000)">
                <g id="jackie_pic" transform="translate(207.000000, 0.000000)">
                    <mask id="mask-2" fill="white">
                        <use xlink:href="#path-1"></use>
                    </mask>
                    <use id="Mask" fill="#F0F0F0" xlink:href="#path-1"></use>
                    <g id="jackie" mask="url(#mask-2)">
                        <g transform="translate(3.000000, 4.000000)">
                            <polygon id="Fill-1" fill="#E9C4AE" points="24 16 28 16 28 12 24 12"></polygon>
                            <polygon id="Fill-2" fill="#E9C4AE" points="24 24 28 24 28 20 24 20"></polygon>
                            <polygon id="Fill-3" fill="#DCB29D" points="16 32 20 32 20 28 16 28"></polygon>
                            <polygon id="Fill-4" fill="#E9C4AE" points="20 32 24 32 24 28 20 28"></polygon>
                            <polygon id="Fill-5" fill="#DCB29D" points="20 28 24 28 24 24 20 24"></polygon>
                            <polygon id="Fill-6" fill="#DCB29D" points="16 28 20 28 20 24 16 24"></polygon>
                            <polygon id="Fill-7" fill="#E9C4AE" points="16 24 20 24 20 20 16 20"></polygon>
                            <polygon id="Fill-8" fill="#E9C4AE" points="16 20 20 20 20 16 16 16"></polygon>
                            <polygon id="Fill-9" fill="#E9C4AE" points="12 16 16 16 16 12 12 12"></polygon>
                            <polygon id="Fill-10" fill="#E9C4AE" points="16 12 20 12 20 8 16 8"></polygon>
                            <polygon id="Fill-11" fill="#E9C4AE" points="12 24 16 24 16 20 12 20"></polygon>
                            <polygon id="Fill-12" fill="#E9C4AE" points="12 16 16 16 16 12 12 12"></polygon>
                            <polygon id="Fill-13" fill="#E9C4AE" points="24 16 28 16 28 12 24 12"></polygon>
                            <polygon id="Fill-14" fill="#E9C4AE" points="12 12 16 12 16 8 12 8"></polygon>
                            <polygon id="Fill-15" fill="#E9C4AE" points="12 20 16 20 16 16 12 16"></polygon>
                            <polygon id="Fill-16" fill="#E9C4AE" points="24 20 28 20 28 16 24 16"></polygon>
                            <polygon id="Fill-17" fill="#E9C4AE" points="24 24 28 24 28 20 24 20"></polygon>
                            <polygon id="Fill-18" fill="#E9C4AE" points="24 28 28 28 28 24 24 24"></polygon>
                            <polygon id="Fill-19" fill="#E9C4AE" points="24 12 28 12 28 8 24 8"></polygon>
                            <polygon id="Fill-20" fill="#77361B" points="28 12 32 12 32 8 28 8"></polygon>
                            <polygon id="Fill-21" fill="#77361B" points="28 16 32 16 32 12 28 12"></polygon>
                            <polygon id="Fill-22" fill="#77361B" points="28 20 32 20 32 16 28 16"></polygon>
                            <polygon id="Fill-23" fill="#77361B" points="24 8 28 8 28 4 24 4"></polygon>
                            <polygon id="Fill-24" fill="#77361B" points="20 8 24 8 24 4 20 4"></polygon>
                            <polygon id="Fill-25" fill="#77361B" points="16 8 20 8 20 4 16 4"></polygon>
                            <polygon id="Fill-26" fill="#77361B" points="12 8 16 8 16 4 12 4"></polygon>
                            <polygon id="Fill-27" fill="#652C17" points="24 4 28.002 4 28.002 0 24 0"></polygon>
                            <polygon id="Fill-28" fill="#652C17" points="28 8 32 8 32 4 28 4"></polygon>
                            <polygon id="Fill-29" fill="#77361B" points="28 12 32 12 32 8 28 8"></polygon>
                            <polygon id="Fill-30" fill="#77361B" points="24 12 28 12 28 8 24 8"></polygon>
                            <polygon id="Fill-31" fill="#77361B" points="28 16 32 16 32 12 28 12"></polygon>
                            <polygon id="Fill-32" fill="#181818" points="24 16 28 16 28 12 24 12"></polygon>
                            <polygon id="Fill-33" fill="#652C17" points="32 20 36 20 36 16 32 16"></polygon>
                            <polygon id="Fill-34" fill="#77361B" points="28 20 32 20 32 16 28 16"></polygon>
                            <polygon id="Fill-35" fill="#652C17" points="32 24 36 24 36 20 32 20"></polygon>
                            <polygon id="Fill-36" fill="#652C17" points="36 24 40 24 40 20 36 20"></polygon>
                            <polygon id="Fill-37" fill="#77361B" points="28 24 32 24 32 20 28 20"></polygon>
                            <polygon id="Fill-38" fill="#77361B" points="32 28 36 28 36 24 32 24"></polygon>
                            <polygon id="Fill-39" fill="#77361B" points="28 28 32 28 32 24 28 24"></polygon>
                            <polygon id="Fill-40" fill="#77361B" points="28 32 32 32 32 28 28 28"></polygon>
                            <polygon id="Fill-41" fill="#77361B" points="12 4 16 4 16 0 12 0"></polygon>
                            <polygon id="Fill-42" fill="#77361B" points="16 4 20 4 20 0 16 0"></polygon>
                            <polygon id="Fill-43" fill="#77361B" points="8 8 12 8 12 4 8 4"></polygon>
                            <polygon id="Fill-44" fill="#77361B" points="8 12 12 12 12 8 8 8"></polygon>
                            <polygon id="Fill-45" fill="#77361B" points="8 16 12 16 12 12 8 12"></polygon>
                            <polygon id="Fill-46" fill="#77361B" points="8 20 12 20 12 16 8 16"></polygon>
                            <polygon id="Fill-47" fill="#77361B" points="8 24 12 24 12 20 8 20"></polygon>
                            <polygon id="Fill-48" fill="#652C17" points="4 20 8 20 8 16 4 16"></polygon>
                            <polygon id="Fill-49" fill="#652C17" points="4 24 8 24 8 20 4 20"></polygon>
                            <polygon id="Fill-50" fill="#77361B" points="8 28 12 28 12 24 8 24"></polygon>
                            <polygon id="Fill-51" fill="#77361B" points="12 28 16 28 16 24 12 24"></polygon>
                            <polygon id="Fill-52" fill="#77361B" points="12 32 16 32 16 28 12 28"></polygon>
                            <polygon id="Fill-53" fill="#77361B" points="20 4 24 4 24 0 20 0"></polygon>
                            <polygon id="Fill-54" fill="#E9C4AE" points="20 12 24 12 24 8 20 8"></polygon>
                            <polygon id="Fill-55" fill="#E9C4AE" points="20 16 24 16 24 12 20 12"></polygon>
                            <polygon id="Fill-56" fill="#E9C4AE" points="16 16 20 16 20 12 16 12"></polygon>
                            <polygon id="Fill-57" fill="#E9C4AE" points="20 20 24 20 24 16 20 16"></polygon>
                            <polygon id="Fill-58" fill="#E9C4AE" points="20 24 24 24 24 20 20 20"></polygon>
                            <polygon id="Fill-59" fill="#E9C4AE" points="24 32 28 32 28 28 24 28"></polygon>
                            <polygon id="Fill-60" fill="#1B5EA8" points="24 36 28 36 28 32 24 32"></polygon>
                            <polygon id="Fill-72" fill="#1B5EA8" points="36 44 40 44 40 40 36 40"></polygon>
                            <polygon id="Fill-73" fill="#1B5EA8" points="36 40 40 40 40 36 36 36"></polygon>
                            <polygon id="Fill-100" fill="#1B5EA8" points="12 44 16 44 16 40 12 40"></polygon>
                            <polygon id="Fill-101" fill="#1B5EA8" points="16 44 20 44 20 40 16 40"></polygon>
                            <polygon id="Fill-102" fill="#1B5EA8" points="20 44 24 44 24 40 20 40"></polygon>
                            <polygon id="Fill-103" fill="#1B5EA8" points="24 44 28 44 28 40 24 40"></polygon>
                            <polygon id="Fill-104" fill="#1B5EA8" points="32 44 36 44 36 40 32 40"></polygon>
                            <polygon id="Fill-105" fill="#1B5EA8" points="28 44 32 44 32 40 28 40"></polygon>
                            <polygon id="Fill-106" fill="#1B5EA8" points="32 44 36 44 36 40 32 40"></polygon>
                            <polygon id="Fill-107" fill="#1B5EA8" points="36 44 40 44 40 40 36 40"></polygon>
                            <polygon id="Fill-108" fill="#1B5EA8" points="40 44 44 44 44 40 40 40"></polygon>
                            <polygon id="Fill-109" fill="#1B5EA8" points="40 40 44 40 44 36 40 36"></polygon>
                            <polygon id="Fill-121" fill="#1B5EA8" points="12 40 16 40 16 36 12 36"></polygon>
                            <polygon id="Fill-122" fill="#1B5EA8" points="16 40 20 40 20 36 16 36"></polygon>
                            <polygon id="Fill-123" fill="#1B5EA8" points="12 36 16 36 16 32 12 32"></polygon>
                            <polygon id="Fill-137" fill="#1B5EA8" points="8 44 12 44 12 40 8 40"></polygon>
                            <polygon id="Fill-138" fill="#1B5EA8" points="8 40 12 40 12 36 8 36"></polygon>
                            <polygon id="Fill-139" fill="#1B5EA8" points="8 36 12 36 12 32 8 32"></polygon>
                            <polygon id="Fill-140" fill="#1B5EA8" points="36 36 40 36 40 32 36 32"></polygon>
                            <polygon id="Fill-168" fill="#1B5EA8" points="4 44 8 44 8 40 4 40"></polygon>
                            <polygon id="Fill-169" fill="#1B5EA8" points="4 40 8 40 8 36 4 36"></polygon>
                            <polygon id="Fill-179" fill="#1B5EA8" points="16 36 20 36 20 32 16 32"></polygon>
                            <polygon id="Fill-180" fill="#1B5EA8" points="20 40 24 40 24 36 20 36"></polygon>
                            <polygon id="Fill-181" fill="#1B5EA8" points="24 40 28 40 28 36 24 36"></polygon>
                            <polygon id="Fill-182" fill="#1B5EA8" points="20 44 24 44 24 40 20 40"></polygon>
                            <polygon id="Fill-183" fill="#1B5EA8" points="20 36 24 36 24 32 20 32"></polygon>
                            <polygon id="Fill-184" fill="#1B5EA8" points="24 36 28 36 28 32 24 32"></polygon>
                            <polygon id="Fill-185" fill="#1B5EA8" points="24 36 28 36 28 32 24 32"></polygon>
                            <polygon id="Fill-186" fill="#1B5EA8" points="28 40 32 40 32 36 28 36"></polygon>
                            <polygon id="Fill-187" fill="#1B5EA8" points="32 40 36 40 36 36 32 36"></polygon>
                            <polygon id="Fill-188" fill="#1B5EA8" points="28 36 32 36 32 32 28 32"></polygon>
                            <polygon id="Fill-189" fill="#1B5EA8" points="32 36 36 36 36 32 32 32"></polygon>
                            <polygon id="Fill-190" fill="#1E201D" points="20 16 24 16 24 12 20 12"></polygon>
                            <polygon id="Fill-191" fill="#1E201D" points="12 16 16 16 16 12 12 12"></polygon>
                            <polygon id="Fill-192" fill="#E9C4AE" points="24 16 28 16 28 12 24 12"></polygon>
                            <polygon id="Fill-193" fill="#E9C4AE" points="16 16 20 16 20 12 16 12"></polygon>
                            <polygon id="Fill-338" fill="#4F8FC9" points="36 40 40 40 40 36 36 36"></polygon>
                            <polygon id="Fill-343" fill="#4F8FC9" points="16 44 20 44 20 40 16 40"></polygon>
                            <polygon id="Fill-344" fill="#4F8FC9" points="32 44 36 44 36 40 32 40"></polygon>
                            <polygon id="Fill-348" fill="#4F8FC9" points="8 36 12 36 12 32 8 32"></polygon>
                            <polygon id="Fill-378" fill="#4F8FC9" points="4 40 8 40 8 36 4 36"></polygon>
                            <polygon id="Fill-379" fill="#4F8FC9" points="28 40 32 40 32 36 28 36"></polygon>
                            <polygon id="Fill-380" fill="#4F8FC9" points="32 36 36 36 36 32 32 32"></polygon>
                        </g>
                    </g>
                </g>
            </g>
        </g>
    </g>
</svg>