<?xml version="1.0" encoding="UTF-8" standalone="no"?>
<svg width="46px" height="46px" viewBox="0 0 46 46" version="1.1" xmlns="http://www.w3.org/2000/svg" xmlns:xlink="http://www.w3.org/1999/xlink">
    <!-- Generator: Sketch 3.6.1 (26313) - http://www.bohemiancoding.com/sketch -->
    <title>scott_pic</title>
    <desc>Created with Sketch.</desc>
    <defs>
        <path id="path-1" d="M23,46 C35.7025492,46 46,35.7025492 46,23 C46,10.2974508 35.7025492,0 23,0 C10.2974508,0 0,10.2974508 0,23 C0,35.7025492 10.2974508,46 23,46 Z"></path>
    </defs>
    <g id="Page-1" stroke="none" stroke-width="1" fill="none" fill-rule="evenodd">
        <g id="Team" transform="translate(-1103.000000, -427.000000)">
            <g id="Adam-Getcheel" transform="translate(649.000000, 427.000000)">
                <g id="scott_pic" transform="translate(454.000000, 0.000000)">
                    <mask id="mask-2" fill="white">
                        <use xlink:href="#path-1"></use>
                    </mask>
                    <use id="Mask" fill="#F0F0F0" xlink:href="#path-1"></use>
                    <g id="scott" mask="url(#mask-2)">
                        <g transform="translate(0.000000, 4.000000)">
                            <path d="M20,22 L24,22 L24,18 L20,18 L20,22 Z" id="Fill-1" fill="#E4B4A7"></path>
                            <path d="M36,42 L40,42 L40,38 L36,38 L36,42 Z" id="Fill-121" fill="#3CB449"></path>
                            <path d="M36,38 L40,38 L40,34 L36,34 L36,38 Z" id="Fill-122" fill="#3CB449"></path>
                            <path d="M12,42 L16,42 L16,38 L12,38 L12,42 Z" id="Fill-147" fill="#3CB449"></path>
                            <path d="M16,42 L20,42 L20,38 L16,38 L16,42 Z" id="Fill-148" fill="#3CB449"></path>
                            <path d="M20,42 L24,42 L24,38 L20,38 L20,42 Z" id="Fill-149" fill="#D6D6D5"></path>
                            <path d="M24,42 L28,42 L28,38 L24,38 L24,42 Z" id="Fill-150" fill="#D6D6D5"></path>
                            <path d="M32,42 L36,42 L36,38 L32,38 L32,42 Z" id="Fill-151" fill="#3CB449"></path>
                            <path d="M12,42 L16,42 L16,38 L12,38 L12,42 Z" id="Fill-152" fill="#D6D6D5"></path>
                            <path d="M16,42 L20,42 L20,38 L16,38 L16,42 Z" id="Fill-153" fill="#D6D6D5"></path>
                            <path d="M36,42 L40,42 L40,38 L36,38 L36,42 Z" id="Fill-154" fill="#3CB449"></path>
                            <path d="M12,38 L16,38 L16,34 L12,34 L12,38 Z" id="Fill-155" fill="#3CB449"></path>
                            <path d="M16,38 L20,38 L20,34 L16,34 L16,38 Z" id="Fill-156" fill="#D6D6D5"></path>
                            <path d="M8,30 L12,30 L12,26 L8,26 L8,30 Z" id="Fill-157" fill="#3CB449"></path>
                            <path d="M8,42 L12,42 L12,38 L8,38 L8,42 Z" id="Fill-173" fill="#3CB449"></path>
                            <path d="M8,38 L12,38 L12,34 L8,34 L8,38 Z" id="Fill-174" fill="#3CB449"></path>
                            <path d="M8,34 L12,34 L12,30 L8,30 L8,34 Z" id="Fill-175" fill="#3CB449"></path>
                            <path d="M8,30 L12,30 L12,26 L8,26 L8,30 Z" id="Fill-176" fill="#2EA548"></path>
                            <path d="M32,30 L36,30 L36,26 L32,26 L32,30 Z" id="Fill-177" fill="#3CB449"></path>
                            <path d="M4,34 L8,34 L8,30 L4,30 L4,34 Z" id="Fill-178" fill="#2EA548"></path>
                            <path d="M4,38 L8,38 L8,34 L4,34 L4,38 Z" id="Fill-179" fill="#3CB449"></path>
                            <path d="M4,42 L8,42 L8,38 L4,38 L4,42 Z" id="Fill-180" fill="#3CB449"></path>
                            <path d="M0,38 L4,38 L4,34 L0,34 L0,38 Z" id="Fill-181" fill="#2EA548"></path>
                            <path d="M0,42 L4,42 L4,37.998 L0,37.998 L0,42 Z" id="Fill-182" fill="#3CB449"></path>
                            <path d="M12,30 L16,30 L16,26 L12,26 L12,30 Z" id="Fill-188" fill="#3CB449"></path>
                            <path d="M20,38 L24,38 L24,34 L20,34 L20,38 Z" id="Fill-189" fill="#3CB449"></path>
                            <path d="M24,38 L28,38 L28,34 L24,34 L24,38 Z" id="Fill-190" fill="#D6D6D5"></path>
                            <path d="M16,26 L20,26 L20,22 L16,22 L16,26 Z" id="Fill-191" fill="#D3A897"></path>
                            <path d="M16,26 L20,26 L20,22 L16,22 L16,26 Z" id="Fill-192" fill="#E4B4A7"></path>
                            <path d="M20,22 L24,22 L24,18 L20,18 L20,22 Z" id="Fill-212" fill="#E4B4A7"></path>
                            <path d="M20,26 L24,26 L24,22 L20,22 L20,26 Z" id="Fill-213" fill="#D3A897"></path>
                            <path d="M24,26 L28,26 L28,22 L24,22 L24,26 Z" id="Fill-214" fill="#D3A897"></path>
                            <path d="M24,26 L28,26 L28,22 L24,22 L24,26 Z" id="Fill-215" fill="#D7A798"></path>
                            <path d="M24,22 L28,22 L28,18 L24,18 L24,22 Z" id="Fill-216" fill="#E4B4A7"></path>
                            <path d="M24,18 L28,18 L28,14 L24,14 L24,18 Z" id="Fill-217" fill="#E4B4A7"></path>
                            <path d="M24,14 L28,14 L28,10 L24,10 L24,14 Z" id="Fill-218" fill="#E4B4A7"></path>
                            <path d="M24,10 L28,10 L28,6 L24,6 L24,10 Z" id="Fill-219" fill="#E4B4A7"></path>
                            <path d="M28,18 L32,18 L32,14 L28,14 L28,18 Z" id="Fill-220" fill="#E4B4A7"></path>
                            <path d="M28,14 L32,14 L32,10 L28,10 L28,14 Z" id="Fill-221" fill="#0E0F11"></path>
                            <path d="M28,10 L32,10 L32,6 L28,6 L28,10 Z" id="Fill-222" fill="#E4B4A7"></path>
                            <path d="M20,10 L24,10 L24,6 L20,6 L20,10 Z" id="Fill-223" fill="#E4B4A7"></path>
                            <path d="M16,10 L20,10 L20,6 L16,6 L16,10 Z" id="Fill-224" fill="#E4B4A7"></path>
                            <path d="M12,10 L16,10 L16,6 L12,6 L12,10 Z" id="Fill-225" fill="#2A170D"></path>
                            <path d="M16,6 L20,6 L20,1.998 L16,1.998 L16,6 Z" id="Fill-226" fill="#2A170D"></path>
                            <path d="M20,6 L24,6 L24,1.998 L20,1.998 L20,6 Z" id="Fill-227" fill="#2A170D"></path>
                            <path d="M24,6 L28.002,6 L28.002,1.998 L24,1.998 L24,6 Z" id="Fill-228" fill="#2A170D"></path>
                            <path d="M28,6 L32,6 L32,1.998 L28,1.998 L28,6 Z" id="Fill-229" fill="#2A170D"></path>
                            <path d="M12,14 L16,14 L16,10 L12,10 L12,14 Z" id="Fill-230" fill="#2A170D"></path>
                            <path d="M24,22 L28,22 L28,18 L24,18 L24,22 Z" id="Fill-231" fill="#E4B4A7"></path>
                            <path d="M28,22 L32,22 L32,18 L28,18 L28,22 Z" id="Fill-232" fill="#E4B4A7"></path>
                            <path d="M16,18 L20,18 L20,14 L16,14 L16,18 Z" id="Fill-233" fill="#E4B4A7"></path>
                            <path d="M12,18 L16,18 L16,14 L12,14 L12,18 Z" id="Fill-234" fill="#D7A798"></path>
                            <path d="M16,22 L20,22 L20,18 L16,18 L16,22 Z" id="Fill-235" fill="#E4B4A7"></path>
                            <path d="M20,14 L24,14 L24,10 L20,10 L20,14 Z" id="Fill-236" fill="#D3A897"></path>
                            <path d="M20,18 L24,18 L24,14 L20,14 L20,18 Z" id="Fill-237" fill="#E4B4A7"></path>
                            <path d="M16,14 L20,14 L20,10 L16,10 L16,14 Z" id="Fill-238" fill="#E4B4A7"></path>
                            <path d="M20,26 L24,26 L24,22 L20,22 L20,26 Z" id="Fill-239" fill="#D7A798"></path>
                            <path d="M16,30 L20,30 L20,26 L16,26 L16,30 Z" id="Fill-240" fill="#E4B4A7"></path>
                            <path d="M24,30 L28,30 L28,26 L24,26 L24,30 Z" id="Fill-241" fill="#D7A798"></path>
                            <path d="M20,34 L24,34 L24,30 L20,30 L20,34 Z" id="Fill-242" fill="#3CB449"></path>
                            <path d="M20,30 L24,30 L24,26 L20,26 L20,30 Z" id="Fill-243" fill="#E4B4A7"></path>
                            <path d="M28,38 L32,38 L32,34 L28,34 L28,38 Z" id="Fill-244" fill="#3CB449"></path>
                            <path d="M28,42 L32,42 L32,38 L28,38 L28,42 Z" id="Fill-245" fill="#D6D6D5"></path>
                            <path d="M32,38 L36,38 L36,34 L32,34 L32,38 Z" id="Fill-246" fill="#3CB449"></path>
                            <path d="M36,34 L40,34 L40,30 L36,30 L36,34 Z" id="Fill-247" fill="#3CB449"></path>
                            <path d="M12,34 L16,34 L16,30 L12,30 L12,34 Z" id="Fill-248" fill="#3CB449"></path>
                            <path d="M12,34 L16,34 L16,30 L12,30 L12,34 Z" id="Fill-249" fill="#3CB449"></path>
                            <path d="M28,34 L32,34 L32,30 L28,30 L28,34 Z" id="Fill-250" fill="#3CB449"></path>
                            <path d="M16,34 L20,34 L20,30 L16,30 L16,34 Z" id="Fill-251" fill="#3CB449"></path>
                            <path d="M24,34 L28,34 L28,30 L24,30 L24,34 Z" id="Fill-252" fill="#3CB449"></path>
                            <path d="M28,30 L32,30 L32,26 L28,26 L28,30 Z" id="Fill-253" fill="#3CB449"></path>
                            <path d="M20,14 L24,14 L24,10 L20,10 L20,14 Z" id="Fill-273" fill="#0E0F11"></path>
                            <path d="M32,34 L36,34 L36,30 L32,30 L32,34 Z" id="Fill-274" fill="#3CB449"></path>
                            <path d="M36,38 L40,38 L40,34 L36,34 L36,38 Z" id="Fill-275" fill="#3CB449"></path>
                            <path d="M36,42 L40,42 L40,38 L36,38 L36,42 Z" id="Fill-276" fill="#3CB449"></path>
                            <path d="M40,42 L44,42 L44,37.998 L40,37.998 L40,42 Z" id="Fill-279" fill="#3CB449"></path>
                            <path d="M40,38 L44,38 L44,34 L40,34 L40,38 Z" id="Fill-281" fill="#3CB449"></path>
                        </g>
                    </g>
                </g>
            </g>
        </g>
    </g>
</svg>