<?xml version="1.0" encoding="UTF-8" standalone="no"?>
<svg width="20px" height="38px" viewBox="0 0 20 38" version="1.1" xmlns="http://www.w3.org/2000/svg" xmlns:xlink="http://www.w3.org/1999/xlink">
    <!-- Generator: Sketch 3.6.1 (26313) - http://www.bohemiancoding.com/sketch -->
    <title>account</title>
    <desc>Created with Sketch.</desc>
    <defs></defs>
    <g id="Page-1" stroke="none" stroke-width="1" fill="none" fill-rule="evenodd">
        <g id="home" transform="translate(-920.000000, -647.000000)" fill="#BA0C2F">
            <g id="account" transform="translate(920.000000, 647.000000)">
                <g id="Layer_1">
                    <g id="Group">
                        <path d="M13.1428571,9.5 L6.85714286,9.5 C6.22857143,9.5 5.75714286,9.18333333 5.44285714,8.55 L2.3,2.21666667 C2.14285714,1.74166667 2.14285714,1.26666667 2.3,0.791666667 C2.45714286,0.316666667 3.24285714,0 3.71428571,0 L16.2857143,0 C16.7571429,0 17.3857143,0.316666667 17.7,0.791666667 C18.0142857,1.26666667 18.0142857,1.9 17.7,2.375 L14.5571429,8.70833333 C14.2428571,9.18333333 13.7714286,9.5 13.1428571,9.5 L13.1428571,9.5 Z M7.8,6.33333333 L12.2,6.33333333 L13.7714286,3.16666667 L6.22857143,3.16666667 L7.8,6.33333333 L7.8,6.33333333 Z" id="Shape"></path>
                        <path d="M17.8571429,30.0833333 C17.0714286,30.0833333 16.4428571,29.6083333 16.2857143,28.8166667 L11.8857143,9.5 L8.11428571,9.5 L3.71428571,28.8166667 C3.55714286,29.6083333 2.61428571,30.2416667 1.82857143,30.0833333 C1.04285714,29.925 0.414285714,28.975 0.571428571,28.1833333 L5.28571429,7.6 C5.44285714,6.80833333 6.07142857,6.33333333 6.85714286,6.33333333 L13.1428571,6.33333333 C13.9285714,6.33333333 14.5571429,6.80833333 14.7142857,7.6 L19.4285714,28.1833333 C19.5857143,28.975 19.1142857,29.925 18.1714286,30.0833333 L17.8571429,30.0833333 L17.8571429,30.0833333 Z" id="Shape"></path>
                        <path d="M10,38 C9.52857143,38 9.21428571,37.8416667 8.9,37.525 L1.04285714,29.6083333 C0.414285714,28.975 0.414285714,28.025 1.04285714,27.3916667 C1.67142857,26.7583333 2.61428571,26.7583333 3.24285714,27.3916667 L10,34.2 L16.7571429,27.3916667 C17.3857143,26.7583333 18.3285714,26.7583333 18.9571429,27.3916667 C19.5857143,28.025 19.5857143,28.975 18.9571429,29.6083333 L11.1,37.525 C10.7857143,37.8416667 10.4714286,38 10,38 L10,38 Z" id="Shape"></path>
                    </g>
                </g>
            </g>
        </g>
    </g>
</svg>