<?xml version="1.0" encoding="UTF-8"?>
<svg width="2048px" height="1536px" viewBox="0 0 2048 1536" version="1.1" xmlns="http://www.w3.org/2000/svg" xmlns:xlink="http://www.w3.org/1999/xlink">
    <!-- Generator: Sketch 52.6 (67491) - http://www.bohemiancoding.com/sketch -->
    <title>bluetest</title>
    <desc>Created with Sketch.</desc>
    <g id="bluetest" stroke="none" stroke-width="1" fill="none" fill-rule="evenodd">
        <g id="Imported-Layers" transform="translate(-250.000000, 0.000000)">
            <polygon id="Fill-1" fill="#1E7FB2" points="0 0 2546.94697 0 2546.94697 1591.76095 0 1591.76095"></polygon>
            <polyline id="Fill-2" fill="#1A3457" points="1550.35399 1205.75719 1408.96168 1358.66472 1327.04269 1591.30875 1775.73101 1591.30875 1671.92584 1371.61665 1550.35399 1205.75719"></polyline>
            <polyline id="Fill-3" fill="#358CBF" points="1793.81193 785.764393 1886.71577 672.327949 1937.17448 537.408836 1903.41248 422.359865 1797.30162 295.025991 1686.50911 416.644415 1653.85156 543.528744 1714.35242 677.632311 1775.28419 753.669022 1793.81193 785.764393"></polyline>
            <polyline id="Fill-4" fill="#358CBF" points="1036.57862 804.12677 999.044508 718.078075 954.511121 661.95792 908.885216 705.921803 793.13527 941.666238 828.669964 1019.26641 874.311779 1082.28887 977.168947 981.307065 1036.57862 804.12677"></polyline>
            <polyline id="Fill-5" fill="#D9B84B" points="1043.0197 948.597714 945.371886 962.464643 1001.03332 1082.28887 1107.92113 1244.05999 1160.80088 1174.9163 1199.70329 1085.0604 1130.80038 962.464643 1043.0197 948.597714 1443.91406 1185.58735"></polyline>
            <polyline id="Fill-6" fill="#1E7FB2" points="989.120357 1281.17461 1086.49637 1281.17461 1107.92113 1244.05999 945.273771 962.294904 874.311779 1082.28887 892.311817 1200.11202 919.492192 1235.25342 989.120357 1281.17461"></polyline>
            <polyline id="Fill-7" fill="#277FB1" points="1130.80038 962.464643 1038.99966 799.927041 945.273771 962.290926 945.374538 962.464643 1130.80038 962.464643"></polyline>
            <polyline id="Fill-8" fill="#1E7FB2" points="1341.57292 1084.42387 1316.59084 1027.27865 1270.82306 961.85862 1225.10567 1015.78542 1199.70329 1085.0604 1229.52481 1155.90944 1270.69048 1208.03806 1320.12694 1151.48825 1341.57292 1084.42387"></polyline>
            <polyline id="Fill-9" fill="#1F94B8" points="1270.82306 961.85862 1341.57292 1084.42387 1384.65182 1040.5369 1411.58559 963.135645 1391.72402 894.66826 1340.83441 841.676352 1291.62202 891.795948 1270.82306 961.85862"></polyline>
            <polyline id="Fill-10" fill="#004987" points="1340.83441 841.676352 1263.66601 835.32703 1200.13288 840.803785 1270.77401 961.970012 1312.0431 890.614401 1340.83441 841.676352"></polyline>
            <polyline id="Fill-11" fill="#2B9ECD" points="718.650436 0 572.828388 0 642.716424 143.549311 736.35613 287.208687 740.035424 290.417826 740.116302 290.559718 785.800546 243.559087 813.637227 164.561217 774.309214 84.5382776 718.650436 0"></polyline>
            <polyline id="Fill-12" fill="#366DA8" points="740.116302 290.559718 534.631343 646.229159 749.02351 1019.26641 954.220755 662.677987 879.716033 476.066536 740.116302 290.559718"></polyline>
            <polyline id="Fill-13" fill="#2868A3" points="0 0 0 193.778971 149.083693 450.882749 409.3444 0 0 0"></polyline>
            <polyline id="Fill-14" fill="#277FB1" points="1.32587194 1250.88007 1.32587194 1591.53419 417.966545 1591.53419 543.607496 1452.95374 614.607939 1250.88007 1.32587194 1250.88007"></polyline>
            <polyline id="Fill-15" fill="#2868A3" points="534.920383 645.509092 400.215771 880.21122 450.354945 1047.17001 614.606613 1250.78857 711.993233 1165.96519 749.02351 1018.14719 534.920383 645.509092"></polyline>
            <polyline id="Fill-16" fill="#243D73" points="1755.20519 1557.20303 1904.78078 1297.75472 1788.82532 1096.37593 1699.45095 1251.20231 1639.16487 1357.93537 1662.80517 1397.63454 1755.20519 1557.20303"></polyline>
            <polyline id="Fill-17" fill="#284F6C" points="1166.44645 1588.3529 793.220125 941.793543 793.133944 941.646347 418.11902 1591.3061 1168.15152 1591.3061 1166.44645 1588.3529"></polyline>
            <polyline id="Fill-18" fill="#1A3457" points="1903.99321 1296.08915 1903.89642 1295.91941 1733.38399 1591.31273 1733.25538 1591.53419 2074.53747 1591.53419 1903.99321 1296.08915"></polyline>
            <polyline id="Fill-19" fill="#1A4386" points="2024.38901 686.583423 1788.4859 1017.99601 1788.4859 1098.02956 1903.89642 1297.85153 2140.45452 888.895787 2109.02074 753.239368 2024.38901 686.583423"></polyline>
            <polyline id="Fill-20" fill="#004987" points="1593.03514 840.692393 1415.14688 863.282347 1340.83441 841.676352 1340.83441 840.575697 1490.38348 581.50798 1643.93934 829.224361 1593.03514 840.692393"></polyline>
            <polyline id="Fill-21" fill="#F3D257" points="1690.80626 963.11708 1799.37396 785.764393 1653.75477 543.360331 1411.44637 963.11708 1690.80626 963.11708"></polyline>
            <polyline id="Fill-22" fill="#F3D257" points="926.341646 64.0952644 855.559972 0 718.650436 0 813.637227 164.561217 847.563639 254.940923 897.542382 311.270601 938.385867 257.261582 966.425407 191.939684 926.341646 64.0952644"></polyline>
            <polyline id="Fill-23" fill="#F3D257" points="1180.82023 563.345843 1011.64029 234.718041 966.425407 191.939684 896.411413 313.230563 1110.80756 684.631418 1180.82023 563.345843"></polyline>
            <polyline id="Fill-24" fill="#004987" points="1130.6373 731.17322 1200.13288 840.803785 1340.83441 841.676352 1230.40916 576.186378 1096.12087 416.644415 1026.05915 538.012207 1130.6373 731.17322"></polyline>
            <polyline id="Fill-25" fill="#00A475" points="1340.90335 840.692393 1340.83441 840.575697 1340.76679 840.692393 1340.90335 840.692393"></polyline>
            <polyline id="Fill-26" fill="#2D67A3" points="1305.34347 780.19216 1340.83441 841.676352 1490.38348 581.50798 1479.01015 499.936167 1415.69579 454.971086 1325.54047 558.615677 1267.7192 713.914151 1305.34347 780.19216"></polyline>
            <polyline id="Fill-27" fill="#4978AF" points="1561.37066 703.735079 1797.4952 294.69049 1726.50801 171.716802 1492.38687 566.572221 1490.38348 581.50798 1561.37066 703.735079"></polyline>
            <path d="M1568.70141,1477.89751 L1568.98515,1478.38683" id="Fill-32" fill="#187399"></path>
            <path d="M1639.00179,1357.09463 L1638.71806,1356.60397" id="Fill-33" fill="#187399"></path>
            <polyline id="Fill-34" fill="#187399" points="1638.71806 1356.60397 1639.09195 1355.95552 1551.87875 1204.87003 1551.50353 1205.51982 1638.71806 1356.60397"></polyline>
            <polyline id="Fill-35" fill="#187399" points="1639.37569 1356.44882 1639.09195 1355.95552 1638.71806 1356.60397 1639.00179 1357.09463 1639.37569 1356.44882"></polyline>
            <polyline id="Fill-36" fill="#187399" points="1481.44313 1326.88894 1481.48821 1326.8107 1481.04139 1326.03361 1480.99631 1326.1145 1481.44313 1326.88894"></polyline>
            <polyline id="Fill-37" fill="#D2B33E" points="1167.38119 1589.98532 1037.80903 1365.52061 907.343227 1591.53419 1168.27483 1591.53419 1167.38119 1589.98532"></polyline>
            <polyline id="Fill-38" fill="#316BA6" points="1270.69048 1208.03806 1199.70329 1085.0604 1107.92113 1244.05999 1124.83661 1323.93573 1179.86029 1370.83293 1239.3588 1287.634 1270.69048 1208.03806"></polyline>
            <polyline id="Fill-39" fill="#1A4386" points="1178.90964 1367.03898 1107.92113 1244.05999 1079.25976 1277.13534 1037.80903 1365.52061 1167.38119 1589.98532 1307.6054 1589.98532 1178.90964 1367.03898"></polyline>
            <polyline id="Fill-40" fill="#DAAA00" points="1411.74469 962.861144 1482.26649 841.676352 1340.83441 841.676352 1411.58559 963.135645 1411.74469 962.861144"></polyline>
            <polyline id="Fill-41" fill="#187399" points="1245.9086 157.99972 1245.6673 157.583328 1238.8311 169.425317 1239.07108 169.843036 1245.9086 157.99972"></polyline>
            <polyline id="Fill-42" fill="#2D67A3" points="2301.39946 609.241839 2098.55431 257.839757 1999.19347 374.177688 1937.17448 537.408836 1967.26249 640.833296 2024.74567 688.848386 2140.1973 888.496634 2301.39946 609.241839"></polyline>
            <polyline id="Fill-43" fill="#0F9375" points="2311.33952 1185.58735 2311.51851 1185.2797 2140.29541 888.6677 2140.11642 888.975353 2311.33952 1185.58735"></polyline>
            <polyline id="Fill-44" fill="#0F9375" points="2203.09136 779.542376 2203.18947 779.713442 2301.49625 609.410253 2301.39946 609.241839 2203.09136 779.542376"></polyline>
            <polyline id="Fill-45" fill="#0F9375" points="2202.37141 780.791553 2202.46952 780.959967 2203.18947 779.713442 2203.09136 779.542376 2202.37141 780.791553"></polyline>
            <polyline id="Fill-46" fill="#0F9375" points="1797.67021 295.133404 1726.68303 172.161042 1726.50801 172.462065 1797.4952 295.437079 1797.67021 295.133404"></polyline>
            <polyline id="Fill-47" fill="#0F9375" points="2301.39946 609.241839 2301.43128 609.186143 2185.80066 408.877502 2185.77149 408.930545 2301.39946 609.241839"></polyline>
            <polyline id="Fill-50" fill="#2B9ECD" points="945.175657 962.464643 945.371886 962.464643 945.273771 962.294904 945.175657 962.464643"></polyline>
            <polyline id="Fill-51" fill="#187399" points="1690.94548 963.221841 1653.89266 963.221841 1411.58559 963.220515 1411.58559 963.221841 1439.89693 1083.08452 1550.42294 1205.87919 1643.0868 1078.77473 1690.94548 963.221841"></polyline>
            <polyline id="Fill-52" fill="#1D4086" points="1411.82292 963.546733 1411.82292 963.546733 1480.37182 844.79797 1411.82292 963.546733"></polyline>
            <polyline id="Fill-53" fill="#DEB319" points="0 1253.2193 613.20384 1253.2193 614.606613 1250.78857 0 188.4335 0 1253.2193"></polyline>
            <polyline id="Fill-54" fill="#1F3E44" points="1238.82182 169.425317 1238.97032 169.169381 1234.50743 161.952796 1238.82182 169.425317"></polyline>
            <polyline id="Fill-55" fill="#2B9ECD" points="1200.13288 840.803785 1026.01142 538.123599 971.816402 576.296444 954.220755 662.677987 1199.65556 1085.17179 1270.77401 961.970012 1200.13288 840.803785"></polyline>
            <polyline id="Fill-56" fill="#004987" points="1652.91417 45.5167347 1538.01145 163.712519 1415.69579 454.971086 1490.38348 581.50798 1726.50801 172.462065 1729.59995 94.1524346 1652.91417 45.5167347"></polyline>
            <polyline id="Fill-57" fill="#DAAA00" points="2096.82537 262.00103 2088.52276 240.519688 1949.98108 0 1679.14654 0 1658.44438 16.5761329 1652.91417 45.5167347 1793.9591 289.237605 1797.51774 295.399948 1797.4952 295.437079 1937.17448 537.408836 2000.73413 426.771769 2096.82537 262.00103"></polyline>
            <polyline id="Fill-58" fill="#00A475" points="856.88717 1.10463349 856.250752 1.10463349 878.500209 39.6487837 878.818418 39.09713 856.88717 1.10463349"></polyline>
            <polyline id="Fill-59" fill="#DCBF54" points="398.258784 0 145.682831 441.2182 400.194558 880.768178 453.729289 786.683374 740.116302 290.559718 573.218194 0 398.258784 0"></polyline>
            <polyline id="Fill-60" fill="#1C80B0" points="878.818418 39.0958039 856.88717 1.10463349 878.818418 39.09713 878.818418 39.0958039"></polyline>
            <polyline id="Fill-61" fill="#4978AF" points="1626.56114 0 1626.56114 31.3832608 1652.87572 45.5843654 1679.14654 0 1626.56114 0"></polyline>
            <polyline id="Fill-62" fill="#0F9375" points="1141.26284 0.417718548 1141.65927 1.10463349 1141.66723 1.10463349 1141.27212 0.417718548 1141.26284 0.417718548"></polyline>
            <polyline id="Fill-63" fill="#0F9375" points="1336.46698 1.10463349 1336.47627 1.10463349 1336.8727 0.417718548 1336.86475 0.417718548 1336.46698 1.10463349"></polyline>
            <polyline id="Fill-64" fill="#2868A3" points="1141.65927 1.10463349 1141.02153 0 1056.35267 0 1056.11136 0.417718548 1055.71493 1.10463349 966.022341 191.64927 1097.82595 419.959641 1205.88053 277.152941 1238.96899 172.891718 1217.81338 80.228483 1141.65927 1.10463349"></polyline>
            <polyline id="Fill-65" fill="#0F9375" points="1141.03081 0 1141.02153 0 1141.26284 0.417718548 1141.27212 0.417718548 1141.03081 0"></polyline>
            <polyline id="Fill-66" fill="#0F9375" points="1337.10738 0 1336.86475 0.417718548 1336.8727 0.417718548 1337.11401 0 1337.10738 0"></polyline>
            <polyline id="Fill-67" fill="#1A3457" points="1268.35031 0 1138.87229 0 1139.52462 1.12850312 1139.51401 1.12850312 1234.40799 165.517328 1238.96899 172.891718 1338.60959 1.12850312 1339.01664 0.427001182 1339.26457 0 1268.35031 0"></polyline>
            <polyline id="Fill-68" fill="#187399" points="1626.95625 0 1337.11401 0 1336.47627 1.10463349 1238.96899 172.891718 1296.70276 336.82702 1415.69579 454.971086 1416.5165 453.548191 1652.91417 45.5167347 1626.95625 0"></polyline>
            <polyline id="Fill-69" fill="#345796" points="2447.63253 0 2248.54092 0 2144.59787 142.22322 2096.77234 261.90953 2181.45843 408.616262 2181.4876 408.561892 2299.34171 612.722827 2491.31338 377.935829 2547 184.30538 2547 0 2447.63253 0"></polyline>
            <polyline id="Fill-70" fill="#2371A9" points="1946.12677 0 2096.82537 262.00103 2248.54092 0 1946.12677 0"></polyline>
            <polyline id="Fill-71" fill="#D9B84B" points="1560.91324 702.694098 1701.06321 945.482727 1690.82217 963.220515 1410.52356 963.220515 1560.91324 702.694098"></polyline>
            <polyline id="Fill-72" fill="#DAAA00" points="1937.16255 537.379662 1550.2824 1205.88051 1639.20598 1357.89293 2024.74965 688.848386 1937.16255 537.379662"></polyline>
            <polyline id="Fill-73" fill="#187399" points="1728.62808 1204.98938 1550.2824 1205.88051 1639.91532 1358.66472 1728.62808 1204.98938"></polyline>
            <polyline id="Fill-75" fill="#277FB1" points="1037.80903 1365.52061 1107.92113 1244.05999 967.629298 1243.92871 1037.80903 1365.52061"></polyline>
            <polyline id="Fill-76" fill="#DCBF54" points="1238.96899 172.891718 1096.01878 416.822111 1267.7192 713.914151 1415.69579 454.971086 1238.96899 172.891718"></polyline>
            <polyline id="Fill-77" fill="#4978AF" points="1026.10821 537.92999 813.524528 164.333129 740.116302 290.559718 954.220755 662.677987 1026.10821 537.92999"></polyline>
            <polyline id="Fill-78" fill="#D2B33E" points="855.392913 0 966.022341 191.64927 1076.65044 0 855.392913 0"></polyline>
            <path d="M1247.6455,1060.20946 C1251.92143,1060.20946 1251.92143,1053.579 1247.6455,1053.579 C1243.36956,1053.579 1243.36956,1060.20946 1247.6455,1060.20946" id="Fill-79" fill="#1E7FB2"></path>
            <path d="M1247.6455,1060.20946 C1251.92143,1060.20946 1251.92143,1053.579 1247.6455,1053.579 C1243.36956,1053.579 1243.36956,1060.20946 1247.6455,1060.20946" id="Fill-80" fill="#1E7FB2"></path>
            <polyline id="Fill-82" fill="#DAAA00" points="1626.4365 1591.31406 1774.84665 1591.31406 1700.51695 1462.76151 1626.4365 1591.31406"></polyline>
            <polyline id="Fill-83" fill="#284F6C" points="1480.99631 1326.1145 1446.27968 1218.67729 1341.57292 1084.42387 1270.69048 1208.03806 1329.24363 1339.35153 1409.4443 1450.06684 1480.99631 1326.1145"></polyline>
            <polyline id="Fill-84" fill="#D9B84B" points="1490.97747 1591.31406 1327.90981 1591.31406 1409.4443 1450.06684 1270.69048 1208.03806 1178.90964 1367.03898 1307.6054 1589.98532 1167.38119 1589.98532 1168.27483 1591.53419 1491.10475 1591.53419 1490.97747 1591.31406"></polyline>
            <polyline id="Fill-85" fill="#1D80B1" points="1411.82292 963.546733 1411.58559 963.135645 1341.57292 1084.42387 1341.81025 1084.83496 1481.04139 1326.03361 1550.98644 1204.98938 1411.82292 963.546733"></polyline>
            <polyline id="Fill-86" fill="#253A71" points="2547 184.30538 1903.41248 1297.2402 2073.42241 1591.76228 2547 1591.76228 2547 184.30538"></polyline>
        </g>
    </g>
</svg>