<?xml version="1.0" encoding="UTF-8"?>
<svg width="208px" height="39px" viewBox="0 0 208 39" version="1.1" xmlns="http://www.w3.org/2000/svg" xmlns:xlink="http://www.w3.org/1999/xlink">
    <!-- Generator: Sketch 63.1 (92452) - https://sketch.com -->
    <title>caes-logo</title>
    <desc>Created with Sketch.</desc>
    <g id="Page-1" stroke="none" stroke-width="1" fill="none" fill-rule="evenodd">
        <g id="email-template" transform="translate(-776.000000, -208.000000)">
            <g id="caes-logo" transform="translate(776.000000, 208.000000)">
                <path d="M25.38954,14.554485 C25.62615,10.34055 24.83613,6.31125 23.247675,2.697255 C22.907115,1.92159 22.51656,1.17414 22.10472,0.44055 L0,0.44055 L0,38.066985 L6.36768,38.066985 C16.811685,35.214795 24.746535,25.959285 25.38954,14.554485" id="Fill-1" fill="#DAAA00"></path>
                <path d="M24.66981,0.44055 C26.963145,3.613005 28.64367,7.301745 29.477745,11.386485 C31.550805,21.545865 27.927405,31.54041 20.80188,38.066985 L37.628415,38.066985 L37.628415,0.44055 L24.66981,0.44055" id="Fill-2" fill="#002855"></path>
                <path d="M114.717735,12.855645 L116.063145,9.30105 L116.295795,9.503505 C117.120465,10.17621 118.23966,10.74843 119.295495,10.7712 C120.239955,10.79298 120.7008,10.54152 120.575565,9.742095 C120.483,9.14562 119.80881,9.040185 119.38707,8.95752 L118.463895,8.772885 C116.667045,8.43678 115.15581,7.328475 115.15581,5.227695 C115.15581,2.051775 117.89316,0.270765 120.64635,0.270765 C122.092245,0.270765 123.42033,0.639045 124.661295,1.44738 L123.49557,4.597065 C122.85504,4.135725 121.887315,3.48678 120.6612,3.442725 C120.25827,3.42738 119.3346,3.639735 119.630115,4.57578 C119.757825,4.97475 120.32955,5.142555 120.681495,5.227695 L121.724955,5.47965 C123.6708,5.93307 125.080065,7.04187 125.080065,9.30996 C125.080065,12.50271 122.325885,14.082255 119.59101,14.082255 C117.99414,14.082255 116.14581,13.627845 114.717735,12.855645" id="Fill-3" fill="#DAAA00"></path>
                <polygon id="Fill-4" fill="#DAAA00" points="109.04058 13.881285 113.727735 13.881285 113.727735 0.48906 109.04058 0.48906"></polygon>
                <polyline id="Fill-5" fill="#DAAA00" points="103.75497 0.488565 108.55548 0.488565 103.651515 13.881285 99.75636 13.881285 94.868235 0.488565 99.65241 0.488565 101.70468 8.57043 103.75497 0.488565"></polyline>
                <path d="M90.483525,4.354515 L90.483525,4.354515 C90.568665,4.92426 91.408185,9.023355 91.408185,9.023355 L89.5653,9.023355 L90.483525,4.354515 Z M83.497095,13.881285 L88.3674,13.881285 L88.738155,12.199275 L92.213055,12.199275 L92.674395,13.881285 L97.54767,13.881285 L92.986245,0.48906 L87.87735,0.48906 L83.497095,13.881285 L83.497095,13.881285 Z" id="Fill-6" fill="#DAAA00"></path>
                <path d="M71.454735,0.488565 L76.25574,0.488565 C80.540955,0.488565 83.813895,2.455695 83.813895,7.37847 C83.813895,11.34441 81.146835,13.881285 77.399685,13.881285 L71.454735,13.87386 L71.454735,0.488565 Z M76.17357,10.036125 L76.487895,10.036125 C78.03279,10.036125 79.17921,9.10899 79.17921,7.361145 C79.17921,5.47965 78.163965,4.43025 76.46661,4.43025 L76.17357,4.43025 L76.17357,10.036125 L76.17357,10.036125 Z" id="Fill-7" fill="#DAAA00"></path>
                <path d="M68.65155,0.90882 L68.90202,3.107115 C68.96043,3.62835 69.258915,4.87971 68.889645,4.7124 C68.659965,4.60944 68.47038,4.04217 68.28228,3.537765 C68.186745,3.28185 67.730355,2.07207 67.61106,1.98297 C67.033395,1.551825 65.59443,1.064745 64.620765,1.06029 C61.668585,1.0494 59.71581,3.2274 59.71581,7.092855 C59.71581,9.864855 61.04241,13.190265 64.418805,13.190265 C65.628585,13.190265 67.945185,12.80961 68.57631,11.088495 C68.86143,10.309365 69.1218,9.61686 69.310395,9.82773 C69.450975,9.980685 69.26832,10.604385 69.18417,10.94049 C68.78619,12.535875 68.76441,13.01949 68.639175,13.081365 C67.11408,13.84812 65.157345,14.100075 63.445635,14.100075 C58.000635,14.100075 56.12112,10.92366 56.12112,7.748235 C56.12112,2.2374 59.506425,-0.083655 64.75293,0.153945 C66.08052,0.203445 67.408605,0.43956 68.65155,0.90882" id="Fill-9" fill="#DAAA00"></path>
                <path d="M52.57692,1.15335 L51.70473,0.848925 C51.413175,0.585585 51.769575,0.51183 51.769575,0.51183 C51.769575,0.51183 53.02935,0.745965 56.168145,0.47916 C56.168145,0.47916 56.440395,0.534105 56.25279,0.754875 L55.2222,1.196415 C54.551475,1.48896 54.551475,1.321155 54.551475,2.05623 L54.545535,8.88129 C54.545535,14.219865 49.11687,14.100075 48.059055,14.100075 C47.55465,14.100075 42.57495,14.100075 42.57495,9.81486 L42.57495,2.589345 C42.57495,1.330065 42.710085,1.362735 42.291315,1.21572 L41.032035,0.742995 C41.032035,0.742995 40.818195,0.44055 41.198355,0.459855 C42.227955,0.51183 43.717905,0.732105 47.223,0.47916 C47.223,0.47916 47.528415,0.553905 47.327445,0.77418 L46.27953,1.069695 C45.482085,1.427085 45.58752,1.15335 45.566235,1.972575 L45.59148,9.09612 C45.59148,10.842975 46.4904,13.006125 49.317345,13.006125 C53.165475,13.006125 53.202105,9.67725 53.202105,8.93673 L53.20854,1.88001 C53.249625,1.21572 53.165475,1.40481 52.57692,1.15335" id="Fill-11" fill="#DAAA00"></path>
                <polygon id="Fill-12" fill="#DAAA00" points="42.57594 17.407665 207.268875 17.407665 207.268875 16.848315 42.57594 16.848315"></polygon>
                <path d="M47.371995,23.01255 C47.2824,22.890285 47.17944,22.783365 47.065095,22.692285 C46.950255,22.600215 46.827,22.523985 46.69434,22.46112 C46.562175,22.39875 46.42407,22.351725 46.27854,22.31955 C46.133505,22.28787 45.98649,22.271535 45.838485,22.271535 C45.571185,22.271535 45.32715,22.31955 45.105885,22.41558 C44.88561,22.511115 44.69652,22.643775 44.5401,22.812075 C44.383185,22.980375 44.26092,23.17788 44.1738,23.40459 C44.087175,23.630805 44.043615,23.875335 44.043615,24.136695 C44.043615,24.403995 44.087175,24.64902 44.1738,24.87276 C44.26092,25.0965 44.38467,25.289055 44.54406,25.450425 C44.703945,25.6113 44.896005,25.73802 45.11925,25.8291 C45.34299,25.92018 45.590985,25.96572 45.86472,25.96572 C46.006785,25.96572 46.14786,25.94988 46.288935,25.91622 C46.43001,25.883055 46.565145,25.83504 46.69434,25.77267 C46.823535,25.709805 46.9458,25.63506 47.060145,25.54794 C47.174985,25.46082 47.27943,25.362315 47.371995,25.25193 L47.371995,27.34776 C47.226465,27.390825 47.09034,27.432405 46.96263,27.472005 C46.83492,27.510615 46.709685,27.544275 46.58742,27.571995 C46.46565,27.599715 46.343385,27.621495 46.21914,27.637335 C46.095885,27.65367 45.9657,27.66159 45.83007,27.66159 C45.35883,27.66159 44.907885,27.57546 44.47674,27.40419 C44.0451,27.23292 43.65405,26.988885 43.302105,26.672085 C42.930855,26.335485 42.657615,25.952355 42.483375,25.52418 C42.309135,25.096005 42.222015,24.63021 42.222015,24.12828 C42.222015,23.66595 42.30666,23.222925 42.47496,22.799205 C42.64326,22.37499 42.890265,21.997305 43.21548,21.66615 C43.381305,21.49785 43.562475,21.345885 43.75998,21.21075 C43.957485,21.07611 44.166375,20.960775 44.38566,20.86623 C44.603955,20.77218 44.831655,20.69991 45.067275,20.650905 C45.3024,20.601405 45.537525,20.576655 45.77265,20.576655 C46.0548,20.576655 46.326555,20.60685 46.58742,20.66625 C46.849275,20.726145 47.110635,20.809305 47.371995,20.917215 L47.371995,23.01255" id="Fill-13" fill="#002855"></path>
                <path d="M52.41357,22.227975 C52.15221,22.227975 51.906195,22.276485 51.67701,22.374 C51.447825,22.471515 51.24636,22.602195 51.073605,22.766535 C50.901345,22.93038 50.76423,23.11947 50.66424,23.33232 C50.56425,23.54616 50.51376,23.769405 50.51376,24.00156 C50.51376,24.292125 50.56425,24.55992 50.66424,24.80544 C50.76423,25.050465 50.901345,25.262325 51.073605,25.44102 C51.24636,25.619715 51.447825,25.759305 51.67701,25.859295 C51.906195,25.95978 52.15221,26.01027 52.41357,26.01027 C52.674435,26.01027 52.920945,25.95978 53.151615,25.859295 C53.38278,25.759305 53.584245,25.619715 53.75502,25.44102 C53.92629,25.262325 54.062415,25.050465 54.16191,24.80544 C54.26289,24.55992 54.31338,24.292125 54.31338,24.00156 C54.31338,23.769405 54.26289,23.54616 54.16191,23.33232 C54.062415,23.11947 53.92629,22.93038 53.75502,22.766535 C53.584245,22.602195 53.38278,22.471515 53.151615,22.374 C52.920945,22.276485 52.674435,22.227975 52.41357,22.227975 M52.41357,20.533095 C52.735815,20.533095 53.051625,20.571705 53.361,20.648925 C53.670375,20.726145 53.96292,20.835045 54.238635,20.977605 C54.514845,21.11967 54.769275,21.29391 55.00143,21.498345 C55.23408,21.703275 55.433565,21.933945 55.60038,22.191345 C55.76769,22.44825 55.89837,22.727925 55.992915,23.029875 C56.086965,23.331825 56.134485,23.65308 56.134485,23.99265 C56.134485,24.538635 56.042415,25.03908 55.85778,25.49349 C55.673145,25.948395 55.41525,26.33895 55.084095,26.66565 C54.75294,26.992845 54.360405,27.247275 53.9055,27.430425 C53.45109,27.61308 52.953615,27.704655 52.41357,27.704655 C52.052715,27.704655 51.711165,27.66357 51.387435,27.580905 C51.063705,27.49824 50.76423,27.37944 50.489505,27.225495 C50.215275,27.072045 49.96728,26.88444 49.745025,26.66565 C49.522275,26.446365 49.33368,26.198865 49.17825,25.92315 C49.023315,25.64694 48.90303,25.346475 48.819375,25.02324 C48.735225,24.699015 48.692655,24.35598 48.692655,23.99265 C48.692655,23.65308 48.740175,23.331825 48.834225,23.029875 C48.92877,22.727925 49.059945,22.44825 49.22874,22.191345 C49.39704,21.933945 49.596525,21.703275 49.82769,21.498345 C50.05836,21.29391 50.312295,21.11967 50.58801,20.977605 C50.863725,20.835045 51.15627,20.726145 51.465645,20.648925 C51.775515,20.571705 52.09083,20.533095 52.41357,20.533095" id="Fill-14" fill="#002855"></path>
                <polyline id="Fill-15" fill="#002855" points="59.38317 26.00136 61.483455 26.00136 61.483455 27.482895 57.63582 27.482895 57.63582 20.75535 59.38317 20.75535 59.38317 26.00136"></polyline>
                <polyline id="Fill-16" fill="#002855" points="64.80045 26.00136 66.900735 26.00136 66.900735 27.482895 63.0531 27.482895 63.0531 20.75535 64.80045 20.75535 64.80045 26.00136"></polyline>
                <polyline id="Fill-17" fill="#002855" points="70.21773 22.236885 70.21773 23.360535 72.1908 23.360535 72.1908 24.842565 70.21773 24.842565 70.21773 26.00136 72.300195 26.00136 72.300195 27.481905 68.47038 27.481905 68.47038 20.75535 72.300195 20.75535 72.300195 22.236885 70.21773 22.236885"></polyline>
                <path d="M80.91567,23.726835 C80.91072,23.97087 80.89983,24.20748 80.885475,24.43716 C80.87112,24.666345 80.83944,24.891075 80.791425,25.11036 C80.7444,25.32915 80.675595,25.54497 80.58699,25.75485 C80.498385,25.96572 80.3781,26.1756 80.22762,26.384985 C80.061795,26.61417 79.87716,26.81217 79.674705,26.978985 C79.470765,27.146295 79.25148,27.283905 79.01586,27.39132 C78.78123,27.49824 78.53274,27.577935 78.271875,27.628425 C78.009525,27.67941 77.73777,27.704655 77.45661,27.704655 C76.92795,27.704655 76.443345,27.61902 76.003785,27.448245 C75.56373,27.27648 75.185055,27.03492 74.86875,26.722575 C74.55195,26.409735 74.305935,26.036505 74.129715,25.60041 C73.95399,25.16481 73.866375,24.68268 73.866375,24.153525 C73.866375,23.60754 73.95498,23.11155 74.13219,22.66605 C74.3094,22.22055 74.55888,21.839895 74.879145,21.52458 C75.199905,21.20976 75.58452,20.965725 76.032,20.792475 C76.478985,20.61972 76.973985,20.533095 77.517495,20.533095 C78.20901,20.533095 78.814395,20.689515 79.334145,21.00186 C79.85439,21.314205 80.2593,21.785445 80.549865,22.41558 L78.890625,23.10858 C78.829245,22.948695 78.752025,22.80366 78.65946,22.67298 C78.56541,22.541805 78.45849,22.428945 78.33672,22.334895 C78.214455,22.24035 78.07833,22.16808 77.92686,22.117095 C77.775885,22.066605 77.61204,22.04136 77.435325,22.04136 C77.14773,22.04136 76.893795,22.103235 76.67649,22.22847 C76.45869,22.35321 76.27653,22.51656 76.129515,22.718025 C75.982995,22.92048 75.87261,23.147685 75.798855,23.400135 C75.724605,23.65308 75.68748,23.907015 75.68748,24.16293 C75.68748,24.42429 75.72609,24.680205 75.802815,24.93216 C75.880035,25.18263 75.99339,25.407855 76.14288,25.606845 C76.29237,25.805835 76.477995,25.96572 76.700745,26.0865 C76.922505,26.20728 77.177925,26.267175 77.46552,26.267175 C77.65362,26.267175 77.830335,26.24292 77.994675,26.192925 C78.15852,26.143425 78.30207,26.06967 78.42582,25.973145 C78.549075,25.87563 78.650055,25.754355 78.728265,25.608825 C78.80697,25.46379 78.854985,25.294005 78.87231,25.09947 L77.44374,25.09947 L77.44374,23.726835 L80.91567,23.726835" id="Fill-18" fill="#002855"></path>
                <polyline id="Fill-19" fill="#002855" points="84.14307 22.236885 84.14307 23.360535 86.116635 23.360535 86.116635 24.842565 84.14307 24.842565 84.14307 26.00136 86.225535 26.00136 86.225535 27.481905 82.39572 27.481905 82.39572 20.75535 86.225535 20.75535 86.225535 22.236885 84.14307 22.236885"></polyline>
                <path d="M93.564405,23.730795 C93.37779,23.730795 93.20256,23.765445 93.038715,23.834745 C92.87487,23.905035 92.730825,23.9976 92.608065,24.11541 C92.484315,24.232725 92.3868,24.367365 92.31552,24.51933 C92.243745,24.67179 92.2086,24.831675 92.2086,24.99651 C92.2086,25.204905 92.243745,25.39548 92.31552,25.571205 C92.3868,25.746435 92.484315,25.89741 92.608065,26.025615 C92.730825,26.152335 92.87487,26.252325 93.038715,26.3241 C93.20256,26.39538 93.37779,26.431515 93.564405,26.431515 C93.75102,26.431515 93.926745,26.39538 94.09158,26.3241 C94.25691,26.252325 94.40046,26.152335 94.522725,26.025615 C94.64499,25.89741 94.741515,25.746435 94.81329,25.571205 C94.88457,25.39548 94.920705,25.204905 94.920705,24.99651 C94.920705,24.831675 94.88457,24.67179 94.81329,24.51933 C94.741515,24.367365 94.64499,24.232725 94.522725,24.11541 C94.40046,23.9976 94.25691,23.905035 94.09158,23.834745 C93.926745,23.765445 93.75102,23.730795 93.564405,23.730795 M93.564405,22.521015 C93.79458,22.521015 94.019805,22.54824 94.240575,22.603185 C94.46184,22.658625 94.670235,22.73634 94.86774,22.83831 C95.064255,22.93929 95.24691,23.06304 95.41224,23.210055 C95.57757,23.35608 95.72112,23.52042 95.83992,23.70456 C95.95872,23.888205 96.05178,24.08769 96.12009,24.30351 C96.186915,24.518835 96.220575,24.74802 96.220575,24.99057 C96.220575,25.38063 96.15474,25.738515 96.02307,26.062245 C95.8914,26.38647 95.70825,26.666145 95.471145,26.899785 C95.23503,27.132435 94.95486,27.31509 94.629645,27.44577 C94.304925,27.575955 93.950505,27.641295 93.564405,27.641295 C93.307005,27.641295 93.06297,27.612585 92.831805,27.55269 C92.600145,27.49329 92.3868,27.409635 92.19078,27.29826 C91.99476,27.18936 91.81755,27.056205 91.658655,26.899785 C91.500255,26.742375 91.365615,26.56566 91.25424,26.36865 C91.143855,26.172135 91.05822,25.957305 90.998325,25.72713 C90.93744,25.494975 90.90774,25.24995 90.90774,24.99057 C90.90774,24.74802 90.9414,24.518835 91.00971,24.30351 C91.076535,24.08769 91.17009,23.888205 91.290375,23.70456 C91.41066,23.52042 91.553715,23.35608 91.718055,23.210055 C91.88289,23.06304 92.06406,22.93929 92.26107,22.83831 C92.45808,22.73634 92.66697,22.658625 92.88774,22.603185 C93.109005,22.54824 93.333735,22.521015 93.564405,22.521015" id="Fill-20" fill="#002855"></path>
                <polyline id="Fill-21" fill="#002855" points="98.2971 23.73723 98.2971 24.539625 99.66924 24.539625 99.66924 25.59744 98.2971 25.59744 98.2971 27.482895 97.0497 27.482895 97.0497 22.67991 99.80883 22.67991 99.80883 23.73723 98.2971 23.73723"></polyline>
                <path d="M107.159085,22.833855 L107.142255,22.833855 L106.418565,24.977205 L107.87337,24.977205 L107.159085,22.833855 Z M105.93495,26.314695 L105.473115,27.481905 L103.61736,27.481905 L106.20522,20.75535 L108.113445,20.75535 L110.64933,27.481905 L108.784665,27.481905 L108.34461,26.314695 L105.93495,26.314695 L105.93495,26.314695 Z" id="Fill-22" fill="#002855"></path>
                <path d="M122.259555,23.77089 L122.428845,23.77089 C122.571405,23.77089 122.71545,23.76099 122.860485,23.74218 C123.006015,23.72337 123.1362,23.684265 123.25302,23.624865 C123.36885,23.564475 123.4629,23.48082 123.535665,23.37192 C123.607935,23.263515 123.644565,23.11749 123.644565,22.933845 C123.644565,22.75119 123.607935,22.604175 123.535665,22.49379 C123.4629,22.383405 123.36885,22.298265 123.25302,22.238865 C123.1362,22.179465 123.006015,22.14036 122.860485,22.121055 C122.71545,22.102245 122.571405,22.093335 122.428845,22.093335 L122.259555,22.093335 L122.259555,23.77089 Z M126.1062,27.482895 L123.927705,27.482895 L122.281335,24.895035 L122.259555,24.895035 L122.259555,27.482895 L120.512205,27.482895 L120.512205,20.75535 L123.1263,20.75535 C123.457455,20.75535 123.76584,20.79594 124.05195,20.877615 C124.33806,20.95929 124.586055,21.083535 124.794945,21.252825 C125.00433,21.42063 125.168175,21.634965 125.286975,21.894345 C125.40627,22.154715 125.46567,22.464585 125.46567,22.82445 C125.46567,23.057595 125.43399,23.278365 125.370135,23.48973 C125.305785,23.7006 125.21124,23.88969 125.0865,24.05799 C124.96176,24.226785 124.807815,24.36885 124.624665,24.485175 C124.44201,24.6015 124.23114,24.681195 123.99354,24.724755 L126.1062,27.482895 L126.1062,27.482895 Z" id="Fill-24" fill="#002855"></path>
                <polygon id="Fill-25" fill="#002855" points="127.62486 27.481905 129.37221 27.481905 129.37221 20.75535 127.62486 20.75535"></polygon>
                <path d="M136.193805,23.01255 C136.103715,22.890285 136.00125,22.783365 135.88641,22.692285 C135.772065,22.600215 135.648315,22.523985 135.515655,22.46112 C135.383985,22.39875 135.245385,22.351725 135.099855,22.31955 C134.95482,22.28787 134.8083,22.271535 134.660295,22.271535 C134.392995,22.271535 134.148465,22.31955 133.927695,22.41558 C133.706925,22.511115 133.517835,22.643775 133.36191,22.812075 C133.2045,22.980375 133.08273,23.17788 132.99561,23.40459 C132.90849,23.630805 132.865425,23.875335 132.865425,24.136695 C132.865425,24.403995 132.90849,24.64902 132.99561,24.87276 C133.08273,25.0965 133.205985,25.289055 133.365375,25.450425 C133.525755,25.6113 133.71732,25.73802 133.940565,25.8291 C134.165295,25.92018 134.412795,25.96572 134.686035,25.96572 C134.8281,25.96572 134.970165,25.94988 135.110745,25.91622 C135.25182,25.883055 135.38646,25.83504 135.515655,25.77267 C135.645345,25.709805 135.76761,25.63506 135.881955,25.54794 C135.9963,25.46082 136.100745,25.362315 136.193805,25.25193 L136.193805,27.34776 C136.048275,27.390825 135.91215,27.432405 135.783945,27.472005 C135.656235,27.510615 135.531,27.544275 135.40923,27.571995 C135.286965,27.599715 135.1647,27.621495 135.04095,27.637335 C134.917695,27.65367 134.78751,27.66159 134.651385,27.66159 C134.181135,27.66159 133.729695,27.57546 133.29855,27.40419 C132.86691,27.23292 132.475365,26.988885 132.12441,26.672085 C131.752665,26.335485 131.479425,25.952355 131.305185,25.52418 C131.130945,25.096005 131.043825,24.63021 131.043825,24.12828 C131.043825,23.66595 131.127975,23.222925 131.29677,22.799205 C131.464575,22.37499 131.712075,21.997305 132.03729,21.66615 C132.20262,21.49785 132.384285,21.345885 132.581295,21.21075 C132.779295,21.07611 132.98769,20.960775 133.206975,20.86623 C133.426755,20.77218 133.65297,20.69991 133.88859,20.650905 C134.12421,20.601405 134.35884,20.576655 134.594955,20.576655 C134.87661,20.576655 135.14787,20.60685 135.40923,20.66625 C135.67059,20.726145 135.932445,20.809305 136.193805,20.917215 L136.193805,23.01255" id="Fill-26" fill="#002855"></path>
                <path d="M144.11628,20.75535 L144.11628,24.53715 C144.11628,24.75495 144.11133,24.970275 144.100935,25.182135 C144.091035,25.39449 144.06282,25.600905 144.01629,25.80336 C143.96976,26.004825 143.89947,26.199855 143.80443,26.38746 C143.71038,26.57457 143.58069,26.749305 143.414865,26.911665 C143.275275,27.051255 143.11737,27.168075 142.94016,27.26262 C142.76295,27.357165 142.57683,27.43389 142.382295,27.49329 C142.187265,27.553185 141.98778,27.595755 141.782355,27.622485 C141.578415,27.64773 141.378435,27.661095 141.1839,27.661095 C140.986395,27.661095 140.785425,27.64773 140.580495,27.622485 C140.375565,27.595755 140.17707,27.553185 139.98303,27.49329 C139.790475,27.43389 139.605345,27.357165 139.428135,27.26262 C139.25142,27.168075 139.092525,27.051255 138.952935,26.911665 C138.78513,26.749305 138.65346,26.57457 138.55941,26.38746 C138.46437,26.199855 138.394575,26.004825 138.348045,25.80336 C138.301515,25.600905 138.27231,25.39449 138.2634,25.182135 C138.25251,24.970275 138.24756,24.75495 138.24756,24.53715 L138.24756,20.75535 L139.99491,20.75535 L139.99491,24.29757 C139.99491,24.442605 139.998375,24.590115 140.0058,24.737625 C140.012235,24.886125 140.02857,25.0272 140.05332,25.16283 C140.07807,25.296975 140.11569,25.42419 140.166675,25.541505 C140.21766,25.659315 140.28696,25.761285 140.375565,25.848405 C140.464665,25.935525 140.57406,26.00433 140.704245,26.05383 C140.83542,26.102835 140.99481,26.127585 141.1839,26.127585 C141.37002,26.127585 141.528915,26.102835 141.66108,26.05383 C141.793245,26.00433 141.903135,25.935525 141.990255,25.848405 C142.077375,25.761285 142.14618,25.659315 142.19667,25.541505 C142.24815,25.42419 142.28676,25.296975 142.3125,25.16283 C142.33824,25.0272 142.354575,24.886125 142.36002,24.737625 C142.36596,24.590115 142.369425,24.442605 142.369425,24.29757 L142.369425,20.75535 L144.11628,20.75535" id="Fill-27" fill="#002855"></path>
                <polyline id="Fill-28" fill="#002855" points="148.023315 26.00136 150.123105 26.00136 150.123105 27.482895 146.27547 27.482895 146.27547 20.75535 148.023315 20.75535 148.023315 26.00136"></polyline>
                <polyline id="Fill-29" fill="#002855" points="153.895005 27.482895 152.14815 27.482895 152.14815 22.23738 150.70176 22.23738 150.70176 20.75535 155.342385 20.75535 155.342385 22.23738 153.895005 22.23738 153.895005 27.482895"></polyline>
                <path d="M162.784215,20.75535 L162.784215,24.53715 C162.784215,24.75495 162.779265,24.970275 162.76887,25.182135 C162.75897,25.39449 162.730755,25.600905 162.68472,25.80336 C162.637695,26.004825 162.567405,26.199855 162.47286,26.38746 C162.378315,26.57457 162.24912,26.749305 162.08379,26.911665 C161.943705,27.051255 161.78481,27.168075 161.60859,27.26262 C161.430885,27.357165 161.244765,27.43389 161.05023,27.49329 C160.8552,27.553185 160.65621,27.595755 160.450785,27.622485 C160.246845,27.64773 160.04637,27.661095 159.85233,27.661095 C159.65532,27.661095 159.45336,27.64773 159.24843,27.622485 C159.0435,27.595755 158.845005,27.553185 158.651955,27.49329 C158.458905,27.43389 158.273775,27.357165 158.096565,27.26262 C157.919355,27.168075 157.76145,27.051255 157.62186,26.911665 C157.453065,26.749305 157.321395,26.57457 157.227345,26.38746 C157.1328,26.199855 157.062015,26.004825 157.01598,25.80336 C156.96945,25.600905 156.94074,25.39449 156.931335,25.182135 C156.920445,24.970275 156.915495,24.75495 156.915495,24.53715 L156.915495,20.75535 L158.662845,20.75535 L158.662845,24.29757 C158.662845,24.442605 158.66631,24.590115 158.673735,24.737625 C158.680665,24.886125 158.697,25.0272 158.72175,25.16283 C158.7465,25.296975 158.783625,25.42419 158.835105,25.541505 C158.88609,25.659315 158.95539,25.761285 159.0435,25.848405 C159.1326,25.935525 159.24249,26.00433 159.372675,26.05383 C159.503355,26.102835 159.66324,26.127585 159.85233,26.127585 C160.037955,26.127585 160.197345,26.102835 160.32951,26.05383 C160.461675,26.00433 160.57107,25.935525 160.658685,25.848405 C160.745805,25.761285 160.81362,25.659315 160.865595,25.541505 C160.91658,25.42419 160.954695,25.296975 160.97994,25.16283 C161.00667,25.0272 161.02251,24.886125 161.02845,24.737625 C161.03439,24.590115 161.03736,24.442605 161.03736,24.29757 L161.03736,20.75535 L162.784215,20.75535" id="Fill-30" fill="#002855"></path>
                <path d="M166.69125,23.77089 L166.86054,23.77089 C167.0031,23.77089 167.147145,23.76099 167.291685,23.74218 C167.437215,23.72337 167.56839,23.684265 167.684715,23.624865 C167.80104,23.564475 167.89509,23.48082 167.96835,23.37192 C168.04062,23.263515 168.07626,23.11749 168.07626,22.933845 C168.07626,22.75119 168.04062,22.604175 167.96835,22.49379 C167.89509,22.383405 167.80104,22.298265 167.684715,22.238865 C167.56839,22.179465 167.437215,22.14036 167.291685,22.121055 C167.147145,22.102245 167.0031,22.093335 166.86054,22.093335 L166.69125,22.093335 L166.69125,23.77089 Z M170.53839,27.482895 L168.3594,27.482895 L166.71303,24.895035 L166.69125,24.895035 L166.69125,27.482895 L164.9439,27.482895 L164.9439,20.75535 L167.557995,20.75535 C167.888655,20.75535 168.197535,20.79594 168.48414,20.877615 C168.77025,20.95929 169.018245,21.083535 169.227135,21.252825 C169.43553,21.42063 169.59987,21.634965 169.719165,21.894345 C169.837965,22.154715 169.897365,22.464585 169.897365,22.82445 C169.897365,23.057595 169.865685,23.278365 169.80183,23.48973 C169.737975,23.7006 169.64343,23.88969 169.51869,24.05799 C169.39395,24.226785 169.240005,24.36885 169.056855,24.485175 C168.8742,24.6015 168.66333,24.681195 168.425235,24.724755 L170.53839,27.482895 L170.53839,27.482895 Z" id="Fill-31" fill="#002855"></path>
                <path d="M175.29633,22.833855 L175.279995,22.833855 L174.55581,24.977205 L176.01111,24.977205 L175.29633,22.833855 Z M174.07269,26.314695 L173.61135,27.481905 L171.754605,27.481905 L174.343455,20.75535 L176.251185,20.75535 L178.786575,27.481905 L176.92191,27.481905 L176.48235,26.314695 L174.07269,26.314695 L174.07269,26.314695 Z" id="Fill-32" fill="#002855"></path>
                <polyline id="Fill-33" fill="#002855" points="182.08278 26.00136 184.18257 26.00136 184.18257 27.482895 180.33543 27.482895 180.33543 20.75535 182.08278 20.75535 182.08278 26.00136"></polyline>
                <path d="M44.49555,34.57377 L44.48268,34.57377 L43.966395,36.103815 L45.005895,36.103815 L44.49555,34.57377 Z M43.62138,37.059165 L43.29171,37.892745 L41.9661,37.892745 L43.81443,33.08976 L45.17667,33.08976 L46.986885,37.892745 L45.655335,37.892745 L45.341505,37.059165 L43.62138,37.059165 L43.62138,37.059165 Z" id="Fill-34" fill="#002855"></path>
                <polyline id="Fill-35" fill="#002855" points="47.597715 33.08976 48.845115 33.08976 51.13449 36.0261 51.147855 36.0261 51.147855 33.08976 52.394265 33.08976 52.394265 37.892745 51.147855 37.892745 48.860955 34.949475 48.845115 34.949475 48.845115 37.892745 47.597715 37.892745 47.597715 33.08976"></polyline>
                <path d="M54.714825,36.835425 L54.99846,36.835425 C55.18458,36.835425 55.36179,36.80919 55.528605,36.75771 C55.69542,36.705735 55.84194,36.62406 55.967175,36.514665 C56.092905,36.40527 56.192895,36.265185 56.267145,36.09639 C56.34189,35.9271 56.379015,35.725635 56.379015,35.491005 C56.379015,35.27568 56.345355,35.08362 56.278035,34.916805 C56.210715,34.750485 56.116665,34.609905 55.99539,34.496055 C55.87362,34.38171 55.729575,34.295085 55.56276,34.23618 C55.395945,34.17678 55.211805,34.146585 55.01034,34.146585 L54.714825,34.146585 L54.714825,36.835425 Z M53.46792,33.08976 L55.23804,33.08976 C55.4598,33.08976 55.67463,33.11748 55.882035,33.173415 C56.08944,33.22935 56.28348,33.309045 56.465145,33.41151 C56.64681,33.513975 56.811645,33.63822 56.961135,33.783255 C57.110625,33.928785 57.23784,34.09065 57.344265,34.26885 C57.449205,34.447545 57.53187,34.63911 57.59127,34.84602 C57.65067,35.051445 57.67938,35.26677 57.67938,35.491005 C57.67938,35.71524 57.65067,35.930565 57.59127,36.13698 C57.53187,36.3429 57.44871,36.53595 57.342285,36.713655 C57.235365,36.891855 57.10716,37.05372 56.95767,37.198755 C56.808675,37.34379 56.64384,37.46754 56.46366,37.5705 C56.282985,37.672965 56.08944,37.75266 55.882035,37.808595 C55.67463,37.86453 55.4598,37.892745 55.23804,37.892745 L53.46792,37.892745 L53.46792,33.08976 L53.46792,33.08976 Z" id="Fill-36" fill="#002855"></path>
                <polyline id="Fill-37" fill="#002855" points="63.72531 32.64723 63.72531 33.771375 65.698875 33.771375 65.698875 35.25291 63.72531 35.25291 63.72531 36.411705 65.807775 36.411705 65.807775 37.89225 61.978455 37.89225 61.978455 31.1652 65.807775 31.1652 65.807775 32.64723 63.72531 32.64723"></polyline>
                <polyline id="Fill-38" fill="#002855" points="67.77144 31.165695 69.518295 31.165695 72.72441 35.27865 72.74223 35.27865 72.74223 31.165695 74.48958 31.165695 74.48958 37.892745 72.74223 37.892745 69.540075 33.771375 69.518295 33.771375 69.518295 37.892745 67.77144 37.892745 67.77144 31.165695"></polyline>
                <polyline id="Fill-39" fill="#002855" points="79.304445 35.25291 80.937945 31.1652 82.837755 31.1652 79.966755 37.89324 78.60699 37.89324 75.779055 31.1652 77.683815 31.1652 79.304445 35.25291"></polyline>
                <polygon id="Fill-40" fill="#002855" points="84.132675 37.891755 85.880025 37.891755 85.880025 31.1652 84.132675 31.1652"></polygon>
                <path d="M89.64846,34.181235 L89.818245,34.181235 C89.960805,34.181235 90.104355,34.171335 90.24939,34.152525 C90.39492,34.13322 90.525105,34.094115 90.641925,34.034715 C90.75726,33.975315 90.8523,33.891165 90.92457,33.782265 C90.99783,33.672375 91.033965,33.52734 91.033965,33.343695 C91.033965,33.16104 90.99783,33.01452 90.92457,32.904135 C90.8523,32.79375 90.75726,32.70861 90.641925,32.648715 C90.525105,32.589315 90.39492,32.55021 90.24939,32.531895 C90.104355,32.51259 89.960805,32.50269 89.818245,32.50269 L89.64846,32.50269 L89.64846,34.181235 Z M93.495105,37.892745 L91.31661,37.892745 L89.669745,35.304885 L89.64846,35.304885 L89.64846,37.892745 L87.90111,37.892745 L87.90111,31.165695 L90.515205,31.165695 C90.84636,31.165695 91.15524,31.206285 91.440855,31.287465 C91.72746,31.36914 91.97496,31.49388 92.18385,31.66218 C92.393235,31.830975 92.556585,32.044815 92.67588,32.30469 C92.79468,32.56506 92.854575,32.87493 92.854575,33.23529 C92.854575,33.467445 92.822895,33.689205 92.75904,33.89958 C92.695185,34.11045 92.60064,34.29954 92.475405,34.46784 C92.350665,34.636635 92.19672,34.779195 92.01357,34.89552 C91.830915,35.010855 91.620045,35.09154 91.382445,35.134605 L93.495105,37.892745 L93.495105,37.892745 Z" id="Fill-41" fill="#002855"></path>
                <path d="M98.052075,32.637825 C97.79022,32.637825 97.545195,32.68683 97.315515,32.78385 C97.085835,32.88186 96.884865,33.012045 96.711615,33.176385 C96.539355,33.340725 96.40224,33.52932 96.302745,33.742665 C96.20226,33.956505 96.152265,34.179255 96.152265,34.411905 C96.152265,34.70148 96.20226,34.96977 96.302745,35.215785 C96.40224,35.46081 96.539355,35.672175 96.711615,35.85186 C96.884865,36.030555 97.085835,36.16866 97.315515,36.269145 C97.545195,36.370125 97.79022,36.42012 98.052075,36.42012 C98.31294,36.42012 98.55945,36.370125 98.790615,36.269145 C99.021285,36.16866 99.222255,36.030555 99.393525,35.85186 C99.565785,35.672175 99.70092,35.46081 99.801405,35.215785 C99.901395,34.96977 99.95139,34.70148 99.95139,34.411905 C99.95139,34.179255 99.901395,33.956505 99.801405,33.742665 C99.70092,33.52932 99.565785,33.340725 99.393525,33.176385 C99.222255,33.012045 99.021285,32.88186 98.790615,32.78385 C98.55945,32.68683 98.31294,32.637825 98.052075,32.637825 M98.052075,30.942945 C98.37432,30.942945 98.690625,30.98205 98.999505,31.05927 C99.30888,31.135995 99.601425,31.245885 99.87714,31.388445 C100.15335,31.53051 100.407285,31.70376 100.63944,31.90869 C100.87209,32.11362 101.07207,32.343795 101.238885,32.601195 C101.406195,32.8581 101.536875,33.13728 101.63142,33.44022 C101.72547,33.74217 101.77299,34.062435 101.77299,34.4025 C101.77299,34.94898 101.680425,35.44893 101.496285,35.90334 C101.311155,36.358245 101.053755,36.7488 100.723095,37.0755 C100.391445,37.40319 99.998415,37.657125 99.544005,37.840275 C99.0891,38.02293 98.59212,38.115 98.052075,38.115 C97.691715,38.115 97.34967,38.073915 97.025445,37.99026 C96.70221,37.90809 96.40224,37.789785 96.12801,37.635345 C95.85378,37.481895 95.60529,37.29528 95.38353,37.0755 C95.161275,36.856215 94.972185,36.608715 94.816755,36.333 C94.66182,36.057285 94.54203,35.75682 94.45788,35.43309 C94.373235,35.109855 94.33116,34.76583 94.33116,34.4025 C94.33116,34.062435 94.37868,33.74217 94.472235,33.44022 C94.56678,33.13728 94.69845,32.8581 94.867245,32.601195 C95.035545,32.343795 95.23503,32.11362 95.4657,31.90869 C95.696865,31.70376 95.950305,31.53051 96.22602,31.388445 C96.50223,31.245885 96.794775,31.135995 97.10415,31.05927 C97.413525,30.98205 97.729335,30.942945 98.052075,30.942945" id="Fill-43" fill="#002855"></path>
                <polyline id="Fill-45" fill="#002855" points="103.63122 31.165695 105.37857 31.165695 108.58518 35.27865 108.602505 35.27865 108.602505 31.165695 110.34936 31.165695 110.34936 37.892745 108.602505 37.892745 105.40035 33.771375 105.37857 33.771375 105.37857 37.892745 103.63122 37.892745 103.63122 31.165695"></polyline>
                <polyline id="Fill-46" fill="#002855" points="113.09166 31.165695 114.812775 31.165695 116.180955 34.760385 117.62289 31.165695 119.365785 31.165695 120.38103 37.892745 118.634175 37.892745 118.141155 34.01937 118.12383 34.01937 116.507655 37.892745 115.814655 37.892745 114.26778 34.01937 114.25095 34.01937 113.68863 37.892745 111.95118 37.892745 113.09166 31.165695"></polyline>
                <polyline id="Fill-47" fill="#002855" points="123.75198 32.64723 123.75198 33.771375 125.72604 33.771375 125.72604 35.25291 123.75198 35.25291 123.75198 36.411705 125.83395 36.411705 125.83395 37.89225 122.00463 37.89225 122.00463 31.1652 125.83395 31.1652 125.83395 32.64723 123.75198 32.64723"></polyline>
                <polyline id="Fill-48" fill="#002855" points="127.797615 31.165695 129.54546 31.165695 132.751575 35.27865 132.768405 35.27865 132.768405 31.165695 134.51625 31.165695 134.51625 37.892745 132.768405 37.892745 129.566745 33.771375 129.54546 33.771375 129.54546 37.892745 127.797615 37.892745 127.797615 31.165695"></polyline>
                <polyline id="Fill-49" fill="#002855" points="139.11975 37.892745 137.372895 37.892745 137.372895 32.64723 135.92601 32.64723 135.92601 31.165695 140.566635 31.165695 140.566635 32.64723 139.11975 32.64723 139.11975 37.892745"></polyline>
                <path d="M144.488025,33.243705 L144.4707,33.243705 L143.747505,35.387055 L145.20231,35.387055 L144.488025,33.243705 Z M143.263395,36.724545 L142.802055,37.892745 L140.945805,37.892745 L143.53416,31.165695 L145.442385,31.165695 L147.97827,37.892745 L146.11311,37.892745 L145.67355,36.724545 L143.263395,36.724545 L143.263395,36.724545 Z" id="Fill-50" fill="#002855"></path>
                <polyline id="Fill-51" fill="#002855" points="151.273485 36.411705 153.37377 36.411705 153.37377 37.89324 149.526135 37.89324 149.526135 31.1652 151.273485 31.1652 151.273485 36.411705"></polyline>
                <path d="M162.482265,32.895225 C162.31941,32.76207 162.13923,32.65416 161.94222,32.57298 C161.743725,32.491305 161.537805,32.450715 161.322975,32.450715 C161.2413,32.450715 161.157645,32.46309 161.07003,32.485365 C160.983405,32.509125 160.902225,32.54427 160.828965,32.590305 C160.75422,32.63733 160.69284,32.69574 160.64532,32.76702 C160.5978,32.8383 160.573545,32.919975 160.573545,33.01254 C160.573545,33.11154 160.59978,33.196185 160.65225,33.265485 C160.704225,33.33528 160.77006,33.39468 160.84827,33.44418 C160.92648,33.493185 161.01063,33.53526 161.10072,33.568425 C161.190315,33.602085 161.27397,33.6303 161.349705,33.65307 L161.793225,33.7887 C162.028845,33.858495 162.24714,33.94116 162.4491,34.03917 C162.650565,34.13619 162.826785,34.257465 162.974295,34.402995 C163.122795,34.54803 163.23912,34.72029 163.325745,34.91928 C163.41039,35.117775 163.45395,35.354385 163.45395,35.62713 C163.45395,35.79246 163.44306,35.959275 163.42128,36.125595 C163.3995,36.292905 163.361385,36.45477 163.307925,36.611685 C163.25397,36.7686 163.182195,36.917595 163.092105,37.05867 C163.002015,37.19925 162.88965,37.32597 162.756,37.439325 C162.492165,37.66356 162.194175,37.824435 161.86104,37.92294 C161.5284,38.022435 161.190315,38.07144 160.84827,38.07144 C160.424055,38.07144 160.00974,38.003625 159.60681,37.86849 C159.20289,37.733355 158.828175,37.54575 158.48316,37.304685 L159.2316,35.89245 C159.34248,35.98947 159.45732,36.079065 159.57612,36.163215 C159.69492,36.247365 159.820155,36.32112 159.949845,36.38547 C160.08201,36.44883 160.21566,36.49932 160.355745,36.535455 C160.49484,36.57159 160.638885,36.5904 160.787385,36.5904 C160.88886,36.5904 160.99083,36.577035 161.092305,36.551295 C161.193285,36.524565 161.28486,36.483975 161.36406,36.42903 C161.444745,36.373095 161.50959,36.3033 161.558595,36.217665 C161.608095,36.131535 161.63235,36.029565 161.63235,35.910765 C161.63235,35.7885 161.59473,35.685045 161.518995,35.60139 C161.443755,35.516745 161.35119,35.444475 161.241795,35.38458 C161.13339,35.325675 161.01855,35.277165 160.896285,35.23905 C160.77402,35.201925 160.666605,35.16975 160.573545,35.143515 C160.29783,35.06481 160.047855,34.983135 159.824115,34.89948 C159.60087,34.814835 159.410295,34.703955 159.2514,34.566345 C159.093,34.428735 158.97024,34.254495 158.883615,34.045605 C158.796,33.83622 158.751945,33.56892 158.751945,33.24321 C158.751945,32.904135 158.809365,32.59476 158.92371,32.31558 C159.03954,32.036895 159.200415,31.799295 159.40584,31.603275 C159.612255,31.40775 159.856785,31.255785 160.139925,31.147875 C160.42356,31.04046 160.73343,30.987 161.07003,30.987 C161.238825,30.987 161.41554,30.99987 161.60166,31.026105 C161.787285,31.05234 161.97192,31.089465 162.15507,31.136985 C162.33822,31.185 162.516915,31.24341 162.69066,31.31172 C162.8649,31.38003 163.027755,31.45626 163.179225,31.54041 L162.482265,32.895225" id="Fill-52" fill="#002855"></path>
                <path d="M169.917165,33.4224 C169.82757,33.300135 169.724115,33.194205 169.610265,33.10263 C169.49592,33.01056 169.37217,32.933835 169.23951,32.87097 C169.10784,32.8086 168.96924,32.762565 168.82371,32.729895 C168.67917,32.69772 168.53166,32.68188 168.38316,32.68188 C168.116355,32.68188 167.872815,32.729895 167.652045,32.82543 C167.43078,32.92146 167.24169,33.053625 167.085765,33.221925 C166.928355,33.390225 166.806585,33.58773 166.719465,33.814935 C166.632345,34.041645 166.588785,34.28568 166.588785,34.546545 C166.588785,34.813845 166.632345,35.05887 166.719465,35.28261 C166.806585,35.50635 166.929345,35.6994 167.08923,35.860275 C167.249115,36.02115 167.441175,36.147375 167.66442,36.239445 C167.88816,36.330525 168.13665,36.376065 168.40989,36.376065 C168.551955,36.376065 168.693525,36.35973 168.8346,36.326565 C168.975675,36.29241 169.11081,36.24489 169.23951,36.183015 C169.369695,36.120645 169.491465,36.04491 169.605315,35.958285 C169.720155,35.871165 169.825095,35.77266 169.917165,35.66178 L169.917165,37.75761 C169.771635,37.80117 169.636005,37.842255 169.5078,37.881855 C169.38009,37.920465 169.25535,37.95462 169.133085,37.981845 C169.011315,38.009565 168.88806,38.03184 168.764805,38.04768 C168.64155,38.06352 168.51186,38.07144 168.37524,38.07144 C167.904,38.07144 167.45355,37.98531 167.02191,37.814535 C166.590765,37.643265 166.19922,37.398735 165.84777,37.081935 C165.476025,36.745335 165.20328,36.3627 165.02904,35.93403 C164.8548,35.505855 164.768175,35.04006 164.768175,34.537635 C164.768175,34.076295 164.85183,33.632775 165.02013,33.209055 C165.18843,32.78484 165.435435,32.40765 165.761145,32.076 C165.926475,31.9077 166.108635,31.755735 166.30515,31.6206 C166.502655,31.486455 166.711545,31.37112 166.93083,31.276575 C167.15061,31.182525 167.376825,31.110255 167.612445,31.060755 C167.848065,31.01175 168.08319,30.987 168.318315,30.987 C168.600465,30.987 168.87222,31.0167 169.133085,31.076595 C169.394445,31.135995 169.656795,31.219155 169.917165,31.32657 L169.917165,33.4224" id="Fill-53" fill="#002855"></path>
                <polygon id="Fill-54" fill="#002855" points="171.88974 37.891755 173.637585 37.891755 173.637585 31.1652 171.88974 31.1652"></polygon>
                <polyline id="Fill-55" fill="#002855" points="177.40602 32.64723 177.40602 33.771375 179.37909 33.771375 179.37909 35.25291 177.40602 35.25291 177.40602 36.411705 179.488485 36.411705 179.488485 37.89225 175.65867 37.89225 175.65867 31.1652 179.488485 31.1652 179.488485 32.64723 177.40602 32.64723"></polyline>
                <polyline id="Fill-56" fill="#002855" points="181.625895 31.165695 183.373245 31.165695 186.58035 35.27865 186.596685 35.27865 186.596685 31.165695 188.345025 31.165695 188.345025 37.892745 186.596685 37.892745 183.39552 33.771375 183.373245 33.771375 183.373245 37.892745 181.625895 37.892745 181.625895 31.165695"></polyline>
                <path d="M194.991885,33.4224 C194.90229,33.300135 194.79933,33.194205 194.684985,33.10263 C194.57064,33.01056 194.44689,32.933835 194.31423,32.87097 C194.183055,32.8086 194.043465,32.762565 193.897935,32.729895 C193.753395,32.69772 193.606875,32.68188 193.458375,32.68188 C193.19157,32.68188 192.947535,32.729895 192.72627,32.82543 C192.5055,32.92146 192.31641,33.053625 192.160485,33.221925 C192.003075,33.390225 191.881305,33.58773 191.794185,33.814935 C191.707065,34.041645 191.663505,34.28568 191.663505,34.546545 C191.663505,34.813845 191.707065,35.05887 191.794185,35.28261 C191.881305,35.50635 192.004065,35.6994 192.16395,35.860275 C192.32433,36.02115 192.515895,36.147375 192.739635,36.239445 C192.96387,36.330525 193.21137,36.376065 193.48461,36.376065 C193.62717,36.376065 193.768245,36.35973 193.90932,36.326565 C194.0499,36.29241 194.185035,36.24489 194.31423,36.183015 C194.44392,36.120645 194.566185,36.04491 194.680035,35.958285 C194.794875,35.871165 194.89932,35.77266 194.991885,35.66178 L194.991885,37.75761 C194.84586,37.80117 194.71023,37.842255 194.582025,37.881855 C194.454315,37.920465 194.329575,37.95462 194.207805,37.981845 C194.086035,38.009565 193.96278,38.03184 193.83903,38.04768 C193.715775,38.06352 193.58658,38.07144 193.44996,38.07144 C192.97872,38.07144 192.527775,37.98531 192.09663,37.814535 C191.665485,37.643265 191.27394,37.398735 190.922985,37.081935 C190.550745,36.745335 190.277505,36.3627 190.103265,35.93403 C189.929025,35.505855 189.8424,35.04006 189.8424,34.537635 C189.8424,34.076295 189.926055,33.632775 190.094355,33.209055 C190.26315,32.78484 190.51065,32.40765 190.83537,32.076 C191.001195,31.9077 191.18286,31.755735 191.37987,31.6206 C191.577375,31.486455 191.78577,31.37112 192.005055,31.276575 C192.224835,31.182525 192.45204,31.110255 192.68766,31.060755 C192.922785,31.01175 193.157415,30.987 193.39353,30.987 C193.67469,30.987 193.946445,31.0167 194.207805,31.076595 C194.46966,31.135995 194.73102,31.219155 194.991885,31.32657 L194.991885,33.4224" id="Fill-57" fill="#002855"></path>
                <polyline id="Fill-58" fill="#002855" points="198.70587 32.64723 198.70587 33.771375 200.67993 33.771375 200.67993 35.25291 198.70587 35.25291 198.70587 36.411705 200.78784 36.411705 200.78784 37.89225 196.95852 37.89225 196.95852 31.1652 200.78784 31.1652 200.78784 32.64723 198.70587 32.64723"></polyline>
                <path d="M206.346195,32.895225 C206.18334,32.76207 206.00316,32.65416 205.805655,32.57298 C205.60815,32.491305 205.402725,32.450715 205.1874,32.450715 C205.105725,32.450715 205.021575,32.46309 204.934455,32.485365 C204.847335,32.509125 204.76665,32.54427 204.692895,32.590305 C204.61914,32.63733 204.557265,32.69574 204.50925,32.76702 C204.46173,32.8383 204.437475,32.919975 204.437475,33.01254 C204.437475,33.11154 204.46371,33.196185 204.516675,33.265485 C204.56865,33.33528 204.633495,33.39468 204.712695,33.44418 C204.79041,33.493185 204.87456,33.53526 204.96465,33.568425 C205.05474,33.602085 205.137405,33.6303 205.213635,33.65307 L205.657155,33.7887 C205.892775,33.858495 206.111565,33.94116 206.313525,34.03917 C206.515485,34.13619 206.690715,34.257465 206.838225,34.402995 C206.986725,34.54803 207.103545,34.72029 207.188685,34.91928 C207.274815,35.117775 207.31788,35.354385 207.31788,35.62713 C207.31788,35.79246 207.306495,35.959275 207.284715,36.125595 C207.26343,36.292905 207.225315,36.45477 207.171855,36.611685 C207.117405,36.7686 207.046125,36.917595 206.956035,37.05867 C206.865945,37.19925 206.754075,37.32597 206.62092,37.439325 C206.356095,37.66356 206.058105,37.824435 205.72497,37.92294 C205.392825,38.022435 205.05474,38.07144 204.712695,38.07144 C204.28848,38.07144 203.874165,38.003625 203.47074,37.86849 C203.067315,37.733355 202.692105,37.54575 202.34709,37.304685 L203.096025,35.89245 C203.20641,35.98947 203.320755,36.079065 203.44005,36.163215 C203.55885,36.247365 203.684085,36.32112 203.814765,36.38547 C203.94594,36.44883 204.08058,36.49932 204.22017,36.535455 C204.359265,36.57159 204.502815,36.5904 204.651315,36.5904 C204.75279,36.5904 204.85476,36.577035 204.956235,36.551295 C205.05771,36.524565 205.14879,36.483975 205.228485,36.42903 C205.308675,36.373095 205.37253,36.3033 205.422525,36.217665 C205.47153,36.131535 205.496775,36.029565 205.496775,35.910765 C205.496775,35.7885 205.459155,35.685045 205.38342,35.60139 C205.307685,35.516745 205.215615,35.444475 205.10622,35.38458 C204.997815,35.325675 204.88248,35.277165 204.76071,35.23905 C204.63894,35.201925 204.530535,35.16975 204.437475,35.143515 C204.16176,35.06481 203.911785,34.983135 203.68854,34.89948 C203.464305,34.814835 203.273235,34.703955 203.115825,34.566345 C202.956435,34.428735 202.83417,34.254495 202.746555,34.045605 C202.660425,33.83622 202.616865,33.56892 202.616865,33.24321 C202.616865,32.904135 202.67379,32.59476 202.788135,32.31558 C202.90347,32.036895 203.064345,31.799295 203.270265,31.603275 C203.47668,31.40775 203.720715,31.255785 204.003855,31.147875 C204.287985,31.04046 204.597855,30.987 204.934455,30.987 C205.102755,30.987 205.279965,30.99987 205.466085,31.026105 C205.652205,31.05234 205.836345,31.089465 206.019495,31.136985 C206.20215,31.185 206.38134,31.24341 206.555085,31.31172 C206.72883,31.38003 206.891685,31.45626 207.043155,31.54041 L206.346195,32.895225" id="Fill-59" fill="#002855"></path>
            </g>
        </g>
    </g>
</svg>