<?xml version="1.0" encoding="UTF-8" standalone="no"?>
<svg width="169px" height="39px" viewBox="0 0 169 39" version="1.1" xmlns="http://www.w3.org/2000/svg" xmlns:xlink="http://www.w3.org/1999/xlink">
    <!-- Generator: Sketch 3.6.1 (26313) - http://www.bohemiancoding.com/sketch -->
    <title>caes_logo</title>
    <desc>Created with Sketch.</desc>
    <defs></defs>
    <g id="Page-1" stroke="none" stroke-width="1" fill="none" fill-rule="evenodd">
        <g id="aggregator" transform="translate(-1231.000000, -21.000000)">
            <g id="caes_logo" transform="translate(1231.000000, 21.000000)">
                <path d="M74.8258817,12.9527709 L76.1910848,9.33296505 L76.4268549,9.53894563 C77.2635558,10.2239068 78.399779,10.8070136 79.4707411,10.8301107 C80.4292879,10.8520718 80.8970558,10.5961107 80.7695513,9.78203301 C80.6756205,9.17431456 79.9909442,9.06715922 79.5639174,8.98310097 L78.6268728,8.79529515 C76.8040871,8.45262524 75.2706384,7.32351845 75.2706384,5.1845767 C75.2706384,1.9494699 78.0474442,0.136159223 80.8408482,0.136159223 C82.307904,0.136159223 83.6553772,0.511392233 84.9153326,1.33417864 L83.7319554,4.54240194 C83.0823616,4.07250874 82.0996719,3.41178058 80.8563147,3.36672233 C80.4473951,3.35119806 79.509596,3.56664466 79.81025,4.52044078 C79.9400179,4.92710097 80.5202009,5.09786796 80.8766853,5.1845767 L81.9355759,5.4409165 C83.9100089,5.90323689 85.340096,7.03158641 85.340096,9.34205243 C85.340096,12.5934408 82.5455603,14.2022854 79.7706406,14.2022854 C78.1504286,14.2022854 76.2752076,13.7392078 74.8258817,12.9527709 L74.8258817,12.9527709 Z" id="Fill-1" fill="#C99700"></path>
                <path d="M69.0647924,13.9975922 L73.8209353,13.9975922 L73.8209353,0.358194175 L69.0647924,0.358194175 L69.0647924,13.9975922 Z" id="Fill-3" fill="#C99700"></path>
                <path d="M63.7027016,0.358156311 L68.5739002,0.358156311 L63.5982083,13.9975544 L59.6455699,13.9975544 L54.6860989,0.358156311 L59.5403221,0.358156311 L61.6218891,8.58867087 L63.7027016,0.358156311 Z" id="Fill-5" fill="#C99700"></path>
                <path d="M50.2369098,4.29503592 L50.2369098,4.29503592 C50.3236732,4.87549223 51.1747089,9.0500068 51.1747089,9.0500068 L49.3051464,9.0500068 L50.2369098,4.29503592 Z M43.1483406,13.9977058 L48.0900817,13.9977058 L48.4661821,12.2851136 L51.9910393,12.2851136 L52.4599388,13.9977058 L57.4043205,13.9977058 L52.7760594,0.358307767 L47.5921353,0.358307767 L43.1483406,13.9977058 Z" id="Fill-6" fill="#C99700"></path>
                <path d="M30.9295275,0.358156311 L35.8011033,0.358156311 C40.1483266,0.358156311 43.4698556,2.36154466 43.4698556,7.37512718 C43.4698556,11.4140883 40.7628377,13.9975544 36.9610922,13.9975544 L30.9295275,13.9903602 L30.9295275,0.358156311 Z M35.7169806,10.0816515 L36.0364962,10.0816515 C37.6035185,10.0816515 38.766148,9.13732136 38.766148,7.35733107 C38.766148,5.4410301 37.7363042,4.37212718 36.0146167,4.37212718 L35.7169806,4.37212718 L35.7169806,10.0816515 Z" id="Fill-7" fill="#C99700"></path>
                <path d="M28.0851971,0.785982524 L28.3390743,3.0245068 C28.398677,3.55573981 28.7012172,4.8306233 28.3273801,4.65947767 C28.0934962,4.55459417 27.901485,3.97678835 27.7109828,3.46335146 C27.6136569,3.20246796 27.1504158,1.97037087 27.0293243,1.88025437 C26.4434828,1.44065243 24.9832172,0.94501165 23.9956234,0.94008932 C21.000023,0.929108738 19.0184225,3.14718641 19.0184225,7.08391456 C19.0184225,9.90743883 20.3647641,13.2940019 23.7904092,13.2940019 C25.0175453,13.2940019 27.3688333,12.9062738 28.0082417,11.153167 C28.2975788,10.3595359 28.562773,9.6545068 28.7536525,9.86881748 C28.8962462,10.0248175 28.7110252,10.6605553 28.6257708,11.002468 C28.2217551,12.6272155 28.2006301,13.1202058 28.0727484,13.1826816 C26.524965,13.9638175 24.5399694,14.2201573 22.8028154,14.2201573 C17.2786279,14.2201573 15.3717194,10.9854291 15.3717194,7.75145825 C15.3717194,2.13886602 18.8060408,-0.22536699 24.1295408,0.0169631068 C25.4762596,0.0673223301 26.82411,0.307759223 28.0851971,0.785982524" id="Fill-8" fill="#C99700"></path>
                <path d="M11.775075,1.03482524 L10.8900884,0.725097087 C10.5943384,0.456640777 10.9557268,0.381669903 10.9557268,0.381669903 C10.9557268,0.381669903 12.2341665,0.619834951 15.4187603,0.348728155 C15.4187603,0.348728155 15.6952714,0.404009709 15.504392,0.629300971 L14.4594589,1.07836893 C13.7789321,1.37673786 13.7789321,1.20559223 13.7789321,1.95454369 L13.7728964,8.90563107 C13.7728964,14.3421553 8.26379821,14.220233 7.19132723,14.220233 C6.67942321,14.220233 1.62677589,14.220233 1.62677589,9.85601942 L1.62677589,2.49751456 C1.62677589,1.21505825 1.76371116,1.24837864 1.33894777,1.09843689 L0.0608852679,0.616805825 C0.0608852679,0.616805825 -0.156400446,0.308970874 0.2302625,0.329038835 C1.2748183,0.381669903 2.78676473,0.606203883 6.34330938,0.348728155 C6.34330938,0.348728155 6.65263973,0.424456311 6.44893438,0.648990291 L5.3858942,0.949252427 C4.57635402,1.31350485 4.68311071,1.03482524 4.66198571,1.86897087 L4.6876375,9.12448544 C4.6876375,10.9033398 5.59940759,13.1062718 8.4678808,13.1062718 C12.3726107,13.1062718 12.4092022,9.71592233 12.4092022,8.96242718 L12.4163696,1.77506796 C12.4582424,1.09843689 12.3726107,1.29116505 11.775075,1.03482524" id="Fill-9" fill="#C99700"></path>
                <path d="M1.62813393,17.589 L168.732542,17.589 L168.732542,17.0199029 L1.62813393,17.0199029 L1.62813393,17.589 Z" id="Fill-10" fill="#002855"></path>
                <path d="M6.49397589,23.2969718 C6.40268571,23.1727777 6.29856964,23.0641078 6.18238214,22.9709621 C6.06581741,22.8778165 5.94057634,22.7994379 5.80665893,22.7358262 C5.67236429,22.6722146 5.5316567,22.6241272 5.38453616,22.5915641 C5.23703839,22.559001 5.0880317,22.5427194 4.9378933,22.5427194 C4.66666339,22.5427194 4.41919911,22.5915641 4.19512321,22.6892534 C3.97142455,22.7865641 3.77979063,22.9213602 3.62059866,23.0928845 C3.4614067,23.2644087 3.33767455,23.465467 3.249025,23.6964379 C3.16075268,23.9270301 3.11661652,24.1754184 3.11661652,24.4416029 C3.11661652,24.7138456 3.16075268,24.9637485 3.249025,25.1916903 C3.33767455,25.4192534 3.46291563,25.6153893 3.62512545,25.7797194 C3.78695804,25.9436709 3.98160982,26.0724087 4.20832634,26.1655544 C4.43542009,26.2587 4.68741116,26.3052728 4.96429955,26.3052728 C5.10877946,26.3052728 5.25250491,26.288234 5.39547589,26.254535 C5.53844688,26.2204573 5.67538214,26.1716126 5.80665893,26.108001 C5.93755848,26.0443893 6.06166786,25.9682825 6.17785536,25.8793019 C6.29442009,25.7907 6.39966786,25.6899816 6.49397589,25.5775252 L6.49397589,27.7119233 C6.34647813,27.7562243 6.20803393,27.798632 6.07826607,27.8383893 C5.94887545,27.8785252 5.82212545,27.9122243 5.6983933,27.9406223 C5.57428393,27.9686417 5.44979732,27.9906029 5.32455625,28.0068845 C5.19931518,28.023166 5.06766116,28.0314961 4.92921696,28.0314961 C4.45164107,28.0314961 3.99405848,27.9440301 3.5564692,27.7698553 C3.11887991,27.5953019 2.72165446,27.346535 2.36517009,27.0243117 C1.98793795,26.6812631 1.71067232,26.2912631 1.53412768,25.8550689 C1.3572058,25.4188748 1.26855625,24.9448165 1.26855625,24.4328942 C1.26855625,23.9626223 1.35418795,23.5112825 1.52507411,23.079632 C1.69596027,22.6476029 1.94644241,22.2632825 2.27652054,21.9259136 C2.44476607,21.7543893 2.62885536,21.5999039 2.82916563,21.4620786 C3.02947589,21.324632 3.24110313,21.207632 3.46367009,21.1118359 C3.68623705,21.0156612 3.91672589,20.9422049 4.15551384,20.8918456 C4.39430179,20.841865 4.6327125,20.8164961 4.87150045,20.8164961 C5.15744241,20.8164961 5.43282188,20.8467874 5.6983933,20.9073699 C5.9635875,20.9683311 6.2287817,21.0531466 6.49397589,21.1625738 L6.49397589,23.2969718 Z" id="Fill-11" fill="#002855"></path>
                <path d="M11.6092815,22.498267 C11.3440873,22.498267 11.0951141,22.5478689 10.8623618,22.6470728 C10.6292324,22.7458981 10.4251498,22.8791796 10.2497368,23.0461602 C10.0747011,23.2135194 9.93587969,23.4054903 9.83440424,23.6232087 C9.73255156,23.8405485 9.68200246,24.067733 9.68200246,24.3043835 C9.68200246,24.6001019 9.73255156,24.8727233 9.83440424,25.1230049 C9.93587969,25.3729078 10.0747011,25.588733 10.2497368,25.7708592 C10.4251498,25.9526068 10.6292324,26.0945971 10.8623618,26.1968301 C11.0951141,26.2986845 11.3440873,26.349801 11.6092815,26.349801 C11.8744757,26.349801 12.1242033,26.2986845 12.3584645,26.1968301 C12.5927257,26.0945971 12.7968083,25.9526068 12.9707123,25.7708592 C13.1446163,25.588733 13.2826833,25.3729078 13.3841587,25.1230049 C13.4860114,24.8727233 13.5365605,24.6001019 13.5365605,24.3043835 C13.5365605,24.067733 13.4860114,23.8405485 13.3841587,23.6232087 C13.2826833,23.4054903 13.1446163,23.2135194 12.9707123,23.0461602 C12.7968083,22.8791796 12.5927257,22.7458981 12.3584645,22.6470728 C12.1242033,22.5478689 11.8744757,22.498267 11.6092815,22.498267 M11.6092815,20.7720437 C11.9363417,20.7720437 12.2569891,20.8114223 12.5708462,20.889801 C12.8847033,20.9681796 13.181585,21.0798786 13.4614913,21.2248981 C13.7413975,21.3699175 13.9994243,21.5463641 14.2351944,21.7549951 C14.4709645,21.9636262 14.6735382,22.1987621 14.8429154,22.4604029 C15.0122926,22.7224223 15.1450783,23.0071602 15.2408953,23.3146165 C15.3367123,23.6224515 15.3846208,23.9492184 15.3846208,24.2952961 C15.3846208,24.8515194 15.2910672,25.3611699 15.10396,25.8238689 C14.9168529,26.2869466 14.6550538,26.6848981 14.3193172,27.0177233 C13.9832033,27.3501699 13.584469,27.6099175 13.1234913,27.7962087 C12.6621364,27.9825 12.1573998,28.0756456 11.6092815,28.0756456 C11.2437435,28.0756456 10.89669,28.0336165 10.5681208,27.9491796 C10.2395516,27.8651214 9.93587969,27.744335 9.65748237,27.5875777 C9.37908504,27.4308204 9.12709397,27.2407427 8.90150915,27.0177233 C8.67630156,26.7943252 8.48466763,26.5421505 8.3269846,26.261199 C8.16930156,25.9798689 8.04783281,25.6746845 7.96220112,25.3448883 C7.87656942,25.0147136 7.83394219,24.6652282 7.83394219,24.2952961 C7.83394219,23.9492184 7.88185067,23.6224515 7.97766763,23.3146165 C8.0734846,23.0071602 8.20664754,22.7224223 8.37791094,22.4604029 C8.5487971,22.1987621 8.75137076,21.9636262 8.98563192,21.7549951 C9.21989308,21.5463641 9.4771654,21.3699175 9.75707165,21.2248981 C10.0369779,21.0798786 10.3338596,20.9681796 10.6477167,20.889801 C10.9615739,20.8114223 11.2822212,20.7720437 11.6092815,20.7720437" id="Fill-12" fill="#002855"></path>
                <path d="M18.6811016,26.3409029 L20.8117087,26.3409029 L20.8117087,27.8494078 L16.9084877,27.8494078 L16.9084877,20.9986602 L18.6811016,20.9986602 L18.6811016,26.3409029 Z" id="Fill-13" fill="#002855"></path>
                <path d="M24.1776757,26.3409029 L26.3082828,26.3409029 L26.3082828,27.8494078 L22.4050618,27.8494078 L22.4050618,20.9986602 L24.1776757,20.9986602 L24.1776757,26.3409029 Z" id="Fill-14" fill="#002855"></path>
                <path d="M29.6742498,22.507165 L29.6742498,23.6517961 L31.6769752,23.6517961 L31.6769752,25.1606796 L29.6742498,25.1606796 L29.6742498,26.3409029 L31.7875042,26.3409029 L31.7875042,27.8494078 L27.9016359,27.8494078 L27.9016359,20.9986602 L31.7875042,20.9986602 L31.7875042,22.507165 L29.6742498,22.507165 Z" id="Fill-15" fill="#002855"></path>
                <path d="M40.529067,24.0246816 C40.5230313,24.2730699 40.512846,24.5142641 40.4981339,24.7478854 C40.4834219,24.9815068 40.4517344,25.2102058 40.4030714,25.4336039 C40.3544085,25.6570019 40.285375,25.8758563 40.1952165,26.090167 C40.1054353,26.3044777 39.9839665,26.5184097 39.830433,26.7312058 C39.6625647,26.9652058 39.4754576,27.1670214 39.2691116,27.3370311 C39.0627656,27.5070408 38.8401987,27.6467592 38.6017879,27.7561864 C38.363,27.8659922 38.1110089,27.9462641 37.8458147,27.9981379 C37.5806205,28.0500117 37.3048638,28.0757592 37.0189219,28.0757592 C36.4824978,28.0757592 35.9913415,27.9886718 35.5446987,27.8141184 C35.098433,27.639565 34.7144107,27.3930699 34.3930089,27.0753903 C34.0719844,26.757332 33.8222567,26.3764194 33.6438259,25.9326524 C33.4653951,25.4888854 33.3763683,24.9977883 33.3763683,24.4593612 C33.3763683,23.9035165 33.4661496,23.3984097 33.6460893,22.9440408 C33.8256518,22.4900505 34.0783973,22.102701 34.4043259,21.7816136 C34.7298772,21.4609049 35.119558,21.2121379 35.5733683,21.0360699 C36.0271786,20.8603806 36.5296518,20.7721573 37.0807879,20.7721573 C37.7824397,20.7721573 38.3969509,20.9311864 38.9243214,21.2492447 C39.4520692,21.5673029 39.862875,22.0470408 40.1578705,22.6892155 L38.473529,23.3946233 C38.4116629,23.2318078 38.3335759,23.0841379 38.2392679,22.9508563 C38.1449598,22.8175748 38.0359397,22.7032252 37.9122076,22.6070505 C37.7880982,22.5108757 37.649654,22.4370408 37.4964978,22.385167 C37.3433415,22.3332932 37.1766049,22.3075456 36.9970424,22.3075456 C36.7050647,22.3075456 36.4489241,22.3711573 36.2278661,22.4983806 C36.006808,22.6256039 35.8215871,22.7918272 35.6729576,22.9974291 C35.5239509,23.2030311 35.4122902,23.4343806 35.3368438,23.6918563 C35.2617746,23.949332 35.2240513,24.2079437 35.2240513,24.4684485 C35.2240513,24.734633 35.2632835,24.9955165 35.3413705,25.2514777 C35.4194576,25.5074388 35.5345134,25.7365165 35.6861607,25.939468 C35.837808,26.1420408 36.0264241,26.3044777 36.2520089,26.4275359 C36.4775938,26.5502155 36.7359978,26.6115553 37.0279754,26.6115553 C37.2196094,26.6115553 37.3984174,26.586565 37.565154,26.5362058 C37.7315134,26.4858466 37.8775022,26.4112544 38.0027433,26.3120505 C38.1279844,26.2128466 38.2302143,26.0894097 38.3098103,25.9413612 C38.3894063,25.7936913 38.4380692,25.6206524 38.4557991,25.4222447 L37.0057188,25.4222447 L37.0057188,24.0246816 L40.529067,24.0246816 Z" id="Fill-16" fill="#002855"></path>
                <path d="M43.8033288,22.507165 L43.8033288,23.6517961 L45.8060542,23.6517961 L45.8060542,25.1606796 L43.8033288,25.1606796 L43.8033288,26.3409029 L45.9165833,26.3409029 L45.9165833,27.8494078 L42.030715,27.8494078 L42.030715,20.9986602 L45.9165833,20.9986602 L45.9165833,22.507165 L43.8033288,22.507165 Z" id="Fill-17" fill="#002855"></path>
                <path d="M53.3626931,24.028733 C53.1733225,24.028733 52.995269,24.0639466 52.8292868,24.1347524 C52.6633047,24.2059369 52.5173158,24.3005971 52.392452,24.4198689 C52.2672109,24.5395194 52.1679989,24.6765874 52.0955703,24.8318301 C52.0227645,24.9870728 51.9869275,25.1495097 51.9869275,25.3180049 C51.9869275,25.529665 52.0227645,25.7242864 52.0955703,25.9026262 C52.1679989,26.0813447 52.2672109,26.2350728 52.392452,26.3653252 C52.5173158,26.495199 52.6633047,26.5966748 52.8292868,26.6693738 C52.995269,26.7424515 53.1733225,26.778801 53.3626931,26.778801 C53.5520636,26.778801 53.7304944,26.7424515 53.8976083,26.6693738 C54.0650993,26.5966748 54.2107109,26.495199 54.3348203,26.3653252 C54.4589297,26.2350728 54.5573873,26.0813447 54.6298158,25.9026262 C54.7026217,25.7242864 54.7388359,25.529665 54.7388359,25.3180049 C54.7388359,25.1495097 54.7026217,24.9870728 54.6298158,24.8318301 C54.5573873,24.6765874 54.4589297,24.5395194 54.3348203,24.4198689 C54.2107109,24.3005971 54.0650993,24.2059369 53.8976083,24.1347524 C53.7304944,24.0639466 53.5520636,24.028733 53.3626931,24.028733 M53.3626931,22.7962573 C53.5961998,22.7962573 53.8251797,22.8242767 54.0492556,22.8803155 C54.2733315,22.9359757 54.4853359,23.0158689 54.685269,23.1196165 C54.885202,23.2229854 55.0692913,23.3490728 55.2379141,23.4982573 C55.4057824,23.6466845 55.5506395,23.814801 55.671731,24.0018495 C55.7924453,24.1888981 55.8871306,24.3922282 55.9557868,24.6118398 C56.0240658,24.8314515 56.058394,25.0643155 56.058394,25.3119466 C56.058394,25.7087621 55.9916239,26.0726359 55.8577065,26.4031893 C55.7241663,26.7337427 55.5378136,27.0181019 55.2975167,27.2555097 C55.0575971,27.4929175 54.7731641,27.6788301 54.4438404,27.8113544 C54.1145167,27.9446359 53.75426,28.0112767 53.3626931,28.0112767 C53.1020257,28.0112767 52.8538069,27.9809854 52.6191685,27.9207816 C52.3845301,27.8605777 52.1679989,27.7750049 51.9691975,27.6625485 C51.7703962,27.5508495 51.5904565,27.4149175 51.4293783,27.2555097 C51.2683002,27.0961019 51.1317422,26.9162476 51.0189498,26.7151893 C50.9065346,26.5145097 50.8197712,26.2964126 50.7590368,26.0612767 C50.6979252,25.8253835 50.6669922,25.5758592 50.6669922,25.3119466 C50.6669922,25.0643155 50.7013203,24.8314515 50.7699766,24.6118398 C50.8382556,24.3922282 50.9336953,24.1888981 51.0555413,24.0018495 C51.1773873,23.814801 51.3222444,23.6466845 51.4893583,23.4982573 C51.6568493,23.3490728 51.8401842,23.2229854 52.0401172,23.1196165 C52.2400502,23.0158689 52.4520547,22.9359757 52.6765078,22.8803155 C52.9002065,22.8242767 53.1291864,22.7962573 53.3626931,22.7962573" id="Fill-18" fill="#002855"></path>
                <path d="M58.1650469,24.0350184 L58.1650469,24.8521252 L59.5570335,24.8521252 L59.5570335,25.9297369 L58.1650469,25.9297369 L58.1650469,27.8494456 L56.899433,27.8494456 L56.899433,22.9577854 L59.6988728,22.9577854 L59.6988728,24.0350184 L58.1650469,24.0350184 Z" id="Fill-19" fill="#002855"></path>
                <path d="M67.1567145,23.115035 L67.1389846,23.115035 L66.4052681,25.2982777 L67.8817547,25.2982777 L67.1567145,23.115035 Z M65.9144891,26.6602485 L65.4459667,27.8495592 L63.5628239,27.8495592 L66.1887368,20.998433 L68.1246922,20.998433 L70.6977926,27.8495592 L68.8055962,27.8495592 L68.3593306,26.6602485 L65.9144891,26.6602485 Z" id="Fill-20" fill="#002855"></path>
                <path d="M78.8413292,24.0246816 C78.8352935,24.2730699 78.8251083,24.5142641 78.8103962,24.7478854 C78.7956842,24.9815068 78.7639967,25.2102058 78.7153337,25.4336039 C78.6666708,25.6570019 78.5976373,25.8758563 78.5074788,26.090167 C78.4176975,26.3044777 78.2962288,26.5184097 78.1426953,26.7312058 C77.974827,26.9652058 77.7877199,27.1670214 77.5813739,27.3370311 C77.3750279,27.5070408 77.1524609,27.6467592 76.9140502,27.7561864 C76.6752623,27.8659922 76.4232712,27.9462641 76.158077,27.9981379 C75.8928828,28.0500117 75.6171261,28.0757592 75.3311842,28.0757592 C74.79476,28.0757592 74.3036038,27.9886718 73.8569609,27.8141184 C73.4106953,27.639565 73.026673,27.3930699 72.7052712,27.0753903 C72.3842467,26.757332 72.134519,26.3764194 71.9560882,25.9326524 C71.7776574,25.4888854 71.6886306,24.9977883 71.6886306,24.4593612 C71.6886306,23.9035165 71.7784118,23.3984097 71.9583516,22.9440408 C72.1379141,22.4900505 72.3906596,22.102701 72.7165882,21.7816136 C73.0421395,21.4609049 73.4318203,21.2121379 73.8856306,21.0360699 C74.3394408,20.8603806 74.8419141,20.7721573 75.3930502,20.7721573 C76.094702,20.7721573 76.7092132,20.9311864 77.2365837,21.2492447 C77.7643315,21.5673029 78.1751373,22.0470408 78.4701328,22.6892155 L76.7857913,23.3946233 C76.7239252,23.2318078 76.6458382,23.0841379 76.5515301,22.9508563 C76.4572221,22.8175748 76.348202,22.7032252 76.2244699,22.6070505 C76.1003605,22.5108757 75.9619163,22.4370408 75.80876,22.385167 C75.6556038,22.3332932 75.4888672,22.3075456 75.3093047,22.3075456 C75.017327,22.3075456 74.7611864,22.3711573 74.5401283,22.4983806 C74.3190703,22.6256039 74.1338493,22.7918272 73.9852199,22.9974291 C73.8362132,23.2030311 73.7245525,23.4343806 73.649106,23.6918563 C73.5740368,23.949332 73.5363136,24.2079437 73.5363136,24.4684485 C73.5363136,24.734633 73.5755458,24.9955165 73.6536328,25.2514777 C73.7317199,25.5074388 73.8467757,25.7365165 73.998423,25.939468 C74.1500703,26.1420408 74.3386864,26.3044777 74.5642712,26.4275359 C74.789856,26.5502155 75.04826,26.6115553 75.3402377,26.6115553 C75.5318717,26.6115553 75.7106797,26.586565 75.8774163,26.5362058 C76.0437757,26.4858466 76.1897645,26.4112544 76.3150056,26.3120505 C76.4402467,26.2128466 76.5424766,26.0894097 76.6220725,25.9413612 C76.7016685,25.7936913 76.7503315,25.6206524 76.7680614,25.4222447 L75.317981,25.4222447 L75.317981,24.0246816 L78.8413292,24.0246816 Z" id="Fill-21" fill="#002855"></path>
                <path d="M82.4777339,24.0690583 L82.650129,24.0690583 C82.7946089,24.0690583 82.9405978,24.0595922 83.0877183,24.0402816 C83.2352161,24.0209709 83.3676246,23.9812136 83.4856982,23.9202524 C83.6033946,23.8596699 83.6992116,23.7740971 83.7731491,23.6631553 C83.8467094,23.5522136 83.8836781,23.4034078 83.8836781,23.2171165 C83.8836781,23.0308252 83.8467094,22.8812621 83.7731491,22.7688058 C83.6992116,22.6567282 83.6033946,22.5700194 83.4856982,22.5094369 C83.3676246,22.4488544 83.2352161,22.4087184 83.0877183,22.3894078 C82.9405978,22.3704757 82.7946089,22.3606311 82.650129,22.3606311 L82.4777339,22.3606311 L82.4777339,24.0690583 Z M86.3813321,27.8494078 L84.1707518,27.8494078 L82.4999906,25.2136893 L82.4777339,25.2136893 L82.4777339,27.8494078 L80.7051201,27.8494078 L80.7051201,20.9986602 L83.3574393,20.9986602 C83.6935531,20.9986602 84.0066558,21.039932 84.2967473,21.1228544 C84.5872161,21.2057767 84.8384527,21.3326214 85.0504571,21.5045243 C85.2628388,21.6760485 85.4291982,21.8941456 85.5502897,22.1588155 C85.671004,22.4234854 85.7313612,22.7392718 85.7313612,23.1061748 C85.7313612,23.3428252 85.6989192,23.5684951 85.6340353,23.7828058 C85.5691513,23.9974951 85.4733344,24.1902233 85.3465844,24.3617476 C85.2202116,24.5336505 85.0636603,24.6782913 84.8780621,24.7968058 C84.6924638,24.9149417 84.4789504,24.9963495 84.2371446,25.0406505 L86.3813321,27.8494078 Z" id="Fill-22" fill="#002855"></path>
                <path d="M87.92225,27.8494078 L89.6948638,27.8494078 L89.6948638,20.9982816 L87.92225,20.9982816 L87.92225,27.8494078 Z" id="Fill-23" fill="#002855"></path>
                <path d="M96.616206,23.2969718 C96.5249158,23.1727777 96.4207998,23.0641078 96.3046123,22.9709621 C96.1880475,22.8778165 96.0628065,22.7994379 95.9288891,22.7358262 C95.7945944,22.6722146 95.6538868,22.6241272 95.5067663,22.5915641 C95.3592685,22.559001 95.2102618,22.5427194 95.0601234,22.5427194 C94.7888935,22.5427194 94.5414292,22.5915641 94.3173533,22.6892534 C94.0936547,22.7865641 93.9020208,22.9213602 93.7428288,23.0928845 C93.5836368,23.2644087 93.4599047,23.465467 93.3712551,23.6964379 C93.2829828,23.9270301 93.2388467,24.1754184 93.2388467,24.4416029 C93.2388467,24.7138456 93.2829828,24.9637485 93.3712551,25.1916903 C93.4599047,25.4192534 93.5851458,25.6153893 93.7473556,25.7797194 C93.9091882,25.9436709 94.10384,26.0724087 94.3305565,26.1655544 C94.5576502,26.2587 94.8096413,26.3052728 95.0865297,26.3052728 C95.2310096,26.3052728 95.374735,26.288234 95.517706,26.254535 C95.660677,26.2204573 95.7976123,26.1716126 95.9288891,26.108001 C96.0597886,26.0443893 96.183898,25.9682825 96.3000855,25.8793019 C96.4166502,25.7907 96.521898,25.6899816 96.616206,25.5775252 L96.616206,27.7119233 C96.4687083,27.7562243 96.3302641,27.798632 96.2004962,27.8383893 C96.0711056,27.8785252 95.9443556,27.9122243 95.8206234,27.9406223 C95.6965141,27.9686417 95.5720275,27.9906029 95.4467864,28.0068845 C95.3215453,28.023166 95.1898913,28.0314961 95.0514471,28.0314961 C94.5738712,28.0314961 94.1162886,27.9440301 93.6786993,27.7698553 C93.24111,27.5953019 92.8438846,27.346535 92.4874002,27.0243117 C92.1101681,26.6812631 91.8329025,26.2912631 91.6563578,25.8550689 C91.4794359,25.4188748 91.3907864,24.9448165 91.3907864,24.4328942 C91.3907864,23.9626223 91.4764181,23.5112825 91.6473042,23.079632 C91.8181904,22.6476029 92.0686725,22.2632825 92.3987507,21.9259136 C92.5669962,21.7543893 92.7510855,21.5999039 92.9513958,21.4620786 C93.151706,21.324632 93.3633333,21.207632 93.5859002,21.1118359 C93.8084672,21.0156612 94.038956,20.9422049 94.277744,20.8918456 C94.5165319,20.841865 94.7549426,20.8164961 94.9937306,20.8164961 C95.2796725,20.8164961 95.555052,20.8467874 95.8206234,20.9073699 C96.0858176,20.9683311 96.3510118,21.0531466 96.616206,21.1625738 L96.616206,23.2969718 Z" id="Fill-24" fill="#002855"></path>
                <path d="M104.654834,20.9985087 L104.654834,24.8500427 C104.654834,25.0719262 104.649553,25.2907806 104.639368,25.5066058 C104.629183,25.7228097 104.600136,25.933334 104.552982,26.1389359 C104.505828,26.3445379 104.434531,26.5429456 104.338714,26.7334019 C104.242897,26.9242369 104.111243,27.1025767 103.942997,27.2684214 C103.801535,27.4104117 103.640834,27.5293049 103.461272,27.6254796 C103.281332,27.7216544 103.092716,27.800033 102.895424,27.8606155 C102.698131,27.9211981 102.49518,27.9647417 102.287703,27.9916252 C102.079848,28.0181301 101.877274,28.0313825 101.679604,28.0313825 C101.479294,28.0313825 101.275212,28.0181301 101.067357,27.9916252 C100.859502,27.9647417 100.657683,27.9211981 100.461899,27.8606155 C100.265738,27.800033 100.077877,27.7216544 99.8983143,27.6254796 C99.7183746,27.5293049 99.5576737,27.4104117 99.4162116,27.2684214 C99.2453254,27.1025767 99.1121625,26.9242369 99.0163455,26.7334019 C98.9205286,26.5429456 98.8488545,26.3445379 98.8017004,26.1389359 C98.7545464,25.933334 98.7258768,25.7228097 98.7156915,25.5066058 C98.7055062,25.2907806 98.700225,25.0719262 98.700225,24.8500427 L98.700225,20.9985087 L100.472839,20.9985087 L100.472839,24.6058194 C100.472839,24.753868 100.476611,24.9034311 100.483779,25.0541301 C100.491323,25.2048291 100.507544,25.3490913 100.532442,25.4869165 C100.557716,25.6243631 100.595817,25.753101 100.647497,25.8727515 C100.699178,25.9924019 100.769721,26.0969068 100.859502,26.1855087 C100.94966,26.2744893 101.060944,26.3437806 101.193352,26.3941398 C101.326138,26.444499 101.487971,26.4694893 101.679604,26.4694893 C101.868221,26.4694893 102.029676,26.444499 102.163593,26.3941398 C102.297888,26.3437806 102.409171,26.2744893 102.497444,26.1855087 C102.586093,26.0969068 102.655881,25.9924019 102.707562,25.8727515 C102.759243,25.753101 102.798098,25.6243631 102.824504,25.4869165 C102.851287,25.3490913 102.867508,25.2048291 102.873167,25.0541301 C102.879203,24.9034311 102.882221,24.753868 102.882221,24.6058194 L102.882221,20.9985087 L104.654834,20.9985087 Z" id="Fill-25" fill="#002855"></path>
                <path d="M108.618714,26.3409029 L110.749321,26.3409029 L110.749321,27.8494078 L106.8461,27.8494078 L106.8461,20.9986602 L108.618714,20.9986602 L108.618714,26.3409029 Z" id="Fill-26" fill="#002855"></path>
                <path d="M114.577096,27.8495214 L112.804482,27.8495214 L112.804482,22.5072786 L111.336672,22.5072786 L111.336672,20.9983951 L116.044906,20.9983951 L116.044906,22.5072786 L114.577096,22.5072786 L114.577096,27.8495214 Z" id="Fill-27" fill="#002855"></path>
                <path d="M123.596377,20.9985087 L123.596377,24.8500427 C123.596377,25.0719262 123.591096,25.2907806 123.58091,25.5066058 C123.570725,25.7228097 123.541678,25.933334 123.494524,26.1389359 C123.44737,26.3445379 123.376073,26.5429456 123.280256,26.7334019 C123.18444,26.9242369 123.052785,27.1025767 122.88454,27.2684214 C122.743078,27.4104117 122.582377,27.5293049 122.402815,27.6254796 C122.222875,27.7216544 122.034259,27.800033 121.836966,27.8606155 C121.639674,27.9211981 121.436723,27.9647417 121.229245,27.9916252 C121.02139,28.0181301 120.818817,28.0313825 120.621147,28.0313825 C120.420837,28.0313825 120.216754,28.0181301 120.008899,27.9916252 C119.801044,27.9647417 119.599225,27.9211981 119.403442,27.8606155 C119.207281,27.800033 119.019419,27.7216544 118.839857,27.6254796 C118.659917,27.5293049 118.499216,27.4104117 118.357754,27.2684214 C118.186868,27.1025767 118.053705,26.9242369 117.957888,26.7334019 C117.862071,26.5429456 117.790397,26.3445379 117.743243,26.1389359 C117.696089,25.933334 117.667419,25.7228097 117.657234,25.5066058 C117.647049,25.2907806 117.641768,25.0719262 117.641768,24.8500427 L117.641768,20.9985087 L119.414381,20.9985087 L119.414381,24.6058194 C119.414381,24.753868 119.418154,24.9034311 119.425321,25.0541301 C119.432866,25.2048291 119.449087,25.3490913 119.473984,25.4869165 C119.499259,25.6243631 119.537359,25.753101 119.58904,25.8727515 C119.640721,25.9924019 119.711263,26.0969068 119.801044,26.1855087 C119.891203,26.2744893 120.002486,26.3437806 120.134895,26.3941398 C120.267681,26.444499 120.429513,26.4694893 120.621147,26.4694893 C120.809763,26.4694893 120.971219,26.444499 121.105136,26.3941398 C121.239431,26.3437806 121.350714,26.2744893 121.438986,26.1855087 C121.527636,26.0969068 121.597424,25.9924019 121.649105,25.8727515 C121.700785,25.753101 121.73964,25.6243631 121.766047,25.4869165 C121.79283,25.3490913 121.809051,25.2048291 121.81471,25.0541301 C121.820745,24.9034311 121.823763,24.753868 121.823763,24.6058194 L121.823763,20.9985087 L123.596377,20.9985087 Z" id="Fill-28" fill="#002855"></path>
                <path d="M127.560257,24.0690583 L127.732652,24.0690583 C127.877132,24.0690583 128.023121,24.0595922 128.170241,24.0402816 C128.317739,24.0209709 128.450148,23.9812136 128.568221,23.9202524 C128.685918,23.8596699 128.781735,23.7740971 128.855672,23.6631553 C128.929232,23.5522136 128.966201,23.4034078 128.966201,23.2171165 C128.966201,23.0308252 128.929232,22.8812621 128.855672,22.7688058 C128.781735,22.6567282 128.685918,22.5700194 128.568221,22.5094369 C128.450148,22.4488544 128.317739,22.4087184 128.170241,22.3894078 C128.023121,22.3704757 127.877132,22.3606311 127.732652,22.3606311 L127.560257,22.3606311 L127.560257,24.0690583 Z M131.463855,27.8494078 L129.253275,27.8494078 L127.582514,25.2136893 L127.560257,25.2136893 L127.560257,27.8494078 L125.787643,27.8494078 L125.787643,20.9986602 L128.439962,20.9986602 C128.776076,20.9986602 129.089179,21.039932 129.37927,21.1228544 C129.669739,21.2057767 129.920976,21.3326214 130.13298,21.5045243 C130.345362,21.6760485 130.511721,21.8941456 130.632813,22.1588155 C130.753527,22.4234854 130.813884,22.7392718 130.813884,23.1061748 C130.813884,23.3428252 130.781442,23.5684951 130.716558,23.7828058 C130.651674,23.9974951 130.555857,24.1902233 130.429107,24.3617476 C130.302735,24.5336505 130.146183,24.6782913 129.960585,24.7968058 C129.774987,24.9149417 129.561473,24.9963495 129.319668,25.0406505 L131.463855,27.8494078 Z" id="Fill-29" fill="#002855"></path>
                <path d="M136.292238,23.115035 L136.274508,23.115035 L135.540792,25.2982777 L137.017278,25.2982777 L136.292238,23.115035 Z M135.050013,26.6602485 L134.58149,27.8495592 L132.698347,27.8495592 L135.32426,20.998433 L137.260216,20.998433 L139.833316,27.8495592 L137.94112,27.8495592 L137.494854,26.6602485 L135.050013,26.6602485 Z" id="Fill-30" fill="#002855"></path>
                <path d="M143.177102,26.3409029 L145.307709,26.3409029 L145.307709,27.8494078 L141.404488,27.8494078 L141.404488,20.9986602 L143.177102,20.9986602 L143.177102,26.3409029 Z" id="Fill-31" fill="#002855"></path>
                <path d="M3.57521763,35.0710718 L3.56276897,35.0710718 L3.03879353,36.6299359 L4.09315737,36.6299359 L3.57521763,35.0710718 Z M2.68834487,37.6026641 L2.35373996,38.4515767 L1.0092846,38.4515767 L2.88412835,33.5599165 L4.26668415,33.5599165 L6.10342746,38.4515767 L4.75255915,38.4515767 L4.43379799,37.6026641 L2.68834487,37.6026641 Z" id="Fill-32" fill="#002855"></path>
                <path d="M6.72314442,33.5598408 L7.98875826,33.5598408 L10.3117538,36.5503456 L10.3245797,36.5503456 L10.3245797,33.5598408 L11.5901935,33.5598408 L11.5901935,38.451501 L10.3245797,38.451501 L8.00460201,35.4541806 L7.98875826,35.4541806 L7.98875826,38.451501 L6.72314442,38.451501 L6.72314442,33.5598408 Z" id="Fill-33" fill="#002855"></path>
                <path d="M13.9446879,37.3743437 L14.2321388,37.3743437 C14.4215094,37.3743437 14.6006946,37.3482175 14.7700719,37.2948291 C14.9394491,37.2421981 15.0877013,37.160033 15.2152058,37.0479553 C15.3427103,36.9362563 15.4441857,36.794266 15.5196321,36.6219845 C15.5954558,36.4497029 15.6335562,36.2444796 15.6335562,36.0059359 C15.6335562,35.7863243 15.5992281,35.5909456 15.5309491,35.4209359 C15.4622929,35.2513049 15.3668531,35.1081786 15.2434982,34.9919359 C15.1205205,34.8756932 14.9741545,34.7874699 14.8047772,34.727266 C14.6354,34.6674408 14.4486701,34.6371495 14.2445875,34.6371495 L13.9446879,34.6371495 L13.9446879,37.3743437 Z M12.6790741,33.5599165 L14.4750763,33.5599165 C14.6999067,33.5599165 14.9179469,33.5883146 15.1284424,33.6451107 C15.3389379,33.7022854 15.5362304,33.7833146 15.7203196,33.8878194 C15.9044089,33.9919456 16.0722772,34.1184117 16.2239246,34.2664602 C16.3751946,34.4145087 16.5045853,34.5788388 16.6117192,34.7605864 C16.7192304,34.942334 16.8029759,35.1384699 16.8629558,35.3482369 C16.9229357,35.5583825 16.9527371,35.7772369 16.9527371,36.0059359 C16.9527371,36.233499 16.9229357,36.452732 16.8629558,36.6632563 C16.8029759,36.8734019 16.7188531,37.0691592 16.6102103,37.2505282 C16.5019446,37.4322757 16.3721768,37.5973631 16.2205295,37.745033 C16.0688821,37.8927029 15.9017683,38.0187903 15.7188107,38.1236738 C15.5354759,38.2281786 15.3389379,38.3088291 15.1284424,38.3656252 C14.9179469,38.4231786 14.6999067,38.4515767 14.4750763,38.4515767 L12.6790741,38.4515767 L12.6790741,33.5599165 Z" id="Fill-34" fill="#002855"></path>
                <path d="M23.0868712,33.1091068 L23.0868712,34.2537379 L25.0895967,34.2537379 L25.0895967,35.7626214 L23.0868712,35.7626214 L23.0868712,36.9428447 L25.2001257,36.9428447 L25.2001257,38.4513495 L21.3142574,38.4513495 L21.3142574,31.6006019 L25.2001257,31.6006019 L25.2001257,33.1091068 L23.0868712,33.1091068 Z" id="Fill-35" fill="#002855"></path>
                <path d="M27.1918359,31.6004505 L28.9644498,31.6004505 L32.218077,35.7893534 L32.2358069,35.7893534 L32.2358069,31.6004505 L34.0084208,31.6004505 L34.0084208,38.4515767 L32.2358069,38.4515767 L28.9867065,34.253965 L28.9644498,34.253965 L28.9644498,38.4515767 L27.1918359,38.4515767 L27.1918359,31.6004505 Z" id="Fill-36" fill="#002855"></path>
                <path d="M38.8941429,35.7625456 L40.5520781,31.6005262 L42.4793571,31.6005262 L39.5659933,38.4516524 L38.1868326,38.4516524 L35.3179821,31.6005262 L37.2497879,31.6005262 L38.8941429,35.7625456 Z" id="Fill-37" fill="#002855"></path>
                <path d="M43.7936339,38.4513495 L45.5662478,38.4513495 L45.5662478,31.6002233 L43.7936339,31.6002233 L43.7936339,38.4513495 Z" id="Fill-38" fill="#002855"></path>
                <path d="M49.3892315,34.671 L49.5616266,34.671 C49.7061065,34.671 49.8520953,34.661534 49.9992158,34.6422233 C50.1467136,34.6229126 50.2791221,34.5831553 50.3971958,34.5221942 C50.5148922,34.4616117 50.6107092,34.3760388 50.6846467,34.2650971 C50.7582069,34.1541553 50.7951757,34.0053495 50.7951757,33.8190583 C50.7951757,33.632767 50.7582069,33.4832039 50.6846467,33.3707476 C50.6107092,33.2586699 50.5148922,33.1719612 50.3971958,33.1113786 C50.2791221,33.0507961 50.1467136,33.0106602 49.9992158,32.9913495 C49.8520953,32.9724175 49.7061065,32.9625728 49.5616266,32.9625728 L49.3892315,32.9625728 L49.3892315,34.671 Z M53.2928297,38.4513495 L51.0822493,38.4513495 L49.4114882,35.8156311 L49.3892315,35.8156311 L49.3892315,38.4513495 L47.6166176,38.4513495 L47.6166176,31.6006019 L50.2689368,31.6006019 C50.6050507,31.6006019 50.9181533,31.6418738 51.2082449,31.7247961 C51.4987136,31.8077184 51.7499502,31.9345631 51.9619547,32.106466 C52.1743364,32.2779903 52.3406958,32.4960874 52.4617873,32.7607573 C52.5825016,33.0254272 52.6428587,33.3412136 52.6428587,33.7081165 C52.6428587,33.944767 52.6104167,34.1704369 52.5455328,34.3847476 C52.4806489,34.5994369 52.3848319,34.792165 52.2580819,34.9636893 C52.1317092,35.1355922 51.9751578,35.280233 51.7895596,35.3987476 C51.6039614,35.5168835 51.390448,35.5982913 51.1486422,35.6425922 L53.2928297,38.4513495 Z" id="Fill-39" fill="#002855"></path>
                <path d="M57.9159982,33.1002087 C57.650804,33.1002087 57.4018308,33.1498107 57.1690786,33.2490146 C56.9359491,33.3478398 56.7318665,33.4811214 56.5564536,33.6481019 C56.3814179,33.8154612 56.2425964,34.007432 56.141121,34.2251505 C56.0392683,34.4424903 55.9887192,34.6696748 55.9887192,34.9063252 C55.9887192,35.2020437 56.0392683,35.474665 56.141121,35.7249466 C56.2425964,35.9748495 56.3814179,36.1906748 56.5564536,36.372801 C56.7318665,36.5545485 56.9359491,36.6965388 57.1690786,36.7987718 C57.4018308,36.9006262 57.650804,36.9517427 57.9159982,36.9517427 C58.1811924,36.9517427 58.4309201,36.9006262 58.6651812,36.7987718 C58.8994424,36.6965388 59.103525,36.5545485 59.277429,36.372801 C59.451333,36.1906748 59.5894,35.9748495 59.6908754,35.7249466 C59.7927281,35.474665 59.8432772,35.2020437 59.8432772,34.9063252 C59.8432772,34.6696748 59.7927281,34.4424903 59.6908754,34.2251505 C59.5894,34.007432 59.451333,33.8154612 59.277429,33.6481019 C59.103525,33.4811214 58.8994424,33.3478398 58.6651812,33.2490146 C58.4309201,33.1498107 58.1811924,33.1002087 57.9159982,33.1002087 M57.9159982,31.3739854 C58.2430585,31.3739854 58.5637058,31.4133641 58.8775629,31.4917427 C59.1914201,31.5701214 59.4883018,31.6818204 59.768208,31.8268398 C60.0481143,31.9718592 60.3061411,32.1483058 60.5419112,32.3569369 C60.7776812,32.565568 60.9802549,32.8007039 61.1496321,33.0623447 C61.3190094,33.3243641 61.4517951,33.6091019 61.5476121,33.9165583 C61.643429,34.2243932 61.6913375,34.5511602 61.6913375,34.8972379 C61.6913375,35.4534612 61.5977839,35.9631117 61.4106768,36.4258107 C61.2235696,36.8888883 60.9617705,37.2868398 60.6260339,37.619665 C60.2899201,37.9521117 59.8911857,38.2118592 59.430208,38.3981505 C58.9688531,38.5844417 58.4641165,38.6775874 57.9159982,38.6775874 C57.5504603,38.6775874 57.2034067,38.6355583 56.8748375,38.5511214 C56.5462683,38.4670631 56.2425964,38.3462767 55.9641991,38.1895194 C55.6858018,38.0327621 55.4338107,37.8426845 55.2082259,37.619665 C54.9830183,37.396267 54.7913844,37.1440922 54.6337013,36.8631408 C54.4760183,36.5818107 54.3545496,36.2766262 54.2689179,35.9468301 C54.1832862,35.6166553 54.1406589,35.2671699 54.1406589,34.8972379 C54.1406589,34.5511602 54.1885674,34.2243932 54.2843844,33.9165583 C54.3802013,33.6091019 54.5133643,33.3243641 54.6846277,33.0623447 C54.8555138,32.8007039 55.0580875,32.565568 55.2923487,32.3569369 C55.5266098,32.1483058 55.7838821,31.9718592 56.0637884,31.8268398 C56.3436946,31.6818204 56.6405763,31.5701214 56.9544335,31.4917427 C57.2682906,31.4133641 57.5889379,31.3739854 57.9159982,31.3739854" id="Fill-40" fill="#002855"></path>
                <path d="M63.5770455,31.6004505 L65.3496594,31.6004505 L68.6032866,35.7893534 L68.6210165,35.7893534 L68.6210165,31.6004505 L70.3936304,31.6004505 L70.3936304,38.4515767 L68.6210165,38.4515767 L65.3719161,34.253965 L65.3496594,34.253965 L65.3496594,38.4515767 L63.5770455,38.4515767 L63.5770455,31.6004505 Z" id="Fill-41" fill="#002855"></path>
                <path d="M73.1762078,31.6004505 L74.9224154,31.6004505 L76.3106297,35.2611495 L77.7739132,31.6004505 L79.5420002,31.6004505 L80.571844,38.4515767 L78.7992301,38.4515767 L78.2997748,34.5068971 L78.2820449,34.5068971 L76.6422167,38.4515767 L75.939056,38.4515767 L74.3697703,34.5068971 L74.3520404,34.5068971 L73.7816654,38.4515767 L72.0181051,38.4515767 L73.1762078,31.6004505 Z" id="Fill-42" fill="#002855"></path>
                <path d="M83.9925473,33.1091068 L83.9925473,34.2537379 L85.9952728,34.2537379 L85.9952728,35.7626214 L83.9925473,35.7626214 L83.9925473,36.9428447 L86.1058018,36.9428447 L86.1058018,38.4513495 L82.2199335,38.4513495 L82.2199335,31.6006019 L86.1058018,31.6006019 L86.1058018,33.1091068 L83.9925473,33.1091068 Z" id="Fill-43" fill="#002855"></path>
                <path d="M88.0975121,31.6004505 L89.8701259,31.6004505 L93.1237531,35.7893534 L93.141483,35.7893534 L93.141483,31.6004505 L94.9140969,31.6004505 L94.9140969,38.4515767 L93.141483,38.4515767 L89.8923826,34.253965 L89.8701259,34.253965 L89.8701259,38.4515767 L88.0975121,38.4515767 L88.0975121,31.6004505 Z" id="Fill-44" fill="#002855"></path>
                <path d="M99.5854002,38.4514631 L97.8127864,38.4514631 L97.8127864,33.1092204 L96.3449761,33.1092204 L96.3449761,31.6003369 L101.05321,31.6003369 L101.05321,33.1092204 L99.5854002,33.1092204 L99.5854002,38.4514631 Z" id="Fill-45" fill="#002855"></path>
                <path d="M105.032067,33.7169767 L105.014337,33.7169767 L104.28062,35.9002194 L105.757107,35.9002194 L105.032067,33.7169767 Z M103.789841,37.2621903 L103.321319,38.451501 L101.438176,38.451501 L104.064089,31.6003748 L106.000044,31.6003748 L108.573145,38.451501 L106.680948,38.451501 L106.234683,37.2621903 L103.789841,37.2621903 Z" id="Fill-46" fill="#002855"></path>
                <path d="M111.91693,36.9428447 L114.047538,36.9428447 L114.047538,38.4513495 L110.144317,38.4513495 L110.144317,31.6006019 L111.91693,31.6006019 L111.91693,36.9428447 Z" id="Fill-47" fill="#002855"></path>
                <path d="M123.289536,33.362001 C123.124686,33.2260689 122.941728,33.1166417 122.741418,33.0337194 C122.541108,32.9507971 122.331744,32.9095252 122.113704,32.9095252 C122.03109,32.9095252 121.945458,32.9212631 121.857186,32.9447388 C121.768914,32.9685932 121.687054,33.0041854 121.611985,33.0515155 C121.536916,33.0988456 121.474673,33.1586709 121.426387,33.2309913 C121.377724,33.3036903 121.353204,33.3869913 121.353204,33.4816515 C121.353204,33.5823699 121.379987,33.6683214 121.4328,33.7391272 C121.48599,33.8103117 121.552382,33.8708942 121.631601,33.9212534 C121.711197,33.971234 121.796829,34.0136417 121.888119,34.0477194 C121.979409,34.0814184 122.063532,34.1105738 122.14011,34.1340495 L122.590902,34.2714961 C122.82969,34.3426806 123.051503,34.4274961 123.25634,34.5267 C123.461177,34.6259039 123.638853,34.7493408 123.788992,34.8973893 C123.939507,35.0450592 124.057958,35.2203699 124.145099,35.4229427 C124.231862,35.6258942 124.275244,35.8659524 124.275244,36.1442534 C124.275244,36.3127485 124.264304,36.482001 124.242048,36.6520107 C124.220168,36.822399 124.18169,36.9871078 124.127369,37.1468942 C124.07267,37.3066806 123.999865,37.4581369 123.908574,37.6016417 C123.816907,37.7451466 123.703737,37.8746417 123.567934,37.9901272 C123.299722,38.2176903 122.997181,38.3820204 122.659559,38.4823602 C122.322313,38.5830786 121.979409,38.6334379 121.631601,38.6334379 C121.201556,38.6334379 120.781697,38.5645252 120.372023,38.4270786 C119.962349,38.289632 119.582099,38.0980398 119.231273,37.8523019 L119.991773,36.4149816 C120.103811,36.5122922 120.219998,36.6043019 120.34109,36.6898748 C120.461804,36.7758262 120.588554,36.8511757 120.720963,36.9163019 C120.853748,36.9814282 120.990684,37.032166 121.132146,37.0692728 C121.273608,37.1063796 121.419597,37.124933 121.569735,37.124933 C121.673097,37.124933 121.776081,37.1113019 121.879443,37.0847971 C121.982427,37.0582922 122.074472,37.0166417 122.155577,36.9606029 C122.236681,36.9041854 122.30232,36.8326223 122.352492,36.745535 C122.402286,36.6580689 122.427561,36.5539427 122.427561,36.432399 C122.427561,36.3082049 122.389083,36.2033214 122.312505,36.1173699 C122.235927,36.0317971 122.142373,35.9583408 122.031844,35.8977583 C121.921315,35.8371757 121.803996,35.7875738 121.680264,35.7493311 C121.556532,35.7107097 121.447512,35.6781466 121.353204,35.6516417 C121.073298,35.5717485 120.819798,35.4888262 120.593081,35.4032534 C120.365987,35.3173019 120.17209,35.2040883 120.011766,35.0636126 C119.851065,34.9231369 119.726579,34.7463117 119.637929,34.5335155 C119.549657,34.3203408 119.505521,34.0480981 119.505521,33.7167874 C119.505521,33.3707097 119.563615,33.0556806 119.680179,32.7717 C119.796367,32.4877194 119.959331,32.2461466 120.168695,32.0462243 C120.377681,31.8466806 120.6259,31.6921951 120.913351,31.582768 C121.200802,31.4733408 121.515414,31.4184379 121.857186,31.4184379 C122.028072,31.4184379 122.208012,31.4316903 122.396628,31.4585738 C122.585244,31.4850786 122.772351,31.5229427 122.957949,31.5714087 C123.143548,31.6202534 123.324996,31.6797 123.501541,31.7489913 C123.678463,31.8186612 123.84369,31.8962825 123.996847,31.9818553 L123.289536,33.362001 Z" id="Fill-48" fill="#002855"></path>
                <path d="M130.833802,33.8989136 C130.742512,33.7747194 130.638396,33.6660495 130.522208,33.5729039 C130.405644,33.4797583 130.280402,33.4013796 130.146485,33.337768 C130.01219,33.2741563 129.871483,33.2260689 129.724362,33.1935058 C129.576865,33.1609427 129.427858,33.1446612 129.277719,33.1446612 C129.00649,33.1446612 128.759025,33.1935058 128.534949,33.2911951 C128.311251,33.3885058 128.119617,33.5233019 127.960425,33.6948262 C127.801233,33.8663505 127.677501,34.0674087 127.588851,34.2983796 C127.500579,34.5289718 127.456443,34.7773602 127.456443,35.0435447 C127.456443,35.3157874 127.500579,35.5656903 127.588851,35.793632 C127.677501,36.0211951 127.802742,36.2173311 127.964952,36.3816612 C128.126784,36.5456126 128.321436,36.6743505 128.548152,36.7674961 C128.775246,36.8606417 129.027237,36.9072146 129.304126,36.9072146 C129.448606,36.9072146 129.592331,36.8901757 129.735302,36.8564767 C129.878273,36.822399 130.015208,36.7735544 130.146485,36.7099427 C130.277385,36.6463311 130.401494,36.5702243 130.517681,36.4812437 C130.634246,36.3926417 130.739494,36.2919233 130.833802,36.179467 L130.833802,38.313865 C130.686304,38.358166 130.54786,38.4005738 130.418092,38.4403311 C130.288702,38.480467 130.161952,38.514166 130.038219,38.5425641 C129.91411,38.5705835 129.789623,38.5925447 129.664382,38.6088262 C129.539141,38.6251078 129.407487,38.6334379 129.269043,38.6334379 C128.791467,38.6334379 128.333885,38.5459718 127.896295,38.3717971 C127.458706,38.1972437 127.061481,37.9484767 126.704996,37.6262534 C126.327764,37.2832049 126.050498,36.8932049 125.873954,36.4570107 C125.697032,36.0208165 125.608382,35.5467583 125.608382,35.0348359 C125.608382,34.5645641 125.694014,34.1132243 125.8649,33.6815738 C126.035786,33.2495447 126.286269,32.8652243 126.616347,32.5278553 C126.784592,32.3563311 126.968681,32.2018456 127.168992,32.0640204 C127.369302,31.9265738 127.580929,31.8095738 127.803496,31.7137777 C128.026063,31.6176029 128.256552,31.5441466 128.49534,31.4937874 C128.734128,31.4438068 128.972539,31.4184379 129.211327,31.4184379 C129.497269,31.4184379 129.772648,31.4487291 130.038219,31.5093117 C130.303414,31.5702728 130.568608,31.6550883 130.833802,31.7645155 L130.833802,33.8989136 Z" id="Fill-49" fill="#002855"></path>
                <path d="M132.835886,38.4513495 L134.6085,38.4513495 L134.6085,31.6002233 L132.835886,31.6002233 L132.835886,38.4513495 Z" id="Fill-50" fill="#002855"></path>
                <path d="M138.431861,33.1091068 L138.431861,34.2537379 L140.434586,34.2537379 L140.434586,35.7626214 L138.431861,35.7626214 L138.431861,36.9428447 L140.545115,36.9428447 L140.545115,38.4513495 L136.659247,38.4513495 L136.659247,31.6006019 L140.545115,31.6006019 L140.545115,33.1091068 L138.431861,33.1091068 Z" id="Fill-51" fill="#002855"></path>
                <path d="M142.714012,31.6004505 L144.486625,31.6004505 L147.740253,35.7893534 L147.757983,35.7893534 L147.757983,31.6004505 L149.530596,31.6004505 L149.530596,38.4515767 L147.757983,38.4515767 L144.508882,34.253965 L144.486625,34.253965 L144.486625,38.4515767 L142.714012,38.4515767 L142.714012,31.6004505 Z" id="Fill-52" fill="#002855"></path>
                <path d="M156.275583,33.8989136 C156.184292,33.7747194 156.080176,33.6660495 155.963989,33.5729039 C155.847424,33.4797583 155.722183,33.4013796 155.588266,33.337768 C155.453971,33.2741563 155.313263,33.2260689 155.166143,33.1935058 C155.018645,33.1609427 154.869638,33.1446612 154.7195,33.1446612 C154.44827,33.1446612 154.200806,33.1935058 153.97673,33.2911951 C153.753031,33.3885058 153.561397,33.5233019 153.402205,33.6948262 C153.243013,33.8663505 153.119281,34.0674087 153.030632,34.2983796 C152.942359,34.5289718 152.898223,34.7773602 152.898223,35.0435447 C152.898223,35.3157874 152.942359,35.5656903 153.030632,35.793632 C153.119281,36.0211951 153.244522,36.2173311 153.406732,36.3816612 C153.568565,36.5456126 153.763217,36.6743505 153.989933,36.7674961 C154.217027,36.8606417 154.469018,36.9072146 154.745906,36.9072146 C154.890386,36.9072146 155.034112,36.8901757 155.177083,36.8564767 C155.320054,36.822399 155.456989,36.7735544 155.588266,36.7099427 C155.719165,36.6463311 155.843275,36.5702243 155.959462,36.4812437 C156.076027,36.3926417 156.181275,36.2919233 156.275583,36.179467 L156.275583,38.313865 C156.128085,38.358166 155.989641,38.4005738 155.859873,38.4403311 C155.730482,38.480467 155.603732,38.514166 155.48,38.5425641 C155.355891,38.5705835 155.231404,38.5925447 155.106163,38.6088262 C154.980922,38.6251078 154.849268,38.6334379 154.710824,38.6334379 C154.233248,38.6334379 153.775665,38.5459718 153.338076,38.3717971 C152.900487,38.1972437 152.503261,37.9484767 152.146777,37.6262534 C151.769545,37.2832049 151.492279,36.8932049 151.315734,36.4570107 C151.138813,36.0208165 151.050163,35.5467583 151.050163,35.0348359 C151.050163,34.5645641 151.135795,34.1132243 151.306681,33.6815738 C151.477567,33.2495447 151.728049,32.8652243 152.058127,32.5278553 C152.226373,32.3563311 152.410462,32.2018456 152.610772,32.0640204 C152.811083,31.9265738 153.02271,31.8095738 153.245277,31.7137777 C153.467844,31.6176029 153.698333,31.5441466 153.937121,31.4937874 C154.175908,31.4438068 154.414319,31.4184379 154.653107,31.4184379 C154.939049,31.4184379 155.214429,31.4487291 155.48,31.5093117 C155.745194,31.5702728 156.010388,31.6550883 156.275583,31.7645155 L156.275583,33.8989136 Z" id="Fill-53" fill="#002855"></path>
                <path d="M160.043868,33.1091068 L160.043868,34.2537379 L162.046593,34.2537379 L162.046593,35.7626214 L160.043868,35.7626214 L160.043868,36.9428447 L162.157122,36.9428447 L162.157122,38.4513495 L158.271254,38.4513495 L158.271254,31.6006019 L162.157122,31.6006019 L162.157122,33.1091068 L160.043868,33.1091068 Z" id="Fill-54" fill="#002855"></path>
                <path d="M167.795913,33.362001 C167.631062,33.2260689 167.448105,33.1166417 167.247794,33.0337194 C167.047484,32.9507971 166.83812,32.9095252 166.62008,32.9095252 C166.537466,32.9095252 166.451835,32.9212631 166.363562,32.9447388 C166.27529,32.9685932 166.193431,33.0041854 166.118361,33.0515155 C166.043292,33.0988456 165.981049,33.1586709 165.932763,33.2309913 C165.8841,33.3036903 165.85958,33.3869913 165.85958,33.4816515 C165.85958,33.5823699 165.886364,33.6683214 165.939176,33.7391272 C165.992366,33.8103117 166.058759,33.8708942 166.137977,33.9212534 C166.217573,33.971234 166.303205,34.0136417 166.394495,34.0477194 C166.485785,34.0814184 166.569908,34.1105738 166.646486,34.1340495 L167.097279,34.2714961 C167.336067,34.3426806 167.557879,34.4274961 167.762716,34.5267 C167.967553,34.6259039 168.14523,34.7493408 168.295368,34.8973893 C168.445884,35.0450592 168.564335,35.2203699 168.651475,35.4229427 C168.738239,35.6258942 168.78162,35.8659524 168.78162,36.1442534 C168.78162,36.3127485 168.770681,36.482001 168.748424,36.6520107 C168.726544,36.822399 168.688067,36.9871078 168.633745,37.1468942 C168.579047,37.3066806 168.506241,37.4581369 168.414951,37.6016417 C168.323283,37.7451466 168.210114,37.8746417 168.07431,37.9901272 C167.806098,38.2176903 167.503558,38.3820204 167.165935,38.4823602 C166.82869,38.5830786 166.485785,38.6334379 166.137977,38.6334379 C165.707933,38.6334379 165.288073,38.5645252 164.878399,38.4270786 C164.468725,38.289632 164.088475,38.0980398 163.737649,37.8523019 L164.498149,36.4149816 C164.610187,36.5122922 164.726375,36.6043019 164.847466,36.6898748 C164.968181,36.7758262 165.094931,36.8511757 165.227339,36.9163019 C165.360125,36.9814282 165.49706,37.032166 165.638522,37.0692728 C165.779984,37.1063796 165.925973,37.124933 166.076111,37.124933 C166.179473,37.124933 166.282457,37.1113019 166.385819,37.0847971 C166.488803,37.0582922 166.580848,37.0166417 166.661953,36.9606029 C166.743058,36.9041854 166.808696,36.8326223 166.858868,36.745535 C166.908663,36.6580689 166.933937,36.5539427 166.933937,36.432399 C166.933937,36.3082049 166.89546,36.2033214 166.818881,36.1173699 C166.742303,36.0317971 166.64875,35.9583408 166.538221,35.8977583 C166.427692,35.8371757 166.310373,35.7875738 166.18664,35.7493311 C166.062908,35.7107097 165.953888,35.6781466 165.85958,35.6516417 C165.579674,35.5717485 165.326174,35.4888262 165.099457,35.4032534 C164.872364,35.3173019 164.678466,35.2040883 164.518143,35.0636126 C164.357442,34.9231369 164.232955,34.7463117 164.144306,34.5335155 C164.056033,34.3203408 164.011897,34.0480981 164.011897,33.7167874 C164.011897,33.3707097 164.069991,33.0556806 164.186556,32.7717 C164.302743,32.4877194 164.465707,32.2461466 164.675071,32.0462243 C164.884058,31.8466806 165.132277,31.6921951 165.419727,31.582768 C165.707178,31.4733408 166.02179,31.4184379 166.363562,31.4184379 C166.534448,31.4184379 166.714388,31.4316903 166.903004,31.4585738 C167.09162,31.4850786 167.278727,31.5229427 167.464326,31.5714087 C167.649924,31.6202534 167.831373,31.6797 168.007917,31.7489913 C168.184839,31.8186612 168.350067,31.8962825 168.503223,31.9818553 L167.795913,33.362001 Z" id="Fill-55" fill="#002855"></path>
            </g>
        </g>
    </g>
</svg>