<?xml version="1.0" encoding="UTF-8" standalone="no"?>
<svg width="40px" height="46px" viewBox="0 0 40 46" version="1.1" xmlns="http://www.w3.org/2000/svg" xmlns:xlink="http://www.w3.org/1999/xlink">
    <!-- Generator: Sketch 3.6.1 (26313) - http://www.bohemiancoding.com/sketch -->
    <title>cru_logo</title>
    <desc>Created with Sketch.</desc>
    <defs></defs>
    <g id="Page-1" stroke="none" stroke-width="1" fill="none" fill-rule="evenodd">
        <g id="aggregator" transform="translate(-204.000000, -17.000000)" fill="#002855">
            <g id="cru_logo" transform="translate(204.000000, 17.000000)">
                <path d="M3.46820809,32.5529624 L3.46820809,13.3385056 C8.93895954,10.1458254 14.4138728,7.04841421 19.8843931,3.69695228 C25.3549133,7.04841421 30.8298266,10.1458254 36.300578,13.3385056 L36.300578,32.5494599 C30.8284393,35.7533482 25.3563006,38.9434599 19.8841618,42.1153584 C14.4136416,38.9443939 8.93895954,35.7556832 3.46820809,32.5529624 M38.6795376,10.7295817 C36.3560694,9.36872893 34.0295954,8.00787614 31.7063584,6.64702335 C28.0584971,4.51000812 24.4090173,2.3734599 20.7611561,0.236911675 C20.222659,-0.0787837563 19.5484393,-0.0787837563 19.0099422,0.236911675 C14.0485549,3.14285076 9.08069364,6.04878985 4.11953757,8.95472893 C2.71537572,9.77735838 0,10.711135 0,12.6363635 L0,20.8017137 L0,31.3221706 L0,33.5918152 C0,34.7392467 0.90265896,35.1562822 1.72184971,35.6361299 C7.16578035,38.8248406 12.6127168,42.0135513 18.0564162,45.2022619 C18.372948,45.3876629 18.6910983,45.573064 19.0076301,45.758465 C19.5461272,46.0739269 20.2203468,46.0739269 20.7588439,45.758465 C26.8050867,42.2171655 32.8513295,38.6480792 38.897341,35.1065462 C39.3537572,34.8391858 39.603237,34.4644142 39.6957225,34.0632569 C39.7417341,33.8979371 39.7687861,33.7167391 39.7687861,33.5173279 L39.7687861,16.185602 C39.7687861,14.5527188 40.323237,11.6923127 38.6795376,10.7295817" id="Fill-1"></path>
                <path d="M9.36776879,19.3484406 C15.1000231,23.0244711 20.8325087,26.7009685 26.5652254,30.3772325 C29.0863815,31.9940041 31.5999075,28.0732629 29.0836069,26.4595269 C23.3513526,22.7834964 17.6188671,19.106999 11.8861503,15.4309685 C9.36476301,13.8137299 6.85123699,17.7347046 9.36776879,19.3484406" id="Fill-3"></path>
            </g>
        </g>
    </g>
</svg>