<?xml version="1.0" encoding="UTF-8" standalone="no"?>
<svg width="42px" height="28px" viewBox="0 0 42 28" version="1.1" xmlns="http://www.w3.org/2000/svg" xmlns:xlink="http://www.w3.org/1999/xlink">
    <!-- Generator: Sketch 3.6.1 (26313) - http://www.bohemiancoding.com/sketch -->
    <title>dafis</title>
    <desc>Created with Sketch.</desc>
    <defs></defs>
    <g id="Page-1" stroke="none" stroke-width="1" fill="none" fill-rule="evenodd">
        <g id="home" transform="translate(-609.000000, -801.000000)" fill="#78BE20">
            <g id="dafis" transform="translate(609.000000, 801.000000)">
                <g id="Layer_1">
                    <g id="Group">
                        <path d="M39.445,28 L1.715,28 C0.686,28 0,27.3205882 0,26.3014706 L0,2.52205882 C0,1.50294118 0.686,0.823529412 1.715,0.823529412 L39.445,0.823529412 C40.474,0.823529412 41.16,1.50294118 41.16,2.52205882 L41.16,26.3014706 C41.16,27.3205882 40.474,28 39.445,28 L39.445,28 Z M3.43,24.6029412 L37.73,24.6029412 L37.73,4.22058824 L3.43,4.22058824 L3.43,24.6029412 L3.43,24.6029412 Z" id="Shape"></path>
                        <path d="M20.58,21.2058824 C16.807,21.2058824 13.72,18.1485294 13.72,14.4117647 C13.72,10.675 16.807,7.61764706 20.58,7.61764706 C24.353,7.61764706 27.44,10.675 27.44,14.4117647 C27.44,18.1485294 24.353,21.2058824 20.58,21.2058824 L20.58,21.2058824 Z M20.58,11.0147059 C18.6935,11.0147059 17.15,12.5433824 17.15,14.4117647 C17.15,16.2801471 18.6935,17.8088235 20.58,17.8088235 C22.4665,17.8088235 24.01,16.2801471 24.01,14.4117647 C24.01,12.5433824 22.4665,11.0147059 20.58,11.0147059 L20.58,11.0147059 Z" id="Shape"></path>
                        <path d="M3.43,11.0147059 C2.5725,11.0147059 1.8865,10.8448529 1.029,10.675 C0.1715,10.3352941 -0.1715,9.31617647 0.1715,8.46691176 C0.5145,7.61764706 1.5435,7.10808824 2.401,7.44779412 C2.744,7.61764706 3.087,7.61764706 3.43,7.61764706 C5.3165,7.61764706 6.86,6.08897059 6.86,4.22058824 C6.86,3.88088235 6.86,3.54117647 6.6885,3.20147059 C6.3455,2.18235294 6.6885,1.33308824 7.7175,0.993382353 C8.575,0.653676471 9.604,0.993382353 9.947,1.84264706 C10.1185,2.69191176 10.29,3.37132353 10.29,4.22058824 C10.29,7.95735294 7.203,11.0147059 3.43,11.0147059 L3.43,11.0147059 Z" id="Shape"></path>
                        <path d="M37.73,11.0147059 C33.957,11.0147059 30.87,7.95735294 30.87,4.22058824 C30.87,3.37132353 31.0415,2.69191176 31.213,1.84264706 C31.556,0.993382353 32.585,0.483823529 33.4425,0.823529412 C34.3,1.16323529 34.8145,2.18235294 34.4715,3.03161765 C34.3,3.54117647 34.3,3.88088235 34.3,4.22058824 C34.3,6.08897059 35.8435,7.61764706 37.73,7.61764706 C38.073,7.61764706 38.416,7.61764706 38.759,7.44779412 C39.6165,7.10808824 40.6455,7.61764706 40.9885,8.46691176 C41.3315,9.31617647 40.817,10.3352941 39.9595,10.675 C39.2735,10.8448529 38.5875,11.0147059 37.73,11.0147059 L37.73,11.0147059 Z" id="Shape"></path>
                        <path d="M8.232,28 C8.0605,28 7.889,28 7.546,27.8301471 C6.6885,27.4904412 6.174,26.4713235 6.517,25.6220588 C6.86,25.2823529 6.86,24.9426471 6.86,24.6029412 C6.86,22.7345588 5.3165,21.2058824 3.43,21.2058824 C3.087,21.2058824 2.744,21.2058824 2.401,21.3757353 C1.5435,21.7154412 0.5145,21.2058824 0.1715,20.3566176 C-0.1715,19.5073529 0.343,18.4882353 1.2005,18.1485294 C1.8865,17.9786765 2.5725,17.8088235 3.43,17.8088235 C7.203,17.8088235 10.29,20.8661765 10.29,24.6029412 C10.29,25.4522059 10.1185,26.1316176 9.947,26.9808824 C9.604,27.6602941 8.918,28 8.232,28 L8.232,28 Z" id="Shape"></path>
                        <path d="M32.9279999,27.5342451 C32.2419999,27.5342451 31.556,27.6602941 31.3845,26.9808824 C31.0415,26.1316176 30.87,25.4522059 30.87,24.6029412 C30.87,20.8661765 33.957,17.8088235 37.73,17.8088235 C38.5875,17.8088235 39.2735,17.9786765 40.131,18.1485294 C40.9885,18.4882353 40.8753244,19.0433135 40.5323244,19.8925782 C40.1893244,20.7418429 39.788,21.7154412 38.9305,21.3757353 C38.416,21.2058824 38.073,21.2058824 37.73,21.2058824 C35.8435,21.2058824 34.3,22.7345588 34.3,24.6029412 C34.3,24.9426471 34.3,25.2823529 34.4715,25.6220588 C34.8145,26.4713235 34.3,27.4904412 33.4425,27.8301471 C33.271,28 33.0995,28 32.928,28 L32.9279999,27.5342451 Z" id="Shape"></path>
                    </g>
                </g>
            </g>
        </g>
    </g>
</svg>