<?xml version="1.0" encoding="UTF-8" standalone="no"?>
<svg width="27px" height="38px" viewBox="0 0 27 38" version="1.1" xmlns="http://www.w3.org/2000/svg" xmlns:xlink="http://www.w3.org/1999/xlink">
    <!-- Generator: Sketch 3.6.1 (26313) - http://www.bohemiancoding.com/sketch -->
    <title>form</title>
    <desc>Created with Sketch.</desc>
    <defs></defs>
    <g id="Page-1" stroke="none" stroke-width="1" fill="none" fill-rule="evenodd">
        <g id="home" transform="translate(-901.000000, -782.000000)" fill="#642667">
            <g id="form" transform="translate(901.000000, 782.000000)">
                <g id="Layer_1">
                    <g id="Group">
                        <path d="M25.5,38 L1.5,38 C0.6,38 0,37.3666667 0,36.4166667 L0,1.58333333 C0,0.633333333 0.6,0 1.5,0 L25.5,0 C26.4,0 27,0.633333333 27,1.58333333 L27,36.4166667 C27,37.3666667 26.4,38 25.5,38 L25.5,38 Z M3,34.8333333 L24,34.8333333 L24,3.16666667 L3,3.16666667 L3,34.8333333 L3,34.8333333 Z" id="Shape"></path>
                        <path d="M19.5,11.0833333 L7.5,11.0833333 C6.6,11.0833333 6,10.45 6,9.5 C6,8.55 6.6,7.91666667 7.5,7.91666667 L19.5,7.91666667 C20.4,7.91666667 21,8.55 21,9.5 C21,10.45 20.4,11.0833333 19.5,11.0833333 L19.5,11.0833333 Z" id="Shape"></path>
                        <path d="M13.5,17.4166667 L7.5,17.4166667 C6.6,17.4166667 6,16.7833333 6,15.8333333 C6,14.8833333 6.6,14.25 7.5,14.25 L13.5,14.25 C14.4,14.25 15,14.8833333 15,15.8333333 C15,16.7833333 14.4,17.4166667 13.5,17.4166667 L13.5,17.4166667 Z" id="Shape"></path>
                        <path d="M13.5,23.75 L7.5,23.75 C6.6,23.75 6,23.1166667 6,22.1666667 C6,21.2166667 6.6,20.5833333 7.5,20.5833333 L13.5,20.5833333 C14.4,20.5833333 15,21.2166667 15,22.1666667 C15,23.1166667 14.4,23.75 13.5,23.75 L13.5,23.75 Z" id="Shape"></path>
                        <path d="M19.5,17.4166667 L18,17.4166667 C17.1,17.4166667 16.5,16.7833333 16.5,15.8333333 C16.5,14.8833333 17.1,14.25 18,14.25 L19.5,14.25 C20.4,14.25 21,14.8833333 21,15.8333333 C21,16.7833333 20.4,17.4166667 19.5,17.4166667 L19.5,17.4166667 Z" id="Shape"></path>
                        <path d="M19.5,23.75 L18,23.75 C17.1,23.75 16.5,23.1166667 16.5,22.1666667 C16.5,21.2166667 17.1,20.5833333 18,20.5833333 L19.5,20.5833333 C20.4,20.5833333 21,21.2166667 21,22.1666667 C21,23.1166667 20.4,23.75 19.5,23.75 L19.5,23.75 Z" id="Shape"></path>
                        <path d="M16.5,30.0833333 L10.5,30.0833333 C9.6,30.0833333 9,29.45 9,28.5 C9,27.55 9.6,26.9166667 10.5,26.9166667 L16.5,26.9166667 C17.4,26.9166667 18,27.55 18,28.5 C18,29.45 17.4,30.0833333 16.5,30.0833333 L16.5,30.0833333 Z" id="Shape"></path>
                    </g>
                </g>
            </g>
        </g>
    </g>
</svg>