<?xml version="1.0" encoding="UTF-8"?>
<svg width="2048px" height="320px" viewBox="0 0 2048 320" version="1.1" xmlns="http://www.w3.org/2000/svg" xmlns:xlink="http://www.w3.org/1999/xlink">
    <!-- Generator: Sketch 55.2 (78181) - https://sketchapp.com -->
    <title>geometric_bg copy</title>
    <desc>Created with Sketch.</desc>
    <g id="geometric_bg-copy" stroke="none" stroke-width="1" fill="none" fill-rule="evenodd">
        <g id="Imported-Layers" transform="translate(-250.000000, -608.000000)">
            <polygon id="Fill-1" fill="#1E7FB2" points="0 0 2546.94697 0 2546.94697 1591.76095 0 1591.76095"></polygon>
            <polyline id="Fill-3" fill="#1E5895" points="1793.81193 785.764393 1886.71577 672.327949 1937.17448 537.408836 1903.41248 422.359865 1797.30162 295.025991 1686.50911 416.644415 1653.85156 543.528744 1714.35242 677.632311 1775.28419 753.669022 1793.81193 785.764393"></polyline>
            <polyline id="Fill-4" fill="#1E5895" points="1036.57862 804.12677 999.044508 718.078075 954.511121 661.95792 908.885216 705.921803 793.13527 941.666238 828.669964 1019.26641 874.311779 1082.28887 977.168947 981.307065 1036.57862 804.12677"></polyline>
            <polyline id="Fill-7" fill="#2D67A3" points="1130.80038 962.464643 1038.99966 799.927041 945.273771 962.290926 945.374538 962.464643 1130.80038 962.464643"></polyline>
            <polyline id="Fill-9" fill="#D9B84B" points="1270.82306 961.85862 1341.57292 1084.42387 1384.65182 1040.5369 1411.58559 963.135645 1391.72402 894.66826 1340.83441 841.676352 1291.62202 891.795948 1270.82306 961.85862"></polyline>
            <polyline id="Fill-10" fill="#004987" points="1340.83441 841.676352 1263.66601 835.32703 1200.13288 840.803785 1270.77401 961.970012 1312.0431 890.614401 1340.83441 841.676352"></polyline>
            <polyline id="Fill-12" fill="#366DA8" points="740.116302 290.559718 534.631343 646.229159 749.02351 1019.26641 954.220755 662.677987 879.716033 476.066536 740.116302 290.559718"></polyline>
            <polyline id="Fill-15" fill="#2868A3" points="534.920383 645.509092 400.215771 880.21122 450.354945 1047.17001 614.606613 1250.78857 711.993233 1165.96519 749.02351 1018.14719 534.920383 645.509092"></polyline>
            <polyline id="Fill-19" fill="#1A4386" points="2024.38901 686.583423 1788.4859 1017.99601 1788.4859 1098.02956 1903.89642 1297.85153 2140.45452 888.895787 2109.02074 753.239368 2024.38901 686.583423"></polyline>
            <polyline id="Fill-20" fill="#004987" points="1593.03514 840.692393 1415.14688 863.282347 1340.83441 841.676352 1340.83441 840.575697 1490.38348 581.50798 1643.93934 829.224361 1593.03514 840.692393"></polyline>
            <polyline id="Fill-21" fill="#F3D257" points="1690.80626 963.11708 1799.37396 785.764393 1653.75477 543.360331 1411.44637 963.11708 1690.80626 963.11708"></polyline>
            <polyline id="Fill-23" fill="#F3D257" points="1180.82023 563.345843 1011.64029 234.718041 966.425407 191.939684 896.411413 313.230563 1110.80756 684.631418 1180.82023 563.345843"></polyline>
            <polyline id="Fill-24" fill="#004987" points="1130.6373 731.17322 1200.13288 840.803785 1340.83441 841.676352 1230.40916 576.186378 1096.12087 416.644415 1026.05915 538.012207 1130.6373 731.17322"></polyline>
            <polyline id="Fill-25" fill="#00A475" points="1340.90335 840.692393 1340.83441 840.575697 1340.76679 840.692393 1340.90335 840.692393"></polyline>
            <polyline id="Fill-26" fill="#2D67A3" points="1305.34347 780.19216 1340.83441 841.676352 1490.38348 581.50798 1479.01015 499.936167 1415.69579 454.971086 1325.54047 558.615677 1267.7192 713.914151 1305.34347 780.19216"></polyline>
            <polyline id="Fill-27" fill="#D9B84B" points="1561.37066 703.735079 1797.4952 294.69049 1726.50801 171.716802 1492.38687 566.572221 1490.38348 581.50798 1561.37066 703.735079"></polyline>
            <polyline id="Fill-40" fill="#DAAA00" points="1411.74469 962.861144 1482.26649 841.676352 1340.83441 841.676352 1411.58559 963.135645 1411.74469 962.861144"></polyline>
            <polyline id="Fill-42" fill="#4978AF" points="2301.39946 609.241839 2098.55431 257.839757 1999.19347 374.177688 1937.17448 537.408836 1967.26249 640.833296 2024.74567 688.848386 2140.1973 888.496634 2301.39946 609.241839"></polyline>
            <polyline id="Fill-43" fill="#0F9375" points="2311.33952 1185.58735 2311.51851 1185.2797 2140.29541 888.6677 2140.11642 888.975353 2311.33952 1185.58735"></polyline>
            <polyline id="Fill-44" fill="#0F9375" points="2203.09136 779.542376 2203.18947 779.713442 2301.49625 609.410253 2301.39946 609.241839 2203.09136 779.542376"></polyline>
            <polyline id="Fill-45" fill="#0F9375" points="2202.37141 780.791553 2202.46952 780.959967 2203.18947 779.713442 2203.09136 779.542376 2202.37141 780.791553"></polyline>
            <polyline id="Fill-47" fill="#0F9375" points="2301.39946 609.241839 2301.43128 609.186143 2185.80066 408.877502 2185.77149 408.930545 2301.39946 609.241839"></polyline>
            <polyline id="Fill-52" fill="#1D4086" points="1411.82292 963.546733 1411.82292 963.546733 1480.37182 844.79797 1411.82292 963.546733"></polyline>
            <polyline id="Fill-53" fill="#BC9711" points="0 1253.2193 613.20384 1253.2193 614.606613 1250.78857 0 188.4335 0 1253.2193"></polyline>
            <polyline id="Fill-55" fill="#2B79CD" points="1200.13288 840.803785 1026.01142 538.123599 971.816402 576.296444 954.220755 662.677987 1199.65556 1085.17179 1270.77401 961.970012 1200.13288 840.803785"></polyline>
            <polyline id="Fill-59" fill="#DCBF54" points="398.258784 0 145.682831 441.2182 400.194558 880.768178 453.729289 786.683374 740.116302 290.559718 573.218194 0 398.258784 0"></polyline>
            <polyline id="Fill-69" fill="#345796" points="2447.63253 0 2248.54092 0 2144.59787 142.22322 2096.77234 261.90953 2181.45843 408.616262 2181.4876 408.561892 2299.34171 612.722827 2491.31338 377.935829 2547 184.30538 2547 0 2447.63253 0"></polyline>
            <polyline id="Fill-71" fill="#D9B84B" points="1560.91324 702.694098 1701.06321 945.482727 1690.82217 963.220515 1410.52356 963.220515 1560.91324 702.694098"></polyline>
            <polyline id="Fill-72" fill="#DAAA00" points="1937.16255 537.379662 1550.2824 1205.88051 1639.20598 1357.89293 2024.74965 688.848386 1937.16255 537.379662"></polyline>
            <polyline id="Fill-76" fill="#DCBF54" points="1238.96899 172.891718 1096.01878 416.822111 1267.7192 713.914151 1415.69579 454.971086 1238.96899 172.891718"></polyline>
            <polyline id="Fill-77" fill="#4978AF" points="1026.10821 537.92999 813.524528 164.333129 740.116302 290.559718 954.220755 662.677987 1026.10821 537.92999"></polyline>
            <polyline id="Fill-86" fill="#253A71" points="2547 184.30538 1903.41248 1297.2402 2073.42241 1591.76228 2547 1591.76228 2547 184.30538"></polyline>
        </g>
    </g>
</svg>