<?xml version="1.0" encoding="UTF-8"?>
<svg width="2048px" height="1536px" viewBox="0 0 2048 1536" version="1.1" xmlns="http://www.w3.org/2000/svg" xmlns:xlink="http://www.w3.org/1999/xlink">
    <!-- Generator: Sketch 52.6 (67491) - http://www.bohemiancoding.com/sketch -->
    <title>lines_bg</title>
    <desc>Created with Sketch.</desc>
    <defs>
        <linearGradient x1="2.38638231%" y1="48.3546217%" x2="95.3376685%" y2="48.3546227%" id="linearGradient-1">
            <stop stop-color="#1D3A5C" offset="0%"></stop>
            <stop stop-color="#3E90A1" offset="38.5542889%"></stop>
            <stop stop-color="#57A6A2" offset="51.1499522%"></stop>
            <stop stop-color="#8EB172" offset="58.1592793%"></stop>
            <stop stop-color="#A7B55B" offset="74.5754943%"></stop>
            <stop stop-color="#B0B44F" offset="79.7054369%"></stop>
            <stop stop-color="#DABA54" offset="100%"></stop>
        </linearGradient>
        <polygon id="path-2" points="0 0 2458 0 2458 1535.87712 0 1535.87712"></polygon>
        <polygon id="path-4" points="0.855469697 0 810 0 810 1002.2973 0.855469697 1002.2973"></polygon>
        <polygon id="path-6" points="0 0 2458 0 2458 1535.87712 0 1535.87712"></polygon>
    </defs>
    <g id="lines_bg" stroke="none" stroke-width="1" fill="none" fill-rule="evenodd">
        <rect fill="#008EAA" x="0" y="0" width="2048" height="1536"></rect>
        <rect id="Rectangle" fill="url(#linearGradient-1)" x="0" y="0" width="2048" height="1536"></rect>
        <g id="58064" transform="translate(-170.000000, 0.000000)">
            <g id="Group-11">
                <mask id="mask-3" fill="white">
                    <use xlink:href="#path-2"></use>
                </mask>
                <g id="Clip-2"></g>
                <polyline id="Fill-4" fill="#272525" mask="url(#mask-3)" points="337.796795 -0.002048 197.344627 -0.002048 255.998652 126.89408 337.796795 -0.002048"></polyline>
                <path d="M105.532182,987.8016 L383.638495,1154.37978 L491.407457,684.806144 L398.501202,483.815424 L0,767.064064 L0,924.59008 L105.183965,987.590656 C105.30072,987.660288 105.417475,987.731968 105.532182,987.8016" id="Fill-5" fill="#272525" mask="url(#mask-3)"></path>
                <polyline id="Fill-6" fill="#272525" mask="url(#mask-3)" points="2031.95486 1536 2458 1536 2458 1131.39302 2028.30268 1531.44934 2031.95486 1536"></polyline>
                <polyline id="Fill-7" fill="#272525" mask="url(#mask-3)" points="1603.61968 1536 2005.78535 1536 1751.92926 1219.79904 1603.61968 1536"></polyline>
                <path d="M850.61548,1457.8729 L529.678517,1265.63533 L405.453245,1536 L981.051298,1536 L850.834652,1458.00397 C850.76296,1457.95891 850.68922,1457.91795 850.61548,1457.8729" id="Fill-9" fill="#272525" mask="url(#mask-3)"></path>
                <polyline id="Fill-10" fill="#272525" mask="url(#mask-3)" points="1234.24578 1536 1517.71873 1536 1388.16369 1088.55091 1234.24578 1536"></polyline>
            </g>
            <path d="M833,1423 L661.748033,1052.89253 C661.674257,1052.74105 661.606629,1052.59163 661.541051,1052.44015 L617.136245,956.474916 C617.136245,956.472869 617.136245,956.472869 617.134195,956.472869 L505.404916,715 L402,1165.09829 L833,1423" id="Fill-12" fill="#272525"></path>
            <g id="Group-16" transform="translate(1648.000000, 0.000000)">
                <mask id="mask-5" fill="white">
                    <use xlink:href="#path-4"></use>
                </mask>
                <g id="Clip-14"></g>
                <polyline id="Fill-13" fill="#272525" mask="url(#mask-5)" points="389.377717 1002.2973 630.351212 986.411559 810 771.283045 810 725.035527 520.456616 604.522743 389.377717 1002.2973"></polyline>
                <path d="M108.710278,411.041698 C108.724614,411.047845 108.740997,411.053992 108.757381,411.060139 L810,702.924988 L810,-0.00204897959 L651.465884,-0.00204897959 L0.855469697,366.152653 L108.710278,411.041698" id="Fill-15" fill="#272525" mask="url(#mask-5)"></path>
            </g>
            <polyline id="Fill-17" fill="#272525" points="2150 596.622039 1773 440 2021.7909 985 2150 596.622039"></polyline>
            <g id="Group-33">
                <mask id="mask-7" fill="white">
                    <use xlink:href="#path-6"></use>
                </mask>
                <g id="Clip-19"></g>
                <path d="M1830.84335,1015.42093 C1831.00722,1015.40659 1831.17313,1015.39226 1831.33904,1015.38611 L2007.46499,1003.78214 L1744.9936,428.122112 L1631.57534,380.944384 L1403.63885,1043.56659 L1830.84335,1015.42093" id="Fill-18" fill="#272525" mask="url(#mask-7)"></path>
                <path d="M1379.3743,1051.37766 L1551.10247,552.15104 L1444.19995,333.033472 L1107.95579,650.252288 L1185.94608,1536 L1212.66454,1536 L1379.33128,1051.49645 C1379.34562,1051.45549 1379.35791,1051.41453 1379.3743,1051.37766" id="Fill-20" fill="#272525" mask="url(#mask-7)"></path>
                <polyline id="Fill-21" fill="#272525" mask="url(#mask-7)" points="1761.57691 1199.22688 2015.49445 1515.49747 2458 1103.5136 2458 994.545664 1838.43447 1035.3664 1761.57691 1199.22688"></polyline>
                <path d="M1740.48932,1196.14054 L1815.17565,1036.8983 L1402.32792,1064.10189 L1538.96404,1536 L1581.08392,1536 L1740.3234,1196.4887 C1740.37461,1196.37402 1740.42992,1196.25728 1740.48932,1196.14054" id="Fill-22" fill="#272525" mask="url(#mask-7)"></path>
                <path d="M718.348452,154.261504 L336.840223,301.785088 L627.664638,930.94912 L1207.32659,-0.002048 L1117.27571,-0.002048 L718.637267,154.148864 C718.543043,154.189824 718.446772,154.22464 718.348452,154.261504" id="Fill-23" fill="#272525" mask="url(#mask-7)"></path>
                <path d="M313.753458,300.474368 L245.322738,152.430592 C245.28382,152.346624 245.244902,152.264704 245.208032,152.180736 L174.86212,-0.002048 L0,-0.002048 L0,742.03136 L389.791688,464.973824 L313.753458,300.474368" id="Fill-24" fill="#272525" mask="url(#mask-7)"></path>
                <polyline id="Fill-25" fill="#272525" mask="url(#mask-7)" points="328.263852 283.226112 695.218672 141.328384 530.346273 -0.002048 362.07569 -0.002048 266.137902 148.826112 328.263852 283.226112"></polyline>
                <polyline id="Fill-26" fill="#272525" mask="url(#mask-7)" points="693.332157 -0.002048 561.698063 -0.002048 702.734007 120.895488 693.332157 -0.002048"></polyline>
                <path d="M637.906305,953.10848 L674.135177,1031.48544 L1090.3094,638.851072 C1090.34627,638.816256 1090.38109,638.783488 1090.42001,638.746624 L1434.82882,313.823232 L1281.7241,-0.002048 L1231.36583,-0.002048 L637.906305,953.10848" id="Fill-27" fill="#272525" mask="url(#mask-7)"></path>
                <polyline id="Fill-28" fill="#272525" mask="url(#mask-7)" points="683.162182 1051.01722 863.919405 1442.05414 1020.76029 1536 1165.4607 1536 1089.04353 668.096512 683.162182 1051.01722"></polyline>
                <polyline id="Fill-29" fill="#272525" mask="url(#mask-7)" points="1560.48998 524.857344 1741.03827 -0.002048 1304.42783 -0.002048 1560.48998 524.857344"></polyline>
                <polyline id="Fill-30" fill="#272525" mask="url(#mask-7)" points="2257.81638 -0.002048 1762.61746 -0.002048 1643.83051 345.315328 2257.81638 -0.002048"></polyline>
                <path d="M512.066947,1255.08813 L385.162455,1179.07661 C385.10715,1179.04384 385.047748,1179.00902 384.992443,1178.97421 L110.986893,1014.85363 L129.493585,1536 L382.997367,1536 L512.066947,1255.08813" id="Fill-31" fill="#272525" mask="url(#mask-7)"></path>
                <polygon id="Fill-32" fill="#272525" mask="url(#mask-7)" points="1113.37158 -15.2539063 713.801152 -0.002048 723.926063 130.228224"></polygon>
            </g>
        </g>
    </g>
</svg>