<?xml version="1.0" encoding="UTF-8"?>
<svg width="393px" height="54px" viewBox="0 0 393 54" version="1.1" xmlns="http://www.w3.org/2000/svg" xmlns:xlink="http://www.w3.org/1999/xlink">
    <!-- Generator: Sketch 63.1 (92452) - https://sketch.com -->
    <title>Group</title>
    <desc>Created with Sketch.</desc>
    <g id="Page-1" stroke="none" stroke-width="1" fill="none" fill-rule="evenodd">
        <g id="email-template" transform="translate(-180.000000, -197.000000)" fill="#1F1F1F" fill-rule="nonzero">
            <g id="Group" transform="translate(178.000000, 189.000000)">
                <path d="M6.768,33 L6.768,24.036 L13.104,24.036 C18.108,24.036 20.952,20.58 20.952,16.512 C20.952,12.444 18.144,8.988 13.104,8.988 L2.556,8.988 L2.556,33 L6.768,33 Z M12.528,20.328 L6.768,20.328 L6.768,12.696 L12.528,12.696 C14.904,12.696 16.632,14.208 16.632,16.512 C16.632,18.816 14.904,20.328 12.528,20.328 Z M40.9247989,33 L40.9247989,29.292 L28.6847989,29.292 L28.6847989,22.632 L40.6727989,22.632 L40.6727989,18.924 L28.6847989,18.924 L28.6847989,12.696 L40.9247989,12.696 L40.9247989,8.988 L24.4727989,8.988 L24.4727989,33 L40.9247989,33 Z M47.5415978,33 L49.3055978,28.392 L60.3215978,28.392 L62.0855978,33 L66.8735978,33 L57.4415978,8.988 L52.1855978,8.988 L42.7535978,33 L47.5415978,33 Z M59.1335978,24.684 L50.4935978,24.684 L54.8135978,13.236 L59.1335978,24.684 Z M73.7423966,33 L73.7423966,25.332 L75.8303966,22.884 L83.8943966,33 L89.0783966,33 L78.6023966,20.328 L88.3583966,8.988 L83.1383966,8.988 L73.7423966,20.436 L73.7423966,8.988 L69.5303966,8.988 L69.5303966,33 L73.7423966,33 Z M100.123196,33.432 C106.603196,33.432 109.411196,30.012 109.411196,26.016 C109.411196,17.052 95.4431955,19.824 95.4431955,15.36 C95.4431955,13.56 97.0271955,12.372 99.5111955,12.372 C102.031196,12.372 104.587196,13.236 106.459196,15.108 L108.871196,11.976 C106.639196,9.816 103.615196,8.628 99.8711955,8.628 C94.6151955,8.628 91.1231955,11.688 91.1231955,15.648 C91.1231955,24.504 105.127196,21.372 105.127196,26.412 C105.127196,27.996 103.759196,29.688 100.303196,29.688 C96.9551955,29.688 94.3631955,28.14 92.7071955,26.376 L90.3671955,29.616 C92.4911955,31.884 95.6951955,33.432 100.123196,33.432 Z" id="PEAKS"></path>
                <path d="M4.76,58 L4.76,53.02 L8.28,53.02 C11.06,53.02 12.64,51.1 12.64,48.84 C12.64,46.58 11.08,44.66 8.28,44.66 L2.42,44.66 L2.42,58 L4.76,58 Z M7.96,50.96 L4.76,50.96 L4.76,46.72 L7.96,46.72 C9.28,46.72 10.24,47.56 10.24,48.84 C10.24,50.12 9.28,50.96 7.96,50.96 Z M18.6959994,58.24 C20.2359994,58.24 21.6559994,57.76 22.6159994,56.84 L21.6559994,55.46 C20.9759994,56.14 19.8559994,56.52 18.9159994,56.52 C17.0959994,56.52 15.9959994,55.32 15.8359994,53.86 L23.2959994,53.86 L23.2959994,53.36 C23.2959994,50.32 21.4359994,48.1 18.5359994,48.1 C15.6759994,48.1 13.6359994,50.36 13.6359994,53.16 C13.6359994,56.22 15.7959994,58.24 18.6959994,58.24 Z M21.2559994,52.38 L15.8159994,52.38 C15.9159994,51.2 16.7359994,49.82 18.5359994,49.82 C20.4359994,49.82 21.2159994,51.24 21.2559994,52.38 Z M29.7519988,58.24 C32.8519988,58.24 34.7319988,55.94 34.7319988,53.16 C34.7319988,50.4 32.8519988,48.1 29.7519988,48.1 C26.6919988,48.1 24.7919988,50.4 24.7919988,53.16 C24.7919988,55.94 26.6919988,58.24 29.7519988,58.24 Z M29.7519988,56.38 C27.9719988,56.38 26.9719988,54.88 26.9719988,53.16 C26.9719988,51.46 27.9719988,49.96 29.7519988,49.96 C31.5519988,49.96 32.5519988,51.46 32.5519988,53.16 C32.5519988,54.88 31.5519988,56.38 29.7519988,56.38 Z M38.9679981,61.68 L38.9679981,56.66 C39.7479981,57.7 40.8479981,58.24 42.0679981,58.24 C44.5679981,58.24 46.3479981,56.34 46.3479981,53.16 C46.3479981,49.98 44.5679981,48.1 42.0679981,48.1 C40.8079981,48.1 39.6879981,48.7 38.9679981,49.66 L38.9679981,48.34 L36.8679981,48.34 L36.8679981,61.68 L38.9679981,61.68 Z M41.4479981,56.38 C40.4679981,56.38 39.4279981,55.78 38.9679981,55.08 L38.9679981,51.26 C39.4279981,50.54 40.4679981,49.96 41.4479981,49.96 C43.1079981,49.96 44.1679981,51.3 44.1679981,53.16 C44.1679981,55.04 43.1079981,56.38 41.4479981,56.38 Z M50.5439975,58 L50.5439975,44.66 L48.4439975,44.66 L48.4439975,58 L50.5439975,58 Z M57.7399969,58.24 C59.2799969,58.24 60.6999969,57.76 61.6599969,56.84 L60.6999969,55.46 C60.0199969,56.14 58.8999969,56.52 57.9599969,56.52 C56.1399969,56.52 55.0399969,55.32 54.8799969,53.86 L62.3399969,53.86 L62.3399969,53.36 C62.3399969,50.32 60.4799969,48.1 57.5799969,48.1 C54.7199969,48.1 52.6799969,50.36 52.6799969,53.16 C52.6799969,56.22 54.8399969,58.24 57.7399969,58.24 Z M60.2999969,52.38 L54.8599969,52.38 C54.9599969,51.2 55.7799969,49.82 57.5799969,49.82 C59.4799969,49.82 60.2599969,51.24 60.2999969,52.38 Z M65.0559963,60.66 C66.1559963,59.88 66.9359963,58.62 66.9359963,57.24 C66.9359963,56.08 66.1959963,55.42 65.3759963,55.42 C64.6359963,55.42 64.0159963,56.04 64.0159963,56.8 C64.0159963,57.54 64.5359963,58.06 65.2159963,58.06 C65.3359963,58.06 65.4959963,58.02 65.5559963,58 C65.4159963,58.68 64.7559963,59.5 64.1159963,59.88 L65.0559963,60.66 Z M83.607995,58 L83.607995,55.94 L76.807995,55.94 L76.807995,52.24 L83.467995,52.24 L83.467995,50.18 L76.807995,50.18 L76.807995,46.72 L83.607995,46.72 L83.607995,44.66 L74.467995,44.66 L74.467995,58 L83.607995,58 Z M94.8039944,61.68 L94.8039944,48.34 L92.7039944,48.34 L92.7039944,49.66 C91.9839944,48.7 90.8639944,48.1 89.6039944,48.1 C87.1039944,48.1 85.3239944,49.98 85.3239944,53.16 C85.3239944,56.34 87.1039944,58.24 89.6039944,58.24 C90.8239944,58.24 91.9239944,57.7 92.7039944,56.66 L92.7039944,61.68 L94.8039944,61.68 Z M90.2239944,56.38 C88.5639944,56.38 87.5039944,55.04 87.5039944,53.16 C87.5039944,51.3 88.5639944,49.96 90.2239944,49.96 C91.2039944,49.96 92.2439944,50.54 92.7039944,51.26 L92.7039944,55.08 C92.2439944,55.78 91.2039944,56.38 90.2239944,56.38 Z M100.639994,58.24 C102.159994,58.24 103.359994,57.5 104.059994,56.72 L104.059994,58 L106.159994,58 L106.159994,48.34 L104.059994,48.34 L104.059994,55.12 C103.559994,55.78 102.639994,56.38 101.579994,56.38 C100.399994,56.38 99.6399938,55.92 99.6399938,54.42 L99.6399938,48.34 L97.5399938,48.34 L97.5399938,55.18 C97.5399938,57.16 98.5599938,58.24 100.639994,58.24 Z M109.935993,47.16 C110.655993,47.16 111.235993,46.58 111.235993,45.86 C111.235993,45.14 110.655993,44.56 109.935993,44.56 C109.235993,44.56 108.635993,45.14 108.635993,45.86 C108.635993,46.58 109.235993,47.16 109.935993,47.16 Z M110.995993,58 L110.995993,48.34 L108.895993,48.34 L108.895993,58 L110.995993,58 Z M115.831993,61.68 L115.831993,56.66 C116.611993,57.7 117.711993,58.24 118.931993,58.24 C121.431993,58.24 123.211993,56.34 123.211993,53.16 C123.211993,49.98 121.431993,48.1 118.931993,48.1 C117.671993,48.1 116.551993,48.7 115.831993,49.66 L115.831993,48.34 L113.731993,48.34 L113.731993,61.68 L115.831993,61.68 Z M118.311993,56.38 C117.331993,56.38 116.291993,55.78 115.831993,55.08 L115.831993,51.26 C116.291993,50.54 117.331993,49.96 118.311993,49.96 C119.971993,49.96 121.031993,51.3 121.031993,53.16 C121.031993,55.04 119.971993,56.38 118.311993,56.38 Z M127.407992,58 L127.407992,51.26 C127.847992,50.62 128.707992,49.96 129.627992,49.96 C130.767992,49.96 131.227992,50.66 131.227992,51.7 L131.227992,58 L133.327992,58 L133.327992,51.24 C133.747992,50.62 134.627992,49.96 135.567992,49.96 C136.687992,49.96 137.147992,50.66 137.147992,51.7 L137.147992,58 L139.247992,58 L139.247992,51.02 C139.247992,49.06 138.247992,48.1 136.467992,48.1 C135.027992,48.1 133.747992,49 133.187992,49.88 C132.867992,48.82 131.987992,48.1 130.547992,48.1 C129.087992,48.1 127.807992,49.06 127.407992,49.66 L127.407992,48.34 L125.307992,48.34 L125.307992,58 L127.407992,58 Z M146.443991,58.24 C147.983991,58.24 149.403991,57.76 150.363991,56.84 L149.403991,55.46 C148.723991,56.14 147.603991,56.52 146.663991,56.52 C144.843991,56.52 143.743991,55.32 143.583991,53.86 L151.043991,53.86 L151.043991,53.36 C151.043991,50.32 149.183991,48.1 146.283991,48.1 C143.423991,48.1 141.383991,50.36 141.383991,53.16 C141.383991,56.22 143.543991,58.24 146.443991,58.24 Z M149.003991,52.38 L143.563991,52.38 C143.663991,51.2 144.483991,49.82 146.283991,49.82 C148.183991,49.82 148.963991,51.24 149.003991,52.38 Z M155.239991,58 L155.239991,51.26 C155.719991,50.6 156.639991,49.96 157.719991,49.96 C158.899991,49.96 159.659991,50.46 159.659991,51.96 L159.659991,58 L161.759991,58 L161.759991,51.2 C161.759991,49.22 160.719991,48.1 158.639991,48.1 C157.119991,48.1 155.879991,48.9 155.239991,49.66 L155.239991,48.34 L153.139991,48.34 L153.139991,58 L155.239991,58 Z M167.39599,58.24 C168.37599,58.24 168.99599,57.98 169.37599,57.62 L168.87599,56.04 C168.71599,56.22 168.33599,56.38 167.93599,56.38 C167.33599,56.38 167.01599,55.9 167.01599,55.24 L167.01599,50.18 L168.97599,50.18 L168.97599,48.34 L167.01599,48.34 L167.01599,45.7 L164.91599,45.7 L164.91599,48.34 L163.31599,48.34 L163.31599,50.18 L164.91599,50.18 L164.91599,55.76 C164.91599,57.36 165.77599,58.24 167.39599,58.24 Z M171.611989,60.66 C172.711989,59.88 173.491989,58.62 173.491989,57.24 C173.491989,56.08 172.751989,55.42 171.931989,55.42 C171.191989,55.42 170.571989,56.04 170.571989,56.8 C170.571989,57.54 171.091989,58.06 171.771989,58.06 C171.891989,58.06 172.051989,58.02 172.111989,58 C171.971989,58.68 171.311989,59.5 170.671989,59.88 L171.611989,60.66 Z M182.283988,58 L183.263988,55.44 L189.383988,55.44 L190.363988,58 L193.023988,58 L187.783988,44.66 L184.863988,44.66 L179.623988,58 L182.283988,58 Z M188.723988,53.38 L183.923988,53.38 L186.323988,47.02 L188.723988,53.38 Z M198.839988,58.24 C200.719988,58.24 201.859988,57.44 202.539988,56.52 L201.159988,55.24 C200.619988,55.98 199.879988,56.38 198.939988,56.38 C197.179988,56.38 196.019988,55.04 196.019988,53.16 C196.019988,51.28 197.179988,49.96 198.939988,49.96 C199.879988,49.96 200.619988,50.34 201.159988,51.1 L202.539988,49.82 C201.859988,48.9 200.719988,48.1 198.839988,48.1 C195.899988,48.1 193.839988,50.24 193.839988,53.16 C193.839988,56.1 195.899988,58.24 198.839988,58.24 Z M208.795987,58.24 C210.675987,58.24 211.815987,57.44 212.495987,56.52 L211.115987,55.24 C210.575987,55.98 209.835987,56.38 208.895987,56.38 C207.135987,56.38 205.975987,55.04 205.975987,53.16 C205.975987,51.28 207.135987,49.96 208.895987,49.96 C209.835987,49.96 210.575987,50.34 211.115987,51.1 L212.495987,49.82 C211.815987,48.9 210.675987,48.1 208.795987,48.1 C205.855987,48.1 203.795987,50.24 203.795987,53.16 C203.795987,56.1 205.855987,58.24 208.795987,58.24 Z M218.811986,58.24 C220.351986,58.24 221.771986,57.76 222.731986,56.84 L221.771986,55.46 C221.091986,56.14 219.971986,56.52 219.031986,56.52 C217.211986,56.52 216.111986,55.32 215.951986,53.86 L223.411986,53.86 L223.411986,53.36 C223.411986,50.32 221.551986,48.1 218.651986,48.1 C215.791986,48.1 213.751986,50.36 213.751986,53.16 C213.751986,56.22 215.911986,58.24 218.811986,58.24 Z M221.371986,52.38 L215.931986,52.38 C216.031986,51.2 216.851986,49.82 218.651986,49.82 C220.551986,49.82 221.331986,51.24 221.371986,52.38 Z M228.807986,58.24 C231.407986,58.24 232.827986,56.94 232.827986,55.24 C232.827986,51.4 226.987986,52.68 226.987986,50.96 C226.987986,50.28 227.687986,49.78 228.787986,49.78 C229.987986,49.78 231.067986,50.28 231.647986,50.94 L232.527986,49.46 C231.647986,48.68 230.407986,48.1 228.767986,48.1 C226.327986,48.1 224.967986,49.46 224.967986,51.04 C224.967986,54.74 230.807986,53.38 230.807986,55.28 C230.807986,56.04 230.167986,56.58 228.907986,56.58 C227.647986,56.58 226.307986,55.92 225.627986,55.22 L224.667986,56.74 C225.667986,57.72 227.167986,58.24 228.807986,58.24 Z M238.263985,58.24 C240.863985,58.24 242.283985,56.94 242.283985,55.24 C242.283985,51.4 236.443985,52.68 236.443985,50.96 C236.443985,50.28 237.143985,49.78 238.243985,49.78 C239.443985,49.78 240.523985,50.28 241.103985,50.94 L241.983985,49.46 C241.103985,48.68 239.863985,48.1 238.223985,48.1 C235.783985,48.1 234.423985,49.46 234.423985,51.04 C234.423985,54.74 240.263985,53.38 240.263985,55.28 C240.263985,56.04 239.623985,56.58 238.363985,56.58 C237.103985,56.58 235.763985,55.92 235.083985,55.22 L234.123985,56.74 C235.123985,57.72 236.623985,58.24 238.263985,58.24 Z M245.139984,60.66 C246.239984,59.88 247.019984,58.62 247.019984,57.24 C247.019984,56.08 246.279984,55.42 245.459984,55.42 C244.719984,55.42 244.099984,56.04 244.099984,56.8 C244.099984,57.54 244.619984,58.06 245.299984,58.06 C245.419984,58.06 245.579984,58.02 245.639984,58 C245.499984,58.68 244.839984,59.5 244.199984,59.88 L245.139984,60.66 Z M256.891983,58 L256.891983,53.74 L258.051983,52.38 L262.531983,58 L265.411983,58 L259.591983,50.96 L265.011983,44.66 L262.111983,44.66 L256.891983,51.02 L256.891983,44.66 L254.551983,44.66 L254.551983,58 L256.891983,58 Z M270.787983,58.24 C272.327983,58.24 273.747983,57.76 274.707983,56.84 L273.747983,55.46 C273.067983,56.14 271.947983,56.52 271.007983,56.52 C269.187983,56.52 268.087983,55.32 267.927983,53.86 L275.387983,53.86 L275.387983,53.36 C275.387983,50.32 273.527983,48.1 270.627983,48.1 C267.767983,48.1 265.727983,50.36 265.727983,53.16 C265.727983,56.22 267.887983,58.24 270.787983,58.24 Z M273.347983,52.38 L267.907983,52.38 C268.007983,51.2 268.827983,49.82 270.627983,49.82 C272.527983,49.82 273.307983,51.24 273.347983,52.38 Z M278.243982,61.92 C279.743982,61.9 280.903982,61.38 281.563982,59.74 L286.223982,48.34 L283.963982,48.34 L281.143982,55.58 L278.323982,48.34 L276.083982,48.34 L280.043982,58.12 L279.563982,59.22 C279.283982,59.86 278.843982,60.06 278.183982,60.06 C277.943982,60.06 277.603982,60 277.383982,59.9 L277.063982,61.78 C277.363982,61.86 277.943982,61.92 278.243982,61.92 Z M290.859981,58.24 C293.459981,58.24 294.879981,56.94 294.879981,55.24 C294.879981,51.4 289.039981,52.68 289.039981,50.96 C289.039981,50.28 289.739981,49.78 290.839981,49.78 C292.039981,49.78 293.119981,50.28 293.699981,50.94 L294.579981,49.46 C293.699981,48.68 292.459981,48.1 290.819981,48.1 C288.379981,48.1 287.019981,49.46 287.019981,51.04 C287.019981,54.74 292.859981,53.38 292.859981,55.28 C292.859981,56.04 292.219981,56.58 290.959981,56.58 C289.699981,56.58 288.359981,55.92 287.679981,55.22 L286.719981,56.74 C287.719981,57.72 289.219981,58.24 290.859981,58.24 Z M304.95198,58.24 C306.23198,58.24 307.35198,57.78 308.07198,56.96 L308.07198,58 L310.17198,58 L310.17198,51.6 C310.17198,49 308.29198,48.1 306.15198,48.1 C304.61198,48.1 303.21198,48.6 302.09198,49.66 L302.95198,51.12 C303.79198,50.3 304.73198,49.9 305.81198,49.9 C307.15198,49.9 308.07198,50.58 308.07198,51.7 L308.07198,53.14 C307.37198,52.32 306.25198,51.9 304.95198,51.9 C303.37198,51.9 301.59198,52.82 301.59198,55.04 C301.59198,57.18 303.37198,58.24 304.95198,58.24 Z M305.77198,56.8 C304.59198,56.8 303.71198,56.12 303.71198,55.08 C303.71198,54.02 304.59198,53.34 305.77198,53.34 C306.69198,53.34 307.59198,53.68 308.07198,54.34 L308.07198,55.8 C307.59198,56.46 306.69198,56.8 305.77198,56.8 Z M315.007979,58 L315.007979,51.26 C315.487979,50.6 316.407979,49.96 317.487979,49.96 C318.667979,49.96 319.427979,50.46 319.427979,51.96 L319.427979,58 L321.527979,58 L321.527979,51.2 C321.527979,49.22 320.487979,48.1 318.407979,48.1 C316.887979,48.1 315.647979,48.9 315.007979,49.66 L315.007979,48.34 L312.907979,48.34 L312.907979,58 L315.007979,58 Z M327.963979,58.24 C329.203979,58.24 330.323979,57.64 331.063979,56.68 L331.063979,58 L333.163979,58 L333.163979,44.66 L331.063979,44.66 L331.063979,49.68 C330.283979,48.66 329.163979,48.1 327.963979,48.1 C325.463979,48.1 323.663979,50.06 323.663979,53.18 C323.663979,56.36 325.483979,58.24 327.963979,58.24 Z M328.563979,56.38 C326.903979,56.38 325.843979,55.04 325.843979,53.18 C325.843979,51.3 326.903979,49.96 328.563979,49.96 C329.563979,49.96 330.583979,50.54 331.063979,51.26 L331.063979,55.1 C330.583979,55.82 329.563979,56.38 328.563979,56.38 Z M345.675978,58.24 C349.275978,58.24 350.835978,56.34 350.835978,54.12 C350.835978,49.14 343.075978,50.68 343.075978,48.2 C343.075978,47.2 343.955978,46.54 345.335978,46.54 C346.735978,46.54 348.155978,47.02 349.195978,48.06 L350.535978,46.32 C349.295978,45.12 347.615978,44.46 345.535978,44.46 C342.615978,44.46 340.675978,46.16 340.675978,48.36 C340.675978,53.28 348.455978,51.54 348.455978,54.34 C348.455978,55.22 347.695978,56.16 345.775978,56.16 C343.915978,56.16 342.475978,55.3 341.555978,54.32 L340.255978,56.12 C341.435978,57.38 343.215978,58.24 345.675978,58.24 Z M355.051977,61.68 L355.051977,56.66 C355.831977,57.7 356.931977,58.24 358.151977,58.24 C360.651977,58.24 362.431977,56.34 362.431977,53.16 C362.431977,49.98 360.651977,48.1 358.151977,48.1 C356.891977,48.1 355.771977,48.7 355.051977,49.66 L355.051977,48.34 L352.951977,48.34 L352.951977,61.68 L355.051977,61.68 Z M357.531977,56.38 C356.551977,56.38 355.511977,55.78 355.051977,55.08 L355.051977,51.26 C355.511977,50.54 356.551977,49.96 357.531977,49.96 C359.191977,49.96 360.251977,51.3 360.251977,53.16 C360.251977,55.04 359.191977,56.38 357.531977,56.38 Z M367.307976,58.24 C368.587976,58.24 369.707976,57.78 370.427976,56.96 L370.427976,58 L372.527976,58 L372.527976,51.6 C372.527976,49 370.647976,48.1 368.507976,48.1 C366.967976,48.1 365.567976,48.6 364.447976,49.66 L365.307976,51.12 C366.147976,50.3 367.087976,49.9 368.167976,49.9 C369.507976,49.9 370.427976,50.58 370.427976,51.7 L370.427976,53.14 C369.727976,52.32 368.607976,51.9 367.307976,51.9 C365.727976,51.9 363.947976,52.82 363.947976,55.04 C363.947976,57.18 365.727976,58.24 367.307976,58.24 Z M368.127976,56.8 C366.947976,56.8 366.067976,56.12 366.067976,55.08 C366.067976,54.02 366.947976,53.34 368.127976,53.34 C369.047976,53.34 369.947976,53.68 370.427976,54.34 L370.427976,55.8 C369.947976,56.46 369.047976,56.8 368.127976,56.8 Z M379.663976,58.24 C381.543976,58.24 382.683976,57.44 383.363976,56.52 L381.983976,55.24 C381.443976,55.98 380.703976,56.38 379.763976,56.38 C378.003976,56.38 376.843976,55.04 376.843976,53.16 C376.843976,51.28 378.003976,49.96 379.763976,49.96 C380.703976,49.96 381.443976,50.34 381.983976,51.1 L383.363976,49.82 C382.683976,48.9 381.543976,48.1 379.663976,48.1 C376.723976,48.1 374.663976,50.24 374.663976,53.16 C374.663976,56.1 376.723976,58.24 379.663976,58.24 Z M389.679975,58.24 C391.219975,58.24 392.639975,57.76 393.599975,56.84 L392.639975,55.46 C391.959975,56.14 390.839975,56.52 389.899975,56.52 C388.079975,56.52 386.979975,55.32 386.819975,53.86 L394.279975,53.86 L394.279975,53.36 C394.279975,50.32 392.419975,48.1 389.519975,48.1 C386.659975,48.1 384.619975,50.36 384.619975,53.16 C384.619975,56.22 386.779975,58.24 389.679975,58.24 Z M392.239975,52.38 L386.799975,52.38 C386.899975,51.2 387.719975,49.82 389.519975,49.82 C391.419975,49.82 392.199975,51.24 392.239975,52.38 Z" id="People,Equipment,Access,KeysandSpace"></path>
            </g>
        </g>
    </g>
</svg>