<?xml version="1.0" encoding="UTF-8"?>
<svg width="529px" height="122px" viewBox="0 0 529 122" version="1.1" xmlns="http://www.w3.org/2000/svg" xmlns:xlink="http://www.w3.org/1999/xlink">
    <!-- Generator: Sketch 52.6 (67491) - http://www.bohemiancoding.com/sketch -->
    <title>tablet_logo</title>
    <desc>Created with Sketch.</desc>
    <g id="Page-1" stroke="none" stroke-width="1" fill="none" fill-rule="evenodd">
        <g id="bluetest" transform="translate(-1414.000000, -1330.000000)" fill="#FFFFFF">
            <g id="tablet_logo" transform="translate(1414.000000, 1330.000000)">
                <path d="M234.218292,40.8510466 L238.491621,29.4347359 L239.229623,30.084367 C241.848645,32.2446291 245.405225,34.0836583 248.757527,34.1565029 C251.757949,34.225765 253.222145,33.4185029 252.823033,30.8510272 C252.529013,28.9343767 250.385855,28.5964252 249.049185,28.3313184 L246.116069,27.7390078 C240.410426,26.6582796 235.61046,23.0972505 235.61046,16.3513573 C235.61046,6.14832816 244.302355,0.429425243 253.046205,0.429425243 C257.63835,0.429425243 261.856181,1.61285243 265.800065,4.20779417 L262.095884,14.3260369 C260.06254,12.844066 256.986547,10.7602311 253.094618,10.6181243 C251.814627,10.5691631 248.87915,11.2486485 249.82025,14.2567748 C250.226446,15.5393184 252.042522,16.0778913 253.158382,16.3513573 L256.472897,17.1598136 C262.653223,18.617901 267.12965,22.1765417 267.12965,29.4633961 C267.12965,39.7177748 258.382257,44.7918233 249.696266,44.7918233 C244.624714,44.7918233 238.75494,43.3313476 234.218292,40.8510466 L234.218292,40.8510466 Z" id="Fill-1"></path>
                <polygon id="Fill-3" points="216.18506 44.1462524 231.072632 44.1462524 231.072632 1.12968932 216.18506 1.12968932"></polygon>
                <polygon id="Fill-5" points="199.400764 1.1295699 214.648481 1.1295699 199.073681 44.146133 186.701222 44.146133 171.177197 1.1295699 186.371777 1.1295699 192.887452 27.0873466"></polygon>
                <path d="M157.250446,13.5458825 L157.250446,13.5458825 C157.52203,15.3765524 160.185923,28.5423291 160.185923,28.5423291 L154.333861,28.5423291 L157.250446,13.5458825 Z M135.061966,44.1466107 L150.530492,44.1466107 L151.707754,38.7453583 L162.741182,38.7453583 L164.208921,44.1466107 L179.685713,44.1466107 L165.198434,1.13004757 L148.971832,1.13004757 L135.061966,44.1466107 Z" id="Fill-6"></path>
                <path d="M96.8149114,1.1295699 L112.063809,1.1295699 C125.671389,1.1295699 136.068365,7.44794854 136.068365,23.2600165 C136.068365,35.9982786 127.594918,44.146133 115.69478,44.146133 L96.8149114,44.1234437 L96.8149114,1.1295699 Z M111.80049,31.7959777 L112.80063,31.7959777 C117.705688,31.7959777 121.344925,28.8177058 121.344925,23.2038903 C121.344925,17.1601718 118.121331,13.7890165 112.732144,13.7890165 L111.80049,13.7890165 L111.80049,31.7959777 Z" id="Fill-7"></path>
                <path d="M87.9116525,2.47886796 L88.7063333,9.53882913 C88.8929002,11.2142563 89.8399047,15.2350427 88.6697283,14.6952757 C87.9376301,14.3644893 87.3366011,12.5421786 86.7402953,10.9228777 C86.435648,10.1000913 84.9856212,6.2142466 84.6065833,5.93003301 C82.7727953,4.54359612 78.2019047,2.98042136 75.1105609,2.96489709 C65.7337998,2.93026602 59.5310386,9.92574175 59.5310386,22.3415767 C59.5310386,31.2465379 63.7453266,41.9272369 74.4682038,41.9272369 C78.3093578,41.9272369 85.6693065,40.7044019 87.6707685,35.1753728 C88.5764449,32.6723825 89.4065498,30.4488291 90.0040364,31.124732 C90.4503801,31.616732 89.8706056,33.6217515 89.603744,34.7000913 C88.3391033,39.8242951 88.2729783,41.3791107 87.8726859,41.5761495 C83.0278489,44.039732 76.8144605,44.8481883 71.37686,44.8481883 C54.0851725,44.8481883 48.1162105,34.6463534 48.1162105,24.4469068 C48.1162105,6.74565437 58.8662462,-0.710772816 75.5297462,0.0534990291 C79.745215,0.212324272 83.9642261,0.970625243 87.9116525,2.47886796" id="Fill-8"></path>
                <path d="M36.858075,3.26367961 L34.0879098,2.28684466 C33.1621598,1.44017476 34.2933696,1.20372816 34.2933696,1.20372816 C34.2933696,1.20372816 38.2951129,1.95486408 48.2634567,1.09983495 C48.2634567,1.09983495 49.1289857,1.27418447 48.5314991,1.98471845 L45.2606732,3.40100971 C43.1305036,4.34201942 43.1305036,3.80225243 43.1305036,6.1643301 L43.1116107,28.0869903 C43.1116107,45.2329515 25.8671554,44.8484272 22.5101308,44.8484272 C20.9077804,44.8484272 5.09209732,44.8484272 5.09209732,31.0843689 L5.09209732,7.8767767 C5.09209732,3.8321068 5.52072902,3.93719417 4.1911442,3.46430097 L0.190581696,1.94531068 C0.190581696,1.94531068 -0.489561161,0.974446602 0.7207625,1.03773786 C3.99040759,1.20372816 8.7230683,1.91187379 19.8556844,1.09983495 C19.8556844,1.09983495 20.8239433,1.3386699 20.1863094,2.04681553 L16.8588049,2.99379612 C14.3248004,4.14259223 14.6589679,3.26367961 14.5928429,5.8944466 L14.6731375,28.7772233 C14.6731375,34.3874563 17.5271397,41.335165 26.5059701,41.335165 C38.7284679,41.335165 38.8430058,30.6425243 38.8430058,28.2661165 L38.8654411,5.59829126 C38.9965103,3.46430097 38.7284679,4.07213592 36.858075,3.26367961" id="Fill-9"></path>
                <polygon id="Fill-10" points="5.09634821 55.473 528.16281 55.473 528.16281 53.6781553 5.09634821 53.6781553"></polygon>
                <path d="M20.3272973,73.475065 C20.0415429,73.0833757 19.7156411,72.7406476 19.3519536,72.4468806 C18.9870853,72.1531136 18.5950585,71.9059194 18.1758732,71.7052981 C17.7555071,71.5046767 17.3150674,71.3530165 16.854554,71.2503175 C16.3928598,71.1476184 15.9264424,71.0962689 15.4564826,71.0962689 C14.6074848,71.0962689 13.8328777,71.2503175 13.1314804,71.5584146 C12.4312638,71.8653175 11.8314156,72.2904437 11.3331165,72.8314049 C10.8348174,73.372366 10.4475138,74.0064728 10.170025,74.7349194 C9.89371696,75.4621718 9.75556295,76.2455505 9.75556295,77.0850553 C9.75556295,77.943667 9.89371696,78.7318223 10.170025,79.4507155 C10.4475138,80.1684146 10.8395406,80.7869971 11.3472862,81.3052689 C11.8538509,81.8223466 12.4631455,82.228366 13.1728085,82.522133 C13.8836522,82.8159 14.672429,82.9627835 15.5391388,82.9627835 C15.9913866,82.9627835 16.4412728,82.9090456 16.8887973,82.8027641 C17.3363219,82.6952883 17.7649536,82.5412398 18.1758732,82.3406184 C18.5856121,82.1399971 18.9740964,81.899968 19.3377839,81.6193369 C19.7026522,81.3399 20.0320964,81.0222495 20.3272973,80.6675796 L20.3272973,87.3991427 C19.8656031,87.5388612 19.4322482,87.6726087 19.0260518,87.7979971 C18.6210362,87.9245796 18.2242862,88.0308612 17.8369826,88.1204243 C17.4484982,88.2087932 17.058833,88.2780553 16.6668063,88.3294049 C16.2747795,88.3807544 15.862679,88.4070262 15.4293241,88.4070262 C13.9344268,88.4070262 12.5021121,88.1311718 11.1323799,87.5818515 C9.76264777,87.0313369 8.51926161,86.2467641 7.40340223,85.2305214 C6.22259866,84.148599 5.35470804,82.918599 4.80209196,81.5429097 C4.24829509,80.1672204 3.97080625,78.6721136 3.97080625,77.0575893 C3.97080625,75.5744243 4.23884866,74.150968 4.77375268,72.7896087 C5.3086567,71.4270553 6.09271027,70.214968 7.12591339,69.1509583 C7.65255179,68.6099971 8.22878393,68.1227738 8.85579063,67.6880942 C9.48279732,67.2546087 10.1452281,66.8856087 10.8419022,66.5834825 C11.5385763,66.2801621 12.2600473,66.0484922 13.007496,65.889667 C13.7549446,65.7320359 14.5012125,65.6520262 15.2486612,65.6520262 C16.1437103,65.6520262 17.0056969,65.7475602 17.8369826,65.9386282 C18.6670875,66.1308903 19.4971924,66.3983854 20.3272973,66.7435019 L20.3272973,73.475065 Z" id="Fill-11"></path>
                <path d="M36.3391118,70.9560728 C35.5090069,70.9560728 34.7296766,71.1125097 34.0011208,71.4253835 C33.2713842,71.7370631 32.6325694,72.1574126 32.0834958,72.6840437 C31.5356029,73.2118689 31.1010672,73.8173155 30.783431,74.503966 C30.4646141,75.1894223 30.3063864,75.9059272 30.3063864,76.6522864 C30.3063864,77.5849369 30.4646141,78.4447427 30.783431,79.2340922 C31.1010672,80.0222476 31.5356029,80.7029272 32.0834958,81.2773252 C32.6325694,81.8505291 33.2713842,82.2983447 34.0011208,82.6207718 C34.7296766,82.9420049 35.5090069,83.1032184 36.3391118,83.1032184 C37.1692167,83.1032184 37.9509087,82.9420049 38.6841877,82.6207718 C39.4174667,82.2983447 40.0562815,81.8505291 40.6006319,81.2773252 C41.1449824,80.7029272 41.5771565,80.0222476 41.8947926,79.2340922 C42.2136096,78.4447427 42.3718373,77.5849369 42.3718373,76.6522864 C42.3718373,75.9059272 42.2136096,75.1894223 41.8947926,74.503966 C41.5771565,73.8173155 41.1449824,73.2118689 40.6006319,72.6840437 C40.0562815,72.1574126 39.4174667,71.7370631 38.6841877,71.4253835 C37.9509087,71.1125097 37.1692167,70.9560728 36.3391118,70.9560728 M36.3391118,65.5118301 C37.3628685,65.5118301 38.3665516,65.6360243 39.3489801,65.8832184 C40.3314087,66.1304126 41.2607011,66.4826942 42.1368574,66.9400631 C43.0130136,67.397432 43.8206833,67.9539175 44.5586855,68.6119078 C45.2966877,69.2698981 45.9307792,70.0114806 46.46096,70.8366553 C46.9911408,71.6630243 47.4067837,72.5610437 47.7067078,73.5307136 C48.0066319,74.5015777 48.156594,75.5321505 48.156594,76.6236262 C48.156594,78.3778689 47.8637547,79.9852282 47.2780761,81.4445097 C46.6923975,82.9049854 45.8729199,84.1600631 44.8220047,85.2097427 C43.7699087,86.2582282 42.5217993,87.077432 41.0788574,87.664966 C39.6347346,88.2525 38.0548194,88.546267 36.3391118,88.546267 C35.1949132,88.546267 34.1085739,88.4137136 33.080094,88.1474126 C32.0516141,87.8823058 31.1010672,87.5013641 30.2296342,87.0069757 C29.3582011,86.5125874 28.5694243,85.9131117 27.8633038,85.2097427 C27.1583641,84.5051796 26.5585158,83.7098592 26.06494,82.8237816 C25.5713641,81.9365097 25.1911453,80.9740049 24.9231029,79.9338786 C24.6550605,78.8925583 24.5216297,77.790335 24.5216297,76.6236262 C24.5216297,75.5321505 24.6715917,74.5015777 24.9715158,73.5307136 C25.27144,72.5610437 25.6882636,71.6630243 26.2243484,70.8366553 C26.7592525,70.0114806 27.393344,69.2698981 28.126623,68.6119078 C28.859902,67.9539175 29.66521,67.397432 30.5413663,66.9400631 C31.4175225,66.4826942 32.346815,66.1304126 33.3292435,65.8832184 C34.3116721,65.6360243 35.3153551,65.5118301 36.3391118,65.5118301" id="Fill-12"></path>
                <polygon id="Fill-13" points="58.4751641 83.0751553 65.1443426 83.0751553 65.1443426 87.8327476 52.9265681 87.8327476 52.9265681 66.2265437 58.4751641 66.2265437"></polygon>
                <polygon id="Fill-14" points="75.6804167 83.0751553 82.3495953 83.0751553 82.3495953 87.8327476 70.1318208 87.8327476 70.1318208 66.2265437 75.6804167 66.2265437"></polygon>
                <polygon id="Fill-15" points="92.8856694 70.9841359 92.8856694 74.5941262 99.1545556 74.5941262 99.1545556 79.3529126 92.8856694 79.3529126 92.8856694 83.0751553 99.500531 83.0751553 99.500531 87.8327476 87.3370734 87.8327476 87.3370734 66.2265437 99.500531 66.2265437 99.500531 70.9841359"></polygon>
                <path d="M126.863174,75.7701495 C126.844281,76.5535282 126.8124,77.3142175 126.766348,78.0510233 C126.720297,78.7878291 126.621109,79.5091107 126.468786,80.2136738 C126.316462,80.9182369 126.100375,81.6084699 125.818163,82.2843728 C125.537132,82.9602757 125.156913,83.6349845 124.676326,84.3061107 C124.150868,85.0441107 123.56519,85.6806058 122.91929,86.2167903 C122.273391,86.7529748 121.576717,87.1936252 120.830449,87.5387417 C120.083,87.8850524 119.294223,88.1382175 118.464118,88.3018194 C117.634013,88.4654214 116.770846,88.5466252 115.875797,88.5466252 C114.196694,88.5466252 112.659288,88.271965 111.261217,87.7214505 C109.864326,87.1709359 108.662268,86.3935282 107.656223,85.3916155 C106.651359,84.3885087 105.869667,83.1871689 105.311147,81.7875961 C104.752627,80.3880233 104.473958,78.8391786 104.473958,77.1410621 C104.473958,75.3880136 104.754989,73.7949845 105.318232,72.3619748 C105.880295,70.9301592 106.671433,69.7085184 107.691647,68.6958583 C108.710681,67.6843922 109.930451,66.8998194 111.350958,66.3445282 C112.771464,65.7904311 114.344295,65.5121883 116.069449,65.5121883 C118.265743,65.5121883 120.189272,66.0137417 121.840036,67.0168485 C123.49198,68.0199553 124.777875,69.5329748 125.701263,71.5582951 L120.428975,73.7830427 C120.235324,73.2695476 119.990897,72.8038194 119.695696,72.3834699 C119.400496,71.9631204 119.059243,71.6024796 118.67194,71.2991592 C118.283455,70.9958388 117.8501,70.7629748 117.370694,70.5993728 C116.891288,70.4357709 116.369373,70.354567 115.80731,70.354567 C114.893368,70.354567 114.091603,70.5551883 113.399652,70.9564311 C112.707701,71.3576738 112.127926,71.8819165 111.66269,72.5303534 C111.196272,73.1787903 110.846754,73.9084311 110.610594,74.7204699 C110.375614,75.5325087 110.257533,76.3481301 110.257533,77.1697223 C110.257533,78.0092272 110.380337,78.8320136 110.624763,79.6392757 C110.86919,80.4465379 111.229335,81.1690136 111.704018,81.8090913 C112.178701,82.4479748 112.769103,82.9602757 113.475223,83.3483825 C114.181344,83.7352951 114.990194,83.9287515 115.904136,83.9287515 C116.503984,83.9287515 117.063685,83.8499359 117.5856,83.6911107 C118.106335,83.5322854 118.563306,83.297033 118.955333,82.9841592 C119.347359,82.6712854 119.667357,82.2819845 119.916507,81.8150621 C120.165656,81.349334 120.31798,80.8035961 120.373478,80.1778485 L115.834469,80.1778485 L115.834469,75.7701495 L126.863174,75.7701495 Z" id="Fill-16"></path>
                <polygon id="Fill-17" points="137.112195 70.9841359 137.112195 74.5941262 143.381081 74.5941262 143.381081 79.3529126 137.112195 79.3529126 137.112195 83.0751553 143.727056 83.0751553 143.727056 87.8327476 131.563599 87.8327476 131.563599 66.2265437 143.727056 66.2265437 143.727056 70.9841359"></polygon>
                <path d="M167.034702,75.7829272 C166.441939,75.7829272 165.884599,75.8939854 165.365046,76.1172961 C164.845492,76.341801 164.388521,76.6403447 163.997675,77.0165097 C163.605648,77.3938689 163.295097,77.8261602 163.068383,78.3157718 C162.840488,78.8053835 162.728311,79.3176845 162.728311,79.8490922 C162.728311,80.5166359 162.840488,81.1304417 163.068383,81.6928981 C163.295097,82.2565485 163.605648,82.7413835 163.997675,83.1521796 C164.388521,83.5617816 164.845492,83.8818204 165.365046,84.1111019 C165.884599,84.3415777 166.441939,84.4562184 167.034702,84.4562184 C167.627465,84.4562184 168.185985,84.3415777 168.709081,84.1111019 C169.233358,83.8818204 169.689148,83.5617816 170.077633,83.1521796 C170.466117,82.7413835 170.774307,82.2565485 171.001021,81.6928981 C171.228916,81.1304417 171.342273,80.5166359 171.342273,79.8490922 C171.342273,79.3176845 171.228916,78.8053835 171.001021,78.3157718 C170.774307,77.8261602 170.466117,77.3938689 170.077633,77.0165097 C169.689148,76.6403447 169.233358,76.341801 168.709081,76.1172961 C168.185985,75.8939854 167.627465,75.7829272 167.034702,75.7829272 M167.034702,71.8958883 C167.765619,71.8958883 168.482367,71.9842573 169.183765,72.1609951 C169.885162,72.3365388 170.548773,72.5885097 171.174599,72.9157136 C171.800425,73.2417233 172.376657,73.6393835 172.904477,74.1098883 C173.429934,74.5780049 173.883363,75.1082184 174.262401,75.6981408 C174.640258,76.2880631 174.93664,76.929335 175.151546,77.6219563 C175.365271,78.3145777 175.472724,79.0489951 175.472724,79.8299854 C175.472724,81.0814806 175.263722,82.2290825 174.844537,83.2715971 C174.426532,84.3141117 173.843215,85.2109369 173.091044,85.9596845 C172.340052,86.708432 171.449727,87.2947718 170.418885,87.712733 C169.388044,88.1330825 168.260376,88.3432573 167.034702,88.3432573 C166.218767,88.3432573 165.441798,88.2477233 164.707338,88.0578495 C163.972878,87.8679757 163.295097,87.5980922 162.672814,87.2434223 C162.05053,86.8911408 161.487287,86.462432 160.983084,85.9596845 C160.478881,85.4569369 160.05143,84.8897039 159.698369,84.2555971 C159.34649,83.6226845 159.074905,82.9348398 158.884796,82.1932573 C158.693506,81.4492864 158.59668,80.6623252 158.59668,79.8299854 C158.59668,79.0489951 158.704133,78.3145777 158.919039,77.6219563 C159.132765,76.929335 159.431508,76.2880631 159.812907,75.6981408 C160.194307,75.1082184 160.647735,74.5780049 161.170831,74.1098883 C161.695108,73.6393835 162.268979,73.2417233 162.894805,72.9157136 C163.520631,72.5885097 164.184242,72.3365388 164.88682,72.1609951 C165.587037,71.9842573 166.303785,71.8958883 167.034702,71.8958883" id="Fill-18"></path>
                <polygon id="Fill-19" points="182.066922 75.8027505 182.066922 78.3797796 186.424087 78.3797796 186.424087 81.778401 182.066922 81.778401 182.066922 87.832867 178.105326 87.832867 178.105326 72.4053233 186.868069 72.4053233 186.868069 75.8027505"></polygon>
                <path d="M210.212438,72.9012641 L210.15694,72.9012641 L207.860277,79.7868757 L212.481942,79.7868757 L210.212438,72.9012641 Z M206.324052,84.0823223 L204.857494,87.8332252 L198.962922,87.8332252 L207.182496,66.2258272 L213.24238,66.2258272 L221.296641,87.8332252 L215.37373,87.8332252 L213.97684,84.0823223 L206.324052,84.0823223 Z" id="Fill-20"></path>
                <path d="M246.787356,75.7701495 C246.768463,76.5535282 246.736581,77.3142175 246.69053,78.0510233 C246.644479,78.7878291 246.545291,79.5091107 246.392968,80.2136738 C246.240644,80.9182369 246.024557,81.6084699 245.742345,82.2843728 C245.461314,82.9602757 245.081095,83.6349845 244.600508,84.3061107 C244.07505,85.0441107 243.489372,85.6806058 242.843472,86.2167903 C242.197573,86.7529748 241.500898,87.1936252 240.754631,87.5387417 C240.007182,87.8850524 239.218405,88.1382175 238.3883,88.3018194 C237.558195,88.4654214 236.695028,88.5466252 235.799979,88.5466252 C234.120876,88.5466252 232.58347,88.271965 231.185398,87.7214505 C229.788508,87.1709359 228.58645,86.3935282 227.580405,85.3916155 C226.575541,84.3885087 225.793849,83.1871689 225.235329,81.7875961 C224.676809,80.3880233 224.39814,78.8391786 224.39814,77.1410621 C224.39814,75.3880136 224.679171,73.7949845 225.242414,72.3619748 C225.804477,70.9301592 226.595615,69.7085184 227.615829,68.6958583 C228.634863,67.6843922 229.854633,66.8998194 231.27514,66.3445282 C232.695646,65.7904311 234.268477,65.5121883 235.993631,65.5121883 C238.189925,65.5121883 240.113454,66.0137417 241.764218,67.0168485 C243.416162,68.0199553 244.702057,69.5329748 245.625445,71.5582951 L240.353157,73.7830427 C240.159506,73.2695476 239.915079,72.8038194 239.619878,72.3834699 C239.324677,71.9631204 238.983425,71.6024796 238.596122,71.2991592 C238.207637,70.9958388 237.774282,70.7629748 237.294876,70.5993728 C236.81547,70.4357709 236.293555,70.354567 235.731492,70.354567 C234.81755,70.354567 234.015785,70.5551883 233.323834,70.9564311 C232.631883,71.3576738 232.052108,71.8819165 231.586872,72.5303534 C231.120454,73.1787903 230.770936,73.9084311 230.534776,74.7204699 C230.299796,75.5325087 230.181715,76.3481301 230.181715,77.1697223 C230.181715,78.0092272 230.304519,78.8320136 230.548945,79.6392757 C230.793372,80.4465379 231.153517,81.1690136 231.6282,81.8090913 C232.102883,82.4479748 232.693285,82.9602757 233.399405,83.3483825 C234.105526,83.7352951 234.914376,83.9287515 235.828318,83.9287515 C236.428166,83.9287515 236.987867,83.8499359 237.509782,83.6911107 C238.030517,83.5322854 238.487488,83.297033 238.879515,82.9841592 C239.271541,82.6712854 239.591539,82.2819845 239.840689,81.8150621 C240.089838,81.349334 240.242162,80.8035961 240.29766,80.1778485 L235.758651,80.1778485 L235.758651,75.7701495 L246.787356,75.7701495 Z" id="Fill-21"></path>
                <path d="M258.169948,75.9101068 L258.709575,75.9101068 C259.161823,75.9101068 259.618794,75.8802524 260.079308,75.8193495 C260.541002,75.7584466 260.955464,75.6330583 261.325055,75.4407961 C261.693466,75.2497282 261.99339,74.9798447 262.224828,74.6299515 C262.455084,74.2800583 262.570803,73.8107476 262.570803,73.2232136 C262.570803,72.6356796 262.455084,72.1639806 262.224828,71.8093107 C261.99339,71.455835 261.693466,71.1823689 261.325055,70.991301 C260.955464,70.800233 260.541002,70.6736505 260.079308,70.6127476 C259.618794,70.5530388 259.161823,70.5219903 258.709575,70.5219903 L258.169948,70.5219903 L258.169948,75.9101068 Z M270.388904,87.8327476 L263.469395,87.8327476 L258.239616,79.5200971 L258.169948,79.5200971 L258.169948,87.8327476 L252.621352,87.8327476 L252.621352,66.2265437 L260.923582,66.2265437 C261.975678,66.2265437 262.955745,66.3567087 263.863783,66.618233 C264.773002,66.8797573 265.559417,67.2798058 266.223029,67.8219612 C266.887821,68.3629223 267.408555,69.050767 267.787593,69.8854951 C268.16545,70.7202233 268.354379,71.716165 268.354379,72.8733204 C268.354379,73.6196796 268.25283,74.3314078 268.049732,75.0073107 C267.846633,75.6844078 267.546709,76.2922427 267.149959,76.8332039 C266.75439,77.3753592 266.264357,77.831534 265.683401,78.2053107 C265.102446,78.5778932 264.434111,78.8346408 263.677216,78.9743592 L270.388904,87.8327476 Z" id="Fill-22"></path>
                <polygon id="Fill-23" points="275.21225 87.8327476 280.760846 87.8327476 280.760846 66.2253495 275.21225 66.2253495"></polygon>
                <path d="M302.425876,73.475065 C302.140121,73.0833757 301.814219,72.7406476 301.450532,72.4468806 C301.085664,72.1531136 300.693637,71.9059194 300.274452,71.7052981 C299.854085,71.5046767 299.413646,71.3530165 298.953132,71.2503175 C298.491438,71.1476184 298.025021,71.0962689 297.555061,71.0962689 C296.706063,71.0962689 295.931456,71.2503175 295.230059,71.5584146 C294.529842,71.8653175 293.929994,72.2904437 293.431695,72.8314049 C292.933396,73.372366 292.546092,74.0064728 292.268603,74.7349194 C291.992295,75.4621718 291.854141,76.2455505 291.854141,77.0850553 C291.854141,77.943667 291.992295,78.7318223 292.268603,79.4507155 C292.546092,80.1684146 292.938119,80.7869971 293.445865,81.3052689 C293.952429,81.8223466 294.561724,82.228366 295.271387,82.522133 C295.982231,82.8159 296.771007,82.9627835 297.637717,82.9627835 C298.089965,82.9627835 298.539851,82.9090456 298.987376,82.8027641 C299.4349,82.6952883 299.863532,82.5412398 300.274452,82.3406184 C300.68419,82.1399971 301.072675,81.899968 301.436362,81.6193369 C301.801231,81.3399 302.130675,81.0222495 302.425876,80.6675796 L302.425876,87.3991427 C301.964181,87.5388612 301.530827,87.6726087 301.12463,87.7979971 C300.719615,87.9245796 300.322865,88.0308612 299.935561,88.1204243 C299.547077,88.2087932 299.157411,88.2780553 298.765385,88.3294049 C298.373358,88.3807544 297.961257,88.4070262 297.527902,88.4070262 C296.033005,88.4070262 294.60069,88.1311718 293.230958,87.5818515 C291.861226,87.0313369 290.61784,86.2467641 289.501981,85.2305214 C288.321177,84.148599 287.453286,82.918599 286.90067,81.5429097 C286.346873,80.1672204 286.069385,78.6721136 286.069385,77.0575893 C286.069385,75.5744243 286.337427,74.150968 286.872331,72.7896087 C287.407235,71.4270553 288.191289,70.214968 289.224492,69.1509583 C289.75113,68.6099971 290.327362,68.1227738 290.954369,67.6880942 C291.581376,67.2546087 292.243806,66.8856087 292.940481,66.5834825 C293.637155,66.2801621 294.358626,66.0484922 295.106074,65.889667 C295.853523,65.7320359 296.599791,65.6520262 297.34724,65.6520262 C298.242289,65.6520262 299.104275,65.7475602 299.935561,65.9386282 C300.765666,66.1308903 301.595771,66.3983854 302.425876,66.7435019 L302.425876,73.475065 Z" id="Fill-24"></path>
                <path d="M327.588209,66.226066 L327.588209,78.3732117 C327.588209,79.0729981 327.571678,79.7632311 327.539796,80.4439107 C327.507915,81.1257845 327.416993,81.7897456 327.269392,82.4381825 C327.121792,83.0866194 326.89862,83.712367 326.598696,84.3130369 C326.298772,84.914901 325.886671,85.4773573 325.360033,86.0004058 C324.917232,86.4482214 324.414209,86.8231922 323.852147,87.1265126 C323.288904,87.429833 322.698502,87.6770272 322.080942,87.8680951 C321.463381,88.0591631 320.828109,88.1964932 320.178667,88.2812796 C319.528044,88.3648718 318.893953,88.406668 318.275212,88.406668 C317.648205,88.406668 317.00939,88.3648718 316.358767,88.2812796 C315.708145,88.1964932 315.076415,88.0591631 314.463578,87.8680951 C313.84956,87.6770272 313.26152,87.429833 312.699457,87.1265126 C312.136214,86.8231922 311.633192,86.4482214 311.19039,86.0004058 C310.655486,85.4773573 310.238662,84.914901 309.938738,84.3130369 C309.638814,83.712367 309.414462,83.0866194 309.266861,82.4381825 C309.119261,81.7897456 309.02952,81.1257845 308.997638,80.4439107 C308.965756,79.7632311 308.949225,79.0729981 308.949225,78.3732117 L308.949225,66.226066 L314.497821,66.226066 L314.497821,77.6029689 C314.497821,78.0698913 314.509629,78.5415903 314.532064,79.0168718 C314.55568,79.4921534 314.606455,79.947134 314.684388,80.3818136 C314.763502,80.815299 314.882763,81.2213184 315.044533,81.5986777 C315.206303,81.9760369 315.427113,82.3056291 315.708145,82.585066 C315.990357,82.8656971 316.338694,83.0842311 316.753156,83.2430563 C317.168799,83.4018816 317.675363,83.4806971 318.275212,83.4806971 C318.865613,83.4806971 319.370997,83.4018816 319.790183,83.2430563 C320.210549,83.0842311 320.558886,82.8656971 320.835194,82.585066 C321.112683,82.3056291 321.331131,81.9760369 321.492901,81.5986777 C321.654671,81.2213184 321.776294,80.815299 321.85895,80.3818136 C321.942787,79.947134 321.993562,79.4921534 322.011274,79.0168718 C322.030167,78.5415903 322.039613,78.0698913 322.039613,77.6029689 L322.039613,66.226066 L327.588209,66.226066 Z" id="Fill-25"></path>
                <polygon id="Fill-26" points="339.995857 83.0751553 346.665036 83.0751553 346.665036 87.8327476 334.447261 87.8327476 334.447261 66.2265437 339.995857 66.2265437"></polygon>
                <polygon id="Fill-27" points="358.64665 87.8331058 353.098054 87.8331058 353.098054 70.9844942 348.503547 70.9844942 348.503547 66.2257078 363.241156 66.2257078 363.241156 70.9844942 358.64665 70.9844942"></polygon>
                <path d="M386.8786,66.226066 L386.8786,78.3732117 C386.8786,79.0729981 386.862069,79.7632311 386.830187,80.4439107 C386.798306,81.1257845 386.707384,81.7897456 386.559783,82.4381825 C386.412183,83.0866194 386.189011,83.712367 385.889087,84.3130369 C385.589163,84.914901 385.177062,85.4773573 384.650424,86.0004058 C384.207623,86.4482214 383.7046,86.8231922 383.142538,87.1265126 C382.579294,87.429833 381.988893,87.6770272 381.371332,87.8680951 C380.753772,88.0591631 380.1185,88.1964932 379.469058,88.2812796 C378.818435,88.3648718 378.184344,88.406668 377.565602,88.406668 C376.938596,88.406668 376.299781,88.3648718 375.649158,88.2812796 C374.998535,88.1964932 374.366806,88.0591631 373.753969,87.8680951 C373.139951,87.6770272 372.55191,87.429833 371.989848,87.1265126 C371.426605,86.8231922 370.923582,86.4482214 370.480781,86.0004058 C369.945877,85.4773573 369.529053,84.914901 369.229129,84.3130369 C368.929205,83.712367 368.704852,83.0866194 368.557252,82.4381825 C368.409652,81.7897456 368.31991,81.1257845 368.288029,80.4439107 C368.256147,79.7632311 368.239616,79.0729981 368.239616,78.3732117 L368.239616,66.226066 L373.788212,66.226066 L373.788212,77.6029689 C373.788212,78.0698913 373.80002,78.5415903 373.822455,79.0168718 C373.846071,79.4921534 373.896846,79.947134 373.974779,80.3818136 C374.053893,80.815299 374.173154,81.2213184 374.334924,81.5986777 C374.496694,81.9760369 374.717504,82.3056291 374.998535,82.585066 C375.280748,82.8656971 375.629085,83.0842311 376.043547,83.2430563 C376.45919,83.4018816 376.965754,83.4806971 377.565602,83.4806971 C378.156004,83.4806971 378.661388,83.4018816 379.080573,83.2430563 C379.50094,83.0842311 379.849277,82.8656971 380.125585,82.585066 C380.403073,82.3056291 380.621522,81.9760369 380.783292,81.5986777 C380.945062,81.2213184 381.066685,80.815299 381.149341,80.3818136 C381.233178,79.947134 381.283953,79.4921534 381.301665,79.0168718 C381.320558,78.5415903 381.330004,78.0698913 381.330004,77.6029689 L381.330004,66.226066 L386.8786,66.226066 Z" id="Fill-28"></path>
                <path d="M399.286248,75.9101068 L399.825875,75.9101068 C400.278123,75.9101068 400.735094,75.8802524 401.195607,75.8193495 C401.657302,75.7584466 402.071764,75.6330583 402.441355,75.4407961 C402.809766,75.2497282 403.10969,74.9798447 403.341127,74.6299515 C403.571384,74.2800583 403.687103,73.8107476 403.687103,73.2232136 C403.687103,72.6356796 403.571384,72.1639806 403.341127,71.8093107 C403.10969,71.455835 402.809766,71.1823689 402.441355,70.991301 C402.071764,70.800233 401.657302,70.6736505 401.195607,70.6127476 C400.735094,70.5530388 400.278123,70.5219903 399.825875,70.5219903 L399.286248,70.5219903 L399.286248,75.9101068 Z M411.505203,87.8327476 L404.585694,87.8327476 L399.355915,79.5200971 L399.286248,79.5200971 L399.286248,87.8327476 L393.737652,87.8327476 L393.737652,66.2265437 L402.039882,66.2265437 C403.091978,66.2265437 404.072045,66.3567087 404.980083,66.618233 C405.889302,66.8797573 406.675717,67.2798058 407.339328,67.8219612 C408.004121,68.3629223 408.524855,69.050767 408.903893,69.8854951 C409.28175,70.7202233 409.470679,71.716165 409.470679,72.8733204 C409.470679,73.6196796 409.36913,74.3314078 409.166031,75.0073107 C408.962933,75.6844078 408.663009,76.2922427 408.266259,76.8332039 C407.87069,77.3753592 407.380656,77.831534 406.799701,78.2053107 C406.218746,78.5778932 405.550411,78.8346408 404.793516,78.9743592 L411.505203,87.8327476 Z" id="Fill-29"></path>
                <path d="M426.618899,72.9012641 L426.563401,72.9012641 L424.266738,79.7868757 L428.888403,79.7868757 L426.618899,72.9012641 Z M422.730512,84.0823223 L421.263954,87.8332252 L415.369383,87.8332252 L423.588957,66.2258272 L429.648841,66.2258272 L437.703102,87.8332252 L431.780191,87.8332252 L430.3833,84.0823223 L422.730512,84.0823223 Z" id="Fill-30"></path>
                <polygon id="Fill-31" points="448.169745 83.0751553 454.838923 83.0751553 454.838923 87.8327476 442.621149 87.8327476 442.621149 66.2265437 448.169745 66.2265437"></polygon>
                <path d="M11.1910658,110.608765 L11.1520993,110.608765 L9.51196317,115.525183 L12.8123092,115.525183 L11.1910658,110.608765 Z M8.41499665,118.593017 L7.36762388,121.270357 L3.15923996,121.270357 L9.02783371,105.842814 L13.3554788,105.842814 L19.1048114,121.270357 L14.8763538,121.270357 L13.8785748,118.593017 L8.41499665,118.593017 Z" id="Fill-32"></path>
                <polygon id="Fill-33" points="21.0446355 105.842575 25.0062315 105.842575 32.2776199 115.274167 32.3177672 115.274167 32.3177672 105.842575 36.2793632 105.842575 36.2793632 121.270118 32.3177672 121.270118 25.0558252 111.817031 25.0062315 111.817031 25.0062315 121.270118 21.0446355 121.270118"></polygon>
                <path d="M43.6493487,117.87293 L44.549121,117.87293 C45.1418844,117.87293 45.7027661,117.790532 46.2329469,117.622153 C46.7631277,117.456163 47.2271835,117.197027 47.6262951,116.843551 C48.0254067,116.49127 48.3430429,116.043454 48.5792036,115.500105 C48.8165451,114.956755 48.9358062,114.309513 48.9358062,113.557183 C48.9358062,112.864561 48.8283531,112.248367 48.6146277,111.712183 C48.3997214,111.177192 48.1009781,110.725794 47.7148554,110.359183 C47.3299134,109.992571 46.8717616,109.714328 46.3415808,109.524454 C45.8114,109.335775 45.2269022,109.240241 44.5880875,109.240241 L43.6493487,109.240241 L43.6493487,117.87293 Z M39.6877527,105.842814 L45.3095585,105.842814 C46.0133174,105.842814 46.6958219,105.932377 47.3547103,106.111503 C48.0135987,106.291823 48.6311589,106.547377 49.2073911,106.876969 C49.7836232,107.205367 50.3090808,107.604221 50.7837638,108.071144 C51.2572661,108.538066 51.6622817,109.056338 51.9976299,109.629542 C52.3341589,110.202746 52.5962973,110.821328 52.7840451,111.482901 C52.9717929,112.145668 53.0650763,112.835901 53.0650763,113.557183 C53.0650763,114.274882 52.9717929,114.966309 52.7840451,115.63027 C52.5962973,116.293037 52.3329781,116.910425 51.9929067,117.482435 C51.6540161,118.055639 51.2478196,118.576299 50.7731366,119.042027 C50.2984536,119.507755 49.7753576,119.905416 49.2026679,120.236202 C48.6287973,120.565794 48.0135987,120.820153 47.3547103,120.99928 C46.6958219,121.180794 46.0133174,121.270357 45.3095585,121.270357 L39.6877527,121.270357 L39.6877527,105.842814 Z" id="Fill-34"></path>
                <polygon id="Fill-35" points="72.2660051 104.421029 72.2660051 108.031019 78.5348913 108.031019 78.5348913 112.789806 72.2660051 112.789806 72.2660051 116.512049 78.8808667 116.512049 78.8808667 121.269641 66.7174092 121.269641 66.7174092 99.6634369 78.8808667 99.6634369 78.8808667 104.421029"></polygon>
                <polygon id="Fill-36" points="85.1152734 99.6629592 90.6638694 99.6629592 100.8483 112.874115 100.903798 112.874115 100.903798 99.6629592 106.452394 99.6629592 106.452394 121.270357 100.903798 121.270357 90.7335368 108.031736 90.6638694 108.031736 90.6638694 121.270357 85.1152734 121.270357"></polygon>
                <polygon id="Fill-37" points="121.745571 112.789567 126.935203 99.6631981 132.967929 99.6631981 123.848583 121.270596 119.531565 121.270596 110.551554 99.6631981 116.598449 99.6631981"></polygon>
                <polygon id="Fill-38" points="137.081848 121.269641 142.630444 121.269641 142.630444 99.6622427 137.081848 99.6622427"></polygon>
                <path d="M154.597062,109.347 L155.136689,109.347 C155.588937,109.347 156.045908,109.317146 156.506421,109.256243 C156.968115,109.19534 157.382577,109.069951 157.752169,108.877689 C158.12058,108.686621 158.420504,108.416738 158.651941,108.066845 C158.882198,107.716951 158.997917,107.247641 158.997917,106.660107 C158.997917,106.072573 158.882198,105.600874 158.651941,105.246204 C158.420504,104.892728 158.12058,104.619262 157.752169,104.428194 C157.382577,104.237126 156.968115,104.110544 156.506421,104.049641 C156.045908,103.989932 155.588937,103.958883 155.136689,103.958883 L154.597062,103.958883 L154.597062,109.347 Z M166.816017,121.269641 L159.896508,121.269641 L154.666729,112.95699 L154.597062,112.95699 L154.597062,121.269641 L149.048466,121.269641 L149.048466,99.6634369 L157.350696,99.6634369 C158.402792,99.6634369 159.382859,99.7936019 160.290897,100.055126 C161.200115,100.31665 161.986531,100.716699 162.650142,101.258854 C163.314935,101.799816 163.835669,102.48766 164.214707,103.322388 C164.592564,104.157117 164.781493,105.153058 164.781493,106.310214 C164.781493,107.056573 164.679944,107.768301 164.476845,108.444204 C164.273747,109.121301 163.973823,109.729136 163.577073,110.270097 C163.181504,110.812252 162.69147,111.268427 162.110515,111.642204 C161.52956,112.014786 160.861225,112.271534 160.10433,112.411252 L166.816017,121.269641 Z" id="Fill-39"></path>
                <path d="M181.287355,104.392966 C180.45725,104.392966 179.67792,104.549403 178.949364,104.862277 C178.219628,105.173956 177.580813,105.594306 177.031739,106.120937 C176.483846,106.648762 176.049311,107.254209 175.731675,107.940859 C175.412858,108.626316 175.25463,109.34282 175.25463,110.08918 C175.25463,111.02183 175.412858,111.881636 175.731675,112.670985 C176.049311,113.459141 176.483846,114.13982 177.031739,114.714218 C177.580813,115.287422 178.219628,115.735238 178.949364,116.057665 C179.67792,116.378898 180.45725,116.540112 181.287355,116.540112 C182.11746,116.540112 182.899152,116.378898 183.632431,116.057665 C184.36571,115.735238 185.004525,115.287422 185.548875,114.714218 C186.093226,114.13982 186.5254,113.459141 186.843036,112.670985 C187.161853,111.881636 187.320081,111.02183 187.320081,110.08918 C187.320081,109.34282 187.161853,108.626316 186.843036,107.940859 C186.5254,107.254209 186.093226,106.648762 185.548875,106.120937 C185.004525,105.594306 184.36571,105.173956 183.632431,104.862277 C182.899152,104.549403 182.11746,104.392966 181.287355,104.392966 M181.287355,98.9487233 C182.311112,98.9487233 183.314795,99.0729175 184.297224,99.3201117 C185.279652,99.5673058 186.208945,99.9195874 187.085101,100.376956 C187.961257,100.834325 188.768927,101.390811 189.506929,102.048801 C190.244931,102.706791 190.879023,103.448374 191.409204,104.273549 C191.939384,105.099917 192.355027,105.997937 192.654951,106.967607 C192.954875,107.938471 193.104837,108.969044 193.104837,110.060519 C193.104837,111.814762 192.811998,113.422121 192.22632,114.881403 C191.640641,116.341879 190.821163,117.596956 189.770248,118.646636 C188.718152,119.695121 187.470043,120.514325 186.027101,121.101859 C184.582978,121.689393 183.003063,121.98316 181.287355,121.98316 C180.143157,121.98316 179.056817,121.850607 178.028337,121.584306 C176.999858,121.319199 176.049311,120.938257 175.177878,120.443869 C174.306445,119.949481 173.517668,119.350005 172.811547,118.646636 C172.106608,117.942073 171.506759,117.146752 171.013183,116.260675 C170.519608,115.373403 170.139389,114.410898 169.871346,113.370772 C169.603304,112.329451 169.469873,111.227228 169.469873,110.060519 C169.469873,108.969044 169.619835,107.938471 169.919759,106.967607 C170.219683,105.997937 170.636507,105.099917 171.172592,104.273549 C171.707496,103.448374 172.341587,102.706791 173.074867,102.048801 C173.808146,101.390811 174.613454,100.834325 175.48961,100.376956 C176.365766,99.9195874 177.295058,99.5673058 178.277487,99.3201117 C179.259916,99.0729175 180.263599,98.9487233 181.287355,98.9487233" id="Fill-40"></path>
                <polygon id="Fill-41" points="199.007438 99.6629592 204.556034 99.6629592 214.740465 112.874115 214.795963 112.874115 214.795963 99.6629592 220.344559 99.6629592 220.344559 121.270357 214.795963 121.270357 204.625702 108.031736 204.556034 108.031736 204.556034 121.270357 199.007438 121.270357"></polygon>
                <polygon id="Fill-42" points="229.05452 99.6629592 234.52046 99.6629592 238.865817 111.208241 243.446154 99.6629592 248.980581 99.6629592 252.204174 121.270357 246.655578 121.270357 245.092194 108.829445 245.036697 108.829445 239.903744 121.270357 237.702726 121.270357 232.790583 108.829445 232.735085 108.829445 230.94971 121.270357 225.429453 121.270357"></polygon>
                <polygon id="Fill-43" points="262.911583 104.421029 262.911583 108.031019 269.180469 108.031019 269.180469 112.789806 262.911583 112.789806 262.911583 116.512049 269.526445 116.512049 269.526445 121.269641 257.362987 121.269641 257.362987 99.6634369 269.526445 99.6634369 269.526445 104.421029"></polygon>
                <polygon id="Fill-44" points="275.760851 99.6629592 281.309447 99.6629592 291.493878 112.874115 291.549376 112.874115 291.549376 99.6629592 297.097972 99.6629592 297.097972 121.270357 291.549376 121.270357 281.379115 108.031736 281.309447 108.031736 281.309447 121.270357 275.760851 121.270357"></polygon>
                <polygon id="Fill-45" points="311.719981 121.269999 306.171385 121.269999 306.171385 104.421387 301.576878 104.421387 301.576878 99.662601 316.314487 99.662601 316.314487 104.421387 311.719981 104.421387"></polygon>
                <path d="M328.769013,106.338157 L328.713515,106.338157 L326.416852,113.223769 L331.038517,113.223769 L328.769013,106.338157 Z M324.880627,117.519216 L323.414069,121.270118 L317.519497,121.270118 L325.739071,99.6627204 L331.798955,99.6627204 L339.853216,121.270118 L333.930305,121.270118 L332.533415,117.519216 L324.880627,117.519216 Z" id="Fill-46"></path>
                <polygon id="Fill-47" points="350.319859 116.512049 356.989038 116.512049 356.989038 121.269641 344.771263 121.269641 344.771263 99.6634369 350.319859 99.6634369"></polygon>
                <path d="M385.918135,105.218618 C385.402123,104.78991 384.829434,104.444793 384.202427,104.183269 C383.57542,103.921745 382.920074,103.79158 382.23757,103.79158 C381.978974,103.79158 381.710931,103.828599 381.434623,103.902638 C381.158315,103.977871 380.902081,104.090123 380.667101,104.239395 C380.432121,104.388667 380.237289,104.577347 380.086146,104.805434 C379.933822,105.034716 379.85707,105.297434 379.85707,105.595978 C379.85707,105.913628 379.940907,106.184706 380.106219,106.408017 C380.272713,106.632521 380.480534,106.823589 380.728503,106.982415 C380.977652,107.140046 381.245695,107.273793 381.531449,107.381269 C381.817204,107.48755 382.080523,107.579502 382.320226,107.653541 L383.731286,108.087026 C384.478735,108.311531 385.173048,108.579026 385.814224,108.8919 C386.4554,109.204774 387.011559,109.594075 387.481519,110.060997 C387.952659,110.526725 388.323431,111.079628 388.596197,111.718512 C388.867782,112.358589 389.003574,113.115696 389.003574,113.993415 C389.003574,114.524822 388.969331,115.058618 388.899664,115.594803 C388.831177,116.132182 388.710735,116.651648 388.540699,117.155589 C388.369483,117.659531 388.141588,118.137201 387.855833,118.589793 C387.568898,119.042385 387.214657,119.450793 386.789568,119.815017 C385.950016,120.532716 385.003012,121.050987 383.946193,121.367444 C382.890554,121.685094 381.817204,121.843919 380.728503,121.843919 C379.382387,121.843919 378.068152,121.62658 376.7858,121.193094 C375.503447,120.759609 374.313197,120.155356 373.21505,119.380337 L375.59555,114.84725 C375.946248,115.154152 376.309936,115.444337 376.688974,115.71422 C377.066831,115.985298 377.463581,116.222939 377.878043,116.428337 C378.293686,116.633735 378.722318,116.793754 379.165119,116.910783 C379.60792,117.027813 380.064891,117.086327 380.534851,117.086327 C380.858391,117.086327 381.180751,117.043337 381.504291,116.959745 C381.82665,116.876152 382.114766,116.744793 382.368639,116.568055 C382.622512,116.390123 382.827972,116.164424 382.985019,115.889764 C383.140885,115.61391 383.219998,115.285512 383.219998,114.902182 C383.219998,114.510492 383.099556,114.179706 382.859853,113.908628 C382.62015,113.638745 382.327311,113.407075 381.981335,113.216007 C381.63536,113.024939 381.26813,112.868502 380.880827,112.74789 C380.493523,112.626084 380.152271,112.523385 379.85707,112.439793 C378.980914,112.187822 378.187414,111.926298 377.477751,111.656415 C376.766907,111.385337 376.159974,111.028279 375.658132,110.58524 C375.15511,110.142201 374.765445,109.584521 374.487956,108.913395 C374.211648,108.241075 374.073494,107.382463 374.073494,106.33756 C374.073494,105.246084 374.255338,104.252531 374.620206,103.3569 C374.983894,102.461269 375.494001,101.699385 376.149347,101.068861 C376.803512,100.439531 377.580481,99.9523078 378.480253,99.6071913 C379.380025,99.2620748 380.364815,99.0889194 381.434623,99.0889194 C381.969527,99.0889194 382.532771,99.1307155 383.123173,99.2155019 C383.713574,99.2990942 384.299253,99.4185117 384.880208,99.571366 C385.461164,99.7254146 386.02913,99.9129 386.581746,100.131434 C387.135543,100.351162 387.652735,100.595968 388.132141,100.865851 L385.918135,105.218618 Z" id="Fill-48"></path>
                <path d="M409.533025,106.911958 C409.247271,106.520269 408.921369,106.177541 408.557681,105.883774 C408.192813,105.590007 407.800786,105.342813 407.381601,105.142191 C406.961235,104.94157 406.520795,104.78991 406.060282,104.687211 C405.598588,104.584512 405.13217,104.533162 404.66221,104.533162 C403.813213,104.533162 403.038606,104.687211 402.337208,104.995308 C401.636992,105.302211 401.037144,105.727337 400.538844,106.268298 C400.040545,106.809259 399.653242,107.443366 399.375753,108.171813 C399.099445,108.899065 398.961291,109.682444 398.961291,110.521949 C398.961291,111.38056 399.099445,112.168716 399.375753,112.887609 C399.653242,113.605308 400.045269,114.22389 400.553014,114.742162 C401.059579,115.25924 401.668873,115.665259 402.378536,115.959026 C403.08938,116.252793 403.878157,116.399677 404.744867,116.399677 C405.197115,116.399677 405.647001,116.345939 406.094525,116.239657 C406.54205,116.132182 406.970681,115.978133 407.381601,115.777512 C407.79134,115.57689 408.179824,115.336861 408.543512,115.05623 C408.90838,114.776793 409.237824,114.459143 409.533025,114.104473 L409.533025,120.836036 C409.071331,120.975754 408.637976,121.109502 408.23178,121.23489 C407.826764,121.361473 407.430014,121.467754 407.04271,121.557317 C406.654226,121.645686 406.264561,121.714949 405.872534,121.766298 C405.480507,121.817648 405.068407,121.843919 404.635052,121.843919 C403.140155,121.843919 401.70784,121.568065 400.338108,121.018745 C398.968376,120.46823 397.72499,119.683657 396.60913,118.667415 C395.428327,117.585492 394.560436,116.355492 394.00782,114.979803 C393.454023,113.604114 393.176534,112.109007 393.176534,110.494483 C393.176534,109.011317 393.444577,107.587861 393.979481,106.226502 C394.514385,104.863949 395.298438,103.651861 396.331641,102.587851 C396.85828,102.04689 397.434512,101.559667 398.061519,101.124987 C398.688525,100.691502 399.350956,100.322502 400.04763,100.020376 C400.744304,99.7170553 401.465775,99.4853854 402.213224,99.3265602 C402.960673,99.1689291 403.70694,99.0889194 404.454389,99.0889194 C405.349438,99.0889194 406.211425,99.1844534 407.04271,99.3755214 C407.872815,99.5677835 408.70292,99.8352786 409.533025,100.180395 L409.533025,106.911958 Z" id="Fill-49"></path>
                <polygon id="Fill-50" points="415.799904 121.269641 421.3485 121.269641 421.3485 99.6622427 415.799904 99.6622427"></polygon>
                <polygon id="Fill-51" points="433.316298 104.421029 433.316298 108.031019 439.585185 108.031019 439.585185 112.789806 433.316298 112.789806 433.316298 116.512049 439.93116 116.512049 439.93116 121.269641 427.767702 121.269641 427.767702 99.6634369 439.93116 99.6634369 439.93116 104.421029"></polygon>
                <polygon id="Fill-52" points="446.72019 99.6629592 452.268786 99.6629592 462.453217 112.874115 462.508715 112.874115 462.508715 99.6629592 468.057311 99.6629592 468.057311 121.270357 462.508715 121.270357 452.338454 108.031736 452.268786 108.031736 452.268786 121.270357 446.72019 121.270357"></polygon>
                <path d="M489.170315,106.911958 C488.88456,106.520269 488.558658,106.177541 488.194971,105.883774 C487.830103,105.590007 487.438076,105.342813 487.018891,105.142191 C486.598525,104.94157 486.158085,104.78991 485.697571,104.687211 C485.235877,104.584512 484.76946,104.533162 484.2995,104.533162 C483.450502,104.533162 482.675895,104.687211 481.974498,104.995308 C481.274281,105.302211 480.674433,105.727337 480.176134,106.268298 C479.677835,106.809259 479.290531,107.443366 479.013042,108.171813 C478.736734,108.899065 478.59858,109.682444 478.59858,110.521949 C478.59858,111.38056 478.736734,112.168716 479.013042,112.887609 C479.290531,113.605308 479.682558,114.22389 480.190304,114.742162 C480.696868,115.25924 481.306163,115.665259 482.015826,115.959026 C482.72667,116.252793 483.515446,116.399677 484.382156,116.399677 C484.834404,116.399677 485.28429,116.345939 485.731815,116.239657 C486.179339,116.132182 486.607971,115.978133 487.018891,115.777512 C487.428629,115.57689 487.817114,115.336861 488.180801,115.05623 C488.54567,114.776793 488.875114,114.459143 489.170315,114.104473 L489.170315,120.836036 C488.708621,120.975754 488.275266,121.109502 487.869069,121.23489 C487.464054,121.361473 487.067304,121.467754 486.68,121.557317 C486.291516,121.645686 485.90185,121.714949 485.509824,121.766298 C485.117797,121.817648 484.705696,121.843919 484.272342,121.843919 C482.777444,121.843919 481.345129,121.568065 479.975397,121.018745 C478.605665,120.46823 477.362279,119.683657 476.24642,118.667415 C475.065616,117.585492 474.197725,116.355492 473.645109,114.979803 C473.091312,113.604114 472.813824,112.109007 472.813824,110.494483 C472.813824,109.011317 473.081866,107.587861 473.61677,106.226502 C474.151674,104.863949 474.935728,103.651861 475.968931,102.587851 C476.495569,102.04689 477.071801,101.559667 477.698808,101.124987 C478.325815,100.691502 478.988246,100.322502 479.68492,100.020376 C480.381594,99.7170553 481.103065,99.4853854 481.850513,99.3265602 C482.597962,99.1689291 483.34423,99.0889194 484.091679,99.0889194 C484.986728,99.0889194 485.848714,99.1844534 486.68,99.3755214 C487.510105,99.5677835 488.34021,99.8352786 489.170315,100.180395 L489.170315,106.911958 Z" id="Fill-53"></path>
                <polygon id="Fill-54" points="500.965716 104.421029 500.965716 108.031019 507.234602 108.031019 507.234602 112.789806 500.965716 112.789806 500.965716 116.512049 507.580577 116.512049 507.580577 121.269641 495.41712 121.269641 495.41712 99.6634369 507.580577 99.6634369 507.580577 104.421029"></polygon>
                <path d="M525.230993,105.218618 C524.714982,104.78991 524.142292,104.444793 523.515285,104.183269 C522.888279,103.921745 522.232933,103.79158 521.550428,103.79158 C521.291832,103.79158 521.02379,103.828599 520.747482,103.902638 C520.471174,103.977871 520.21494,104.090123 519.97996,104.239395 C519.74498,104.388667 519.550147,104.577347 519.399004,104.805434 C519.246681,105.034716 519.169928,105.297434 519.169928,105.595978 C519.169928,105.913628 519.253765,106.184706 519.419078,106.408017 C519.585571,106.632521 519.793393,106.823589 520.041361,106.982415 C520.290511,107.140046 520.558553,107.273793 520.844308,107.381269 C521.130062,107.48755 521.393381,107.579502 521.633085,107.653541 L523.044145,108.087026 C523.791594,108.311531 524.485906,108.579026 525.127082,108.8919 C525.768259,109.204774 526.324417,109.594075 526.794377,110.060997 C527.265518,110.526725 527.63629,111.079628 527.909056,111.718512 C528.18064,112.358589 528.316433,113.115696 528.316433,113.993415 C528.316433,114.524822 528.28219,115.058618 528.212522,115.594803 C528.144035,116.132182 528.023594,116.651648 527.853558,117.155589 C527.682341,117.659531 527.454446,118.137201 527.168692,118.589793 C526.881756,119.042385 526.527515,119.450793 526.102426,119.815017 C525.262875,120.532716 524.31587,121.050987 523.259051,121.367444 C522.203413,121.685094 521.130062,121.843919 520.041361,121.843919 C518.695245,121.843919 517.381011,121.62658 516.098658,121.193094 C514.816306,120.759609 513.626056,120.155356 512.527908,119.380337 L514.908408,114.84725 C515.259107,115.154152 515.622794,115.444337 516.001832,115.71422 C516.37969,115.985298 516.77644,116.222939 517.190902,116.428337 C517.606544,116.633735 518.035176,116.793754 518.477977,116.910783 C518.920779,117.027813 519.37775,117.086327 519.84771,117.086327 C520.17125,117.086327 520.493609,117.043337 520.817149,116.959745 C521.139509,116.876152 521.427625,116.744793 521.681498,116.568055 C521.93537,116.390123 522.14083,116.164424 522.297877,115.889764 C522.453743,115.61391 522.532857,115.285512 522.532857,114.902182 C522.532857,114.510492 522.412415,114.179706 522.172712,113.908628 C521.933009,113.638745 521.640169,113.407075 521.294194,113.216007 C520.948219,113.024939 520.580989,112.868502 520.193685,112.74789 C519.806381,112.626084 519.465129,112.523385 519.169928,112.439793 C518.293772,112.187822 517.500272,111.926298 516.790609,111.656415 C516.079765,111.385337 515.472832,111.028279 514.970991,110.58524 C514.467969,110.142201 514.078303,109.584521 513.800815,108.913395 C513.524506,108.241075 513.386352,107.382463 513.386352,106.33756 C513.386352,105.246084 513.568196,104.252531 513.933065,103.3569 C514.296752,102.461269 514.806859,101.699385 515.462205,101.068861 C516.11637,100.439531 516.893339,99.9523078 517.793111,99.6071913 C518.692884,99.2620748 519.677674,99.0889194 520.747482,99.0889194 C521.282386,99.0889194 521.845629,99.1307155 522.436031,99.2155019 C523.026433,99.2990942 523.612111,99.4185117 524.193067,99.571366 C524.774022,99.7254146 525.341989,99.9129 525.894605,100.131434 C526.448402,100.351162 526.965594,100.595968 527.445,100.865851 L525.230993,105.218618 Z" id="Fill-55"></path>
            </g>
        </g>
    </g>
</svg>