<?xml version="1.0" encoding="UTF-8"?>
<svg width="669px" height="52px" viewBox="0 0 669 52" version="1.1" xmlns="http://www.w3.org/2000/svg" xmlns:xlink="http://www.w3.org/1999/xlink">
    <!-- Generator: Sketch 63.1 (92452) - https://sketch.com -->
    <title>Group 29</title>
    <desc>Created with Sketch.</desc>
    <defs>
        <polygon id="path-1" points="0.0009375 0.115625 122.975938 0.115625 122.975938 73.2959375 0.0009375 73.2959375"></polygon>
        <polygon id="path-3" points="0.396872727 0.2866 33.7694182 0.2866 33.7694182 7 0.396872727 7"></polygon>
    </defs>
    <g id="Zoom" stroke="none" stroke-width="1" fill="none" fill-rule="evenodd">
        <g id="Artboard" transform="translate(-989.000000, -203.000000)">
            <g id="Group-29" transform="translate(960.000000, 174.000000)">
                <path d="M304,73.4082954 C285,74.0758557 266,74.9757531 247,76 C251.173679,74.1936605 255.310176,72.3905933 259.459067,70.6922414 C273.479778,65.9244213 288.622146,72.6687434 304,73.4082954" id="Fill-1" fill="#6EBEB3"></path>
                <path d="M357,71.9779596 C356.962895,72.0046796 356.922699,72.0313997 356.891778,72.0748197 C342.244694,72.1983997 327.628531,72.5257198 313,73 C313.995643,72.87642 314.98201,72.7327999 315.977653,72.5257198 C329.650738,68.9919986 343.320731,67.0213979 357,71.9779596" id="Fill-3" fill="#87C09F"></path>
                <path d="M544.692124,66.1405203 C540.364397,67.2424302 535.739822,69.7898229 532.074534,69.7898229 C532.233894,70.4769689 506.248782,72.2288818 493,71.9750711 C500.730539,63.9336054 502.945415,57.454957 508.310547,46.6308594 C503.042281,44.7644222 496.993383,39.9546852 496.993383,36.2187155 C499.655638,22.0734121 510.401526,13.2921811 521.559875,5 C524.918941,5.58809795 570.652238,16.050051 595,13.8524218 C580.088871,33.3617976 561.728058,49.6180631 544.692124,66.1405203 Z" id="Fill-5" fill="#B4BD67"></path>
                <path d="M698,26.5709794 C692.908039,34.8777509 687.556316,42.9100967 681.074784,49.7584039 C686.345136,53.4801088 689.859747,57.1925635 695.133229,59.0487908 C693.765566,60.3962515 692.404163,61.728295 691.052149,63.0510883 C664.6065,64.2628779 636.306656,66.21395 610.01123,68.0239258 C611.78262,63.0287625 645.380982,31.9546554 652.601114,17 C668.418429,18.0607013 689.274501,24.5729141 698,26.5709794 Z" id="Fill-7" fill="#CBBF55"></path>
                <path d="M621.702335,14.5439734 C631.742497,14.8237312 641.807526,15.3366204 652,16.5426872 C644.8289,31.6185219 634.819822,45.0841953 622.693918,55.1834503 C624.443952,55.1834503 625.976398,60.5237151 627.726432,60.5237151 C619.293318,64.005145 613.433967,62.9203066 611.674607,67.9559462 C587.453883,69.6376012 563.264242,71.2228951 539,72 C544.215911,68.310306 549.428713,70.1753577 554.647732,70.1753577 C552.151679,65.7054505 542.941463,65.6598643 539,66.6669922 C555.943939,50.0773572 579.729486,33.5923683 594.565923,14 C596.263114,14.0404095 597.954089,14.0714936 599.645064,14.1056863 C601.087366,16.4338925 602.392897,18.7652071 605.255742,17.7363203 C611.211454,16.6794576 616.592111,15.6101613 621.702335,14.5439734 Z" id="Fill-9" fill="#BABB5D"></path>
                <path d="M373.531509,15.8704998 C377.944625,17.1568276 386.472926,20.1116531 392.645703,16.8336921 C404.001253,17.1133286 427.78615,20.4192533 431.643747,15.6063987 C435.510655,10.7842229 411.768424,38.2601335 400.748047,49.6972656 C399.512871,57.0082061 391.794674,60.6775856 384.75293,66 C382.506027,65.524618 381.336704,60.9075089 379.092904,60.2115248 C379.092904,60.8577958 375.101858,66 375.101858,66 C375.101858,66 358.721811,65.7110423 350.547304,65.6706504 C346.537637,58.3348533 336.612781,64.1140073 336.305539,65.6520079 C333.950014,65.6706504 331.58518,65.6706504 329.223449,65.6830787 C329.155173,65.6582221 329.074483,65.6240443 329,65.6022948 C332.094147,63.237813 335.200708,60.8764382 338.350717,58.6207039 C340.09486,56.7533536 340.09486,51.1419815 340.09486,51.1419815 C355.227318,42.1967212 365.406658,29.7187199 373.531509,15.8704998 Z" id="Fill-11" fill="#87C09F"></path>
                <path d="M497.530657,36.4453477 C500.185496,22.16008 510.885777,13.29002 522,4.91083042 C517.630252,4.1198099 506.522253,2.19384692 505.339558,2 C506.656085,5.23911956 508.859633,8.69084542 506.260815,10.0884192 C499.273576,11.9674837 490.543417,13.8465483 485.295985,13.8465483 C478.613757,12.8210355 471.402428,8.41570785 464.244009,6.17708854 C458.355431,7.38081541 452.529101,8.64394697 446.8615,10.0884192 C446.475568,10.1697099 443.372549,15.316033 443.372549,17.614057 C439.35761,17.614057 435.716153,16.8136568 432.099595,15.7662581 C431.694989,16.8949475 399.687519,34.5694097 396.192344,47.7510005 C394.956738,55.1109305 389.058824,61.0482741 382,66.404077 C382.404606,66.4853677 402.146281,67.2826413 411.62963,67.7516258 C411.309057,66.3915708 407.754746,63.3150325 406.684096,62.8210355 C408.00996,62.8210355 417.371927,67.2513757 421.097417,68.2550025 C427.154062,68.602051 442.003112,68.8896948 443.372549,68.4676088 C445.118581,68.4676088 441.614068,64.7032266 441.614068,60.9388444 C449.033925,66.0195098 456.712107,69.4118309 464.629941,71.344047 C466.783691,71.4847424 468.928105,71.5597799 471.069406,71.6848424 C471.73545,73.1386943 472.217865,74.1204352 471.324619,74.1204352 C469.961407,74.5362681 468.607532,74.852051 467.228758,75.0896698 C471.212574,75.3804402 488.128229,76.7061031 492.585123,77 C488.041083,75.8838169 483.57174,74.2204852 479.195767,72.1069285 C483.830065,72.2976488 488.461251,72.4477239 493.073763,72.5446473 C493.266729,72.5196348 493.450358,72.4789895 493.640212,72.4664832 C501.309057,64.3593047 507.925926,54.8826913 513.257392,43.9866183 C508.00996,42.1044272 497.530657,40.2191096 497.530657,36.4453477" id="Fill-13" fill="#A0B97A"></path>
                <g id="Group-17">
                    <mask id="mask-2" fill="white">
                        <use xlink:href="#path-1"></use>
                    </mask>
                    <g id="Clip-16"></g>
                    <path d="M46.9540625,72.8209375 C37.2040625,65.6240625 21.7103125,65.7678125 13.1540625,56.5959375 C0.0009375,39.6521875 5.2571875,19.8896875 0.0009375,0.1146875 C40.7978125,7.6959375 81.8415625,11.7396875 122.975938,13.7834375 C112.772813,22.1678125 95.2790625,17.5771875 86.8290625,31.1834375 C86.8290625,33.0615625 90.3384375,34.9459375 92.0946875,36.8178125 C81.5696875,42.4740625 64.0290625,44.3584375 64.0290625,53.7678125 C64.0290625,59.5303125 67.2165625,65.7771875 68.7165625,73.2584375 C67.4165625,73.2771875 66.1259375,73.2959375 64.8228125,73.2959375 C60.7196875,70.5459375 54.2915625,72.5490625 46.9540625,72.8209375" id="Fill-15" fill="#57BFE1" mask="url(#mask-2)"></path>
                </g>
                <g id="Group-20" transform="translate(93.000000, 74.000000)">
                    <mask id="mask-4" fill="white">
                        <use xlink:href="#path-3"></use>
                    </mask>
                    <g id="Clip-19"></g>
                    <path d="M29.5565091,5.6026 C20.0828727,6.0946 10.5876,6.5626 1.08614545,7.0006 C0.977963636,5.2846 0.724509091,3.6346 0.396872727,2.0416 C11.5179636,1.9036 22.6483273,1.2856 33.7694182,0.2866 C32.2703273,1.9396 30.8577818,3.7066 29.5565091,5.6026" id="Fill-18" fill="#57BCCE" mask="url(#mask-4)"></path>
                </g>
                <path d="M91.9387663,36.8516105 C90.1904547,34.9914876 86.6938314,33.1251642 86.6938314,31.2588408 C95.1087477,17.7636488 112.523425,22.3178498 122.680431,14 C138.409014,14.7812516 154.153151,15.2493826 169.909731,15.5160002 C167.197049,17.0164994 164.487477,18.5138984 161.790348,20.0547002 C170.522574,20.0547002 172.267775,33.1251642 181,33.1251642 C155.509492,46.7505649 121.308535,49.5283485 102.248205,71.1863801 C91.0552779,72.2218486 76.0157399,73.1533281 64.8228125,73.2959375 C63.3295926,65.8771471 59.703125,57.6034966 59.703125,51.8867188 C59.703125,42.5489015 72.9590972,42.6113709 83.4365234,37" id="Fill-21" fill="#57BCCE"></path>
                <path d="M161.701957,19.5898213 C164.406466,18.0316648 167.123452,16.5173999 169.846677,15 C188.095094,15.3197826 206.352869,15.3417285 224.595047,15.2257289 C225.814727,15.4577281 227.037527,15.658376 228.241611,15.8025917 C242.203989,17.3168565 253.945363,16.4296165 267,17.9156652 C258.328103,25.4681785 249.668683,33.0269621 240.728519,40.2001254 C224.086587,29.7977845 205.934871,21.126032 186.214103,15.8025917 C193.223367,17.6930714 191.473391,27.1360644 194.967105,29.0328143 C207.859533,39.4602362 219.251536,61.0643745 212.81312,70.3318006 C185.549674,71.7676873 158.258153,73.4198976 130.904244,75 C129.04197,72.59536 126.387371,68.6858606 124.930617,68.6858606 C117.288118,69.7173163 109.642499,70.5857456 102,71.2974187 C121.112487,49.3954436 170.458077,19.5898213 161.701957,19.5898213 Z" id="Fill-23" fill="#5FBDC1"></path>
                <path d="M266.36116,18.3043622 C269.668345,18.6754279 273.065755,19.1980121 276.60939,19.9556046 C276.60939,18.3136389 276.603167,16.6778575 275.42403,15.0451684 C277.872529,15.0018774 280.327251,14.9678631 282.775751,14.9338487 C285.737595,15.9109884 288.512768,21.6655991 292.725308,14.7668691 C296.18183,14.7143015 299.632129,14.6617338 303.091763,14.6122584 C306.734956,16.7582551 309.656355,19.6587521 311.529286,23.6724462 L311.529286,18.0817228 C315.029364,14.3586969 318.52322,18.0817228 322.013966,18.0817228 C322.013966,17.0829376 322.020188,15.5399227 322.300194,14.3246825 C338.546781,18.8856985 361.625522,14.0061844 365.853617,14 C368.215004,14.952402 370.601279,15.8120375 373,16.5170624 C364.854928,30.2990613 363.054884,43.5184136 347.884766,52.4208984 C347.884766,52.4208984 343.789681,57.7148214 342.038086,59.5732422 C338.883348,61.8181897 331.459511,63.6578686 328.357664,66.0110436 C309.398127,56.9292104 285.090469,66.8459415 284.088669,66.9665378 C281.369497,67.0376588 278.644102,67.142794 275.921819,67.2200994 C260.493472,66.5336278 236.736494,56.9292104 218.688533,69.6784097 C216.566707,69.7742684 214.441771,69.8917725 212.316834,70 C218.738312,60.8594147 207.376279,39.5540585 194.517768,29.2662617 C191.033245,27.3985643 179.646322,16.7984539 185.784683,16.2202098 C207.587839,17.9580342 242.74614,37.5274558 241.657227,36.8564453 C250.573871,29.7814591 257.712076,25.7535064 266.36116,18.3043622 Z" id="Fill-25" fill="#6EBEB3"></path>
                <path d="M677.750977,50.5258789 C684.152679,43.5825146 692.687512,34.4227388 697.716759,26 C713.401084,29.6843618 728.797936,32.8370245 744.599724,35.8364328 C741.768261,36.9092139 739.032623,38.2853762 736.53191,40.1056636 C739.830131,40.1056636 743.131444,40.1056636 746,41.5537616 C745.319954,42.3950972 744.757371,43.4459848 744.34007,44.8158918 L744.34007,44.9316145 C741.972275,44.3092139 740.000143,44.5125106 740.000143,49.5167371 C740.000143,51.4120879 743.471467,47.6401522 743.471467,51.4120879 C740.000143,49.5167371 736.53191,53.2918005 736.53191,57.057481 L741.731168,57.057481 C740.772922,59.1498732 737.672532,60.0881657 735.684944,61.7927303 C720.686846,61.8552832 705.756753,62.3056636 690.85448,63 C692.189842,61.6582418 693.534478,60.3071006 694.885296,58.9403212 C689.676764,57.057481 682.956417,54.3009423 677.750977,50.5258789 Z" id="Fill-27" fill="#CBBF55"></path>
            </g>
        </g>
    </g>
</svg>