<?xml version="1.0" encoding="UTF-8"?>
<svg width="220px" height="37px" viewBox="0 0 220 37" version="1.1" xmlns="http://www.w3.org/2000/svg" xmlns:xlink="http://www.w3.org/1999/xlink">
    <!-- Generator: Sketch 63.1 (92452) - https://sketch.com -->
    <title>gold</title>
    <desc>Created with Sketch.</desc>
    <g id="Zoom" stroke="none" stroke-width="1" fill="none" fill-rule="evenodd">
        <g id="Artboard" transform="translate(-1055.000000, -321.000000)" fill="#DAAA00">
            <g id="gold" transform="translate(1055.000000, 321.000000)">
                <path d="M193,32.8028384 L196.499715,23.5376899 L197.110512,24.0633057 C199.258991,25.8187019 202.173304,27.3106215 204.925897,27.3688004 C207.386456,27.4269792 208.589337,26.7709626 208.261886,24.6878924 C208.017969,23.1317755 206.262431,22.8575993 205.167141,22.6409332 L202.759374,22.1601219 C198.076158,21.2847643 194.139396,18.3938775 194.139396,12.9197162 C194.139396,4.64227068 201.271143,0 208.443655,0 C212.215355,0 215.66896,0.959616599 218.906047,3.06542334 L215.867436,11.2753279 C214.200777,10.0743025 211.676732,8.38377234 208.481078,8.26674592 C207.430562,8.22662258 205.027473,8.77831853 205.797985,11.2211613 C206.129446,12.2610246 207.619682,12.6977003 208.53454,12.9197162 L211.249709,13.5757328 C216.327203,14.758034 220,17.6495895 220,23.5584203 C220,31.8806702 212.823478,36 205.692399,36 C201.535109,36 196.71757,34.8163614 193,32.8028384" id="Fill-1"></path>
                <polygon id="Fill-2" points="179 36 191 36 191 1 179 1"></polygon>
                <polyline id="Fill-3" points="164.368871 1 177 1 164.101085 36 153.854397 36 141 1 153.585262 1 158.979427 22.1193372 164.368871 1"></polyline>
                <path d="M111,36 L123.827018,36 L124.798854,31.6046356 L133.954642,31.6046356 L135.170956,36 L148,36 L135.988136,1 L122.536414,1 L111,36 Z M129.398697,11.1020975 L129.398697,11.1020975 C129.622915,12.5931424 131.83065,23.3033234 131.83065,23.3033234 L126.982276,23.3033234 L129.398697,11.1020975 L129.398697,11.1020975 Z" id="Fill-4"></path>
                <path d="M92.0839722,25.9501963 L92.9054791,25.9501963 C96.9328014,25.9501963 99.9200384,23.5265779 99.9200384,18.9602528 C99.9200384,14.0412796 97.271698,11.2978642 92.8486621,11.2978642 L92.0839722,11.2978642 L92.0839722,25.9501963 Z M80,1 L92.3012136,1 C103.466756,1 112,6.14155732 112,19.0045015 C112,29.3687386 105.042926,36 95.2790926,36 L80,35.9805574 L80,1 L80,1 Z" id="Fill-5"></path>
                <path d="M73.1230623,2.03353688 L73.7827168,7.85788026 C73.9393254,9.242556 74.7244024,12.560065 73.7555984,12.1152821 C73.144757,11.8412034 72.6457789,10.3347904 72.1461228,9.00180197 C71.892566,8.32306602 70.6857983,5.1170928 70.3698692,4.88109944 C68.8458165,3.73513743 65.0424643,2.44635524 62.4696083,2.4354737 C54.6642618,2.40554947 49.501601,8.17956573 49.501601,18.4265743 C49.501601,25.7729729 53.0093629,34.5910995 61.9340204,34.5910995 C65.1312769,34.5910995 71.2559621,33.5811567 72.9237423,29.0183917 C73.6749213,26.9522596 74.3657619,25.1187204 74.865418,25.6729987 C75.2335499,26.0817365 74.7535547,27.7350502 74.531184,28.624616 C73.478991,32.8568543 73.4220424,34.1374753 73.0884864,34.3020586 C69.0566619,36.3307854 63.8865435,37 59.3598086,37 C44.9721542,37 40,28.5797296 40,20.1635399 C40,5.55303443 48.9470302,-0.493700385 62.8207913,0.0313338375 C66.3265194,0.161912297 69.8356372,0.788280845 73.1230623,2.03353688" id="Fill-7"></path>
                <path d="M30.2211469,2.83116513 L27.9456315,2.02813048 C27.1781896,1.33275393 28.1105142,1.13910477 28.1105142,1.13910477 C28.1105142,1.13910477 31.4028064,1.75458411 39.6073969,1.05514499 C39.6073969,1.05514499 40.3198778,1.19665784 39.8252297,1.78099081 L37.136167,2.94491708 C35.3827801,3.71748245 35.3827801,3.27398524 35.3827801,5.21453946 L35.3673642,23.2286514 C35.3673642,37.3169667 21.1794081,36.9994091 18.4139362,36.9994091 C17.0988961,36.9994091 4.18978631,36.9994091 4.18978631,25.6892146 L4.18978631,6.62289701 C4.18978631,3.29632938 4.54099989,3.3870601 3.44714385,2.99569921 L0.15485168,1.74713606 C0.15485168,1.74713606 -0.400119394,0.951549461 0.591187634,1.00233158 C3.28092063,1.13910477 7.17778275,1.72276064 16.2315862,1.05514499 C16.2315862,1.05514499 17.0258383,1.24947125 16.50438,1.83177293 L13.8722889,2.60975507 C11.7864556,3.55294837 12.0626006,2.83116513 12.0062992,4.9931294 L12.0706437,23.7940257 C12.0706437,28.4057196 14.4198872,34.111599 21.7055582,34.111599 C31.7607225,34.111599 31.8545582,25.3276458 31.8545582,23.375581 L31.8719848,4.74869811 C31.9792256,2.99569921 31.7607225,3.4960724 30.2211469,2.83116513" id="Fill-8"></path>
            </g>
        </g>
    </g>
</svg>