<?xml version="1.0" encoding="UTF-8"?>
<svg width="328px" height="84px" viewBox="0 0 328 84" version="1.1" xmlns="http://www.w3.org/2000/svg" xmlns:xlink="http://www.w3.org/1999/xlink">
    <!-- Generator: Sketch 63.1 (92452) - https://sketch.com -->
    <title>TOgethe</title>
    <desc>Created with Sketch.</desc>
    <g id="2019-Redesign" stroke="none" stroke-width="1" fill="none" fill-rule="evenodd">
        <g id="Documentation-2" transform="translate(-167.000000, -1576.000000)">
            <g id="TOgethe" transform="translate(167.000000, 1576.000000)">
                <path d="M4.996,68.939 L6.417,68.939 C7.05,68.939 7.108,69.855 7.108,72.341 L7.108,77.696 C7.108,80.237 7.367,84 13.14,84 C16.885,84 19.245,81.734 19.245,78.016 L19.245,69.419 C19.245,69.055 19.514,68.939 19.795,68.939 L20.689,68.939 L20.689,68.211 L16.278,68.211 L16.278,68.939 L17.552,68.939 C18.281,68.939 18.331,70.364 18.331,71.469 L18.331,77.275 C18.331,79.175 18.257,83.011 13.266,83.011 C11.492,83.011 9.16,82.025 9.16,78.471 L9.16,69.315 C9.16,69.103 9.248,68.939 9.521,68.939 L10.608,68.939 L10.608,68.211 L4.996,68.211 L4.996,68.939 Z M25.911,68.211 L22.412,68.211 L22.412,68.939 L23.151,68.939 C24.296,68.939 24.508,69.761 24.508,71.711 L24.508,82.335 C24.508,82.693 24.244,82.823 23.958,82.823 L23.062,82.823 L23.062,83.538 L27.475,83.538 L27.475,82.823 L26.202,82.823 C25.474,82.823 25.424,81.395 25.424,80.284 L25.424,70.556 L25.474,70.556 L35.937,83.157 L36.215,83.485 C36.392,83.686 36.484,83.759 36.556,83.759 C36.733,83.759 36.754,83.591 36.754,83.38 L36.754,69.419 C36.754,69.055 37.014,68.939 37.31,68.939 L38.198,68.939 L38.198,68.211 L33.786,68.211 L33.786,68.939 L35.062,68.939 C35.788,68.939 35.826,70.364 35.826,71.469 L35.826,80.159 L35.788,80.159 L25.911,68.211 Z M44.575,69.315 C44.575,69.103 44.665,68.939 44.934,68.939 L46.021,68.939 L46.021,68.211 L40.42,68.211 L40.42,68.939 L41.846,68.939 C42.473,68.939 42.525,69.855 42.525,72.341 L42.525,82.433 C42.525,82.651 42.422,82.823 42.154,82.823 L41.019,82.823 L41.019,83.538 L46.617,83.538 L46.617,82.823 L45.255,82.823 C44.624,82.823 44.575,81.898 44.575,79.419 L44.575,69.315 Z M62.994,68.211 L58.396,68.211 L58.396,68.939 L59.783,68.939 C60.201,68.939 60.391,69.006 60.391,69.349 C60.391,70.257 59.274,73.044 56.188,80.555 C53.096,73.044 51.399,69.3 51.399,69.088 C51.399,68.939 51.503,68.939 51.654,68.939 L52.955,68.939 L52.955,68.211 L47.734,68.211 L47.734,68.939 L48.315,68.939 C49.11,68.939 49.247,69.028 50.079,70.996 L55.198,83.38 C55.365,83.808 55.436,84 55.608,84 C55.847,84 55.928,83.686 56.135,83.157 L61.647,69.206 C61.746,68.939 61.781,68.939 61.936,68.939 L62.994,68.939 L62.994,68.211 Z M66.1,82.433 C66.1,82.651 66.011,82.823 65.74,82.823 L64.612,82.823 L64.612,83.538 L76.105,83.538 C76.392,82.576 76.702,81.603 76.702,81.395 C76.702,81.275 76.614,81.134 76.514,81.134 C76.346,81.134 76.295,81.275 76.235,81.395 C75.818,82.063 74.87,82.675 70.773,82.675 L69.158,82.675 C68.423,82.675 68.162,82.675 68.162,79.683 L68.162,75.551 L71.201,75.551 C73.954,75.551 74.189,75.577 74.189,76.225 L74.189,77.07 L74.848,77.07 L74.848,72.992 L74.189,72.992 L74.189,73.934 C74.189,74.656 73.446,74.762 70.963,74.762 L68.162,74.762 L68.162,69.519 C68.162,69.275 68.283,69.088 68.642,69.088 L71.014,69.088 C74.832,69.088 75.239,69.734 75.308,70.018 C75.356,70.343 75.397,70.457 75.593,70.457 C75.818,70.406 75.895,70.343 76.105,68.211 L64.009,68.211 L64.009,68.939 L65.43,68.939 C66.059,68.939 66.1,69.855 66.1,72.341 L66.1,82.433 Z M82.572,75.868 L82.572,69.419 C82.572,69.103 82.911,69.088 83.123,69.088 L84.365,69.088 C86.271,69.088 87.984,70.477 87.984,72.745 C87.984,75.117 85.858,75.868 83.778,75.868 L82.572,75.868 Z M80.52,82.433 C80.52,82.651 80.42,82.823 80.162,82.823 L79.026,82.823 L79.026,83.538 L84.624,83.538 L84.624,82.823 L83.25,82.823 C82.622,82.823 82.572,81.898 82.572,79.419 L82.572,76.593 L84.365,76.593 C88.781,83.527 89.051,83.538 89.606,83.538 L92.376,83.538 L92.376,82.823 L91.771,82.823 C91.073,82.823 90.253,82.025 86.271,76.248 C88.391,75.868 90.035,74.531 90.035,72.36 C90.035,69.3 87.303,68.211 85.186,68.211 L78.424,68.211 L78.424,68.939 L79.844,68.939 C80.479,68.939 80.52,69.855 80.52,72.341 L80.52,82.433 Z M98.467,68.623 C99.234,68.623 101.184,68.889 101.356,69.93 C101.384,70.098 101.416,70.288 101.643,70.288 C101.837,70.288 101.916,70.137 101.916,69.967 C101.916,69.395 101.871,68.797 101.837,68.211 C101.066,67.851 100.13,67.748 99.112,67.748 C96.531,67.748 93.635,69.275 93.635,72.174 C93.635,75.117 96.585,76.058 97.67,76.448 C100.058,77.313 101.457,78.133 101.457,79.992 C101.457,82.168 99.473,83.129 97.539,83.129 C96.362,83.129 94.112,82.627 93.772,81.275 C93.731,81.055 93.664,80.812 93.415,80.812 C93.227,80.812 93.123,80.938 93.123,81.107 C93.123,81.325 93.227,81.827 93.483,83.32 C94.6,83.759 96.074,84 97.249,84 C101.235,84 103.068,81.375 103.068,79.268 C103.068,76.682 101.605,75.691 98.51,74.559 C96.979,73.984 95.179,73.355 95.179,71.392 C95.179,69.608 96.852,68.623 98.467,68.623 L98.467,68.623 Z M108.871,69.315 C108.871,69.103 108.956,68.939 109.231,68.939 L110.313,68.939 L110.313,68.211 L104.718,68.211 L104.718,68.939 L106.14,68.939 C106.763,68.939 106.816,69.855 106.816,72.341 L106.816,82.433 C106.816,82.651 106.716,82.823 106.458,82.823 L105.323,82.823 L105.323,83.538 L110.923,83.538 L110.923,82.823 L109.536,82.823 C108.908,82.823 108.871,81.898 108.871,79.419 L108.871,69.315 Z M120.241,69.088 L120.845,69.088 C123.67,69.088 125.043,69.586 125.28,70.317 C125.33,70.457 125.434,70.657 125.621,70.657 C125.77,70.657 125.891,70.576 125.891,70.406 C125.891,70.257 125.551,69.206 125.21,68.211 L113.214,68.211 C112.887,69.206 112.54,70.257 112.54,70.406 C112.54,70.576 112.655,70.657 112.804,70.657 C112.998,70.657 113.094,70.457 113.145,70.317 C113.381,69.586 114.761,69.088 117.575,69.088 L118.187,69.088 L118.187,82.433 C118.187,82.651 118.098,82.823 117.828,82.823 L116.013,82.823 L116.013,83.538 L122.77,83.538 L122.77,82.823 L120.917,82.823 C120.29,82.823 120.241,81.898 120.241,79.419 L120.241,69.088 Z M134.847,76.885 L138.805,69.66 C138.973,69.349 139.094,68.939 139.481,68.939 L140.331,68.939 L140.331,68.211 L135.931,68.211 L135.931,68.939 L137.34,68.939 C137.616,68.939 137.819,68.959 137.819,69.228 C137.819,69.689 137.476,70.389 134.508,75.973 C132.692,72.773 130.624,69.254 130.624,69.028 C130.624,68.939 130.843,68.939 131.009,68.939 L132.119,68.939 L132.119,68.211 L126.687,68.211 L126.687,68.939 L127.504,68.939 C127.922,68.939 128.041,68.959 128.301,69.3 C129.197,70.436 130.018,72.101 132.796,76.952 L132.796,82.433 C132.796,82.651 132.692,82.823 132.438,82.823 L131.301,82.823 L131.301,83.538 L136.899,83.538 L136.899,82.823 L135.514,82.823 C134.887,82.823 134.847,81.898 134.847,79.419 L134.847,76.885 Z M155.657,84 C160.451,84 163.695,80.202 163.695,75.647 C163.695,70.944 160.935,67.748 156.081,67.748 C151.279,67.748 148.042,71.544 148.042,76.108 C148.042,80.812 150.799,84 155.657,84 L155.657,84 Z M155.554,68.551 C158.407,68.551 161.643,70.867 161.643,76.327 C161.643,80.717 159.442,83.208 156.18,83.208 C153.333,83.208 150.096,80.891 150.096,75.423 C150.096,71.035 152.299,68.551 155.554,68.551 L155.554,68.551 Z M165.409,68.939 L166.833,68.939 C167.464,68.939 167.519,69.855 167.519,72.341 L167.519,82.433 C167.519,82.651 167.425,82.823 167.152,82.823 L166.019,82.823 L166.019,83.538 L171.622,83.538 L171.622,82.823 L170.244,82.823 C169.617,82.823 169.568,81.898 169.568,79.419 L169.568,75.551 L172.616,75.551 C175.367,75.551 175.603,75.577 175.603,76.225 L175.603,77.07 L176.244,77.07 L176.244,72.992 L175.603,72.992 L175.603,73.934 C175.603,74.656 174.855,74.762 172.369,74.762 L169.568,74.762 L169.568,69.519 C169.568,69.275 169.689,69.088 170.044,69.088 L172.414,69.088 C176.234,69.088 176.64,69.734 176.716,70.018 C176.763,70.343 176.804,70.457 177.007,70.457 C177.214,70.406 177.3,70.343 177.505,68.211 L165.409,68.211 L165.409,68.939 Z M199.908,68.574 C198.613,68.066 197.226,67.748 195.767,67.748 C190.736,67.748 186.417,71.277 186.417,76.463 C186.417,81.487 189.777,84 194.58,84 C196.439,84 198.513,83.569 200.123,82.775 C200.228,81.246 200.277,80.891 200.277,80.666 C200.277,80.524 200.228,80.352 200.039,80.352 C199.769,80.352 199.74,80.598 199.72,80.789 C199.552,82.144 197.166,83.129 194.982,83.129 C191.996,83.129 188.615,80.691 188.615,76.204 C188.615,72.001 191.181,68.623 195.613,68.623 C197.066,68.623 199.072,69.275 199.191,70.137 C199.244,70.501 199.259,70.608 199.47,70.608 C199.72,70.608 199.74,70.529 199.908,68.574 L199.908,68.574 Z M211.046,77.801 C212.041,80.717 212.714,82.405 212.714,82.576 C212.714,82.749 212.544,82.823 212.363,82.823 L211.072,82.823 L211.072,83.538 L216.468,83.538 L216.468,82.823 L215.755,82.823 C215.128,82.823 214.841,82.479 214.289,80.957 C213.103,77.748 210.107,69.689 210.107,68.647 C210.107,68.186 210.527,68.211 210.527,67.893 C210.527,67.725 210.425,67.651 210.287,67.651 C210.15,67.651 209.47,67.826 208.869,67.968 L202.759,82.433 C202.619,82.749 202.265,82.823 201.904,82.823 L201.414,82.823 L201.414,83.538 L206.298,83.538 L206.298,82.823 L204.767,82.823 C204.414,82.823 204.162,82.693 204.162,82.198 C204.162,81.518 205.033,79.157 205.562,77.801 L211.046,77.801 Z M210.712,76.923 L205.902,76.923 L208.574,70.501 L210.712,76.923 Z M223.142,68.211 L217.537,68.211 L217.537,68.939 L218.962,68.939 C219.589,68.939 219.636,69.855 219.636,72.341 L219.636,82.433 C219.636,82.651 219.546,82.823 219.279,82.823 L218.146,82.823 L218.146,83.538 L229.632,83.538 C229.919,82.576 230.232,81.603 230.232,81.395 C230.232,81.275 230.136,81.134 230.042,81.134 C229.869,81.134 229.826,81.275 229.761,81.395 C229.345,82.063 228.396,82.675 224.304,82.675 L222.691,82.675 C221.953,82.675 221.691,82.675 221.691,79.683 L221.691,69.315 C221.691,69.103 221.787,68.939 222.056,68.939 L223.142,68.939 L223.142,68.211 Z M235.375,69.315 C235.375,69.103 235.476,68.939 235.738,68.939 L236.839,68.939 L236.839,68.211 L231.228,68.211 L231.228,68.939 L232.654,68.939 C233.287,68.939 233.332,69.855 233.332,72.341 L233.332,82.433 C233.332,82.651 233.228,82.823 232.962,82.823 L231.839,82.823 L231.839,83.538 L237.437,83.538 L237.437,82.823 L236.06,82.823 C235.435,82.823 235.375,81.898 235.375,79.419 L235.375,69.315 Z M239.794,68.939 L241.222,68.939 C241.849,68.939 241.89,69.855 241.89,72.341 L241.89,82.433 C241.89,82.651 241.8,82.823 241.537,82.823 L240.402,82.823 L240.402,83.538 L246.007,83.538 L246.007,82.823 L244.626,82.823 C243.996,82.823 243.953,81.898 243.953,79.419 L243.953,75.551 L246.99,75.551 C249.748,75.551 249.978,75.577 249.978,76.225 L249.978,77.07 L250.64,77.07 L250.64,72.992 L249.978,72.992 L249.978,73.934 C249.978,74.656 249.244,74.762 246.753,74.762 L243.953,74.762 L243.953,69.519 C243.953,69.275 244.07,69.088 244.433,69.088 L246.802,69.088 C250.605,69.088 251.025,69.734 251.101,70.018 C251.148,70.343 251.191,70.457 251.388,70.457 C251.605,70.406 251.671,70.343 251.888,68.211 L239.794,68.211 L239.794,68.939 Z M260.953,84 C265.755,84 268.996,80.202 268.996,75.647 C268.996,70.944 266.24,67.748 261.376,67.748 C256.576,67.748 253.343,71.544 253.343,76.108 C253.343,80.812 256.099,84 260.953,84 L260.953,84 Z M260.855,68.551 C263.703,68.551 266.943,70.867 266.943,76.327 C266.943,80.717 264.742,83.208 261.48,83.208 C258.628,83.208 255.402,80.891 255.402,75.423 C255.402,71.035 257.591,68.551 260.855,68.551 L260.855,68.551 Z M274.757,75.868 L274.757,69.419 C274.757,69.103 275.091,69.088 275.316,69.088 L276.544,69.088 C278.439,69.088 280.158,70.477 280.158,72.745 C280.158,75.117 278.029,75.868 275.962,75.868 L274.757,75.868 Z M272.705,82.433 C272.705,82.651 272.607,82.823 272.341,82.823 L271.212,82.823 L271.212,83.538 L276.802,83.538 L276.802,82.823 L275.423,82.823 C274.804,82.823 274.757,81.898 274.757,79.419 L274.757,76.593 L276.544,76.593 C280.958,83.527 281.224,83.538 281.779,83.538 L284.564,83.538 L284.564,82.823 L283.958,82.823 C283.248,82.823 282.433,82.025 278.439,76.248 C280.578,75.868 282.224,74.531 282.224,72.36 C282.224,69.3 279.478,68.211 277.363,68.211 L270.601,68.211 L270.601,68.939 L272.027,68.939 C272.654,68.939 272.705,69.855 272.705,72.341 L272.705,82.433 Z M288.738,68.211 L285.226,68.211 L285.226,68.939 L285.974,68.939 C287.125,68.939 287.332,69.761 287.332,71.711 L287.332,82.335 C287.332,82.693 287.062,82.823 286.785,82.823 L285.888,82.823 L285.888,83.538 L290.304,83.538 L290.304,82.823 L289.025,82.823 C288.3,82.823 288.248,81.395 288.248,80.284 L288.248,70.556 L288.3,70.556 L298.751,83.157 L299.042,83.485 C299.21,83.686 299.308,83.759 299.378,83.759 C299.554,83.759 299.58,83.591 299.58,83.38 L299.58,69.419 C299.58,69.055 299.837,68.939 300.128,68.939 L301.027,68.939 L301.027,68.211 L296.611,68.211 L296.611,68.939 L297.89,68.939 C298.607,68.939 298.654,70.364 298.654,71.469 L298.654,80.159 L298.607,80.159 L288.738,68.211 Z M307.402,69.315 C307.402,69.103 307.496,68.939 307.759,68.939 L308.843,68.939 L308.843,68.211 L303.244,68.211 L303.244,68.939 L304.671,68.939 C305.302,68.939 305.345,69.855 305.345,72.341 L305.345,82.433 C305.345,82.651 305.251,82.823 304.98,82.823 L303.845,82.823 L303.845,83.538 L309.445,83.538 L309.445,82.823 L308.08,82.823 C307.445,82.823 307.402,81.898 307.402,79.419 L307.402,69.315 Z M320.488,77.801 C321.482,80.717 322.14,82.405 322.14,82.576 C322.14,82.749 321.974,82.823 321.81,82.823 L320.511,82.823 L320.511,83.538 L325.91,83.538 L325.91,82.823 L325.193,82.823 C324.564,82.823 324.277,82.479 323.714,80.957 C322.531,77.748 319.548,69.689 319.548,68.647 C319.548,68.186 319.968,68.211 319.968,67.893 C319.968,67.725 319.853,67.651 319.732,67.651 C319.595,67.651 318.912,67.826 318.31,67.968 L312.199,82.433 C312.058,82.749 311.703,82.823 311.33,82.823 L310.849,82.823 L310.849,83.538 L315.728,83.538 L315.728,82.823 L314.216,82.823 C313.847,82.823 313.599,82.693 313.599,82.198 C313.599,81.518 314.474,79.157 314.992,77.801 L320.488,77.801 Z M320.142,76.923 L315.337,76.923 L318.017,70.501 L320.142,76.923 L320.142,76.923 Z" id="Fill-10" fill="#002855"></path>
                <polygon id="Fill-9" fill="#DAAA00" points="4.537 61.953 326.386 61.953 326.386 60.206 4.537 60.206"></polygon>
                <path d="M286.757,49.898 L291.994,36.043 L292.908,36.829 C296.123,39.455 300.484,41.685 304.603,41.773 C308.285,41.859 310.085,40.878 309.595,37.764 C309.23,35.436 306.603,35.026 304.964,34.703 L301.361,33.983 C294.353,32.675 288.462,28.352 288.462,20.166 C288.462,7.787 299.134,0.845 309.867,0.845 C315.511,0.845 320.679,2.28 325.523,5.43 L320.976,17.706 C318.482,15.91 314.705,13.382 309.923,13.207 C308.351,13.147 304.755,13.973 305.908,17.626 C306.404,19.18 308.634,19.833 310.003,20.166 L314.066,21.146 C321.664,22.914 327.16,27.238 327.16,36.075 C327.16,48.519 316.421,54.68 305.75,54.68 C299.529,54.68 292.32,52.91 286.757,49.898" id="Fill-1" fill="#DAAA00"></path>
                <polygon id="Fill-2" fill="#DAAA00" points="264.927 53.899 282.892 53.899 282.892 1.694 264.927 1.694"></polygon>
                <polyline id="Fill-3" fill="#DAAA00" points="244.322 1.694 263.048 1.694 243.925 53.899 228.734 53.899 209.677 1.694 228.335 1.694 236.332 33.195 244.322 1.694"></polyline>
                <path d="M165.335,53.899 L184.328,53.899 L185.767,47.343 L199.324,47.343 L201.125,53.899 L220.121,53.899 L202.335,1.694 L182.417,1.694 L165.335,53.899 Z M192.578,16.763 L192.578,16.763 C192.91,18.986 196.179,34.961 196.179,34.961 L189,34.961 L192.578,16.763 L192.578,16.763 Z" id="Fill-4" fill="#DAAA00"></path>
                <path d="M136.78,38.909 L138.009,38.909 C144.034,38.909 148.503,35.294 148.503,28.483 C148.503,21.146 144.541,17.055 137.924,17.055 L136.78,17.055 L136.78,38.909 Z M118.702,1.694 L137.105,1.694 C153.809,1.694 166.575,9.363 166.575,28.549 C166.575,44.008 156.167,53.899 141.56,53.899 L118.702,53.871 L118.702,1.694 L118.702,1.694 Z" id="Fill-5" fill="#DAAA00"></path>
                <path d="M107.767,3.332 L108.74,11.896 C108.971,13.932 110.129,18.811 108.7,18.156 C107.799,17.753 107.063,15.539 106.326,13.578 C105.952,12.581 104.172,7.866 103.706,7.52 C101.458,5.834 95.848,3.939 92.053,3.923 C80.54,3.879 72.925,12.369 72.925,27.436 C72.925,38.238 78.099,51.205 91.263,51.205 C95.979,51.205 105.013,49.72 107.473,43.011 C108.581,39.973 109.6,37.276 110.337,38.091 C110.88,38.692 110.172,41.124 109.844,42.431 C108.292,48.654 108.208,50.538 107.716,50.779 C101.769,53.763 94.143,54.746 87.466,54.746 C66.244,54.746 58.91,42.366 58.91,29.99 C58.91,8.507 72.107,-0.384 92.571,0.388 C97.742,0.581 102.918,1.501 107.767,3.332" id="Fill-7" fill="#DAAA00"></path>
                <path d="M45.089,4.283 L41.694,3.098 C40.549,2.07 41.94,1.785 41.94,1.785 C41.94,1.785 46.852,2.693 59.093,1.661 C59.093,1.661 60.156,1.869 59.418,2.732 L55.406,4.451 C52.79,5.593 52.79,4.938 52.79,7.804 L52.767,34.408 C52.767,55.215 31.599,54.746 27.473,54.746 C25.511,54.746 6.251,54.746 6.251,38.042 L6.251,9.883 C6.251,4.971 6.775,5.104 5.143,4.526 L0.231,2.683 C0.231,2.683 -0.597,1.507 0.882,1.582 C4.895,1.785 10.709,2.646 24.217,1.661 C24.217,1.661 25.402,1.948 24.624,2.807 L20.697,3.956 C17.585,5.349 17.997,4.283 17.913,7.476 L18.009,35.244 C18.009,42.055 21.514,50.481 32.384,50.481 C47.386,50.481 47.526,37.509 47.526,34.626 L47.552,7.115 C47.712,4.526 47.386,5.265 45.089,4.283" id="Fill-8" fill="#DAAA00"></path>
            </g>
        </g>
    </g>
</svg>