<?xml version="1.0" encoding="UTF-8" standalone="no"?>
<svg width="32px" height="32px" viewBox="0 0 32 32" version="1.1" xmlns="http://www.w3.org/2000/svg" xmlns:xlink="http://www.w3.org/1999/xlink">
    <!-- Generator: Sketch 3.6.1 (26313) - http://www.bohemiancoding.com/sketch -->
    <title>web_app</title>
    <desc>Created with Sketch.</desc>
    <defs></defs>
    <g id="Page-1" stroke="none" stroke-width="1" fill="none" fill-rule="evenodd">
        <g id="home" transform="translate(-330.000000, -786.000000)" fill="#FFCD00">
            <g id="web_app" transform="translate(330.000000, 786.000000)">
                <path d="M30.36,32 L1.32,32 C0.528,32 0,31.4666667 0,30.6666667 L0,12 C0,11.2 0.528,10.6666667 1.32,10.6666667 L30.36,10.6666667 C31.152,10.6666667 31.68,11.2 31.68,12 L31.68,30.6666667 C31.68,31.4666667 31.152,32 30.36,32 L30.36,32 Z M2.64,29.3333333 L29.04,29.3333333 L29.04,13.3333333 L2.64,13.3333333 L2.64,29.3333333 L2.64,29.3333333 Z" id="Shape"></path>
                <path d="M15.84,22.6666667 C15.444,22.6666667 14.916,22.4 14.784,22 C14.388,21.3333333 14.52,20.5333333 15.18,20.1333333 L29.7,10.8 C30.36,10.4 31.152,10.5333333 31.548,11.2 C31.944,11.8666667 31.812,12.6666667 31.152,13.0666667 L16.632,22.4 C16.368,22.5333333 16.104,22.6666667 15.84,22.6666667 L15.84,22.6666667 Z" id="Shape"></path>
                <path d="M15.84,22.6666667 C15.576,22.6666667 15.312,22.5333333 15.18,22.4 L0.66,13.0666667 C2.18276786e-13,12.6666667 -0.132,11.8666667 0.264,11.3333333 C0.66,10.6666667 1.452,10.5333333 1.98,10.9333333 L16.5,20.2666667 C17.16,20.6666667 17.292,21.4666667 16.896,22.1333333 C16.764,22.4 16.236,22.6666667 15.84,22.6666667 L15.84,22.6666667 Z" id="Shape"></path>
                <path d="M1.32,13.3333333 C0.924,13.3333333 0.528,13.2 0.264,12.8 C-0.132,12.1333333 4.62761773e-13,11.3333333 0.528,10.9333333 L15.048,0.266666667 C15.576,-0.133333333 16.5,-5.73638359e-14 16.896,0.533333333 C17.292,1.06666667 17.16,2 16.632,2.4 L2.112,13.0666667 C1.848,13.2 1.584,13.3333333 1.32,13.3333333 L1.32,13.3333333 Z" id="Shape"></path>
                <path d="M30.36,13.3333333 C30.096,13.3333333 29.832,13.2 29.568,13.0666667 L15.048,2.4 C14.52,2 14.388,1.06666667 14.784,0.533333333 C15.18,-5.73638359e-14 15.972,-0.133333333 16.632,0.266666667 L31.152,10.9333333 C31.68,11.3333333 31.812,12.2666667 31.416,12.8 C31.152,13.2 30.756,13.3333333 30.36,13.3333333 L30.36,13.3333333 Z" id="Shape"></path>
            </g>
        </g>
    </g>
</svg>