<?xml version="1.0" encoding="UTF-8"?>
<svg width="315px" height="58px" viewBox="0 0 315 58" version="1.1" xmlns="http://www.w3.org/2000/svg" xmlns:xlink="http://www.w3.org/1999/xlink">
    <title>caes-logo</title>
    <g id="Style-guide" stroke="none" stroke-width="1" fill="none" fill-rule="evenodd">
        <g id="Logos-and-Wordmarks" transform="translate(-451.000000, -37.000000)">
            <g id="caes-logo" transform="translate(451.000000, 37.208272)">
                <path d="M38.469,21.8439776 C38.8275,15.4592276 37.6305,9.35422764 35.22375,3.87847764 C34.70775,2.70322764 34.116,1.57072764 33.492,0.459227645 L5.68434189e-14,0.459227645 L5.68434189e-14,57.4689776 L9.648,57.4689776 C25.47225,53.1474776 37.49475,39.1239776 38.469,21.8439776" id="Fill-1" fill="#FFBF00"></path>
                <path d="M37.3785,0.459227645 C40.85325,5.26597764 43.3995,10.8549776 44.66325,17.0439776 C47.80425,32.4369776 42.31425,47.5802276 31.518,57.4689776 L57.01275,57.4689776 L57.01275,0.459227645 L37.3785,0.459227645" id="Fill-2" fill="#022851"></path>
                <path d="M173.81475,19.2699776 L175.85325,13.8842276 L176.20575,14.1909776 C177.45525,15.2102276 179.151,16.0772276 180.75075,16.1117276 C182.18175,16.1447276 182.88,15.7637276 182.69025,14.5524776 C182.55,13.6487276 181.5285,13.4889776 180.8895,13.3637276 L179.49075,13.0839776 C176.76825,12.5747276 174.4785,10.8954776 174.4785,7.71247764 C174.4785,2.90047764 178.626,0.201977645 182.7975,0.201977645 C184.98825,0.201977645 187.0005,0.759977645 188.88075,1.98472764 L187.1145,6.75697764 C186.144,6.05797764 184.67775,5.07472764 182.82,5.00797764 C182.2095,4.98472764 180.81,5.30647764 181.25775,6.72472764 C181.45125,7.32922764 182.3175,7.58347764 182.85075,7.71247764 L184.43175,8.09422764 C187.38,8.78122764 189.51525,10.4612276 189.51525,13.8977276 C189.51525,18.7352276 185.34225,21.1284776 181.1985,21.1284776 C178.779,21.1284776 175.9785,20.4399776 173.81475,19.2699776" id="Fill-3" fill="#FFBF00"></path>
                <polygon id="Fill-4" fill="#FFBF00" points="165.213 20.8239776 172.31475 20.8239776 172.31475 0.532727645 165.213 0.532727645"></polygon>
                <polyline id="Fill-5" fill="#FFBF00" points="157.2045 0.531977645 164.478 0.531977645 157.04775 20.8239776 151.146 20.8239776 143.73975 0.531977645 150.9885 0.531977645 154.098 12.7772276 157.2045 0.531977645"></polyline>
                <path d="M137.09625,6.38947764 L137.09625,6.38947764 C137.22525,7.25272764 138.49725,13.4634776 138.49725,13.4634776 L135.705,13.4634776 L137.09625,6.38947764 Z M126.51075,20.8239776 L133.89,20.8239776 L134.45175,18.2754776 L139.71675,18.2754776 L140.41575,20.8239776 L147.7995,20.8239776 L140.88825,0.532727645 L133.1475,0.532727645 L126.51075,20.8239776 L126.51075,20.8239776 Z" id="Fill-6" fill="#FFBF00"></path>
                <path d="M108.26475,0.531977645 L115.539,0.531977645 C122.03175,0.531977645 126.99075,3.51247764 126.99075,10.9712276 C126.99075,16.9802276 122.94975,20.8239776 117.27225,20.8239776 L108.26475,20.8127276 L108.26475,0.531977645 Z M115.4145,14.9979776 L115.89075,14.9979776 C118.2315,14.9979776 119.9685,13.5932276 119.9685,10.9449776 C119.9685,8.09422764 118.43025,6.50422764 115.8585,6.50422764 L115.4145,6.50422764 L115.4145,14.9979776 L115.4145,14.9979776 Z" id="Fill-7" fill="#FFBF00"></path>
                <path d="M104.0175,1.16872764 L104.397,4.49947764 C104.4855,5.28922764 104.93775,7.18522764 104.37825,6.93172764 C104.03025,6.77572764 103.743,5.91622764 103.458,5.15197764 C103.31325,4.76422764 102.62175,2.93122764 102.441,2.79622764 C101.56575,2.14297764 99.3855,1.40497764 97.91025,1.39822764 C93.43725,1.38172764 90.4785,4.68172764 90.4785,10.5384776 C90.4785,14.7384776 92.4885,19.7769776 97.60425,19.7769776 C99.43725,19.7769776 102.94725,19.2002276 103.9035,16.5924776 C104.3355,15.4119776 104.73,14.3627276 105.01575,14.6822276 C105.22875,14.9139776 104.952,15.8589776 104.8245,16.3682276 C104.2215,18.7854776 104.1885,19.5182276 103.99875,19.6119776 C101.688,20.7737276 98.72325,21.1554776 96.12975,21.1554776 C87.87975,21.1554776 85.032,16.3427276 85.032,11.5314776 C85.032,3.18172764 90.16125,-0.335022355 98.1105,0.0249776445 C100.122,0.0999776445 102.13425,0.457727645 104.0175,1.16872764" id="Fill-9" fill="#FFBF00"></path>
                <path d="M79.662,1.53922764 L78.3405,1.07797764 C77.89875,0.678977645 78.43875,0.567227645 78.43875,0.567227645 C78.43875,0.567227645 80.3475,0.921977645 85.10325,0.517727645 C85.10325,0.517727645 85.51575,0.600977645 85.2315,0.935477645 L83.67,1.60447764 C82.65375,2.04772764 82.65375,1.79347764 82.65375,2.90722764 L82.64475,13.2482276 C82.64475,21.3369776 74.4195,21.1554776 72.81675,21.1554776 C72.0525,21.1554776 64.5075,21.1554776 64.5075,14.6627276 L64.5075,3.71497764 C64.5075,1.80697764 64.71225,1.85647764 64.07775,1.63372764 L62.16975,0.917477645 C62.16975,0.917477645 61.84575,0.459227645 62.42175,0.488477645 C63.98175,0.567227645 66.23925,0.900977645 71.55,0.517727645 C71.55,0.517727645 72.01275,0.630977645 71.70825,0.964727645 L70.1205,1.41247764 C68.91225,1.95397764 69.072,1.53922764 69.03975,2.78047764 L69.078,13.5737276 C69.078,16.2204776 70.44,19.4979776 74.72325,19.4979776 C80.55375,19.4979776 80.60925,14.4542276 80.60925,13.3322276 L80.619,2.64022764 C80.68125,1.63372764 80.55375,1.92022764 79.662,1.53922764" id="Fill-11" fill="#FFBF00"></path>
                <polygon id="Fill-12" fill="#FFBF00" points="64.509 26.1669776 314.04375 26.1669776 314.04375 25.3194776 64.509 25.3194776"></polygon>
                <path d="M71.77575,34.6592276 C71.64,34.4739776 71.484,34.3119776 71.31075,34.1739776 C71.13675,34.0344776 70.95,33.9189776 70.749,33.8237276 C70.54875,33.7292276 70.3395,33.6579776 70.119,33.6092276 C69.89925,33.5612276 69.6765,33.5364776 69.45225,33.5364776 C69.04725,33.5364776 68.6775,33.6092276 68.34225,33.7547276 C68.0085,33.8994776 67.722,34.1004776 67.485,34.3554776 C67.24725,34.6104776 67.062,34.9097276 66.93,35.2532276 C66.79875,35.5959776 66.73275,35.9664776 66.73275,36.3624776 C66.73275,36.7674776 66.79875,37.1387276 66.93,37.4777276 C67.062,37.8167276 67.2495,38.1084776 67.491,38.3529776 C67.73325,38.5967276 68.02425,38.7887276 68.3625,38.9267276 C68.7015,39.0647276 69.07725,39.1337276 69.492,39.1337276 C69.70725,39.1337276 69.921,39.1097276 70.13475,39.0587276 C70.3485,39.0084776 70.55325,38.9357276 70.749,38.8412276 C70.94475,38.7459776 71.13,38.6327276 71.30325,38.5007276 C71.47725,38.3687276 71.6355,38.2194776 71.77575,38.0522276 L71.77575,41.2277276 C71.55525,41.2929776 71.349,41.3559776 71.1555,41.4159776 C70.962,41.4744776 70.77225,41.5254776 70.587,41.5674776 C70.4025,41.6094776 70.21725,41.6424776 70.029,41.6664776 C69.84225,41.6912276 69.645,41.7032276 69.4395,41.7032276 C68.7255,41.7032276 68.04225,41.5727276 67.389,41.3132276 C66.735,41.0537276 66.1425,40.6839776 65.60925,40.2039776 C65.04675,39.6939776 64.63275,39.1134776 64.36875,38.4647276 C64.10475,37.8159776 63.97275,37.1102276 63.97275,36.3497276 C63.97275,35.6492276 64.101,34.9779776 64.356,34.3359776 C64.611,33.6932276 64.98525,33.1209776 65.478,32.6192276 C65.72925,32.3642276 66.00375,32.1339776 66.303,31.9292276 C66.60225,31.7252276 66.91875,31.5504776 67.251,31.4072276 C67.58175,31.2647276 67.92675,31.1552276 68.28375,31.0809776 C68.64,31.0059776 68.99625,30.9684776 69.3525,30.9684776 C69.78,30.9684776 70.19175,31.0142276 70.587,31.1042276 C70.98375,31.1949776 71.37975,31.3209776 71.77575,31.4844776 L71.77575,34.6592276" id="Fill-13" fill="#022851"></path>
                <path d="M79.4145,33.4704776 C79.0185,33.4704776 78.64575,33.5439776 78.2985,33.6917276 C77.95125,33.8394776 77.646,34.0374776 77.38425,34.2864776 C77.12325,34.5347276 76.9155,34.8212276 76.764,35.1437276 C76.6125,35.4677276 76.536,35.8059776 76.536,36.1577276 C76.536,36.5979776 76.6125,37.0037276 76.764,37.3757276 C76.9155,37.7469776 77.12325,38.0679776 77.38425,38.3387276 C77.646,38.6094776 77.95125,38.8209776 78.2985,38.9724776 C78.64575,39.1247276 79.0185,39.2012276 79.4145,39.2012276 C79.80975,39.2012276 80.18325,39.1247276 80.53275,38.9724776 C80.883,38.8209776 81.18825,38.6094776 81.447,38.3387276 C81.7065,38.0679776 81.91275,37.7469776 82.0635,37.3757276 C82.2165,37.0037276 82.293,36.5979776 82.293,36.1577276 C82.293,35.8059776 82.2165,35.4677276 82.0635,35.1437276 C81.91275,34.8212276 81.7065,34.5347276 81.447,34.2864776 C81.18825,34.0374776 80.883,33.8394776 80.53275,33.6917276 C80.18325,33.5439776 79.80975,33.4704776 79.4145,33.4704776 M79.4145,30.9024776 C79.90275,30.9024776 80.38125,30.9609776 80.85,31.0779776 C81.31875,31.1949776 81.762,31.3599776 82.17975,31.5759776 C82.59825,31.7912276 82.98375,32.0552276 83.3355,32.3649776 C83.688,32.6754776 83.99025,33.0249776 84.243,33.4149776 C84.4965,33.8042276 84.6945,34.2279776 84.83775,34.6854776 C84.98025,35.1429776 85.05225,35.6297276 85.05225,36.1442276 C85.05225,36.9714776 84.91275,37.7297276 84.633,38.4182276 C84.35325,39.1074776 83.9625,39.6992276 83.46075,40.1942276 C82.959,40.6899776 82.36425,41.0754776 81.675,41.3529776 C80.9865,41.6297276 80.23275,41.7684776 79.4145,41.7684776 C78.86775,41.7684776 78.35025,41.7062276 77.85975,41.5809776 C77.36925,41.4557276 76.9155,41.2757276 76.49925,41.0424776 C76.08375,40.8099776 75.708,40.5257276 75.37125,40.1942276 C75.03375,39.8619776 74.748,39.4869776 74.5125,39.0692276 C74.27775,38.6507276 74.0955,38.1954776 73.96875,37.7057276 C73.84125,37.2144776 73.77675,36.6947276 73.77675,36.1442276 C73.77675,35.6297276 73.84875,35.1429776 73.99125,34.6854776 C74.1345,34.2279776 74.33325,33.8042276 74.589,33.4149776 C74.844,33.0249776 75.14625,32.6754776 75.4965,32.3649776 C75.846,32.0552276 76.23075,31.7912276 76.6485,31.5759776 C77.06625,31.3599776 77.5095,31.1949776 77.97825,31.0779776 C78.44775,30.9609776 78.9255,30.9024776 79.4145,30.9024776" id="Fill-14" fill="#022851"></path>
                <polyline id="Fill-15" fill="#022851" points="89.9745 39.1877276 93.15675 39.1877276 93.15675 41.4324776 87.327 41.4324776 87.327 31.2392276 89.9745 31.2392276 89.9745 39.1877276"></polyline>
                <polyline id="Fill-16" fill="#022851" points="98.1825 39.1877276 101.36475 39.1877276 101.36475 41.4324776 95.535 41.4324776 95.535 31.2392276 98.1825 31.2392276 98.1825 39.1877276"></polyline>
                <polyline id="Fill-17" fill="#022851" points="106.3905 33.4839776 106.3905 35.1864776 109.38 35.1864776 109.38 37.4319776 106.3905 37.4319776 106.3905 39.1877276 109.54575 39.1877276 109.54575 41.4309776 103.743 41.4309776 103.743 31.2392276 109.54575 31.2392276 109.54575 33.4839776 106.3905 33.4839776"></polyline>
                <path d="M122.5995,35.7414776 C122.592,36.1112276 122.5755,36.4697276 122.55375,36.8177276 C122.532,37.1649776 122.484,37.5054776 122.41125,37.8377276 C122.34,38.1692276 122.23575,38.4962276 122.1015,38.8142276 C121.96725,39.1337276 121.785,39.4517276 121.557,39.7689776 C121.30575,40.1162276 121.026,40.4162276 120.71925,40.6689776 C120.41025,40.9224776 120.078,41.1309776 119.721,41.2937276 C119.3655,41.4557276 118.989,41.5764776 118.59375,41.6529776 C118.19625,41.7302276 117.7845,41.7684776 117.3585,41.7684776 C116.5575,41.7684776 115.82325,41.6387276 115.15725,41.3799776 C114.4905,41.1197276 113.91675,40.7537276 113.4375,40.2804776 C112.9575,39.8064776 112.58475,39.2409776 112.31775,38.5802276 C112.0515,37.9202276 111.91875,37.1897276 111.91875,36.3879776 C111.91875,35.5607276 112.053,34.8092276 112.3215,34.1342276 C112.59,33.4592276 112.968,32.8824776 113.45325,32.4047276 C113.93925,31.9277276 114.522,31.5579776 115.2,31.2954776 C115.87725,31.0337276 116.62725,30.9024776 117.45075,30.9024776 C118.4985,30.9024776 119.41575,31.1394776 120.20325,31.6127276 C120.9915,32.0859776 121.605,32.7999776 122.04525,33.7547276 L119.53125,34.8047276 C119.43825,34.5624776 119.32125,34.3427276 119.181,34.1447276 C119.0385,33.9459776 118.8765,33.7749776 118.692,33.6324776 C118.50675,33.4892276 118.3005,33.3797276 118.071,33.3024776 C117.84225,33.2259776 117.594,33.1877276 117.32625,33.1877276 C116.8905,33.1877276 116.50575,33.2814776 116.1765,33.4712276 C115.8465,33.6602276 115.5705,33.9077276 115.34775,34.2129776 C115.12575,34.5197276 114.9585,34.8639776 114.84675,35.2464776 C114.73425,35.6297276 114.678,36.0144776 114.678,36.4022276 C114.678,36.7982276 114.7365,37.1859776 114.85275,37.5677276 C114.96975,37.9472276 115.1415,38.2884776 115.368,38.5899776 C115.5945,38.8914776 115.87575,39.1337276 116.21325,39.3167276 C116.54925,39.4997276 116.93625,39.5904776 117.372,39.5904776 C117.657,39.5904776 117.92475,39.5537276 118.17375,39.4779776 C118.422,39.4029776 118.6395,39.2912276 118.827,39.1449776 C119.01375,38.9972276 119.16675,38.8134776 119.28525,38.5929776 C119.4045,38.3732276 119.47725,38.1159776 119.5035,37.8212276 L117.339,37.8212276 L117.339,35.7414776 L122.5995,35.7414776" id="Fill-18" fill="#022851"></path>
                <polyline id="Fill-19" fill="#022851" points="127.4895 33.4839776 127.4895 35.1864776 130.47975 35.1864776 130.47975 37.4319776 127.4895 37.4319776 127.4895 39.1877276 130.64475 39.1877276 130.64475 41.4309776 124.842 41.4309776 124.842 31.2392276 130.64475 31.2392276 130.64475 33.4839776 127.4895 33.4839776"></polyline>
                <path d="M141.76425,35.7474776 C141.4815,35.7474776 141.216,35.7999776 140.96775,35.9049776 C140.7195,36.0114776 140.50125,36.1517276 140.31525,36.3302276 C140.12775,36.5079776 139.98,36.7119776 139.872,36.9422276 C139.76325,37.1732276 139.71,37.4154776 139.71,37.6652276 C139.71,37.9809776 139.76325,38.2697276 139.872,38.5359776 C139.98,38.8014776 140.12775,39.0302276 140.31525,39.2244776 C140.50125,39.4164776 140.7195,39.5679776 140.96775,39.6767276 C141.216,39.7847276 141.4815,39.8394776 141.76425,39.8394776 C142.047,39.8394776 142.31325,39.7847276 142.563,39.6767276 C142.8135,39.5679776 143.031,39.4164776 143.21625,39.2244776 C143.4015,39.0302276 143.54775,38.8014776 143.6565,38.5359776 C143.7645,38.2697276 143.81925,37.9809776 143.81925,37.6652276 C143.81925,37.4154776 143.7645,37.1732276 143.6565,36.9422276 C143.54775,36.7119776 143.4015,36.5079776 143.21625,36.3302276 C143.031,36.1517276 142.8135,36.0114776 142.563,35.9049776 C142.31325,35.7999776 142.047,35.7474776 141.76425,35.7474776 M141.76425,33.9144776 C142.113,33.9144776 142.45425,33.9557276 142.78875,34.0389776 C143.124,34.1229776 143.43975,34.2407276 143.739,34.3952276 C144.03675,34.5482276 144.3135,34.7357276 144.564,34.9584776 C144.8145,35.1797276 145.032,35.4287276 145.212,35.7077276 C145.392,35.9859776 145.533,36.2882276 145.6365,36.6152276 C145.73775,36.9414776 145.78875,37.2887276 145.78875,37.6562276 C145.78875,38.2472276 145.689,38.7894776 145.4895,39.2799776 C145.29,39.7712276 145.0125,40.1949776 144.65325,40.5489776 C144.2955,40.9014776 143.871,41.1782276 143.37825,41.3762276 C142.88625,41.5734776 142.34925,41.6724776 141.76425,41.6724776 C141.37425,41.6724776 141.0045,41.6289776 140.65425,41.5382276 C140.30325,41.4482276 139.98,41.3214776 139.683,41.1527276 C139.386,40.9877276 139.1175,40.7859776 138.87675,40.5489776 C138.63675,40.3104776 138.43275,40.0427276 138.264,39.7442276 C138.09675,39.4464776 137.967,39.1209776 137.87625,38.7722276 C137.784,38.4204776 137.739,38.0492276 137.739,37.6562276 C137.739,37.2887276 137.79,36.9414776 137.8935,36.6152276 C137.99475,36.2882276 138.1365,35.9859776 138.31875,35.7077276 C138.501,35.4287276 138.71775,35.1797276 138.96675,34.9584776 C139.2165,34.7357276 139.491,34.5482276 139.7895,34.3952276 C140.088,34.2407276 140.4045,34.1229776 140.739,34.0389776 C141.07425,33.9557276 141.41475,33.9144776 141.76425,33.9144776" id="Fill-20" fill="#022851"></path>
                <polyline id="Fill-21" fill="#022851" points="148.935 35.7572276 148.935 36.9729776 151.014 36.9729776 151.014 38.5757276 148.935 38.5757276 148.935 41.4324776 147.045 41.4324776 147.045 34.1552276 151.2255 34.1552276 151.2255 35.7572276 148.935 35.7572276"></polyline>
                <path d="M162.36225,34.3884776 L162.33675,34.3884776 L161.24025,37.6359776 L163.4445,37.6359776 L162.36225,34.3884776 Z M160.5075,39.6624776 L159.80775,41.4309776 L156.996,41.4309776 L160.917,31.2392276 L163.80825,31.2392276 L167.6505,41.4309776 L164.82525,41.4309776 L164.1585,39.6624776 L160.5075,39.6624776 L160.5075,39.6624776 Z" id="Fill-22" fill="#022851"></path>
                <path d="M179.811,35.7414776 C179.802,36.1112276 179.78625,36.4697276 179.76525,36.8177276 C179.74275,37.1649776 179.6955,37.5054776 179.62275,37.8377276 C179.55075,38.1692276 179.4465,38.4962276 179.313,38.8142276 C179.178,39.1337276 178.9965,39.4517276 178.76775,39.7689776 C178.51725,40.1162276 178.2375,40.4162276 177.93,40.6689776 C177.62175,40.9224776 177.2895,41.1309776 176.9325,41.2937276 C176.577,41.4557276 176.2005,41.5764776 175.8045,41.6529776 C175.407,41.7302276 174.996,41.7684776 174.57,41.7684776 C173.76825,41.7684776 173.034,41.6387276 172.368,41.3799776 C171.7005,41.1197276 171.1275,40.7537276 170.64825,40.2804776 C170.169,39.8064776 169.79625,39.2409776 169.53,38.5802276 C169.26225,37.9202276 169.13025,37.1897276 169.13025,36.3879776 C169.13025,35.5607276 169.2645,34.8092276 169.53225,34.1342276 C169.8015,33.4592276 170.17875,32.8824776 170.66475,32.4047276 C171.1515,31.9277276 171.7335,31.5579776 172.41075,31.2954776 C173.0895,31.0337276 173.8395,30.9024776 174.66225,30.9024776 C175.71,30.9024776 176.6265,31.1394776 177.414,31.6127276 C178.20225,32.0859776 178.81575,32.7999776 179.25675,33.7547276 L176.742,34.8047276 C176.649,34.5624776 176.532,34.3427276 176.39175,34.1447276 C176.25075,33.9459776 176.08875,33.7749776 175.90275,33.6324776 C175.71825,33.4892276 175.512,33.3797276 175.2825,33.3024776 C175.053,33.2259776 174.8055,33.1877276 174.53625,33.1877276 C174.1005,33.1877276 173.71875,33.2814776 173.38725,33.4712276 C173.058,33.6602276 172.782,33.9077276 172.56,34.2129776 C172.33725,34.5197276 172.17,34.8639776 172.05825,35.2464776 C171.94575,35.6297276 171.8895,36.0144776 171.8895,36.4022276 C171.8895,36.7982276 171.94725,37.1859776 172.0635,37.5677276 C172.18125,37.9472276 172.35225,38.2884776 172.5795,38.5899776 C172.806,38.8914776 173.088,39.1337276 173.424,39.3167276 C173.76075,39.4997276 174.147,39.5904776 174.58275,39.5904776 C174.8685,39.5904776 175.1355,39.5537276 175.3845,39.4779776 C175.63275,39.4029776 175.851,39.2912276 176.0385,39.1449776 C176.22525,38.9972276 176.37825,38.8134776 176.49675,38.5929776 C176.616,38.3732276 176.68875,38.1159776 176.715,37.8212276 L174.5505,37.8212276 L174.5505,35.7414776 L179.811,35.7414776" id="Fill-23" fill="#022851"></path>
                <path d="M185.24175,35.8082276 L185.49825,35.8082276 C185.71425,35.8082276 185.9325,35.7932276 186.15225,35.7647276 C186.37275,35.7362276 186.57,35.6769776 186.747,35.5869776 C186.9225,35.4954776 187.065,35.3687276 187.17525,35.2037276 C187.28475,35.0394776 187.34025,34.8182276 187.34025,34.5399776 C187.34025,34.2632276 187.28475,34.0404776 187.17525,33.8732276 C187.065,33.7059776 186.9225,33.5769776 186.747,33.4869776 C186.57,33.3969776 186.37275,33.3377276 186.15225,33.3084776 C185.9325,33.2799776 185.71425,33.2664776 185.49825,33.2664776 L185.24175,33.2664776 L185.24175,35.8082276 Z M191.07,41.4324776 L187.76925,41.4324776 L185.27475,37.5114776 L185.24175,37.5114776 L185.24175,41.4324776 L182.59425,41.4324776 L182.59425,31.2392276 L186.555,31.2392276 C187.05675,31.2392276 187.524,31.3007276 187.9575,31.4244776 C188.391,31.5482276 188.76675,31.7364776 189.08325,31.9929776 C189.4005,32.2472276 189.64875,32.5719776 189.82875,32.9649776 C190.0095,33.3594776 190.0995,33.8289776 190.0995,34.3742276 C190.0995,34.7274776 190.0515,35.0619776 189.95475,35.3822276 C189.85725,35.7017276 189.714,35.9882276 189.525,36.2432276 C189.336,36.4989776 189.10275,36.7142276 188.82525,36.8904776 C188.5485,37.0667276 188.229,37.1874776 187.869,37.2534776 L191.07,41.4324776 L191.07,41.4324776 Z" id="Fill-24" fill="#022851"></path>
                <polygon id="Fill-25" fill="#022851" points="193.371 41.4309776 196.0185 41.4309776 196.0185 31.2392276 193.371 31.2392276"></polygon>
                <path d="M206.35425,34.6592276 C206.21775,34.4739776 206.0625,34.3119776 205.8885,34.1739776 C205.71525,34.0344776 205.52775,33.9189776 205.32675,33.8237276 C205.12725,33.7292276 204.91725,33.6579776 204.69675,33.6092276 C204.477,33.5612276 204.255,33.5364776 204.03075,33.5364776 C203.62575,33.5364776 203.25525,33.6092276 202.92075,33.7547276 C202.58625,33.8994776 202.29975,34.1004776 202.0635,34.3554776 C201.825,34.6104776 201.6405,34.9097276 201.5085,35.2532276 C201.3765,35.5959776 201.31125,35.9664776 201.31125,36.3624776 C201.31125,36.7674776 201.3765,37.1387276 201.5085,37.4777276 C201.6405,37.8167276 201.82725,38.1084776 202.06875,38.3529776 C202.31175,38.5967276 202.602,38.7887276 202.94025,38.9267276 C203.28075,39.0647276 203.65575,39.1337276 204.06975,39.1337276 C204.285,39.1337276 204.50025,39.1097276 204.71325,39.0587276 C204.927,39.0084776 205.131,38.9357276 205.32675,38.8412276 C205.52325,38.7459776 205.7085,38.6327276 205.88175,38.5007276 C206.055,38.3687276 206.21325,38.2194776 206.35425,38.0522276 L206.35425,41.2277276 C206.13375,41.2929776 205.9275,41.3559776 205.73325,41.4159776 C205.53975,41.4744776 205.35,41.5254776 205.1655,41.5674776 C204.98025,41.6094776 204.795,41.6424776 204.6075,41.6664776 C204.42075,41.6912276 204.2235,41.7032276 204.01725,41.7032276 C203.30475,41.7032276 202.62075,41.5727276 201.9675,41.3132276 C201.3135,41.0537276 200.72025,40.6839776 200.1885,40.2039776 C199.62525,39.6939776 199.21125,39.1134776 198.94725,38.4647276 C198.68325,37.8159776 198.55125,37.1102276 198.55125,36.3497276 C198.55125,35.6492276 198.67875,34.9779776 198.9345,34.3359776 C199.18875,33.6932276 199.56375,33.1209776 200.0565,32.6192276 C200.307,32.3642276 200.58225,32.1339776 200.88075,31.9292276 C201.18075,31.7252276 201.4965,31.5504776 201.82875,31.4072276 C202.16175,31.2647276 202.5045,31.1552276 202.8615,31.0809776 C203.2185,31.0059776 203.574,30.9684776 203.93175,30.9684776 C204.3585,30.9684776 204.7695,31.0142276 205.1655,31.1042276 C205.5615,31.1949776 205.95825,31.3209776 206.35425,31.4844776 L206.35425,34.6592276" id="Fill-26" fill="#022851"></path>
                <path d="M218.358,31.2392276 L218.358,36.9692276 C218.358,37.2992276 218.3505,37.6254776 218.33475,37.9464776 C218.31975,38.2682276 218.277,38.5809776 218.2065,38.8877276 C218.136,39.1929776 218.0295,39.4884776 217.8855,39.7727276 C217.743,40.0562276 217.5465,40.3209776 217.29525,40.5669776 C217.08375,40.7784776 216.8445,40.9554776 216.576,41.0987276 C216.3075,41.2419776 216.0255,41.3582276 215.73075,41.4482276 C215.43525,41.5389776 215.133,41.6034776 214.82175,41.6439776 C214.51275,41.6822276 214.20975,41.7024776 213.915,41.7024776 C213.61575,41.7024776 213.31125,41.6822276 213.00075,41.6439776 C212.69025,41.6034776 212.3895,41.5389776 212.0955,41.4482276 C211.80375,41.3582276 211.52325,41.2419776 211.25475,41.0987276 C210.987,40.9554776 210.74625,40.7784776 210.53475,40.5669776 C210.2805,40.3209776 210.081,40.0562276 209.9385,39.7727276 C209.7945,39.4884776 209.68875,39.1929776 209.61825,38.8877276 C209.54775,38.5809776 209.5035,38.2682276 209.49,37.9464776 C209.4735,37.6254776 209.466,37.2992276 209.466,36.9692276 L209.466,31.2392276 L212.1135,31.2392276 L212.1135,36.6062276 C212.1135,36.8259776 212.11875,37.0494776 212.13,37.2729776 C212.13975,37.4979776 212.1645,37.7117276 212.202,37.9172276 C212.2395,38.1204776 212.2965,38.3132276 212.37375,38.4909776 C212.451,38.6694776 212.556,38.8239776 212.69025,38.9559776 C212.82525,39.0879776 212.991,39.1922276 213.18825,39.2672276 C213.387,39.3414776 213.6285,39.3789776 213.915,39.3789776 C214.197,39.3789776 214.43775,39.3414776 214.638,39.2672276 C214.83825,39.1922276 215.00475,39.0879776 215.13675,38.9559776 C215.26875,38.8239776 215.373,38.6694776 215.4495,38.4909776 C215.5275,38.3132276 215.586,38.1204776 215.625,37.9172276 C215.664,37.7117276 215.68875,37.4979776 215.697,37.2729776 C215.706,37.0494776 215.71125,36.8259776 215.71125,36.6062276 L215.71125,31.2392276 L218.358,31.2392276" id="Fill-27" fill="#022851"></path>
                <polyline id="Fill-28" fill="#022851" points="224.27775 39.1877276 227.45925 39.1877276 227.45925 41.4324776 221.6295 41.4324776 221.6295 31.2392276 224.27775 31.2392276 224.27775 39.1877276"></polyline>
                <polyline id="Fill-29" fill="#022851" points="233.17425 41.4324776 230.5275 41.4324776 230.5275 33.4847276 228.336 33.4847276 228.336 31.2392276 235.36725 31.2392276 235.36725 33.4847276 233.17425 33.4847276 233.17425 41.4324776"></polyline>
                <path d="M246.64275,31.2392276 L246.64275,36.9692276 C246.64275,37.2992276 246.63525,37.6254776 246.6195,37.9464776 C246.6045,38.2682276 246.56175,38.5809776 246.492,38.8877276 C246.42075,39.1929776 246.31425,39.4884776 246.171,39.7727276 C246.02775,40.0562276 245.832,40.3209776 245.5815,40.5669776 C245.36925,40.7784776 245.1285,40.9554776 244.8615,41.0987276 C244.59225,41.2419776 244.31025,41.3582276 244.0155,41.4482276 C243.72,41.5389776 243.4185,41.6034776 243.10725,41.6439776 C242.79825,41.6822276 242.4945,41.7024776 242.2005,41.7024776 C241.902,41.7024776 241.596,41.6822276 241.2855,41.6439776 C240.975,41.6034776 240.67425,41.5389776 240.38175,41.4482276 C240.08925,41.3582276 239.80875,41.2419776 239.54025,41.0987276 C239.27175,40.9554776 239.0325,40.7784776 238.821,40.5669776 C238.56525,40.3209776 238.36575,40.0562276 238.22325,39.7727276 C238.08,39.4884776 237.97275,39.1929776 237.903,38.8877276 C237.8325,38.5809776 237.789,38.2682276 237.77475,37.9464776 C237.75825,37.6254776 237.75075,37.2992276 237.75075,36.9692276 L237.75075,31.2392276 L240.39825,31.2392276 L240.39825,36.6062276 C240.39825,36.8259776 240.4035,37.0494776 240.41475,37.2729776 C240.42525,37.4979776 240.45,37.7117276 240.4875,37.9172276 C240.525,38.1204776 240.58125,38.3132276 240.65925,38.4909776 C240.7365,38.6694776 240.8415,38.8239776 240.975,38.9559776 C241.11,39.0879776 241.2765,39.1922276 241.47375,39.2672276 C241.67175,39.3414776 241.914,39.3789776 242.2005,39.3789776 C242.48175,39.3789776 242.72325,39.3414776 242.9235,39.2672276 C243.12375,39.1922276 243.2895,39.0879776 243.42225,38.9559776 C243.55425,38.8239776 243.657,38.6694776 243.73575,38.4909776 C243.813,38.3132276 243.87075,38.1204776 243.909,37.9172276 C243.9495,37.7117276 243.9735,37.4979776 243.9825,37.2729776 C243.9915,37.0494776 243.996,36.8259776 243.996,36.6062276 L243.996,31.2392276 L246.64275,31.2392276" id="Fill-30" fill="#022851"></path>
                <path d="M252.5625,35.8082276 L252.819,35.8082276 C253.035,35.8082276 253.25325,35.7932276 253.47225,35.7647276 C253.69275,35.7362276 253.8915,35.6769776 254.06775,35.5869776 C254.244,35.4954776 254.3865,35.3687276 254.4975,35.2037276 C254.607,35.0394776 254.661,34.8182276 254.661,34.5399776 C254.661,34.2632276 254.607,34.0404776 254.4975,33.8732276 C254.3865,33.7059776 254.244,33.5769776 254.06775,33.4869776 C253.8915,33.3969776 253.69275,33.3377276 253.47225,33.3084776 C253.25325,33.2799776 253.035,33.2664776 252.819,33.2664776 L252.5625,33.2664776 L252.5625,35.8082276 Z M258.3915,41.4324776 L255.09,41.4324776 L252.5955,37.5114776 L252.5625,37.5114776 L252.5625,41.4324776 L249.915,41.4324776 L249.915,31.2392276 L253.87575,31.2392276 C254.37675,31.2392276 254.84475,31.3007276 255.279,31.4244776 C255.7125,31.5482276 256.08825,31.7364776 256.40475,31.9929776 C256.7205,32.2472276 256.9695,32.5719776 257.15025,32.9649776 C257.33025,33.3594776 257.42025,33.8289776 257.42025,34.3742276 C257.42025,34.7274776 257.37225,35.0619776 257.2755,35.3822276 C257.17875,35.7017276 257.0355,35.9882276 256.8465,36.2432276 C256.6575,36.4989776 256.42425,36.7142276 256.14675,36.8904776 C255.87,37.0667276 255.5505,37.1874776 255.18975,37.2534776 L258.3915,41.4324776 L258.3915,41.4324776 Z" id="Fill-31" fill="#022851"></path>
                <path d="M265.6005,34.3884776 L265.57575,34.3884776 L264.4785,37.6359776 L266.6835,37.6359776 L265.6005,34.3884776 Z M263.7465,39.6624776 L263.0475,41.4309776 L260.23425,41.4309776 L264.15675,31.2392276 L267.04725,31.2392276 L270.88875,41.4309776 L268.0635,41.4309776 L267.3975,39.6624776 L263.7465,39.6624776 L263.7465,39.6624776 Z" id="Fill-32" fill="#022851"></path>
                <polyline id="Fill-33" fill="#022851" points="275.883 39.1877276 279.0645 39.1877276 279.0645 41.4324776 273.2355 41.4324776 273.2355 31.2392276 275.883 31.2392276 275.883 39.1877276"></polyline>
                <path d="M67.4175,52.1762276 L67.398,52.1762276 L66.61575,54.4944776 L68.19075,54.4944776 L67.4175,52.1762276 Z M66.093,55.9419776 L65.5935,57.2049776 L63.585,57.2049776 L66.3855,49.9277276 L68.4495,49.9277276 L71.19225,57.2049776 L69.17475,57.2049776 L68.69925,55.9419776 L66.093,55.9419776 L66.093,55.9419776 Z" id="Fill-34" fill="#022851"></path>
                <polyline id="Fill-35" fill="#022851" points="72.11775 49.9277276 74.00775 49.9277276 77.4765 54.3767276 77.49675 54.3767276 77.49675 49.9277276 79.38525 49.9277276 79.38525 57.2049776 77.49675 57.2049776 74.03175 52.7454776 74.00775 52.7454776 74.00775 57.2049776 72.11775 57.2049776 72.11775 49.9277276"></polyline>
                <path d="M82.90125,55.6029776 L83.331,55.6029776 C83.613,55.6029776 83.8815,55.5632276 84.13425,55.4852276 C84.387,55.4064776 84.609,55.2827276 84.79875,55.1169776 C84.98925,54.9512276 85.14075,54.7389776 85.25325,54.4832276 C85.3665,54.2267276 85.42275,53.9214776 85.42275,53.5659776 C85.42275,53.2397276 85.37175,52.9487276 85.26975,52.6959776 C85.16775,52.4439776 85.02525,52.2309776 84.8415,52.0584776 C84.657,51.8852276 84.43875,51.7539776 84.186,51.6647276 C83.93325,51.5747276 83.65425,51.5289776 83.349,51.5289776 L82.90125,51.5289776 L82.90125,55.6029776 Z M81.012,49.9277276 L83.694,49.9277276 C84.03,49.9277276 84.3555,49.9697276 84.66975,50.0544776 C84.984,50.1392276 85.278,50.2599776 85.55325,50.4152276 C85.8285,50.5704776 86.07825,50.7587276 86.30475,50.9784776 C86.53125,51.1989776 86.724,51.4442276 86.88525,51.7142276 C87.04425,51.9849776 87.1695,52.2752276 87.2595,52.5887276 C87.3495,52.8999776 87.393,53.2262276 87.393,53.5659776 C87.393,53.9057276 87.3495,54.2319776 87.2595,54.5447276 C87.1695,54.8567276 87.0435,55.1492276 86.88225,55.4184776 C86.72025,55.6884776 86.526,55.9337276 86.2995,56.1534776 C86.07375,56.3732276 85.824,56.5607276 85.551,56.7167276 C85.27725,56.8719776 84.984,56.9927276 84.66975,57.0774776 C84.3555,57.1622276 84.03,57.2049776 83.694,57.2049776 L81.012,57.2049776 L81.012,49.9277276 L81.012,49.9277276 Z" id="Fill-36" fill="#022851"></path>
                <polyline id="Fill-37" fill="#022851" points="96.5535 49.2572276 96.5535 50.9604776 99.54375 50.9604776 99.54375 53.2052276 96.5535 53.2052276 96.5535 54.9609776 99.70875 54.9609776 99.70875 57.2042276 93.90675 57.2042276 93.90675 47.0117276 99.70875 47.0117276 99.70875 49.2572276 96.5535 49.2572276"></polyline>
                <polyline id="Fill-38" fill="#022851" points="102.684 47.0124776 105.33075 47.0124776 110.1885 53.2442276 110.2155 53.2442276 110.2155 47.0124776 112.863 47.0124776 112.863 57.2049776 110.2155 57.2049776 105.36375 50.9604776 105.33075 50.9604776 105.33075 57.2049776 102.684 57.2049776 102.684 47.0124776"></polyline>
                <polyline id="Fill-39" fill="#022851" points="120.15825 53.2052276 122.63325 47.0117276 125.51175 47.0117276 121.16175 57.2057276 119.1015 57.2057276 114.81675 47.0117276 117.70275 47.0117276 120.15825 53.2052276"></polyline>
                <polygon id="Fill-40" fill="#022851" points="127.47375 57.2034776 130.12125 57.2034776 130.12125 47.0117276 127.47375 47.0117276"></polygon>
                <path d="M135.831,51.5814776 L136.08825,51.5814776 C136.30425,51.5814776 136.52175,51.5664776 136.7415,51.5379776 C136.962,51.5087276 137.15925,51.4494776 137.33625,51.3594776 C137.511,51.2694776 137.655,51.1419776 137.7645,50.9769776 C137.8755,50.8104776 137.93025,50.5907276 137.93025,50.3124776 C137.93025,50.0357276 137.8755,49.8137276 137.7645,49.6464776 C137.655,49.4792276 137.511,49.3502276 137.33625,49.2594776 C137.15925,49.1694776 136.962,49.1102276 136.7415,49.0824776 C136.52175,49.0532276 136.30425,49.0382276 136.08825,49.0382276 L135.831,49.0382276 L135.831,51.5814776 Z M141.65925,57.2049776 L138.3585,57.2049776 L135.86325,53.2839776 L135.831,53.2839776 L135.831,57.2049776 L133.1835,57.2049776 L133.1835,47.0124776 L137.14425,47.0124776 C137.646,47.0124776 138.114,47.0739776 138.54675,47.1969776 C138.981,47.3207276 139.356,47.5097276 139.6725,47.7647276 C139.98975,48.0204776 140.23725,48.3444776 140.418,48.7382276 C140.598,49.1327276 140.68875,49.6022276 140.68875,50.1482276 C140.68875,50.4999776 140.64075,50.8359776 140.544,51.1547276 C140.44725,51.4742276 140.304,51.7607276 140.11425,52.0157276 C139.92525,52.2714776 139.692,52.4874776 139.4145,52.6637276 C139.13775,52.8384776 138.81825,52.9607276 138.45825,53.0259776 L141.65925,57.2049776 L141.65925,57.2049776 Z" id="Fill-41" fill="#022851"></path>
                <path d="M148.56375,49.2429776 C148.167,49.2429776 147.79575,49.3172276 147.44775,49.4642276 C147.09975,49.6127276 146.79525,49.8099776 146.53275,50.0589776 C146.27175,50.3079776 146.064,50.5937276 145.91325,50.9169776 C145.761,51.2409776 145.68525,51.5784776 145.68525,51.9309776 C145.68525,52.3697276 145.761,52.7762276 145.91325,53.1489776 C146.064,53.5202276 146.27175,53.8404776 146.53275,54.1127276 C146.79525,54.3834776 147.09975,54.5927276 147.44775,54.7449776 C147.79575,54.8979776 148.167,54.9737276 148.56375,54.9737276 C148.959,54.9737276 149.3325,54.8979776 149.68275,54.7449776 C150.03225,54.5927276 150.33675,54.3834776 150.59625,54.1127276 C150.85725,53.8404776 151.062,53.5202276 151.21425,53.1489776 C151.36575,52.7762276 151.4415,52.3697276 151.4415,51.9309776 C151.4415,51.5784776 151.36575,51.2409776 151.21425,50.9169776 C151.062,50.5937276 150.85725,50.3079776 150.59625,50.0589776 C150.33675,49.8099776 150.03225,49.6127276 149.68275,49.4642276 C149.3325,49.3172276 148.959,49.2429776 148.56375,49.2429776 M148.56375,46.6749776 C149.052,46.6749776 149.53125,46.7342276 149.99925,46.8512276 C150.468,46.9674776 150.91125,47.1339776 151.329,47.3499776 C151.7475,47.5652276 152.13225,47.8277276 152.484,48.1382276 C152.8365,48.4487276 153.1395,48.7974776 153.39225,49.1874776 C153.64575,49.5767276 153.84375,49.9997276 153.987,50.4587276 C154.1295,50.9162276 154.2015,51.4014776 154.2015,51.9167276 C154.2015,52.7447276 154.06125,53.5022276 153.78225,54.1907276 C153.50175,54.8799776 153.11175,55.4717276 152.61075,55.9667276 C152.10825,56.4632276 151.51275,56.8479776 150.82425,57.1254776 C150.135,57.4022276 149.382,57.5417276 148.56375,57.5417276 C148.01775,57.5417276 147.4995,57.4794776 147.00825,57.3527276 C146.5185,57.2282276 146.064,57.0489776 145.6485,56.8149776 C145.233,56.5824776 144.8565,56.2997276 144.5205,55.9667276 C144.18375,55.6344776 143.89725,55.2594776 143.66175,54.8417276 C143.427,54.4239776 143.2455,53.9687276 143.118,53.4782276 C142.98975,52.9884776 142.926,52.4672276 142.926,51.9167276 C142.926,51.4014776 142.998,50.9162276 143.13975,50.4587276 C143.283,49.9997276 143.4825,49.5767276 143.73825,49.1874776 C143.99325,48.7974776 144.2955,48.4487276 144.645,48.1382276 C144.99525,47.8277276 145.37925,47.5652276 145.797,47.3499776 C146.2155,47.1339776 146.65875,46.9674776 147.1275,46.8512276 C147.59625,46.7342276 148.07475,46.6749776 148.56375,46.6749776" id="Fill-43" fill="#022851"></path>
                <polyline id="Fill-45" fill="#022851" points="157.017 47.0124776 159.6645 47.0124776 164.523 53.2442276 164.54925 53.2442276 164.54925 47.0124776 167.196 47.0124776 167.196 57.2049776 164.54925 57.2049776 159.6975 50.9604776 159.6645 50.9604776 159.6645 57.2049776 157.017 57.2049776 157.017 47.0124776"></polyline>
                <polyline id="Fill-46" fill="#022851" points="171.351 47.0124776 173.95875 47.0124776 176.03175 52.4589776 178.2165 47.0124776 180.85725 47.0124776 182.3955 57.2049776 179.74875 57.2049776 179.00175 51.3362276 178.9755 51.3362276 176.52675 57.2049776 175.47675 57.2049776 173.133 51.3362276 173.1075 51.3362276 172.2555 57.2049776 169.623 57.2049776 171.351 47.0124776"></polyline>
                <polyline id="Fill-47" fill="#022851" points="187.503 49.2572276 187.503 50.9604776 190.494 50.9604776 190.494 53.2052276 187.503 53.2052276 187.503 54.9609776 190.6575 54.9609776 190.6575 57.2042276 184.8555 57.2042276 184.8555 47.0117276 190.6575 47.0117276 190.6575 49.2572276 187.503 49.2572276"></polyline>
                <polyline id="Fill-48" fill="#022851" points="193.63275 47.0124776 196.281 47.0124776 201.13875 53.2442276 201.16425 53.2442276 201.16425 47.0124776 203.8125 47.0124776 203.8125 57.2049776 201.16425 57.2049776 196.31325 50.9604776 196.281 50.9604776 196.281 57.2049776 193.63275 57.2049776 193.63275 47.0124776"></polyline>
                <polyline id="Fill-49" fill="#022851" points="210.7875 57.2049776 208.14075 57.2049776 208.14075 49.2572276 205.9485 49.2572276 205.9485 47.0124776 212.97975 47.0124776 212.97975 49.2572276 210.7875 49.2572276 210.7875 57.2049776"></polyline>
                <path d="M218.92125,50.1609776 L218.895,50.1609776 L217.79925,53.4084776 L220.0035,53.4084776 L218.92125,50.1609776 Z M217.06575,55.4349776 L216.36675,57.2049776 L213.55425,57.2049776 L217.476,47.0124776 L220.36725,47.0124776 L224.2095,57.2049776 L221.3835,57.2049776 L220.7175,55.4349776 L217.06575,55.4349776 L217.06575,55.4349776 Z" id="Fill-50" fill="#022851"></path>
                <polyline id="Fill-51" fill="#022851" points="229.20225 54.9609776 232.3845 54.9609776 232.3845 57.2057276 226.55475 57.2057276 226.55475 47.0117276 229.20225 47.0117276 229.20225 54.9609776"></polyline>
                <path d="M246.18525,49.6329776 C245.9385,49.4312276 245.6655,49.2677276 245.367,49.1447276 C245.06625,49.0209776 244.75425,48.9594776 244.42875,48.9594776 C244.305,48.9594776 244.17825,48.9782276 244.0455,49.0119776 C243.91425,49.0479776 243.79125,49.1012276 243.68025,49.1709776 C243.567,49.2422276 243.474,49.3307276 243.402,49.4387276 C243.33,49.5467276 243.29325,49.6704776 243.29325,49.8107276 C243.29325,49.9607276 243.333,50.0889776 243.4125,50.1939776 C243.49125,50.2997276 243.591,50.3897276 243.7095,50.4647276 C243.828,50.5389776 243.9555,50.6027276 244.092,50.6529776 C244.22775,50.7039776 244.3545,50.7467276 244.46925,50.7812276 L245.14125,50.9867276 C245.49825,51.0924776 245.829,51.2177276 246.135,51.3662276 C246.44025,51.5132276 246.70725,51.6969776 246.93075,51.9174776 C247.15575,52.1372276 247.332,52.3982276 247.46325,52.6997276 C247.5915,53.0004776 247.6575,53.3589776 247.6575,53.7722276 C247.6575,54.0227276 247.641,54.2754776 247.608,54.5274776 C247.575,54.7809776 247.51725,55.0262276 247.43625,55.2639776 C247.3545,55.5017276 247.24575,55.7274776 247.10925,55.9412276 C246.97275,56.1542276 246.8025,56.3462276 246.6,56.5179776 C246.20025,56.8577276 245.74875,57.1014776 245.244,57.2507276 C244.74,57.4014776 244.22775,57.4757276 243.7095,57.4757276 C243.06675,57.4757276 242.439,57.3729776 241.8285,57.1682276 C241.2165,56.9634776 240.64875,56.6792276 240.126,56.3139776 L241.26,54.1742276 C241.428,54.3212276 241.602,54.4569776 241.782,54.5844776 C241.962,54.7119776 242.15175,54.8237276 242.34825,54.9212276 C242.5485,55.0172276 242.751,55.0937276 242.96325,55.1484776 C243.174,55.2032276 243.39225,55.2317276 243.61725,55.2317276 C243.771,55.2317276 243.9255,55.2114776 244.07925,55.1724776 C244.23225,55.1319776 244.371,55.0704776 244.491,54.9872276 C244.61325,54.9024776 244.7115,54.7967276 244.78575,54.6669776 C244.86075,54.5364776 244.8975,54.3819776 244.8975,54.2019776 C244.8975,54.0167276 244.8405,53.8599776 244.72575,53.7332276 C244.61175,53.6049776 244.4715,53.4954776 244.30575,53.4047276 C244.1415,53.3154776 243.9675,53.2419776 243.78225,53.1842276 C243.597,53.1279776 243.43425,53.0792276 243.29325,53.0394776 C242.8755,52.9202276 242.49675,52.7964776 242.15775,52.6697276 C241.8195,52.5414776 241.53075,52.3734776 241.29,52.1649776 C241.05,51.9564776 240.864,51.6924776 240.73275,51.3759776 C240.6,51.0587276 240.53325,50.6537276 240.53325,50.1602276 C240.53325,49.6464776 240.62025,49.1777276 240.7935,48.7547276 C240.969,48.3324776 241.21275,47.9724776 241.524,47.6754776 C241.83675,47.3792276 242.20725,47.1489776 242.63625,46.9854776 C243.066,46.8227276 243.5355,46.7417276 244.0455,46.7417276 C244.30125,46.7417276 244.569,46.7612276 244.851,46.8009776 C245.13225,46.8407276 245.412,46.8969776 245.6895,46.9689776 C245.967,47.0417276 246.23775,47.1302276 246.501,47.2337276 C246.765,47.3372276 247.01175,47.4527276 247.24125,47.5802276 L246.18525,49.6329776" id="Fill-52" fill="#022851"></path>
                <path d="M257.45025,50.4317276 C257.3145,50.2464776 257.15775,50.0859776 256.98525,49.9472276 C256.812,49.8077276 256.6245,49.6914776 256.4235,49.5962276 C256.224,49.5017276 256.014,49.4319776 255.7935,49.3824776 C255.5745,49.3337276 255.351,49.3097276 255.126,49.3097276 C254.72175,49.3097276 254.35275,49.3824776 254.01825,49.5272276 C253.683,49.6727276 253.3965,49.8729776 253.16025,50.1279776 C252.92175,50.3829776 252.73725,50.6822276 252.60525,51.0264776 C252.47325,51.3699776 252.40725,51.7397276 252.40725,52.1349776 C252.40725,52.5399776 252.47325,52.9112276 252.60525,53.2502276 C252.73725,53.5892276 252.92325,53.8817276 253.1655,54.1254776 C253.40775,54.3692276 253.69875,54.5604776 254.037,54.6999776 C254.376,54.8379776 254.7525,54.9069776 255.1665,54.9069776 C255.38175,54.9069776 255.59625,54.8822276 255.81,54.8319776 C256.02375,54.7802276 256.2285,54.7082276 256.4235,54.6144776 C256.62075,54.5199776 256.80525,54.4052276 256.97775,54.2739776 C257.15175,54.1419776 257.31075,53.9927276 257.45025,53.8247276 L257.45025,57.0002276 C257.22975,57.0662276 257.02425,57.1284776 256.83,57.1884776 C256.6365,57.2469776 256.4475,57.2987276 256.26225,57.3399776 C256.07775,57.3819776 255.891,57.4157276 255.70425,57.4397276 C255.5175,57.4637276 255.321,57.4757276 255.114,57.4757276 C254.4,57.4757276 253.7175,57.3452276 253.0635,57.0864776 C252.41025,56.8269776 251.817,56.4564776 251.2845,55.9764776 C250.72125,55.4664776 250.308,54.8867276 250.044,54.2372276 C249.78,53.5884776 249.64875,52.8827276 249.64875,52.1214776 C249.64875,51.4224776 249.7755,50.7504776 250.0305,50.1084776 C250.2855,49.4657276 250.65975,48.8942276 251.15325,48.3917276 C251.40375,48.1367276 251.67975,47.9064776 251.9775,47.7017276 C252.27675,47.4984776 252.59325,47.3237276 252.9255,47.1804776 C253.2585,47.0379776 253.60125,46.9284776 253.95825,46.8534776 C254.31525,46.7792276 254.6715,46.7417276 255.02775,46.7417276 C255.45525,46.7417276 255.867,46.7867276 256.26225,46.8774776 C256.65825,46.9674776 257.05575,47.0934776 257.45025,47.2562276 L257.45025,50.4317276" id="Fill-53" fill="#022851"></path>
                <polygon id="Fill-54" fill="#022851" points="260.439 57.2034776 263.08725 57.2034776 263.08725 47.0117276 260.439 47.0117276"></polygon>
                <polyline id="Fill-55" fill="#022851" points="268.797 49.2572276 268.797 50.9604776 271.7865 50.9604776 271.7865 53.2052276 268.797 53.2052276 268.797 54.9609776 271.95225 54.9609776 271.95225 57.2042276 266.1495 57.2042276 266.1495 47.0117276 271.95225 47.0117276 271.95225 49.2572276 268.797 49.2572276"></polyline>
                <polyline id="Fill-56" fill="#022851" points="275.19075 47.0124776 277.83825 47.0124776 282.6975 53.2442276 282.72225 53.2442276 282.72225 47.0124776 285.37125 47.0124776 285.37125 57.2049776 282.72225 57.2049776 277.872 50.9604776 277.83825 50.9604776 277.83825 57.2049776 275.19075 57.2049776 275.19075 47.0124776"></polyline>
                <path d="M295.44225,50.4317276 C295.3065,50.2464776 295.1505,50.0859776 294.97725,49.9472276 C294.804,49.8077276 294.6165,49.6914776 294.4155,49.5962276 C294.21675,49.5017276 294.00525,49.4319776 293.78475,49.3824776 C293.56575,49.3337276 293.34375,49.3097276 293.11875,49.3097276 C292.7145,49.3097276 292.34475,49.3824776 292.0095,49.5272276 C291.675,49.6727276 291.3885,49.8729776 291.15225,50.1279776 C290.91375,50.3829776 290.72925,50.6822276 290.59725,51.0264776 C290.46525,51.3699776 290.39925,51.7397276 290.39925,52.1349776 C290.39925,52.5399776 290.46525,52.9112276 290.59725,53.2502276 C290.72925,53.5892276 290.91525,53.8817276 291.1575,54.1254776 C291.4005,54.3692276 291.69075,54.5604776 292.02975,54.6999776 C292.3695,54.8379776 292.7445,54.9069776 293.1585,54.9069776 C293.3745,54.9069776 293.58825,54.8822276 293.802,54.8319776 C294.015,54.7802276 294.21975,54.7082276 294.4155,54.6144776 C294.612,54.5199776 294.79725,54.4052276 294.96975,54.2739776 C295.14375,54.1419776 295.302,53.9927276 295.44225,53.8247276 L295.44225,57.0002276 C295.221,57.0662276 295.0155,57.1284776 294.82125,57.1884776 C294.62775,57.2469776 294.43875,57.2987276 294.25425,57.3399776 C294.06975,57.3819776 293.883,57.4157276 293.6955,57.4397276 C293.50875,57.4637276 293.313,57.4757276 293.106,57.4757276 C292.392,57.4757276 291.70875,57.3452276 291.0555,57.0864776 C290.40225,56.8269776 289.809,56.4564776 289.27725,55.9764776 C288.71325,55.4664776 288.29925,54.8867276 288.03525,54.2372276 C287.77125,53.5884776 287.64,52.8827276 287.64,52.1214776 C287.64,51.4224776 287.76675,50.7504776 288.02175,50.1084776 C288.2775,49.4657276 288.6525,48.8942276 289.1445,48.3917276 C289.39575,48.1367276 289.671,47.9064776 289.9695,47.7017276 C290.26875,47.4984776 290.5845,47.3237276 290.91675,47.1804776 C291.24975,47.0379776 291.594,46.9284776 291.951,46.8534776 C292.30725,46.7792276 292.66275,46.7417276 293.0205,46.7417276 C293.4465,46.7417276 293.85825,46.7867276 294.25425,46.8774776 C294.651,46.9674776 295.047,47.0934776 295.44225,47.2562276 L295.44225,50.4317276" id="Fill-57" fill="#022851"></path>
                <polyline id="Fill-58" fill="#022851" points="301.0695 49.2572276 301.0695 50.9604776 304.0605 50.9604776 304.0605 53.2052276 301.0695 53.2052276 301.0695 54.9609776 304.224 54.9609776 304.224 57.2042276 298.422 57.2042276 298.422 47.0117276 304.224 47.0117276 304.224 49.2572276 301.0695 49.2572276"></polyline>
                <path d="M312.64575,49.6329776 C312.399,49.4312276 312.126,49.2677276 311.82675,49.1447276 C311.5275,49.0209776 311.21625,48.9594776 310.89,48.9594776 C310.76625,48.9594776 310.63875,48.9782276 310.50675,49.0119776 C310.37475,49.0479776 310.2525,49.1012276 310.14075,49.1709776 C310.029,49.2422276 309.93525,49.3307276 309.8625,49.4387276 C309.7905,49.5467276 309.75375,49.6704776 309.75375,49.8107276 C309.75375,49.9607276 309.7935,50.0889776 309.87375,50.1939776 C309.9525,50.2997276 310.05075,50.3897276 310.17075,50.4647276 C310.2885,50.5389776 310.416,50.6027276 310.5525,50.6529776 C310.689,50.7039776 310.81425,50.7467276 310.92975,50.7812276 L311.60175,50.9867276 C311.95875,51.0924776 312.29025,51.2177276 312.59625,51.3662276 C312.90225,51.5132276 313.16775,51.6969776 313.39125,51.9174776 C313.61625,52.1372276 313.79325,52.3982276 313.92225,52.6997276 C314.05275,53.0004776 314.118,53.3589776 314.118,53.7722276 C314.118,54.0227276 314.10075,54.2754776 314.06775,54.5274776 C314.0355,54.7809776 313.97775,55.0262276 313.89675,55.2639776 C313.81425,55.5017276 313.70625,55.7274776 313.56975,55.9412276 C313.43325,56.1542276 313.26375,56.3462276 313.062,56.5179776 C312.66075,56.8577276 312.20925,57.1014776 311.7045,57.2507276 C311.20125,57.4014776 310.689,57.4757276 310.17075,57.4757276 C309.528,57.4757276 308.90025,57.3729776 308.289,57.1682276 C307.67775,56.9634776 307.10925,56.6792276 306.5865,56.3139776 L307.72125,54.1742276 C307.8885,54.3212276 308.06175,54.4569776 308.2425,54.5844776 C308.4225,54.7119776 308.61225,54.8237276 308.81025,54.9212276 C309.009,55.0172276 309.213,55.0937276 309.4245,55.1484776 C309.63525,55.2032276 309.85275,55.2317276 310.07775,55.2317276 C310.2315,55.2317276 310.386,55.2114776 310.53975,55.1724776 C310.6935,55.1319776 310.8315,55.0704776 310.95225,54.9872276 C311.07375,54.9024776 311.1705,54.7967276 311.24625,54.6669776 C311.3205,54.5364776 311.35875,54.3819776 311.35875,54.2019776 C311.35875,54.0167276 311.30175,53.8599776 311.187,53.7332276 C311.07225,53.6049776 310.93275,53.4954776 310.767,53.4047276 C310.60275,53.3154776 310.428,53.2419776 310.2435,53.1842276 C310.059,53.1279776 309.89475,53.0792276 309.75375,53.0394776 C309.336,52.9202276 308.95725,52.7964776 308.619,52.6697276 C308.27925,52.5414776 307.98975,52.3734776 307.75125,52.1649776 C307.50975,51.9564776 307.3245,51.6924776 307.19175,51.3759776 C307.06125,51.0587276 306.99525,50.6537276 306.99525,50.1602276 C306.99525,49.6464776 307.0815,49.1777276 307.25475,48.7547276 C307.4295,48.3324776 307.67325,47.9724776 307.98525,47.6754776 C308.298,47.3792276 308.66775,47.1489776 309.09675,46.9854776 C309.52725,46.8227276 309.99675,46.7417276 310.50675,46.7417276 C310.76175,46.7417276 311.03025,46.7612276 311.31225,46.8009776 C311.59425,46.8407276 311.87325,46.8969776 312.15075,46.9689776 C312.4275,47.0417276 312.699,47.1302276 312.96225,47.2337276 C313.2255,47.3372276 313.47225,47.4527276 313.70175,47.5802276 L312.64575,49.6329776" id="Fill-59" fill="#022851"></path>
            </g>
        </g>
    </g>
</svg>