<?xml version="1.0" encoding="UTF-8"?>
<svg width="73px" height="14px" viewBox="0 0 73 14" version="1.1" xmlns="http://www.w3.org/2000/svg" xmlns:xlink="http://www.w3.org/1999/xlink">
    <title>harvest-logo</title>
    <g id="Symbols" stroke="none" stroke-width="1" fill="none" fill-rule="evenodd" fill-opacity="0.99">
        <path d="M3.01162115,13.7525773 L3.01162115,7.97938144 L9.69233004,7.97938144 L9.69233004,13.7525773 L12.7251598,13.7525773 L12.7251598,0 L9.69233004,0 L9.69233004,5.40206186 L3.01162115,5.40206186 L3.01162115,0 L0,0 L0,13.7525773 L3.01162115,13.7525773 Z M18.3454387,14 C19.6815805,14 20.8904707,13.5257732 21.5903544,12.7216495 L21.5903544,13.7525773 L24.2838466,13.7525773 L24.2838466,7.31958763 C24.2838466,4.45360825 22.141778,3.54639175 19.8088321,3.54639175 C18.1969785,3.54639175 16.5851249,4.04123711 15.3338175,5.11340206 L16.3518303,6.86597938 C17.2213829,6.08247423 18.2393957,5.69072165 19.3422429,5.69072165 C20.6995933,5.69072165 21.5903544,6.35051546 21.5903544,7.36082474 L21.5903544,8.70103093 C20.9116793,7.91752577 19.7027891,7.48453608 18.3454387,7.48453608 C16.7123765,7.48453608 14.782394,8.37113402 14.782394,10.7010309 C14.782394,12.9278351 16.7123765,14 18.3454387,14 Z M19.4270773,12.2268041 C18.3666473,12.2268041 17.4970947,11.6907216 17.4970947,10.7628866 C17.4970947,9.79381443 18.3666473,9.25773196 19.4270773,9.25773196 C20.2966299,9.25773196 21.1449739,9.54639175 21.5903544,10.1237113 L21.5903544,11.3608247 C21.1449739,11.9381443 20.2966299,12.2268041 19.4270773,12.2268041 Z M29.6496223,13.7525773 L29.6496223,7.17525773 C30.0950029,6.53608247 31.2826845,6.04123711 32.1734457,6.04123711 C32.4703661,6.04123711 32.7248693,6.06185567 32.9157467,6.10309278 L32.9157467,3.54639175 C31.6432307,3.54639175 30.3707147,4.26804124 29.6496223,5.15463918 L29.6496223,3.79381443 L26.9561302,3.79381443 L26.9561302,13.7525773 L29.6496223,13.7525773 Z M40.1478791,13.7525773 L44.2623475,3.79381443 L41.3567693,3.79381443 L38.6844858,10.7216495 L36.0122022,3.79381443 L33.1278327,3.79381443 L37.242301,13.7525773 L40.1478791,13.7525773 Z M50.2855898,14 C51.8762347,14 53.4880883,13.5257732 54.5061011,12.6185567 L53.3184195,10.9278351 C52.6609529,11.5463918 51.4520628,11.9175258 50.5825102,11.9175258 C48.843405,11.9175258 47.8041836,10.8659794 47.6345148,9.60824742 L55.2484021,9.60824742 L55.2484021,9.03092784 C55.2484021,5.77319588 53.1699593,3.54639175 50.115921,3.54639175 C46.9982568,3.54639175 44.8137711,5.87628866 44.8137711,8.7628866 C44.8137711,11.9587629 47.1679256,14 50.2855898,14 Z M52.6397443,7.83505155 L47.5920976,7.83505155 C47.7193492,6.84536082 48.4404416,5.62886598 50.115921,5.62886598 C51.8974433,5.62886598 52.5761185,6.88659794 52.6397443,7.83505155 Z M60.8898896,14 C63.731842,14 65.3224869,12.6185567 65.3224869,10.8041237 C65.3224869,6.78350515 59.2568274,8.02061856 59.2568274,6.53608247 C59.2568274,5.97938144 59.8930854,5.54639175 60.868681,5.54639175 C62.1199884,5.54639175 63.2864614,6.06185567 63.9015107,6.70103093 L64.9831493,4.90721649 C63.9651365,4.12371134 62.5865776,3.54639175 60.8474724,3.54639175 C58.1539802,3.54639175 56.6481697,5.01030928 56.6481697,6.68041237 C56.6481697,10.5979381 62.7350378,9.25773196 62.7350378,10.9072165 C62.7350378,11.5257732 62.1836142,11.9793814 61.0171412,11.9793814 C59.7446252,11.9793814 58.217606,11.2989691 57.4753051,10.6185567 L56.3088321,12.4536082 C57.3904707,13.4226804 59.1083672,14 60.8898896,14 Z M70.7518884,14 C71.8759442,14 72.5970366,13.7113402 73,13.3608247 L72.4273678,11.3814433 C72.2789076,11.5257732 71.8971528,11.6701031 71.4941894,11.6701031 C70.9003486,11.6701031 70.561011,11.1958763 70.561011,10.5773196 L70.561011,6.08247423 L72.6394538,6.08247423 L72.6394538,3.79381443 L70.561011,3.79381443 L70.561011,1.07216495 L67.8463103,1.07216495 L67.8463103,3.79381443 L66.1496223,3.79381443 L66.1496223,6.08247423 L67.8463103,6.08247423 L67.8463103,11.2783505 C67.8463103,13.0515464 68.8643231,14 70.7518884,14 Z" id="harvest-logo" fill="#1F1F1F" fill-rule="nonzero"></path>
    </g>
</svg>